<?xml version="1.0" encoding="utf-8" standalone="no"?>
<!DOCTYPE svg PUBLIC "-//W3C//DTD SVG 1.1//EN"
  "http://www.w3.org/Graphics/SVG/1.1/DTD/svg11.dtd">
<svg xmlns:xlink="http://www.w3.org/1999/xlink" width="360pt" height="360pt" viewBox="0 0 360 360" xmlns="http://www.w3.org/2000/svg" version="1.1">
 <metadata>
  <rdf:RDF xmlns:dc="http://purl.org/dc/elements/1.1/" xmlns:cc="http://creativecommons.org/ns#" xmlns:rdf="http://www.w3.org/1999/02/22-rdf-syntax-ns#">
   <cc:Work>
    <dc:type rdf:resource="http://purl.org/dc/dcmitype/StillImage"/>
    <dc:date>2024-06-04T10:03:51.958120</dc:date>
    <dc:format>image/svg+xml</dc:format>
    <dc:creator>
     <cc:Agent>
      <dc:title>Matplotlib v3.6.0, https://matplotlib.org/</dc:title>
     </cc:Agent>
    </dc:creator>
   </cc:Work>
  </rdf:RDF>
 </metadata>
 <defs>
  <style type="text/css">*{stroke-linejoin: round; stroke-linecap: butt}</style>
 </defs>
 <g id="figure_1">
  <g id="patch_1">
   <path d="M 0 360 
L 360 360 
L 360 0 
L 0 0 
z
" style="fill: #ffffff"/>
  </g>
  <g id="axes_1">
   <g id="patch_2">
    <path d="M 45 320.4 
L 324 320.4 
L 324 43.2 
L 45 43.2 
z
" style="fill: #ffffff"/>
   </g>
   <g id="matplotlib.axis_1">
    <g id="xtick_1">
     <g id="line2d_1">
      <path d="M 57.681818 320.4 
L 57.681818 43.2 
" clip-path="url(#p6c2dca2262)" style="fill: none; stroke-dasharray: 2.96,1.28; stroke-dashoffset: 0; stroke: #b0b0b0; stroke-width: 0.8"/>
     </g>
     <g id="line2d_2">
      <defs>
       <path id="m0d5dd81e97" d="M 0 0 
L 0 3.5 
" style="stroke: #000000; stroke-width: 0.8"/>
      </defs>
      <g>
       <use xlink:href="#m0d5dd81e97" x="57.681818" y="320.4" style="stroke: #000000; stroke-width: 0.8"/>
      </g>
     </g>
     <g id="text_1">
      <!-- 0.0 -->
      <g transform="translate(48.983381 334.998438) scale(0.1 -0.1)">
       <defs>
        <path id="DejaVuSerif-Bold-30" d="M 2228 275 
Q 2603 275 2742 615 
Q 2881 956 2881 2328 
Q 2881 3691 2742 4037 
Q 2603 4384 2228 4384 
Q 1853 4384 1714 4043 
Q 1575 3703 1575 2328 
Q 1575 956 1714 615 
Q 1853 275 2228 275 
z
M 2228 -91 
Q 1294 -91 797 532 
Q 300 1156 300 2328 
Q 300 3500 797 4125 
Q 1294 4750 2228 4750 
Q 3159 4750 3656 4125 
Q 4153 3500 4153 2328 
Q 4153 1156 3656 532 
Q 3159 -91 2228 -91 
z
" transform="scale(0.015625)"/>
        <path id="DejaVuSerif-Bold-2e" d="M 519 506 
Q 519 750 694 925 
Q 869 1100 1113 1100 
Q 1359 1100 1534 925 
Q 1709 750 1709 506 
Q 1709 259 1534 84 
Q 1359 -91 1113 -91 
Q 869 -91 694 84 
Q 519 259 519 506 
z
" transform="scale(0.015625)"/>
       </defs>
       <use xlink:href="#DejaVuSerif-Bold-30"/>
       <use xlink:href="#DejaVuSerif-Bold-2e" x="69.580078"/>
       <use xlink:href="#DejaVuSerif-Bold-30" x="104.394531"/>
      </g>
     </g>
    </g>
    <g id="xtick_2">
     <g id="line2d_3">
      <path d="M 108.409091 320.4 
L 108.409091 43.2 
" clip-path="url(#p6c2dca2262)" style="fill: none; stroke-dasharray: 2.96,1.28; stroke-dashoffset: 0; stroke: #b0b0b0; stroke-width: 0.8"/>
     </g>
     <g id="line2d_4">
      <g>
       <use xlink:href="#m0d5dd81e97" x="108.409091" y="320.4" style="stroke: #000000; stroke-width: 0.8"/>
      </g>
     </g>
     <g id="text_2">
      <!-- 0.2 -->
      <g transform="translate(99.710653 334.998438) scale(0.1 -0.1)">
       <defs>
        <path id="DejaVuSerif-Bold-32" d="M 844 3513 
L 469 3513 
L 469 4519 
Q 850 4634 1223 4692 
Q 1597 4750 1978 4750 
Q 2869 4750 3367 4386 
Q 3866 4022 3866 3372 
Q 3866 2909 3591 2542 
Q 3316 2175 2541 1672 
L 1241 819 
L 3450 819 
L 3450 1369 
L 3878 1369 
L 3878 0 
L 428 0 
L 428 763 
L 1119 1241 
Q 2003 1850 2297 2278 
Q 2591 2706 2591 3278 
Q 2591 3819 2367 4101 
Q 2144 4384 1716 4384 
Q 1347 4384 1125 4161 
Q 903 3938 844 3513 
z
" transform="scale(0.015625)"/>
       </defs>
       <use xlink:href="#DejaVuSerif-Bold-30"/>
       <use xlink:href="#DejaVuSerif-Bold-2e" x="69.580078"/>
       <use xlink:href="#DejaVuSerif-Bold-32" x="104.394531"/>
      </g>
     </g>
    </g>
    <g id="xtick_3">
     <g id="line2d_5">
      <path d="M 159.136364 320.4 
L 159.136364 43.2 
" clip-path="url(#p6c2dca2262)" style="fill: none; stroke-dasharray: 2.96,1.28; stroke-dashoffset: 0; stroke: #b0b0b0; stroke-width: 0.8"/>
     </g>
     <g id="line2d_6">
      <g>
       <use xlink:href="#m0d5dd81e97" x="159.136364" y="320.4" style="stroke: #000000; stroke-width: 0.8"/>
      </g>
     </g>
     <g id="text_3">
      <!-- 0.4 -->
      <g transform="translate(150.437926 334.998438) scale(0.1 -0.1)">
       <defs>
        <path id="DejaVuSerif-Bold-34" d="M 4084 0 
L 1516 0 
L 1516 378 
L 2209 378 
L 2209 1228 
L 263 1228 
L 263 1588 
L 2216 4750 
L 3391 4750 
L 3391 1631 
L 4191 1631 
L 4191 1228 
L 3391 1228 
L 3391 378 
L 4084 378 
L 4084 0 
z
M 2209 1631 
L 2209 3897 
L 819 1631 
L 2209 1631 
z
" transform="scale(0.015625)"/>
       </defs>
       <use xlink:href="#DejaVuSerif-Bold-30"/>
       <use xlink:href="#DejaVuSerif-Bold-2e" x="69.580078"/>
       <use xlink:href="#DejaVuSerif-Bold-34" x="104.394531"/>
      </g>
     </g>
    </g>
    <g id="xtick_4">
     <g id="line2d_7">
      <path d="M 209.863636 320.4 
L 209.863636 43.2 
" clip-path="url(#p6c2dca2262)" style="fill: none; stroke-dasharray: 2.96,1.28; stroke-dashoffset: 0; stroke: #b0b0b0; stroke-width: 0.8"/>
     </g>
     <g id="line2d_8">
      <g>
       <use xlink:href="#m0d5dd81e97" x="209.863636" y="320.4" style="stroke: #000000; stroke-width: 0.8"/>
      </g>
     </g>
     <g id="text_4">
      <!-- 0.6 -->
      <g transform="translate(201.165199 334.998438) scale(0.1 -0.1)">
       <defs>
        <path id="DejaVuSerif-Bold-36" d="M 1575 2766 
Q 1778 2928 2029 3009 
Q 2281 3091 2578 3091 
Q 3294 3091 3701 2672 
Q 4109 2253 4109 1522 
Q 4109 750 3650 329 
Q 3191 -91 2344 -91 
Q 1388 -91 895 486 
Q 403 1063 403 2181 
Q 403 3453 950 4101 
Q 1497 4750 2572 4750 
Q 2853 4750 3175 4703 
Q 3497 4656 3866 4563 
L 3866 3738 
L 3488 3738 
Q 3409 4056 3192 4220 
Q 2975 4384 2631 4384 
Q 2075 4384 1826 4003 
Q 1578 3622 1575 2766 
z
M 2272 275 
Q 2594 275 2731 548 
Q 2869 822 2869 1497 
Q 2869 2172 2731 2445 
Q 2594 2719 2272 2719 
Q 1950 2719 1814 2445 
Q 1678 2172 1678 1497 
Q 1678 822 1814 548 
Q 1950 275 2272 275 
z
" transform="scale(0.015625)"/>
       </defs>
       <use xlink:href="#DejaVuSerif-Bold-30"/>
       <use xlink:href="#DejaVuSerif-Bold-2e" x="69.580078"/>
       <use xlink:href="#DejaVuSerif-Bold-36" x="104.394531"/>
      </g>
     </g>
    </g>
    <g id="xtick_5">
     <g id="line2d_9">
      <path d="M 260.590909 320.4 
L 260.590909 43.2 
" clip-path="url(#p6c2dca2262)" style="fill: none; stroke-dasharray: 2.96,1.28; stroke-dashoffset: 0; stroke: #b0b0b0; stroke-width: 0.8"/>
     </g>
     <g id="line2d_10">
      <g>
       <use xlink:href="#m0d5dd81e97" x="260.590909" y="320.4" style="stroke: #000000; stroke-width: 0.8"/>
      </g>
     </g>
     <g id="text_5">
      <!-- 0.8 -->
      <g transform="translate(251.892472 334.998438) scale(0.1 -0.1)">
       <defs>
        <path id="DejaVuSerif-Bold-38" d="M 2975 2484 
Q 3531 2394 3820 2075 
Q 4109 1756 4109 1241 
Q 4109 597 3623 253 
Q 3138 -91 2222 -91 
Q 1306 -91 818 253 
Q 331 597 331 1241 
Q 331 1756 622 2075 
Q 913 2394 1466 2484 
Q 975 2597 731 2861 
Q 488 3125 488 3531 
Q 488 4125 931 4437 
Q 1375 4750 2222 4750 
Q 3066 4750 3511 4437 
Q 3956 4125 3956 3531 
Q 3956 3125 3711 2861 
Q 3466 2597 2975 2484 
z
M 2747 3519 
Q 2747 4013 2628 4198 
Q 2509 4384 2222 4384 
Q 1931 4384 1814 4198 
Q 1697 4013 1697 3519 
Q 1697 3028 1814 2845 
Q 1931 2663 2222 2663 
Q 2513 2663 2630 2845 
Q 2747 3028 2747 3519 
z
M 2869 1294 
Q 2869 1866 2723 2081 
Q 2578 2297 2222 2297 
Q 1863 2297 1719 2081 
Q 1575 1866 1575 1294 
Q 1575 716 1720 495 
Q 1866 275 2222 275 
Q 2575 275 2722 495 
Q 2869 716 2869 1294 
z
" transform="scale(0.015625)"/>
       </defs>
       <use xlink:href="#DejaVuSerif-Bold-30"/>
       <use xlink:href="#DejaVuSerif-Bold-2e" x="69.580078"/>
       <use xlink:href="#DejaVuSerif-Bold-38" x="104.394531"/>
      </g>
     </g>
    </g>
    <g id="xtick_6">
     <g id="line2d_11">
      <path d="M 311.318182 320.4 
L 311.318182 43.2 
" clip-path="url(#p6c2dca2262)" style="fill: none; stroke-dasharray: 2.96,1.28; stroke-dashoffset: 0; stroke: #b0b0b0; stroke-width: 0.8"/>
     </g>
     <g id="line2d_12">
      <g>
       <use xlink:href="#m0d5dd81e97" x="311.318182" y="320.4" style="stroke: #000000; stroke-width: 0.8"/>
      </g>
     </g>
     <g id="text_6">
      <!-- 1.0 -->
      <g transform="translate(302.619744 334.998438) scale(0.1 -0.1)">
       <defs>
        <path id="DejaVuSerif-Bold-31" d="M 878 0 
L 878 378 
L 1753 378 
L 1753 4153 
L 781 3578 
L 781 4044 
L 1953 4750 
L 2938 4750 
L 2938 378 
L 3816 378 
L 3816 0 
L 878 0 
z
" transform="scale(0.015625)"/>
       </defs>
       <use xlink:href="#DejaVuSerif-Bold-31"/>
       <use xlink:href="#DejaVuSerif-Bold-2e" x="69.580078"/>
       <use xlink:href="#DejaVuSerif-Bold-30" x="104.394531"/>
      </g>
     </g>
    </g>
    <g id="text_7">
     <!-- False Positive Rate -->
     <g transform="translate(105.205078 352.475781) scale(0.15 -0.15)">
      <defs>
       <path id="DejaVuSerif-Bold-46" d="M 300 0 
L 300 378 
L 897 378 
L 897 4288 
L 300 4288 
L 300 4666 
L 4459 4666 
L 4459 3566 
L 4031 3566 
L 4031 4238 
L 2106 4238 
L 2106 2741 
L 3291 2741 
L 3291 3334 
L 3719 3334 
L 3719 1722 
L 3291 1722 
L 3291 2316 
L 2106 2316 
L 2106 378 
L 2841 378 
L 2841 0 
L 300 0 
z
" transform="scale(0.015625)"/>
       <path id="DejaVuSerif-Bold-61" d="M 3525 2041 
L 3525 378 
L 4000 378 
L 4000 0 
L 2419 0 
L 2419 422 
Q 2200 159 1931 34 
Q 1663 -91 1319 -91 
Q 809 -91 536 182 
Q 263 456 263 966 
Q 263 1525 655 1803 
Q 1047 2081 1838 2081 
L 2419 2081 
L 2419 2278 
Q 2419 2681 2228 2873 
Q 2038 3066 1638 3066 
Q 1306 3066 1126 2930 
Q 947 2794 872 2484 
L 519 2484 
L 519 3200 
Q 816 3306 1134 3359 
Q 1453 3413 1806 3413 
Q 2697 3413 3111 3081 
Q 3525 2750 3525 2041 
z
M 2419 1044 
L 2419 1709 
L 2003 1709 
Q 1694 1709 1528 1540 
Q 1363 1372 1363 1056 
Q 1363 741 1483 584 
Q 1603 428 1850 428 
Q 2106 428 2262 597 
Q 2419 766 2419 1044 
z
" transform="scale(0.015625)"/>
       <path id="DejaVuSerif-Bold-6c" d="M 1797 378 
L 2272 378 
L 2272 0 
L 219 0 
L 219 378 
L 691 378 
L 691 4488 
L 219 4488 
L 219 4863 
L 1797 4863 
L 1797 378 
z
" transform="scale(0.015625)"/>
       <path id="DejaVuSerif-Bold-73" d="M 300 97 
L 300 1025 
L 653 1025 
Q 697 653 931 458 
Q 1166 263 1569 263 
Q 1906 263 2086 380 
Q 2266 497 2266 716 
Q 2266 916 2152 1025 
Q 2038 1134 1709 1216 
L 1253 1331 
Q 738 1459 506 1698 
Q 275 1938 275 2344 
Q 275 2884 650 3148 
Q 1025 3413 1806 3413 
Q 2100 3413 2433 3364 
Q 2766 3316 3169 3213 
L 3169 2375 
L 2816 2375 
Q 2788 2716 2573 2887 
Q 2359 3059 1959 3059 
Q 1622 3059 1448 2951 
Q 1275 2844 1275 2638 
Q 1275 2469 1375 2372 
Q 1475 2275 1734 2209 
L 2188 2094 
Q 2841 1928 3091 1684 
Q 3341 1441 3341 1006 
Q 3341 444 2939 176 
Q 2538 -91 1691 -91 
Q 1381 -91 1034 -44 
Q 688 3 300 97 
z
" transform="scale(0.015625)"/>
       <path id="DejaVuSerif-Bold-65" d="M 2566 1875 
Q 2566 2531 2444 2795 
Q 2322 3059 2028 3059 
Q 1744 3059 1620 2800 
Q 1497 2541 1497 1931 
L 1497 1875 
L 2566 1875 
z
M 3781 1503 
L 1497 1503 
L 1497 1478 
Q 1497 834 1690 548 
Q 1884 263 2316 263 
Q 2675 263 2897 453 
Q 3119 644 3181 1006 
L 3700 1006 
Q 3566 441 3166 175 
Q 2766 -91 2047 -91 
Q 1184 -91 723 364 
Q 263 819 263 1663 
Q 263 2488 734 2950 
Q 1206 3413 2047 3413 
Q 2872 3413 3312 2927 
Q 3753 2441 3781 1503 
z
" transform="scale(0.015625)"/>
       <path id="DejaVuSerif-Bold-20" transform="scale(0.015625)"/>
       <path id="DejaVuSerif-Bold-50" d="M 300 0 
L 300 378 
L 897 378 
L 897 4288 
L 300 4288 
L 300 4666 
L 2956 4666 
Q 3734 4666 4193 4295 
Q 4653 3925 4653 3303 
Q 4653 2678 4192 2304 
Q 3731 1931 2956 1931 
L 2100 1931 
L 2100 378 
L 2853 378 
L 2853 0 
L 300 0 
z
M 2100 2309 
L 2450 2309 
Q 2856 2309 3098 2579 
Q 3341 2850 3341 3303 
Q 3341 3753 3100 4020 
Q 2859 4288 2450 4288 
L 2100 4288 
L 2100 2309 
z
" transform="scale(0.015625)"/>
       <path id="DejaVuSerif-Bold-6f" d="M 2138 263 
Q 2488 263 2630 563 
Q 2772 863 2772 1663 
Q 2772 2463 2631 2761 
Q 2491 3059 2138 3059 
Q 1784 3059 1640 2757 
Q 1497 2456 1497 1663 
Q 1497 869 1640 566 
Q 1784 263 2138 263 
z
M 2138 -91 
Q 1259 -91 761 376 
Q 263 844 263 1663 
Q 263 2484 761 2948 
Q 1259 3413 2138 3413 
Q 3019 3413 3516 2948 
Q 4013 2484 4013 1663 
Q 4013 844 3514 376 
Q 3016 -91 2138 -91 
z
" transform="scale(0.015625)"/>
       <path id="DejaVuSerif-Bold-69" d="M 588 4263 
Q 588 4516 763 4689 
Q 938 4863 1191 4863 
Q 1438 4863 1611 4689 
Q 1784 4516 1784 4263 
Q 1784 4016 1611 3842 
Q 1438 3669 1191 3669 
Q 938 3669 763 3841 
Q 588 4013 588 4263 
z
M 1797 378 
L 2272 378 
L 2272 0 
L 219 0 
L 219 378 
L 691 378 
L 691 2944 
L 219 2944 
L 219 3322 
L 1797 3322 
L 1797 378 
z
" transform="scale(0.015625)"/>
       <path id="DejaVuSerif-Bold-74" d="M 634 2944 
L 153 2944 
L 153 3322 
L 634 3322 
L 634 4353 
L 1741 4353 
L 1741 3322 
L 2663 3322 
L 2663 2944 
L 1741 2944 
L 1741 909 
Q 1741 475 1809 369 
Q 1878 263 2059 263 
Q 2259 263 2356 397 
Q 2453 531 2459 813 
L 2925 813 
Q 2897 313 2651 111 
Q 2406 -91 1806 -91 
Q 1122 -91 878 123 
Q 634 338 634 909 
L 634 2944 
z
" transform="scale(0.015625)"/>
       <path id="DejaVuSerif-Bold-76" d="M 1428 0 
L 250 2944 
L -116 2944 
L -116 3322 
L 1791 3322 
L 1791 2944 
L 1388 2944 
L 2228 844 
L 3066 2944 
L 2631 2944 
L 2631 3322 
L 3878 3322 
L 3878 2944 
L 3494 2944 
L 2316 0 
L 1428 0 
z
" transform="scale(0.015625)"/>
       <path id="DejaVuSerif-Bold-52" d="M 3397 2278 
Q 3675 2238 3865 2094 
Q 4056 1950 4197 1678 
L 4878 378 
L 5356 378 
L 5356 0 
L 3822 0 
L 3078 1409 
Q 2863 1847 2711 1967 
Q 2559 2088 2291 2088 
L 2100 2088 
L 2100 378 
L 2700 378 
L 2700 0 
L 300 0 
L 300 378 
L 897 378 
L 897 4288 
L 300 4288 
L 300 4666 
L 2963 4666 
Q 3775 4666 4217 4339 
Q 4659 4013 4659 3413 
Q 4659 2925 4345 2642 
Q 4031 2359 3397 2278 
z
M 2100 2463 
L 2509 2463 
Q 2947 2463 3183 2700 
Q 3419 2938 3419 3378 
Q 3419 3819 3183 4053 
Q 2947 4288 2509 4288 
L 2100 4288 
L 2100 2463 
z
" transform="scale(0.015625)"/>
      </defs>
      <use xlink:href="#DejaVuSerif-Bold-46"/>
      <use xlink:href="#DejaVuSerif-Bold-61" x="65.496094"/>
      <use xlink:href="#DejaVuSerif-Bold-6c" x="130.291016"/>
      <use xlink:href="#DejaVuSerif-Bold-73" x="168.279297"/>
      <use xlink:href="#DejaVuSerif-Bold-65" x="224.578125"/>
      <use xlink:href="#DejaVuSerif-Bold-20" x="288.201172"/>
      <use xlink:href="#DejaVuSerif-Bold-50" x="323.015625"/>
      <use xlink:href="#DejaVuSerif-Bold-6f" x="395.585938"/>
      <use xlink:href="#DejaVuSerif-Bold-73" x="462.285156"/>
      <use xlink:href="#DejaVuSerif-Bold-69" x="518.583984"/>
      <use xlink:href="#DejaVuSerif-Bold-74" x="556.572266"/>
      <use xlink:href="#DejaVuSerif-Bold-69" x="602.763672"/>
      <use xlink:href="#DejaVuSerif-Bold-76" x="640.751953"/>
      <use xlink:href="#DejaVuSerif-Bold-65" x="698.857422"/>
      <use xlink:href="#DejaVuSerif-Bold-20" x="762.480469"/>
      <use xlink:href="#DejaVuSerif-Bold-52" x="797.294922"/>
      <use xlink:href="#DejaVuSerif-Bold-61" x="882.650391"/>
      <use xlink:href="#DejaVuSerif-Bold-74" x="947.445312"/>
      <use xlink:href="#DejaVuSerif-Bold-65" x="993.636719"/>
     </g>
    </g>
   </g>
   <g id="matplotlib.axis_2">
    <g id="ytick_1">
     <g id="line2d_13">
      <path d="M 45 307.8 
L 324 307.8 
" clip-path="url(#p6c2dca2262)" style="fill: none; stroke-dasharray: 2.96,1.28; stroke-dashoffset: 0; stroke: #b0b0b0; stroke-width: 0.8"/>
     </g>
     <g id="line2d_14">
      <defs>
       <path id="mc40fe512f5" d="M 0 0 
L -3.5 0 
" style="stroke: #000000; stroke-width: 0.8"/>
      </defs>
      <g>
       <use xlink:href="#mc40fe512f5" x="45" y="307.8" style="stroke: #000000; stroke-width: 0.8"/>
      </g>
     </g>
     <g id="text_8">
      <!-- 0.0 -->
      <g transform="translate(20.603125 311.599219) scale(0.1 -0.1)">
       <use xlink:href="#DejaVuSerif-Bold-30"/>
       <use xlink:href="#DejaVuSerif-Bold-2e" x="69.580078"/>
       <use xlink:href="#DejaVuSerif-Bold-30" x="104.394531"/>
      </g>
     </g>
    </g>
    <g id="ytick_2">
     <g id="line2d_15">
      <path d="M 45 257.4 
L 324 257.4 
" clip-path="url(#p6c2dca2262)" style="fill: none; stroke-dasharray: 2.96,1.28; stroke-dashoffset: 0; stroke: #b0b0b0; stroke-width: 0.8"/>
     </g>
     <g id="line2d_16">
      <g>
       <use xlink:href="#mc40fe512f5" x="45" y="257.4" style="stroke: #000000; stroke-width: 0.8"/>
      </g>
     </g>
     <g id="text_9">
      <!-- 0.2 -->
      <g transform="translate(20.603125 261.199219) scale(0.1 -0.1)">
       <use xlink:href="#DejaVuSerif-Bold-30"/>
       <use xlink:href="#DejaVuSerif-Bold-2e" x="69.580078"/>
       <use xlink:href="#DejaVuSerif-Bold-32" x="104.394531"/>
      </g>
     </g>
    </g>
    <g id="ytick_3">
     <g id="line2d_17">
      <path d="M 45 207 
L 324 207 
" clip-path="url(#p6c2dca2262)" style="fill: none; stroke-dasharray: 2.96,1.28; stroke-dashoffset: 0; stroke: #b0b0b0; stroke-width: 0.8"/>
     </g>
     <g id="line2d_18">
      <g>
       <use xlink:href="#mc40fe512f5" x="45" y="207" style="stroke: #000000; stroke-width: 0.8"/>
      </g>
     </g>
     <g id="text_10">
      <!-- 0.4 -->
      <g transform="translate(20.603125 210.799219) scale(0.1 -0.1)">
       <use xlink:href="#DejaVuSerif-Bold-30"/>
       <use xlink:href="#DejaVuSerif-Bold-2e" x="69.580078"/>
       <use xlink:href="#DejaVuSerif-Bold-34" x="104.394531"/>
      </g>
     </g>
    </g>
    <g id="ytick_4">
     <g id="line2d_19">
      <path d="M 45 156.6 
L 324 156.6 
" clip-path="url(#p6c2dca2262)" style="fill: none; stroke-dasharray: 2.96,1.28; stroke-dashoffset: 0; stroke: #b0b0b0; stroke-width: 0.8"/>
     </g>
     <g id="line2d_20">
      <g>
       <use xlink:href="#mc40fe512f5" x="45" y="156.6" style="stroke: #000000; stroke-width: 0.8"/>
      </g>
     </g>
     <g id="text_11">
      <!-- 0.6 -->
      <g transform="translate(20.603125 160.399219) scale(0.1 -0.1)">
       <use xlink:href="#DejaVuSerif-Bold-30"/>
       <use xlink:href="#DejaVuSerif-Bold-2e" x="69.580078"/>
       <use xlink:href="#DejaVuSerif-Bold-36" x="104.394531"/>
      </g>
     </g>
    </g>
    <g id="ytick_5">
     <g id="line2d_21">
      <path d="M 45 106.2 
L 324 106.2 
" clip-path="url(#p6c2dca2262)" style="fill: none; stroke-dasharray: 2.96,1.28; stroke-dashoffset: 0; stroke: #b0b0b0; stroke-width: 0.8"/>
     </g>
     <g id="line2d_22">
      <g>
       <use xlink:href="#mc40fe512f5" x="45" y="106.2" style="stroke: #000000; stroke-width: 0.8"/>
      </g>
     </g>
     <g id="text_12">
      <!-- 0.8 -->
      <g transform="translate(20.603125 109.999219) scale(0.1 -0.1)">
       <use xlink:href="#DejaVuSerif-Bold-30"/>
       <use xlink:href="#DejaVuSerif-Bold-2e" x="69.580078"/>
       <use xlink:href="#DejaVuSerif-Bold-38" x="104.394531"/>
      </g>
     </g>
    </g>
    <g id="ytick_6">
     <g id="line2d_23">
      <path d="M 45 55.8 
L 324 55.8 
" clip-path="url(#p6c2dca2262)" style="fill: none; stroke-dasharray: 2.96,1.28; stroke-dashoffset: 0; stroke: #b0b0b0; stroke-width: 0.8"/>
     </g>
     <g id="line2d_24">
      <g>
       <use xlink:href="#mc40fe512f5" x="45" y="55.8" style="stroke: #000000; stroke-width: 0.8"/>
      </g>
     </g>
     <g id="text_13">
      <!-- 1.0 -->
      <g transform="translate(20.603125 59.599219) scale(0.1 -0.1)">
       <use xlink:href="#DejaVuSerif-Bold-31"/>
       <use xlink:href="#DejaVuSerif-Bold-2e" x="69.580078"/>
       <use xlink:href="#DejaVuSerif-Bold-30" x="104.394531"/>
      </g>
     </g>
    </g>
    <g id="text_14">
     <!-- True Positive Rate -->
     <g transform="translate(13.483594 258.69375) rotate(-90) scale(0.15 -0.15)">
      <defs>
       <path id="DejaVuSerif-Bold-54" d="M 1159 0 
L 1159 378 
L 1778 378 
L 1778 4238 
L 500 4238 
L 500 3500 
L 72 3500 
L 72 4666 
L 4697 4666 
L 4697 3500 
L 4275 3500 
L 4275 4238 
L 2988 4238 
L 2988 378 
L 3609 378 
L 3609 0 
L 1159 0 
z
" transform="scale(0.015625)"/>
       <path id="DejaVuSerif-Bold-72" d="M 3438 3359 
L 3438 2369 
L 3084 2369 
Q 3066 2634 2941 2764 
Q 2816 2894 2578 2894 
Q 2216 2894 2006 2575 
Q 1797 2256 1797 1691 
L 1797 378 
L 2400 378 
L 2400 0 
L 219 0 
L 219 378 
L 691 378 
L 691 2944 
L 184 2944 
L 184 3322 
L 1797 3322 
L 1797 2731 
Q 1959 3078 2226 3245 
Q 2494 3413 2881 3413 
Q 2978 3413 3117 3398 
Q 3256 3384 3438 3359 
z
" transform="scale(0.015625)"/>
       <path id="DejaVuSerif-Bold-75" d="M 3963 3322 
L 3963 378 
L 4434 378 
L 4434 0 
L 2853 0 
L 2853 469 
Q 2656 172 2400 40 
Q 2144 -91 1753 -91 
Q 1194 -91 908 239 
Q 622 569 622 1209 
L 622 2944 
L 147 2944 
L 147 3322 
L 1728 3322 
L 1728 1381 
Q 1728 763 1831 595 
Q 1934 428 2209 428 
Q 2544 428 2698 675 
Q 2853 922 2853 1459 
L 2853 2944 
L 2450 2944 
L 2450 3322 
L 3963 3322 
z
" transform="scale(0.015625)"/>
      </defs>
      <use xlink:href="#DejaVuSerif-Bold-54"/>
      <use xlink:href="#DejaVuSerif-Bold-72" x="67.164062"/>
      <use xlink:href="#DejaVuSerif-Bold-75" x="119.849609"/>
      <use xlink:href="#DejaVuSerif-Bold-65" x="192.554688"/>
      <use xlink:href="#DejaVuSerif-Bold-20" x="256.177734"/>
      <use xlink:href="#DejaVuSerif-Bold-50" x="290.992188"/>
      <use xlink:href="#DejaVuSerif-Bold-6f" x="363.5625"/>
      <use xlink:href="#DejaVuSerif-Bold-73" x="430.261719"/>
      <use xlink:href="#DejaVuSerif-Bold-69" x="486.560547"/>
      <use xlink:href="#DejaVuSerif-Bold-74" x="524.548828"/>
      <use xlink:href="#DejaVuSerif-Bold-69" x="570.740234"/>
      <use xlink:href="#DejaVuSerif-Bold-76" x="608.728516"/>
      <use xlink:href="#DejaVuSerif-Bold-65" x="666.833984"/>
      <use xlink:href="#DejaVuSerif-Bold-20" x="730.457031"/>
      <use xlink:href="#DejaVuSerif-Bold-52" x="765.271484"/>
      <use xlink:href="#DejaVuSerif-Bold-61" x="850.626953"/>
      <use xlink:href="#DejaVuSerif-Bold-74" x="915.421875"/>
      <use xlink:href="#DejaVuSerif-Bold-65" x="961.613281"/>
     </g>
    </g>
   </g>
   <g id="line2d_25">
    <path d="M 57.681818 307.8 
L 57.681818 306.594258 
L 57.681818 292.125359 
L 57.681818 288.508134 
L 57.681818 263.18756 
L 57.681818 260.776077 
L 57.681818 159.49378 
L 57.681818 157.082297 
L 57.681818 72.680383 
L 57.681818 70.2689 
L 57.681818 65.445933 
L 58.717069 64.240191 
L 58.717069 60.622967 
L 59.752319 60.622967 
L 61.82282 58.211483 
L 62.858071 58.211483 
L 62.858071 57.005742 
L 63.893321 55.8 
L 73.210575 55.8 
L 75.281076 55.8 
L 108.409091 55.8 
L 110.479592 55.8 
L 128.07885 55.8 
L 130.149351 55.8 
L 311.318182 55.8 
" clip-path="url(#p6c2dca2262)" style="fill: none; stroke: #5d9c59; stroke-width: 1.5; stroke-linecap: square"/>
   </g>
   <g id="line2d_26">
    <path d="M 57.681818 307.8 
L 57.681818 302.953846 
L 57.681818 181.8 
L 61.772727 181.8 
L 61.772727 147.876923 
L 65.863636 147.876923 
L 65.863636 143.030769 
L 69.954545 143.030769 
L 69.954545 128.492308 
L 74.045455 128.492308 
L 74.045455 123.646154 
L 90.409091 123.646154 
L 90.409091 118.8 
L 94.5 118.8 
L 94.5 113.953846 
L 98.590909 109.107692 
L 98.590909 104.261538 
L 102.681818 104.261538 
L 102.681818 99.415385 
L 114.954545 99.415385 
L 114.954545 94.569231 
L 119.045455 94.569231 
L 119.045455 89.723077 
L 123.136364 89.723077 
L 123.136364 80.030769 
L 131.318182 80.030769 
L 143.590909 80.030769 
L 143.590909 70.338462 
L 168.136364 70.338462 
L 168.136364 65.492308 
L 184.5 65.492308 
L 184.5 60.646154 
L 209.045455 60.646154 
L 209.045455 55.8 
L 311.318182 55.8 
" clip-path="url(#p6c2dca2262)" style="fill: none; stroke: #5463ff; stroke-width: 1.5; stroke-linecap: square"/>
   </g>
   <g id="line2d_27">
    <path d="M 57.681818 307.8 
L 311.318182 55.8 
" clip-path="url(#p6c2dca2262)" style="fill: none; stroke-dasharray: 5.55,2.4; stroke-dashoffset: 0; stroke: #000000; stroke-width: 1.5"/>
   </g>
   <g id="patch_3">
    <path d="M 45 320.4 
L 45 43.2 
" style="fill: none; stroke: #000000; stroke-width: 1.5; stroke-linejoin: miter; stroke-linecap: square"/>
   </g>
   <g id="patch_4">
    <path d="M 324 320.4 
L 324 43.2 
" style="fill: none; stroke: #000000; stroke-width: 1.5; stroke-linejoin: miter; stroke-linecap: square"/>
   </g>
   <g id="patch_5">
    <path d="M 45 320.4 
L 324 320.4 
" style="fill: none; stroke: #000000; stroke-width: 1.5; stroke-linejoin: miter; stroke-linecap: square"/>
   </g>
   <g id="patch_6">
    <path d="M 45 43.2 
L 324 43.2 
" style="fill: none; stroke: #000000; stroke-width: 1.5; stroke-linejoin: miter; stroke-linecap: square"/>
   </g>
   <g id="text_15">
    <!-- DNN-APFPs -->
    <g transform="translate(131.19375 37.2) scale(0.16 -0.16)">
     <defs>
      <path id="DejaVuSerif-Bold-44" d="M 2100 378 
L 2534 378 
Q 3266 378 3605 847 
Q 3944 1316 3944 2338 
Q 3944 3353 3606 3820 
Q 3269 4288 2534 4288 
L 2100 4288 
L 2100 378 
z
M 300 0 
L 300 378 
L 897 378 
L 897 4288 
L 300 4288 
L 300 4666 
L 2694 4666 
Q 3950 4666 4615 4066 
Q 5281 3466 5281 2338 
Q 5281 1203 4614 601 
Q 3947 0 2694 0 
L 300 0 
z
" transform="scale(0.015625)"/>
      <path id="DejaVuSerif-Bold-4e" d="M 281 0 
L 281 378 
L 878 378 
L 878 4288 
L 281 4288 
L 281 4666 
L 1741 4666 
L 4556 1363 
L 4556 4288 
L 3963 4288 
L 3963 4666 
L 5594 4666 
L 5594 4288 
L 4997 4288 
L 4997 0 
L 4178 0 
L 1319 3372 
L 1319 378 
L 1913 378 
L 1913 0 
L 281 0 
z
" transform="scale(0.015625)"/>
      <path id="DejaVuSerif-Bold-2d" d="M 347 2138 
L 2309 2138 
L 2309 1294 
L 347 1294 
L 347 2138 
z
" transform="scale(0.015625)"/>
      <path id="DejaVuSerif-Bold-41" d="M -50 0 
L -50 378 
L 331 378 
L 2088 4666 
L 2834 4666 
L 4594 378 
L 5038 378 
L 5038 0 
L 2853 0 
L 2853 378 
L 3309 378 
L 2925 1331 
L 1172 1331 
L 781 378 
L 1338 378 
L 1338 0 
L -50 0 
z
M 1325 1709 
L 2772 1709 
L 2053 3494 
L 1325 1709 
z
" transform="scale(0.015625)"/>
     </defs>
     <use xlink:href="#DejaVuSerif-Bold-44"/>
     <use xlink:href="#DejaVuSerif-Bold-4e" x="86.71875"/>
     <use xlink:href="#DejaVuSerif-Bold-4e" x="178.125"/>
     <use xlink:href="#DejaVuSerif-Bold-2d" x="269.53125"/>
     <use xlink:href="#DejaVuSerif-Bold-41" x="311.035156"/>
     <use xlink:href="#DejaVuSerif-Bold-50" x="388.623047"/>
     <use xlink:href="#DejaVuSerif-Bold-46" x="463.818359"/>
     <use xlink:href="#DejaVuSerif-Bold-50" x="534.814453"/>
     <use xlink:href="#DejaVuSerif-Bold-73" x="610.009766"/>
    </g>
   </g>
   <g id="legend_1">
    <g id="patch_7">
     <path d="M 141.975 315.4 
L 317 315.4 
Q 319 315.4 319 313.4 
L 319 285.04375 
Q 319 283.04375 317 283.04375 
L 141.975 283.04375 
Q 139.975 283.04375 139.975 285.04375 
L 139.975 313.4 
Q 139.975 315.4 141.975 315.4 
z
" style="fill: #ffffff; opacity: 0.8; stroke: #cccccc; stroke-linejoin: miter"/>
    </g>
    <g id="line2d_28">
     <path d="M 143.975 291.142187 
L 153.975 291.142187 
L 163.975 291.142187 
" style="fill: none; stroke: #5d9c59; stroke-width: 1.5; stroke-linecap: square"/>
    </g>
    <g id="text_16">
     <!-- DNN-Train (AUC = 1.000) -->
     <g transform="translate(171.975 294.642187) scale(0.1 -0.1)">
      <defs>
       <path id="DejaVuSerif-Bold-6e" d="M 219 0 
L 219 378 
L 691 378 
L 691 2944 
L 219 2944 
L 219 3322 
L 1797 3322 
L 1797 2853 
Q 1997 3150 2253 3281 
Q 2509 3413 2900 3413 
Q 3459 3413 3745 3083 
Q 4031 2753 4031 2113 
L 4031 378 
L 4506 378 
L 4506 0 
L 2522 0 
L 2522 378 
L 2925 378 
L 2925 2144 
Q 2925 2566 2817 2730 
Q 2709 2894 2444 2894 
Q 2109 2894 1953 2648 
Q 1797 2403 1797 1869 
L 1797 378 
L 2203 378 
L 2203 0 
L 219 0 
z
" transform="scale(0.015625)"/>
       <path id="DejaVuSerif-Bold-28" d="M 2694 -997 
Q 1641 -606 1122 122 
Q 603 850 603 1931 
Q 603 3013 1115 3731 
Q 1628 4450 2694 4863 
L 2694 4488 
Q 2200 4188 1983 3598 
Q 1766 3009 1766 1931 
Q 1766 856 1983 267 
Q 2200 -322 2694 -622 
L 2694 -997 
z
" transform="scale(0.015625)"/>
       <path id="DejaVuSerif-Bold-55" d="M 813 4288 
L 219 4288 
L 219 4666 
L 2619 4666 
L 2619 4288 
L 2022 4288 
L 2022 1953 
Q 2022 1081 2294 732 
Q 2566 384 3225 384 
Q 3869 384 4139 736 
Q 4409 1088 4409 1953 
L 4409 4288 
L 3816 4288 
L 3816 4666 
L 5441 4666 
L 5441 4288 
L 4844 4288 
L 4844 1888 
Q 4844 819 4381 364 
Q 3919 -91 2828 -91 
Q 1744 -91 1278 368 
Q 813 828 813 1894 
L 813 4288 
z
" transform="scale(0.015625)"/>
       <path id="DejaVuSerif-Bold-43" d="M 4769 1331 
Q 4584 609 4106 259 
Q 3628 -91 2822 -91 
Q 1641 -91 955 561 
Q 269 1213 269 2328 
Q 269 3447 955 4098 
Q 1641 4750 2822 4750 
Q 3238 4750 3688 4650 
Q 4138 4550 4641 4347 
L 4641 3200 
L 4244 3200 
Q 4122 3788 3800 4080 
Q 3478 4372 2950 4372 
Q 2269 4372 1937 3870 
Q 1606 3369 1606 2328 
Q 1606 1288 1937 788 
Q 2269 288 2956 288 
Q 3422 288 3717 547 
Q 4013 806 4147 1331 
L 4769 1331 
z
" transform="scale(0.015625)"/>
       <path id="DejaVuSerif-Bold-3d" d="M 678 1650 
L 4684 1650 
L 4684 941 
L 678 941 
L 678 1650 
z
M 678 3072 
L 4684 3072 
L 4684 2363 
L 678 2363 
L 678 3072 
z
" transform="scale(0.015625)"/>
       <path id="DejaVuSerif-Bold-29" d="M 325 -997 
L 325 -622 
Q 819 -322 1036 267 
Q 1253 856 1253 1931 
Q 1253 3009 1036 3598 
Q 819 4188 325 4488 
L 325 4863 
Q 1391 4450 1905 3731 
Q 2419 3013 2419 1931 
Q 2419 850 1898 122 
Q 1378 -606 325 -997 
z
" transform="scale(0.015625)"/>
      </defs>
      <use xlink:href="#DejaVuSerif-Bold-44"/>
      <use xlink:href="#DejaVuSerif-Bold-4e" x="86.71875"/>
      <use xlink:href="#DejaVuSerif-Bold-4e" x="178.125"/>
      <use xlink:href="#DejaVuSerif-Bold-2d" x="269.53125"/>
      <use xlink:href="#DejaVuSerif-Bold-54" x="294.535156"/>
      <use xlink:href="#DejaVuSerif-Bold-72" x="361.699219"/>
      <use xlink:href="#DejaVuSerif-Bold-61" x="414.384766"/>
      <use xlink:href="#DejaVuSerif-Bold-69" x="479.179688"/>
      <use xlink:href="#DejaVuSerif-Bold-6e" x="517.167969"/>
      <use xlink:href="#DejaVuSerif-Bold-20" x="589.873047"/>
      <use xlink:href="#DejaVuSerif-Bold-28" x="624.6875"/>
      <use xlink:href="#DejaVuSerif-Bold-41" x="672.001953"/>
      <use xlink:href="#DejaVuSerif-Bold-55" x="749.589844"/>
      <use xlink:href="#DejaVuSerif-Bold-43" x="836.796875"/>
      <use xlink:href="#DejaVuSerif-Bold-20" x="916.386719"/>
      <use xlink:href="#DejaVuSerif-Bold-3d" x="951.201172"/>
      <use xlink:href="#DejaVuSerif-Bold-20" x="1034.990234"/>
      <use xlink:href="#DejaVuSerif-Bold-31" x="1069.804688"/>
      <use xlink:href="#DejaVuSerif-Bold-2e" x="1139.384766"/>
      <use xlink:href="#DejaVuSerif-Bold-30" x="1174.199219"/>
      <use xlink:href="#DejaVuSerif-Bold-30" x="1243.779297"/>
      <use xlink:href="#DejaVuSerif-Bold-30" x="1313.359375"/>
      <use xlink:href="#DejaVuSerif-Bold-29" x="1382.939453"/>
     </g>
    </g>
    <g id="line2d_29">
     <path d="M 143.975 305.820312 
L 153.975 305.820312 
L 163.975 305.820312 
" style="fill: none; stroke: #5463ff; stroke-width: 1.5; stroke-linecap: square"/>
    </g>
    <g id="text_17">
     <!-- DNN-Test (AUC = 0.917) -->
     <g transform="translate(171.975 309.320312) scale(0.1 -0.1)">
      <defs>
       <path id="DejaVuSerif-Bold-39" d="M 2181 4384 
Q 1859 4384 1723 4111 
Q 1588 3838 1588 3163 
Q 1588 2488 1723 2214 
Q 1859 1941 2181 1941 
Q 2503 1941 2640 2214 
Q 2778 2488 2778 3163 
Q 2778 3838 2640 4111 
Q 2503 4384 2181 4384 
z
M 2878 1900 
Q 2672 1734 2420 1651 
Q 2169 1569 1875 1569 
Q 1163 1569 755 1986 
Q 347 2403 347 3138 
Q 347 3913 803 4331 
Q 1259 4750 2106 4750 
Q 3063 4750 3556 4172 
Q 4050 3594 4050 2478 
Q 4050 1206 3503 557 
Q 2956 -91 1881 -91 
Q 1600 -91 1278 -44 
Q 956 3 588 97 
L 588 922 
L 966 922 
Q 1044 603 1261 439 
Q 1478 275 1825 275 
Q 2375 275 2625 658 
Q 2875 1041 2878 1900 
z
" transform="scale(0.015625)"/>
       <path id="DejaVuSerif-Bold-37" d="M 3922 3872 
L 1997 0 
L 1363 0 
L 3238 3781 
L 934 3781 
L 934 3150 
L 506 3150 
L 506 4666 
L 3922 4666 
L 3922 3872 
z
" transform="scale(0.015625)"/>
      </defs>
      <use xlink:href="#DejaVuSerif-Bold-44"/>
      <use xlink:href="#DejaVuSerif-Bold-4e" x="86.71875"/>
      <use xlink:href="#DejaVuSerif-Bold-4e" x="178.125"/>
      <use xlink:href="#DejaVuSerif-Bold-2d" x="269.53125"/>
      <use xlink:href="#DejaVuSerif-Bold-54" x="294.535156"/>
      <use xlink:href="#DejaVuSerif-Bold-65" x="357.449219"/>
      <use xlink:href="#DejaVuSerif-Bold-73" x="421.072266"/>
      <use xlink:href="#DejaVuSerif-Bold-74" x="477.371094"/>
      <use xlink:href="#DejaVuSerif-Bold-20" x="523.5625"/>
      <use xlink:href="#DejaVuSerif-Bold-28" x="558.376953"/>
      <use xlink:href="#DejaVuSerif-Bold-41" x="605.691406"/>
      <use xlink:href="#DejaVuSerif-Bold-55" x="683.279297"/>
      <use xlink:href="#DejaVuSerif-Bold-43" x="770.486328"/>
      <use xlink:href="#DejaVuSerif-Bold-20" x="850.076172"/>
      <use xlink:href="#DejaVuSerif-Bold-3d" x="884.890625"/>
      <use xlink:href="#DejaVuSerif-Bold-20" x="968.679688"/>
      <use xlink:href="#DejaVuSerif-Bold-30" x="1003.494141"/>
      <use xlink:href="#DejaVuSerif-Bold-2e" x="1073.074219"/>
      <use xlink:href="#DejaVuSerif-Bold-39" x="1107.888672"/>
      <use xlink:href="#DejaVuSerif-Bold-31" x="1177.46875"/>
      <use xlink:href="#DejaVuSerif-Bold-37" x="1247.048828"/>
      <use xlink:href="#DejaVuSerif-Bold-29" x="1316.628906"/>
     </g>
    </g>
   </g>
  </g>
 </g>
 <defs>
  <clipPath id="p6c2dca2262">
   <rect x="45" y="43.2" width="279" height="277.2"/>
  </clipPath>
 </defs>
</svg>
