<?xml version="1.0" encoding="utf-8" standalone="no"?>
<!DOCTYPE svg PUBLIC "-//W3C//DTD SVG 1.1//EN"
  "http://www.w3.org/Graphics/SVG/1.1/DTD/svg11.dtd">
<svg xmlns:xlink="http://www.w3.org/1999/xlink" width="568.815625pt" height="532.505937pt" viewBox="0 0 568.815625 532.505937" xmlns="http://www.w3.org/2000/svg" version="1.1">
 <metadata>
  <rdf:RDF xmlns:dc="http://purl.org/dc/elements/1.1/" xmlns:cc="http://creativecommons.org/ns#" xmlns:rdf="http://www.w3.org/1999/02/22-rdf-syntax-ns#">
   <cc:Work>
    <dc:type rdf:resource="http://purl.org/dc/dcmitype/StillImage"/>
    <dc:date>2024-07-01T16:33:14.422995</dc:date>
    <dc:format>image/svg+xml</dc:format>
    <dc:creator>
     <cc:Agent>
      <dc:title>Matplotlib v3.6.0, https://matplotlib.org/</dc:title>
     </cc:Agent>
    </dc:creator>
   </cc:Work>
  </rdf:RDF>
 </metadata>
 <defs>
  <style type="text/css">*{stroke-linejoin: round; stroke-linecap: butt}</style>
 </defs>
 <g id="figure_1">
  <g id="patch_1">
   <path d="M 0 532.505937 
L 568.815625 532.505937 
L 568.815625 0 
L 0 0 
z
" style="fill: #ffffff"/>
  </g>
  <g id="axes_1">
   <g id="patch_2">
    <path d="M 113.755625 490.66 
L 561.615625 490.66 
L 561.615625 7.2 
L 113.755625 7.2 
z
" style="fill: #ffffff"/>
   </g>
   <g id="line2d_1">
    <path d="M 113.755625 490.66 
L 113.755625 7.2 
" clip-path="url(#pbd323e76be)" style="fill: none; stroke: #999999; stroke-width: 1.5; stroke-linecap: square"/>
   </g>
   <g id="patch_3">
    <path d="M 113.755625 471.019437 
L 214.047752 471.019437 
L 214.047752 449.868062 
L 113.755625 449.868062 
z
" clip-path="url(#pbd323e76be)" style="fill: #008bfb"/>
   </g>
   <g id="patch_4">
    <path d="M 113.755625 440.803187 
L 222.223084 440.803187 
L 222.223084 419.651812 
L 113.755625 419.651812 
z
" clip-path="url(#pbd323e76be)" style="fill: #008bfb"/>
   </g>
   <g id="patch_5">
    <path d="M 113.755625 410.586937 
L 223.195067 410.586937 
L 223.195067 389.435563 
L 113.755625 389.435563 
z
" clip-path="url(#pbd323e76be)" style="fill: #008bfb"/>
   </g>
   <g id="patch_6">
    <path d="M 113.755625 380.370687 
L 232.125715 380.370687 
L 232.125715 359.219312 
L 113.755625 359.219312 
z
" clip-path="url(#pbd323e76be)" style="fill: #008bfb"/>
   </g>
   <g id="patch_7">
    <path d="M 113.755625 350.154437 
L 232.272762 350.154437 
L 232.272762 329.003062 
L 113.755625 329.003062 
z
" clip-path="url(#pbd323e76be)" style="fill: #008bfb"/>
   </g>
   <g id="patch_8">
    <path d="M 113.755625 319.938187 
L 242.453757 319.938187 
L 242.453757 298.786812 
L 113.755625 298.786812 
z
" clip-path="url(#pbd323e76be)" style="fill: #008bfb"/>
   </g>
   <g id="patch_9">
    <path d="M 113.755625 289.721937 
L 260.471468 289.721937 
L 260.471468 268.570562 
L 113.755625 268.570562 
z
" clip-path="url(#pbd323e76be)" style="fill: #008bfb"/>
   </g>
   <g id="patch_10">
    <path d="M 113.755625 259.505687 
L 271.039197 259.505687 
L 271.039197 238.354312 
L 113.755625 238.354312 
z
" clip-path="url(#pbd323e76be)" style="fill: #008bfb"/>
   </g>
   <g id="patch_11">
    <path d="M 113.755625 229.289437 
L 282.848959 229.289437 
L 282.848959 208.138062 
L 113.755625 208.138062 
z
" clip-path="url(#pbd323e76be)" style="fill: #008bfb"/>
   </g>
   <g id="patch_12">
    <path d="M 113.755625 199.073187 
L 303.352835 199.073187 
L 303.352835 177.921812 
L 113.755625 177.921812 
z
" clip-path="url(#pbd323e76be)" style="fill: #008bfb"/>
   </g>
   <g id="patch_13">
    <path d="M 113.755625 168.856937 
L 329.004132 168.856937 
L 329.004132 147.705562 
L 113.755625 147.705562 
z
" clip-path="url(#pbd323e76be)" style="fill: #008bfb"/>
   </g>
   <g id="patch_14">
    <path d="M 113.755625 138.640687 
L 378.687459 138.640687 
L 378.687459 117.489312 
L 113.755625 117.489312 
z
" clip-path="url(#pbd323e76be)" style="fill: #008bfb"/>
   </g>
   <g id="patch_15">
    <path d="M 113.755625 108.424437 
L 399.454675 108.424437 
L 399.454675 87.273062 
L 113.755625 87.273062 
z
" clip-path="url(#pbd323e76be)" style="fill: #008bfb"/>
   </g>
   <g id="patch_16">
    <path d="M 113.755625 78.208187 
L 515.855623 78.208187 
L 515.855623 57.056812 
L 113.755625 57.056812 
z
" clip-path="url(#pbd323e76be)" style="fill: #008bfb"/>
   </g>
   <g id="patch_17">
    <path d="M 113.755625 47.991937 
L 540.288958 47.991937 
L 540.288958 26.840562 
L 113.755625 26.840562 
z
" clip-path="url(#pbd323e76be)" style="fill: #008bfb"/>
   </g>
   <g id="matplotlib.axis_1">
    <g id="xtick_1">
     <g id="line2d_2">
      <defs>
       <path id="m3976df5afb" d="M 0 0 
L 0 3.5 
" style="stroke: #333333; stroke-width: 0.8"/>
      </defs>
      <g>
       <use xlink:href="#m3976df5afb" x="113.755625" y="490.66" style="fill: #333333; stroke: #333333; stroke-width: 0.8"/>
      </g>
     </g>
     <g id="text_1">
      <!-- 0.0000 -->
      <g style="fill: #333333" transform="translate(92.706953 506.018281) scale(0.11 -0.11)">
       <defs>
        <path id="DejaVuSerif-Bold-30" d="M 2228 275 
Q 2603 275 2742 615 
Q 2881 956 2881 2328 
Q 2881 3691 2742 4037 
Q 2603 4384 2228 4384 
Q 1853 4384 1714 4043 
Q 1575 3703 1575 2328 
Q 1575 956 1714 615 
Q 1853 275 2228 275 
z
M 2228 -91 
Q 1294 -91 797 532 
Q 300 1156 300 2328 
Q 300 3500 797 4125 
Q 1294 4750 2228 4750 
Q 3159 4750 3656 4125 
Q 4153 3500 4153 2328 
Q 4153 1156 3656 532 
Q 3159 -91 2228 -91 
z
" transform="scale(0.015625)"/>
        <path id="DejaVuSerif-Bold-2e" d="M 519 506 
Q 519 750 694 925 
Q 869 1100 1113 1100 
Q 1359 1100 1534 925 
Q 1709 750 1709 506 
Q 1709 259 1534 84 
Q 1359 -91 1113 -91 
Q 869 -91 694 84 
Q 519 259 519 506 
z
" transform="scale(0.015625)"/>
       </defs>
       <use xlink:href="#DejaVuSerif-Bold-30"/>
       <use xlink:href="#DejaVuSerif-Bold-2e" x="69.580078"/>
       <use xlink:href="#DejaVuSerif-Bold-30" x="104.394531"/>
       <use xlink:href="#DejaVuSerif-Bold-30" x="173.974609"/>
       <use xlink:href="#DejaVuSerif-Bold-30" x="243.554688"/>
       <use xlink:href="#DejaVuSerif-Bold-30" x="313.134766"/>
      </g>
     </g>
    </g>
    <g id="xtick_2">
     <g id="line2d_3">
      <g>
       <use xlink:href="#m3976df5afb" x="173.286917" y="490.66" style="fill: #333333; stroke: #333333; stroke-width: 0.8"/>
      </g>
     </g>
     <g id="text_2">
      <!-- 0.0025 -->
      <g style="fill: #333333" transform="translate(152.238245 506.018281) scale(0.11 -0.11)">
       <defs>
        <path id="DejaVuSerif-Bold-32" d="M 844 3513 
L 469 3513 
L 469 4519 
Q 850 4634 1223 4692 
Q 1597 4750 1978 4750 
Q 2869 4750 3367 4386 
Q 3866 4022 3866 3372 
Q 3866 2909 3591 2542 
Q 3316 2175 2541 1672 
L 1241 819 
L 3450 819 
L 3450 1369 
L 3878 1369 
L 3878 0 
L 428 0 
L 428 763 
L 1119 1241 
Q 2003 1850 2297 2278 
Q 2591 2706 2591 3278 
Q 2591 3819 2367 4101 
Q 2144 4384 1716 4384 
Q 1347 4384 1125 4161 
Q 903 3938 844 3513 
z
" transform="scale(0.015625)"/>
        <path id="DejaVuSerif-Bold-35" d="M 3609 4666 
L 3609 3847 
L 1113 3847 
L 1113 2822 
Q 1319 2981 1572 3062 
Q 1825 3144 2106 3144 
Q 2969 3144 3469 2708 
Q 3969 2272 3969 1522 
Q 3969 759 3469 334 
Q 2969 -91 2069 -91 
Q 1688 -91 1311 -28 
Q 934 34 525 166 
L 525 1184 
L 900 1184 
Q 919 725 1139 500 
Q 1359 275 1791 275 
Q 2250 275 2472 583 
Q 2694 891 2694 1522 
Q 2694 2144 2476 2451 
Q 2259 2759 1819 2759 
Q 1581 2759 1395 2661 
Q 1209 2563 1050 2356 
L 738 2356 
L 738 4666 
L 3609 4666 
z
" transform="scale(0.015625)"/>
       </defs>
       <use xlink:href="#DejaVuSerif-Bold-30"/>
       <use xlink:href="#DejaVuSerif-Bold-2e" x="69.580078"/>
       <use xlink:href="#DejaVuSerif-Bold-30" x="104.394531"/>
       <use xlink:href="#DejaVuSerif-Bold-30" x="173.974609"/>
       <use xlink:href="#DejaVuSerif-Bold-32" x="243.554688"/>
       <use xlink:href="#DejaVuSerif-Bold-35" x="313.134766"/>
      </g>
     </g>
    </g>
    <g id="xtick_3">
     <g id="line2d_4">
      <g>
       <use xlink:href="#m3976df5afb" x="232.818209" y="490.66" style="fill: #333333; stroke: #333333; stroke-width: 0.8"/>
      </g>
     </g>
     <g id="text_3">
      <!-- 0.0050 -->
      <g style="fill: #333333" transform="translate(211.769537 506.018281) scale(0.11 -0.11)">
       <use xlink:href="#DejaVuSerif-Bold-30"/>
       <use xlink:href="#DejaVuSerif-Bold-2e" x="69.580078"/>
       <use xlink:href="#DejaVuSerif-Bold-30" x="104.394531"/>
       <use xlink:href="#DejaVuSerif-Bold-30" x="173.974609"/>
       <use xlink:href="#DejaVuSerif-Bold-35" x="243.554688"/>
       <use xlink:href="#DejaVuSerif-Bold-30" x="313.134766"/>
      </g>
     </g>
    </g>
    <g id="xtick_4">
     <g id="line2d_5">
      <g>
       <use xlink:href="#m3976df5afb" x="292.349501" y="490.66" style="fill: #333333; stroke: #333333; stroke-width: 0.8"/>
      </g>
     </g>
     <g id="text_4">
      <!-- 0.0075 -->
      <g style="fill: #333333" transform="translate(271.300829 506.018281) scale(0.11 -0.11)">
       <defs>
        <path id="DejaVuSerif-Bold-37" d="M 3922 3872 
L 1997 0 
L 1363 0 
L 3238 3781 
L 934 3781 
L 934 3150 
L 506 3150 
L 506 4666 
L 3922 4666 
L 3922 3872 
z
" transform="scale(0.015625)"/>
       </defs>
       <use xlink:href="#DejaVuSerif-Bold-30"/>
       <use xlink:href="#DejaVuSerif-Bold-2e" x="69.580078"/>
       <use xlink:href="#DejaVuSerif-Bold-30" x="104.394531"/>
       <use xlink:href="#DejaVuSerif-Bold-30" x="173.974609"/>
       <use xlink:href="#DejaVuSerif-Bold-37" x="243.554688"/>
       <use xlink:href="#DejaVuSerif-Bold-35" x="313.134766"/>
      </g>
     </g>
    </g>
    <g id="xtick_5">
     <g id="line2d_6">
      <g>
       <use xlink:href="#m3976df5afb" x="351.880793" y="490.66" style="fill: #333333; stroke: #333333; stroke-width: 0.8"/>
      </g>
     </g>
     <g id="text_5">
      <!-- 0.0100 -->
      <g style="fill: #333333" transform="translate(330.832121 506.018281) scale(0.11 -0.11)">
       <defs>
        <path id="DejaVuSerif-Bold-31" d="M 878 0 
L 878 378 
L 1753 378 
L 1753 4153 
L 781 3578 
L 781 4044 
L 1953 4750 
L 2938 4750 
L 2938 378 
L 3816 378 
L 3816 0 
L 878 0 
z
" transform="scale(0.015625)"/>
       </defs>
       <use xlink:href="#DejaVuSerif-Bold-30"/>
       <use xlink:href="#DejaVuSerif-Bold-2e" x="69.580078"/>
       <use xlink:href="#DejaVuSerif-Bold-30" x="104.394531"/>
       <use xlink:href="#DejaVuSerif-Bold-31" x="173.974609"/>
       <use xlink:href="#DejaVuSerif-Bold-30" x="243.554688"/>
       <use xlink:href="#DejaVuSerif-Bold-30" x="313.134766"/>
      </g>
     </g>
    </g>
    <g id="xtick_6">
     <g id="line2d_7">
      <g>
       <use xlink:href="#m3976df5afb" x="411.412085" y="490.66" style="fill: #333333; stroke: #333333; stroke-width: 0.8"/>
      </g>
     </g>
     <g id="text_6">
      <!-- 0.0125 -->
      <g style="fill: #333333" transform="translate(390.363413 506.018281) scale(0.11 -0.11)">
       <use xlink:href="#DejaVuSerif-Bold-30"/>
       <use xlink:href="#DejaVuSerif-Bold-2e" x="69.580078"/>
       <use xlink:href="#DejaVuSerif-Bold-30" x="104.394531"/>
       <use xlink:href="#DejaVuSerif-Bold-31" x="173.974609"/>
       <use xlink:href="#DejaVuSerif-Bold-32" x="243.554688"/>
       <use xlink:href="#DejaVuSerif-Bold-35" x="313.134766"/>
      </g>
     </g>
    </g>
    <g id="xtick_7">
     <g id="line2d_8">
      <g>
       <use xlink:href="#m3976df5afb" x="470.943377" y="490.66" style="fill: #333333; stroke: #333333; stroke-width: 0.8"/>
      </g>
     </g>
     <g id="text_7">
      <!-- 0.0150 -->
      <g style="fill: #333333" transform="translate(449.894705 506.018281) scale(0.11 -0.11)">
       <use xlink:href="#DejaVuSerif-Bold-30"/>
       <use xlink:href="#DejaVuSerif-Bold-2e" x="69.580078"/>
       <use xlink:href="#DejaVuSerif-Bold-30" x="104.394531"/>
       <use xlink:href="#DejaVuSerif-Bold-31" x="173.974609"/>
       <use xlink:href="#DejaVuSerif-Bold-35" x="243.554688"/>
       <use xlink:href="#DejaVuSerif-Bold-30" x="313.134766"/>
      </g>
     </g>
    </g>
    <g id="xtick_8">
     <g id="line2d_9">
      <g>
       <use xlink:href="#m3976df5afb" x="530.474669" y="490.66" style="fill: #333333; stroke: #333333; stroke-width: 0.8"/>
      </g>
     </g>
     <g id="text_8">
      <!-- 0.0175 -->
      <g style="fill: #333333" transform="translate(509.425997 506.018281) scale(0.11 -0.11)">
       <use xlink:href="#DejaVuSerif-Bold-30"/>
       <use xlink:href="#DejaVuSerif-Bold-2e" x="69.580078"/>
       <use xlink:href="#DejaVuSerif-Bold-30" x="104.394531"/>
       <use xlink:href="#DejaVuSerif-Bold-31" x="173.974609"/>
       <use xlink:href="#DejaVuSerif-Bold-37" x="243.554688"/>
       <use xlink:href="#DejaVuSerif-Bold-35" x="313.134766"/>
      </g>
     </g>
    </g>
    <g id="text_9">
     <!-- mean(|SHAP value|) (average impact on model output magnitude) -->
     <g transform="translate(119.654297 522.240781) scale(0.13 -0.13)">
      <defs>
       <path id="DejaVuSerif-6d" d="M 3316 2675 
Q 3481 3041 3739 3227 
Q 3997 3413 4341 3413 
Q 4863 3413 5119 3089 
Q 5375 2766 5375 2113 
L 5375 331 
L 5894 331 
L 5894 0 
L 4300 0 
L 4300 331 
L 4800 331 
L 4800 2047 
Q 4800 2556 4650 2772 
Q 4500 2988 4153 2988 
Q 3769 2988 3567 2697 
Q 3366 2406 3366 1850 
L 3366 331 
L 3866 331 
L 3866 0 
L 2291 0 
L 2291 331 
L 2791 331 
L 2791 2069 
Q 2791 2566 2641 2777 
Q 2491 2988 2144 2988 
Q 1759 2988 1557 2697 
Q 1356 2406 1356 1850 
L 1356 331 
L 1856 331 
L 1856 0 
L 263 0 
L 263 331 
L 781 331 
L 781 2994 
L 231 2994 
L 231 3322 
L 1356 3322 
L 1356 2731 
Q 1516 3063 1762 3238 
Q 2009 3413 2322 3413 
Q 2709 3413 2968 3220 
Q 3228 3028 3316 2675 
z
" transform="scale(0.015625)"/>
       <path id="DejaVuSerif-65" d="M 3469 1600 
L 991 1600 
L 991 1575 
Q 991 903 1244 561 
Q 1497 219 1991 219 
Q 2369 219 2611 417 
Q 2853 616 2950 1006 
L 3413 1006 
Q 3275 459 2904 184 
Q 2534 -91 1931 -91 
Q 1203 -91 761 389 
Q 319 869 319 1663 
Q 319 2450 753 2931 
Q 1188 3413 1894 3413 
Q 2647 3413 3050 2948 
Q 3453 2484 3469 1600 
z
M 2791 1931 
Q 2772 2513 2545 2808 
Q 2319 3103 1894 3103 
Q 1497 3103 1269 2806 
Q 1041 2509 991 1931 
L 2791 1931 
z
" transform="scale(0.015625)"/>
       <path id="DejaVuSerif-61" d="M 2547 1044 
L 2547 1747 
L 1806 1747 
Q 1378 1747 1168 1562 
Q 959 1378 959 997 
Q 959 650 1171 447 
Q 1384 244 1747 244 
Q 2106 244 2326 466 
Q 2547 688 2547 1044 
z
M 3122 2075 
L 3122 331 
L 3634 331 
L 3634 0 
L 2547 0 
L 2547 359 
Q 2356 128 2106 18 
Q 1856 -91 1522 -91 
Q 969 -91 644 203 
Q 319 497 319 997 
Q 319 1513 691 1797 
Q 1063 2081 1741 2081 
L 2547 2081 
L 2547 2309 
Q 2547 2688 2317 2895 
Q 2088 3103 1672 3103 
Q 1328 3103 1125 2947 
Q 922 2791 872 2484 
L 575 2484 
L 575 3156 
Q 875 3284 1158 3348 
Q 1441 3413 1709 3413 
Q 2400 3413 2761 3070 
Q 3122 2728 3122 2075 
z
" transform="scale(0.015625)"/>
       <path id="DejaVuSerif-6e" d="M 263 0 
L 263 331 
L 781 331 
L 781 2988 
L 231 2988 
L 231 3322 
L 1356 3322 
L 1356 2731 
Q 1516 3069 1770 3241 
Q 2025 3413 2363 3413 
Q 2913 3413 3172 3097 
Q 3431 2781 3431 2113 
L 3431 331 
L 3944 331 
L 3944 0 
L 2356 0 
L 2356 331 
L 2853 331 
L 2853 1931 
Q 2853 2541 2703 2767 
Q 2553 2994 2175 2994 
Q 1775 2994 1565 2701 
Q 1356 2409 1356 1850 
L 1356 331 
L 1856 331 
L 1856 0 
L 263 0 
z
" transform="scale(0.015625)"/>
       <path id="DejaVuSerif-28" d="M 2041 -997 
Q 1281 -656 893 83 
Q 506 822 506 1931 
Q 506 3044 893 3783 
Q 1281 4522 2041 4863 
L 2041 4556 
Q 1559 4225 1350 3623 
Q 1141 3022 1141 1931 
Q 1141 844 1350 242 
Q 1559 -359 2041 -691 
L 2041 -997 
z
" transform="scale(0.015625)"/>
       <path id="DejaVuSerif-7c" d="M 1331 4891 
L 1331 -1509 
L 825 -1509 
L 825 4891 
L 1331 4891 
z
" transform="scale(0.015625)"/>
       <path id="DejaVuSerif-53" d="M 594 225 
L 594 1288 
L 953 1284 
Q 969 753 1261 498 
Q 1553 244 2150 244 
Q 2706 244 2998 464 
Q 3291 684 3291 1106 
Q 3291 1444 3114 1625 
Q 2938 1806 2369 1978 
L 1753 2163 
Q 1084 2366 811 2669 
Q 538 2972 538 3500 
Q 538 4094 959 4422 
Q 1381 4750 2144 4750 
Q 2469 4750 2856 4679 
Q 3244 4609 3681 4475 
L 3681 3481 
L 3328 3481 
Q 3275 3975 2998 4195 
Q 2722 4416 2156 4416 
Q 1663 4416 1405 4214 
Q 1147 4013 1147 3628 
Q 1147 3294 1340 3103 
Q 1534 2913 2163 2725 
L 2741 2553 
Q 3375 2363 3645 2067 
Q 3916 1772 3916 1275 
Q 3916 597 3481 253 
Q 3047 -91 2188 -91 
Q 1803 -91 1404 -12 
Q 1006 66 594 225 
z
" transform="scale(0.015625)"/>
       <path id="DejaVuSerif-48" d="M 353 0 
L 353 331 
L 947 331 
L 947 4331 
L 353 4331 
L 353 4666 
L 2175 4666 
L 2175 4331 
L 1581 4331 
L 1581 2719 
L 4000 2719 
L 4000 4331 
L 3406 4331 
L 3406 4666 
L 5228 4666 
L 5228 4331 
L 4634 4331 
L 4634 331 
L 5228 331 
L 5228 0 
L 3406 0 
L 3406 331 
L 4000 331 
L 4000 2338 
L 1581 2338 
L 1581 331 
L 2175 331 
L 2175 0 
L 353 0 
z
" transform="scale(0.015625)"/>
       <path id="DejaVuSerif-41" d="M 1281 1691 
L 2994 1691 
L 2138 3909 
L 1281 1691 
z
M -38 0 
L -38 331 
L 372 331 
L 2034 4666 
L 2559 4666 
L 4225 331 
L 4684 331 
L 4684 0 
L 2988 0 
L 2988 331 
L 3506 331 
L 3116 1356 
L 1153 1356 
L 763 331 
L 1275 331 
L 1275 0 
L -38 0 
z
" transform="scale(0.015625)"/>
       <path id="DejaVuSerif-50" d="M 1581 2375 
L 2406 2375 
Q 2872 2375 3115 2626 
Q 3359 2878 3359 3353 
Q 3359 3831 3115 4081 
Q 2872 4331 2406 4331 
L 1581 4331 
L 1581 2375 
z
M 353 0 
L 353 331 
L 947 331 
L 947 4331 
L 353 4331 
L 353 4666 
L 2559 4666 
Q 3259 4666 3668 4311 
Q 4078 3956 4078 3353 
Q 4078 2753 3668 2397 
Q 3259 2041 2559 2041 
L 1581 2041 
L 1581 331 
L 2303 331 
L 2303 0 
L 353 0 
z
" transform="scale(0.015625)"/>
       <path id="DejaVuSerif-20" transform="scale(0.015625)"/>
       <path id="DejaVuSerif-76" d="M 1581 0 
L 359 2988 
L -19 2988 
L -19 3322 
L 1509 3322 
L 1509 2988 
L 978 2988 
L 1913 703 
L 2847 2988 
L 2350 2988 
L 2350 3322 
L 3597 3322 
L 3597 2988 
L 3225 2988 
L 2003 0 
L 1581 0 
z
" transform="scale(0.015625)"/>
       <path id="DejaVuSerif-6c" d="M 1313 331 
L 1856 331 
L 1856 0 
L 184 0 
L 184 331 
L 738 331 
L 738 4531 
L 184 4531 
L 184 4863 
L 1313 4863 
L 1313 331 
z
" transform="scale(0.015625)"/>
       <path id="DejaVuSerif-75" d="M 2266 3322 
L 3341 3322 
L 3341 331 
L 3884 331 
L 3884 0 
L 2766 0 
L 2766 588 
Q 2606 256 2353 82 
Q 2100 -91 1766 -91 
Q 1213 -91 952 223 
Q 691 538 691 1209 
L 691 2988 
L 172 2988 
L 172 3322 
L 1269 3322 
L 1269 1388 
Q 1269 781 1417 556 
Q 1566 331 1947 331 
Q 2347 331 2556 625 
Q 2766 919 2766 1478 
L 2766 2988 
L 2266 2988 
L 2266 3322 
z
" transform="scale(0.015625)"/>
       <path id="DejaVuSerif-29" d="M 453 -997 
L 453 -691 
Q 934 -359 1145 242 
Q 1356 844 1356 1931 
Q 1356 3022 1145 3623 
Q 934 4225 453 4556 
L 453 4863 
Q 1216 4522 1603 3783 
Q 1991 3044 1991 1931 
Q 1991 822 1603 83 
Q 1216 -656 453 -997 
z
" transform="scale(0.015625)"/>
       <path id="DejaVuSerif-72" d="M 3059 3328 
L 3059 2497 
L 2728 2497 
Q 2713 2744 2591 2866 
Q 2469 2988 2234 2988 
Q 1809 2988 1582 2694 
Q 1356 2400 1356 1850 
L 1356 331 
L 2022 331 
L 2022 0 
L 263 0 
L 263 331 
L 781 331 
L 781 2994 
L 231 2994 
L 231 3322 
L 1356 3322 
L 1356 2731 
Q 1525 3078 1790 3245 
Q 2056 3413 2438 3413 
Q 2578 3413 2733 3391 
Q 2888 3369 3059 3328 
z
" transform="scale(0.015625)"/>
       <path id="DejaVuSerif-67" d="M 3359 2988 
L 3359 72 
Q 3359 -644 2965 -1033 
Q 2572 -1422 1844 -1422 
Q 1516 -1422 1216 -1362 
Q 916 -1303 641 -1184 
L 641 -488 
L 941 -488 
Q 997 -813 1206 -963 
Q 1416 -1113 1806 -1113 
Q 2313 -1113 2548 -827 
Q 2784 -541 2784 72 
L 2784 519 
Q 2616 206 2355 57 
Q 2094 -91 1709 -91 
Q 1097 -91 708 395 
Q 319 881 319 1663 
Q 319 2444 706 2928 
Q 1094 3413 1709 3413 
Q 2094 3413 2355 3264 
Q 2616 3116 2784 2803 
L 2784 3322 
L 3909 3322 
L 3909 2988 
L 3359 2988 
z
M 2784 1825 
Q 2784 2422 2554 2737 
Q 2325 3053 1888 3053 
Q 1444 3053 1217 2703 
Q 991 2353 991 1663 
Q 991 975 1217 622 
Q 1444 269 1888 269 
Q 2325 269 2554 583 
Q 2784 897 2784 1497 
L 2784 1825 
z
" transform="scale(0.015625)"/>
       <path id="DejaVuSerif-69" d="M 622 4353 
Q 622 4497 726 4603 
Q 831 4709 978 4709 
Q 1122 4709 1226 4603 
Q 1331 4497 1331 4353 
Q 1331 4206 1228 4103 
Q 1125 4000 978 4000 
Q 831 4000 726 4103 
Q 622 4206 622 4353 
z
M 1356 331 
L 1900 331 
L 1900 0 
L 231 0 
L 231 331 
L 781 331 
L 781 2988 
L 231 2988 
L 231 3322 
L 1356 3322 
L 1356 331 
z
" transform="scale(0.015625)"/>
       <path id="DejaVuSerif-70" d="M 1313 1825 
L 1313 1497 
Q 1313 897 1542 583 
Q 1772 269 2209 269 
Q 2650 269 2876 622 
Q 3103 975 3103 1663 
Q 3103 2353 2876 2703 
Q 2650 3053 2209 3053 
Q 1772 3053 1542 2737 
Q 1313 2422 1313 1825 
z
M 738 2988 
L 184 2988 
L 184 3322 
L 1313 3322 
L 1313 2803 
Q 1481 3116 1742 3264 
Q 2003 3413 2388 3413 
Q 3000 3413 3387 2928 
Q 3775 2444 3775 1663 
Q 3775 881 3387 395 
Q 3000 -91 2388 -91 
Q 2003 -91 1742 57 
Q 1481 206 1313 519 
L 1313 -997 
L 1856 -997 
L 1856 -1331 
L 184 -1331 
L 184 -997 
L 738 -997 
L 738 2988 
z
" transform="scale(0.015625)"/>
       <path id="DejaVuSerif-63" d="M 3291 997 
Q 3169 466 2822 187 
Q 2475 -91 1925 -91 
Q 1200 -91 759 389 
Q 319 869 319 1663 
Q 319 2459 759 2936 
Q 1200 3413 1925 3413 
Q 2241 3413 2553 3339 
Q 2866 3266 3181 3116 
L 3181 2266 
L 2847 2266 
Q 2781 2703 2561 2903 
Q 2341 3103 1931 3103 
Q 1466 3103 1228 2742 
Q 991 2381 991 1663 
Q 991 944 1227 581 
Q 1463 219 1931 219 
Q 2303 219 2525 412 
Q 2747 606 2828 997 
L 3291 997 
z
" transform="scale(0.015625)"/>
       <path id="DejaVuSerif-74" d="M 691 2988 
L 184 2988 
L 184 3322 
L 691 3322 
L 691 4353 
L 1269 4353 
L 1269 3322 
L 2350 3322 
L 2350 2988 
L 1269 2988 
L 1269 878 
Q 1269 456 1350 337 
Q 1431 219 1650 219 
Q 1875 219 1978 351 
Q 2081 484 2088 781 
L 2522 781 
Q 2497 328 2275 118 
Q 2053 -91 1600 -91 
Q 1103 -91 897 129 
Q 691 350 691 878 
L 691 2988 
z
" transform="scale(0.015625)"/>
       <path id="DejaVuSerif-6f" d="M 1925 219 
Q 2388 219 2623 584 
Q 2859 950 2859 1663 
Q 2859 2375 2623 2739 
Q 2388 3103 1925 3103 
Q 1463 3103 1227 2739 
Q 991 2375 991 1663 
Q 991 950 1228 584 
Q 1466 219 1925 219 
z
M 1925 -91 
Q 1200 -91 759 389 
Q 319 869 319 1663 
Q 319 2456 758 2934 
Q 1197 3413 1925 3413 
Q 2653 3413 3092 2934 
Q 3531 2456 3531 1663 
Q 3531 869 3092 389 
Q 2653 -91 1925 -91 
z
" transform="scale(0.015625)"/>
       <path id="DejaVuSerif-64" d="M 3359 331 
L 3909 331 
L 3909 0 
L 2784 0 
L 2784 519 
Q 2616 206 2355 57 
Q 2094 -91 1709 -91 
Q 1097 -91 708 395 
Q 319 881 319 1663 
Q 319 2444 706 2928 
Q 1094 3413 1709 3413 
Q 2094 3413 2355 3264 
Q 2616 3116 2784 2803 
L 2784 4531 
L 2241 4531 
L 2241 4863 
L 3359 4863 
L 3359 331 
z
M 2784 1497 
L 2784 1825 
Q 2784 2422 2554 2737 
Q 2325 3053 1888 3053 
Q 1444 3053 1217 2703 
Q 991 2353 991 1663 
Q 991 975 1217 622 
Q 1444 269 1888 269 
Q 2325 269 2554 583 
Q 2784 897 2784 1497 
z
" transform="scale(0.015625)"/>
      </defs>
      <use xlink:href="#DejaVuSerif-6d"/>
      <use xlink:href="#DejaVuSerif-65" x="94.824219"/>
      <use xlink:href="#DejaVuSerif-61" x="154.003906"/>
      <use xlink:href="#DejaVuSerif-6e" x="213.623047"/>
      <use xlink:href="#DejaVuSerif-28" x="278.027344"/>
      <use xlink:href="#DejaVuSerif-7c" x="317.041016"/>
      <use xlink:href="#DejaVuSerif-53" x="350.732422"/>
      <use xlink:href="#DejaVuSerif-48" x="419.238281"/>
      <use xlink:href="#DejaVuSerif-41" x="506.445312"/>
      <use xlink:href="#DejaVuSerif-50" x="578.662109"/>
      <use xlink:href="#DejaVuSerif-20" x="645.947266"/>
      <use xlink:href="#DejaVuSerif-76" x="677.734375"/>
      <use xlink:href="#DejaVuSerif-61" x="734.228516"/>
      <use xlink:href="#DejaVuSerif-6c" x="793.847656"/>
      <use xlink:href="#DejaVuSerif-75" x="825.830078"/>
      <use xlink:href="#DejaVuSerif-65" x="890.234375"/>
      <use xlink:href="#DejaVuSerif-7c" x="949.414062"/>
      <use xlink:href="#DejaVuSerif-29" x="983.105469"/>
      <use xlink:href="#DejaVuSerif-20" x="1022.119141"/>
      <use xlink:href="#DejaVuSerif-28" x="1053.90625"/>
      <use xlink:href="#DejaVuSerif-61" x="1092.919922"/>
      <use xlink:href="#DejaVuSerif-76" x="1152.539062"/>
      <use xlink:href="#DejaVuSerif-65" x="1209.033203"/>
      <use xlink:href="#DejaVuSerif-72" x="1268.212891"/>
      <use xlink:href="#DejaVuSerif-61" x="1316.015625"/>
      <use xlink:href="#DejaVuSerif-67" x="1375.634766"/>
      <use xlink:href="#DejaVuSerif-65" x="1439.648438"/>
      <use xlink:href="#DejaVuSerif-20" x="1498.828125"/>
      <use xlink:href="#DejaVuSerif-69" x="1530.615234"/>
      <use xlink:href="#DejaVuSerif-6d" x="1562.597656"/>
      <use xlink:href="#DejaVuSerif-70" x="1657.421875"/>
      <use xlink:href="#DejaVuSerif-61" x="1721.435547"/>
      <use xlink:href="#DejaVuSerif-63" x="1781.054688"/>
      <use xlink:href="#DejaVuSerif-74" x="1837.060547"/>
      <use xlink:href="#DejaVuSerif-20" x="1877.246094"/>
      <use xlink:href="#DejaVuSerif-6f" x="1909.033203"/>
      <use xlink:href="#DejaVuSerif-6e" x="1969.238281"/>
      <use xlink:href="#DejaVuSerif-20" x="2033.642578"/>
      <use xlink:href="#DejaVuSerif-6d" x="2065.429688"/>
      <use xlink:href="#DejaVuSerif-6f" x="2160.253906"/>
      <use xlink:href="#DejaVuSerif-64" x="2220.458984"/>
      <use xlink:href="#DejaVuSerif-65" x="2284.472656"/>
      <use xlink:href="#DejaVuSerif-6c" x="2343.652344"/>
      <use xlink:href="#DejaVuSerif-20" x="2375.634766"/>
      <use xlink:href="#DejaVuSerif-6f" x="2407.421875"/>
      <use xlink:href="#DejaVuSerif-75" x="2467.626953"/>
      <use xlink:href="#DejaVuSerif-74" x="2532.03125"/>
      <use xlink:href="#DejaVuSerif-70" x="2572.216797"/>
      <use xlink:href="#DejaVuSerif-75" x="2636.230469"/>
      <use xlink:href="#DejaVuSerif-74" x="2700.634766"/>
      <use xlink:href="#DejaVuSerif-20" x="2740.820312"/>
      <use xlink:href="#DejaVuSerif-6d" x="2772.607422"/>
      <use xlink:href="#DejaVuSerif-61" x="2867.431641"/>
      <use xlink:href="#DejaVuSerif-67" x="2927.050781"/>
      <use xlink:href="#DejaVuSerif-6e" x="2991.064453"/>
      <use xlink:href="#DejaVuSerif-69" x="3055.46875"/>
      <use xlink:href="#DejaVuSerif-74" x="3087.451172"/>
      <use xlink:href="#DejaVuSerif-75" x="3127.636719"/>
      <use xlink:href="#DejaVuSerif-64" x="3192.041016"/>
      <use xlink:href="#DejaVuSerif-65" x="3256.054688"/>
      <use xlink:href="#DejaVuSerif-29" x="3315.234375"/>
     </g>
    </g>
   </g>
   <g id="matplotlib.axis_2">
    <g id="ytick_1">
     <g id="text_10">
      <!-- Morgan_0703 -->
      <g style="fill: #333333" transform="translate(7.2 465.267969) scale(0.13 -0.13)">
       <defs>
        <path id="DejaVuSerif-Bold-4d" d="M 269 0 
L 269 378 
L 863 378 
L 863 4288 
L 269 4288 
L 269 4666 
L 2194 4666 
L 3525 1672 
L 4863 4666 
L 6784 4666 
L 6784 4288 
L 6188 4288 
L 6188 378 
L 6784 378 
L 6784 0 
L 4384 0 
L 4384 378 
L 4978 378 
L 4978 3938 
L 3531 684 
L 2741 684 
L 1300 3938 
L 1300 378 
L 1894 378 
L 1894 0 
L 269 0 
z
" transform="scale(0.015625)"/>
        <path id="DejaVuSerif-Bold-6f" d="M 2138 263 
Q 2488 263 2630 563 
Q 2772 863 2772 1663 
Q 2772 2463 2631 2761 
Q 2491 3059 2138 3059 
Q 1784 3059 1640 2757 
Q 1497 2456 1497 1663 
Q 1497 869 1640 566 
Q 1784 263 2138 263 
z
M 2138 -91 
Q 1259 -91 761 376 
Q 263 844 263 1663 
Q 263 2484 761 2948 
Q 1259 3413 2138 3413 
Q 3019 3413 3516 2948 
Q 4013 2484 4013 1663 
Q 4013 844 3514 376 
Q 3016 -91 2138 -91 
z
" transform="scale(0.015625)"/>
        <path id="DejaVuSerif-Bold-72" d="M 3438 3359 
L 3438 2369 
L 3084 2369 
Q 3066 2634 2941 2764 
Q 2816 2894 2578 2894 
Q 2216 2894 2006 2575 
Q 1797 2256 1797 1691 
L 1797 378 
L 2400 378 
L 2400 0 
L 219 0 
L 219 378 
L 691 378 
L 691 2944 
L 184 2944 
L 184 3322 
L 1797 3322 
L 1797 2731 
Q 1959 3078 2226 3245 
Q 2494 3413 2881 3413 
Q 2978 3413 3117 3398 
Q 3256 3384 3438 3359 
z
" transform="scale(0.015625)"/>
        <path id="DejaVuSerif-Bold-67" d="M 3853 2944 
L 3853 44 
Q 3853 -656 3354 -1039 
Q 2856 -1422 1947 -1422 
Q 1616 -1422 1275 -1370 
Q 934 -1319 575 -1216 
L 575 -422 
L 928 -422 
Q 975 -750 1192 -909 
Q 1409 -1069 1813 -1069 
Q 2325 -1069 2536 -823 
Q 2747 -578 2747 44 
L 2747 422 
Q 2606 163 2367 36 
Q 2128 -91 1778 -91 
Q 1072 -91 667 378 
Q 263 847 263 1663 
Q 263 2481 667 2947 
Q 1072 3413 1778 3413 
Q 2128 3413 2367 3286 
Q 2606 3159 2747 2900 
L 2747 3322 
L 4325 3322 
L 4325 2944 
L 3853 2944 
z
M 2747 1825 
Q 2747 2406 2597 2665 
Q 2447 2925 2119 2925 
Q 1775 2925 1636 2651 
Q 1497 2378 1497 1663 
Q 1497 947 1637 672 
Q 1778 397 2119 397 
Q 2447 397 2597 656 
Q 2747 916 2747 1497 
L 2747 1825 
z
" transform="scale(0.015625)"/>
        <path id="DejaVuSerif-Bold-61" d="M 3525 2041 
L 3525 378 
L 4000 378 
L 4000 0 
L 2419 0 
L 2419 422 
Q 2200 159 1931 34 
Q 1663 -91 1319 -91 
Q 809 -91 536 182 
Q 263 456 263 966 
Q 263 1525 655 1803 
Q 1047 2081 1838 2081 
L 2419 2081 
L 2419 2278 
Q 2419 2681 2228 2873 
Q 2038 3066 1638 3066 
Q 1306 3066 1126 2930 
Q 947 2794 872 2484 
L 519 2484 
L 519 3200 
Q 816 3306 1134 3359 
Q 1453 3413 1806 3413 
Q 2697 3413 3111 3081 
Q 3525 2750 3525 2041 
z
M 2419 1044 
L 2419 1709 
L 2003 1709 
Q 1694 1709 1528 1540 
Q 1363 1372 1363 1056 
Q 1363 741 1483 584 
Q 1603 428 1850 428 
Q 2106 428 2262 597 
Q 2419 766 2419 1044 
z
" transform="scale(0.015625)"/>
        <path id="DejaVuSerif-Bold-6e" d="M 219 0 
L 219 378 
L 691 378 
L 691 2944 
L 219 2944 
L 219 3322 
L 1797 3322 
L 1797 2853 
Q 1997 3150 2253 3281 
Q 2509 3413 2900 3413 
Q 3459 3413 3745 3083 
Q 4031 2753 4031 2113 
L 4031 378 
L 4506 378 
L 4506 0 
L 2522 0 
L 2522 378 
L 2925 378 
L 2925 2144 
Q 2925 2566 2817 2730 
Q 2709 2894 2444 2894 
Q 2109 2894 1953 2648 
Q 1797 2403 1797 1869 
L 1797 378 
L 2203 378 
L 2203 0 
L 219 0 
z
" transform="scale(0.015625)"/>
        <path id="DejaVuSerif-Bold-5f" d="M 3200 -916 
L 3200 -1509 
L 0 -1509 
L 0 -916 
L 3200 -916 
z
" transform="scale(0.015625)"/>
        <path id="DejaVuSerif-Bold-33" d="M 550 4531 
Q 963 4641 1350 4695 
Q 1738 4750 2106 4750 
Q 2950 4750 3401 4448 
Q 3853 4147 3853 3584 
Q 3853 3163 3593 2900 
Q 3334 2638 2834 2547 
Q 3444 2450 3744 2131 
Q 4044 1813 4044 1259 
Q 4044 606 3526 257 
Q 3009 -91 2028 -91 
Q 1659 -91 1267 -28 
Q 875 34 447 159 
L 447 1184 
L 825 1184 
Q 859 741 1103 508 
Q 1347 275 1778 275 
Q 2253 275 2512 539 
Q 2772 803 2772 1288 
Q 2772 1794 2501 2069 
Q 2231 2344 1734 2344 
L 1528 2344 
L 1528 2719 
L 1691 2719 
Q 2150 2719 2381 2931 
Q 2613 3144 2613 3566 
Q 2613 3963 2395 4173 
Q 2178 4384 1772 4384 
Q 1403 4384 1187 4182 
Q 972 3981 928 3597 
L 550 3597 
L 550 4531 
z
" transform="scale(0.015625)"/>
       </defs>
       <use xlink:href="#DejaVuSerif-Bold-4d"/>
       <use xlink:href="#DejaVuSerif-Bold-6f" x="110.693359"/>
       <use xlink:href="#DejaVuSerif-Bold-72" x="177.392578"/>
       <use xlink:href="#DejaVuSerif-Bold-67" x="230.078125"/>
       <use xlink:href="#DejaVuSerif-Bold-61" x="300"/>
       <use xlink:href="#DejaVuSerif-Bold-6e" x="364.794922"/>
       <use xlink:href="#DejaVuSerif-Bold-5f" x="437.5"/>
       <use xlink:href="#DejaVuSerif-Bold-30" x="487.5"/>
       <use xlink:href="#DejaVuSerif-Bold-37" x="557.080078"/>
       <use xlink:href="#DejaVuSerif-Bold-30" x="626.660156"/>
       <use xlink:href="#DejaVuSerif-Bold-33" x="696.240234"/>
      </g>
     </g>
    </g>
    <g id="ytick_2">
     <g id="text_11">
      <!-- Morgan_0189 -->
      <g style="fill: #333333" transform="translate(7.2 435.051719) scale(0.13 -0.13)">
       <defs>
        <path id="DejaVuSerif-Bold-38" d="M 2975 2484 
Q 3531 2394 3820 2075 
Q 4109 1756 4109 1241 
Q 4109 597 3623 253 
Q 3138 -91 2222 -91 
Q 1306 -91 818 253 
Q 331 597 331 1241 
Q 331 1756 622 2075 
Q 913 2394 1466 2484 
Q 975 2597 731 2861 
Q 488 3125 488 3531 
Q 488 4125 931 4437 
Q 1375 4750 2222 4750 
Q 3066 4750 3511 4437 
Q 3956 4125 3956 3531 
Q 3956 3125 3711 2861 
Q 3466 2597 2975 2484 
z
M 2747 3519 
Q 2747 4013 2628 4198 
Q 2509 4384 2222 4384 
Q 1931 4384 1814 4198 
Q 1697 4013 1697 3519 
Q 1697 3028 1814 2845 
Q 1931 2663 2222 2663 
Q 2513 2663 2630 2845 
Q 2747 3028 2747 3519 
z
M 2869 1294 
Q 2869 1866 2723 2081 
Q 2578 2297 2222 2297 
Q 1863 2297 1719 2081 
Q 1575 1866 1575 1294 
Q 1575 716 1720 495 
Q 1866 275 2222 275 
Q 2575 275 2722 495 
Q 2869 716 2869 1294 
z
" transform="scale(0.015625)"/>
        <path id="DejaVuSerif-Bold-39" d="M 2181 4384 
Q 1859 4384 1723 4111 
Q 1588 3838 1588 3163 
Q 1588 2488 1723 2214 
Q 1859 1941 2181 1941 
Q 2503 1941 2640 2214 
Q 2778 2488 2778 3163 
Q 2778 3838 2640 4111 
Q 2503 4384 2181 4384 
z
M 2878 1900 
Q 2672 1734 2420 1651 
Q 2169 1569 1875 1569 
Q 1163 1569 755 1986 
Q 347 2403 347 3138 
Q 347 3913 803 4331 
Q 1259 4750 2106 4750 
Q 3063 4750 3556 4172 
Q 4050 3594 4050 2478 
Q 4050 1206 3503 557 
Q 2956 -91 1881 -91 
Q 1600 -91 1278 -44 
Q 956 3 588 97 
L 588 922 
L 966 922 
Q 1044 603 1261 439 
Q 1478 275 1825 275 
Q 2375 275 2625 658 
Q 2875 1041 2878 1900 
z
" transform="scale(0.015625)"/>
       </defs>
       <use xlink:href="#DejaVuSerif-Bold-4d"/>
       <use xlink:href="#DejaVuSerif-Bold-6f" x="110.693359"/>
       <use xlink:href="#DejaVuSerif-Bold-72" x="177.392578"/>
       <use xlink:href="#DejaVuSerif-Bold-67" x="230.078125"/>
       <use xlink:href="#DejaVuSerif-Bold-61" x="300"/>
       <use xlink:href="#DejaVuSerif-Bold-6e" x="364.794922"/>
       <use xlink:href="#DejaVuSerif-Bold-5f" x="437.5"/>
       <use xlink:href="#DejaVuSerif-Bold-30" x="487.5"/>
       <use xlink:href="#DejaVuSerif-Bold-31" x="557.080078"/>
       <use xlink:href="#DejaVuSerif-Bold-38" x="626.660156"/>
       <use xlink:href="#DejaVuSerif-Bold-39" x="696.240234"/>
      </g>
     </g>
    </g>
    <g id="ytick_3">
     <g id="text_12">
      <!-- Morgan_0080 -->
      <g style="fill: #333333" transform="translate(7.2 404.835469) scale(0.13 -0.13)">
       <use xlink:href="#DejaVuSerif-Bold-4d"/>
       <use xlink:href="#DejaVuSerif-Bold-6f" x="110.693359"/>
       <use xlink:href="#DejaVuSerif-Bold-72" x="177.392578"/>
       <use xlink:href="#DejaVuSerif-Bold-67" x="230.078125"/>
       <use xlink:href="#DejaVuSerif-Bold-61" x="300"/>
       <use xlink:href="#DejaVuSerif-Bold-6e" x="364.794922"/>
       <use xlink:href="#DejaVuSerif-Bold-5f" x="437.5"/>
       <use xlink:href="#DejaVuSerif-Bold-30" x="487.5"/>
       <use xlink:href="#DejaVuSerif-Bold-30" x="557.080078"/>
       <use xlink:href="#DejaVuSerif-Bold-38" x="626.660156"/>
       <use xlink:href="#DejaVuSerif-Bold-30" x="696.240234"/>
      </g>
     </g>
    </g>
    <g id="ytick_4">
     <g id="text_13">
      <!-- Morgan_0456 -->
      <g style="fill: #333333" transform="translate(7.2 374.619219) scale(0.13 -0.13)">
       <defs>
        <path id="DejaVuSerif-Bold-34" d="M 4084 0 
L 1516 0 
L 1516 378 
L 2209 378 
L 2209 1228 
L 263 1228 
L 263 1588 
L 2216 4750 
L 3391 4750 
L 3391 1631 
L 4191 1631 
L 4191 1228 
L 3391 1228 
L 3391 378 
L 4084 378 
L 4084 0 
z
M 2209 1631 
L 2209 3897 
L 819 1631 
L 2209 1631 
z
" transform="scale(0.015625)"/>
        <path id="DejaVuSerif-Bold-36" d="M 1575 2766 
Q 1778 2928 2029 3009 
Q 2281 3091 2578 3091 
Q 3294 3091 3701 2672 
Q 4109 2253 4109 1522 
Q 4109 750 3650 329 
Q 3191 -91 2344 -91 
Q 1388 -91 895 486 
Q 403 1063 403 2181 
Q 403 3453 950 4101 
Q 1497 4750 2572 4750 
Q 2853 4750 3175 4703 
Q 3497 4656 3866 4563 
L 3866 3738 
L 3488 3738 
Q 3409 4056 3192 4220 
Q 2975 4384 2631 4384 
Q 2075 4384 1826 4003 
Q 1578 3622 1575 2766 
z
M 2272 275 
Q 2594 275 2731 548 
Q 2869 822 2869 1497 
Q 2869 2172 2731 2445 
Q 2594 2719 2272 2719 
Q 1950 2719 1814 2445 
Q 1678 2172 1678 1497 
Q 1678 822 1814 548 
Q 1950 275 2272 275 
z
" transform="scale(0.015625)"/>
       </defs>
       <use xlink:href="#DejaVuSerif-Bold-4d"/>
       <use xlink:href="#DejaVuSerif-Bold-6f" x="110.693359"/>
       <use xlink:href="#DejaVuSerif-Bold-72" x="177.392578"/>
       <use xlink:href="#DejaVuSerif-Bold-67" x="230.078125"/>
       <use xlink:href="#DejaVuSerif-Bold-61" x="300"/>
       <use xlink:href="#DejaVuSerif-Bold-6e" x="364.794922"/>
       <use xlink:href="#DejaVuSerif-Bold-5f" x="437.5"/>
       <use xlink:href="#DejaVuSerif-Bold-30" x="487.5"/>
       <use xlink:href="#DejaVuSerif-Bold-34" x="557.080078"/>
       <use xlink:href="#DejaVuSerif-Bold-35" x="626.660156"/>
       <use xlink:href="#DejaVuSerif-Bold-36" x="696.240234"/>
      </g>
     </g>
    </g>
    <g id="ytick_5">
     <g id="text_14">
      <!-- Morgan_0827 -->
      <g style="fill: #333333" transform="translate(7.2 344.402969) scale(0.13 -0.13)">
       <use xlink:href="#DejaVuSerif-Bold-4d"/>
       <use xlink:href="#DejaVuSerif-Bold-6f" x="110.693359"/>
       <use xlink:href="#DejaVuSerif-Bold-72" x="177.392578"/>
       <use xlink:href="#DejaVuSerif-Bold-67" x="230.078125"/>
       <use xlink:href="#DejaVuSerif-Bold-61" x="300"/>
       <use xlink:href="#DejaVuSerif-Bold-6e" x="364.794922"/>
       <use xlink:href="#DejaVuSerif-Bold-5f" x="437.5"/>
       <use xlink:href="#DejaVuSerif-Bold-30" x="487.5"/>
       <use xlink:href="#DejaVuSerif-Bold-38" x="557.080078"/>
       <use xlink:href="#DejaVuSerif-Bold-32" x="626.660156"/>
       <use xlink:href="#DejaVuSerif-Bold-37" x="696.240234"/>
      </g>
     </g>
    </g>
    <g id="ytick_6">
     <g id="text_15">
      <!-- Morgan_0175 -->
      <g style="fill: #333333" transform="translate(7.2 314.186719) scale(0.13 -0.13)">
       <use xlink:href="#DejaVuSerif-Bold-4d"/>
       <use xlink:href="#DejaVuSerif-Bold-6f" x="110.693359"/>
       <use xlink:href="#DejaVuSerif-Bold-72" x="177.392578"/>
       <use xlink:href="#DejaVuSerif-Bold-67" x="230.078125"/>
       <use xlink:href="#DejaVuSerif-Bold-61" x="300"/>
       <use xlink:href="#DejaVuSerif-Bold-6e" x="364.794922"/>
       <use xlink:href="#DejaVuSerif-Bold-5f" x="437.5"/>
       <use xlink:href="#DejaVuSerif-Bold-30" x="487.5"/>
       <use xlink:href="#DejaVuSerif-Bold-31" x="557.080078"/>
       <use xlink:href="#DejaVuSerif-Bold-37" x="626.660156"/>
       <use xlink:href="#DejaVuSerif-Bold-35" x="696.240234"/>
      </g>
     </g>
    </g>
    <g id="ytick_7">
     <g id="text_16">
      <!-- Morgan_0650 -->
      <g style="fill: #333333" transform="translate(7.2 283.970469) scale(0.13 -0.13)">
       <use xlink:href="#DejaVuSerif-Bold-4d"/>
       <use xlink:href="#DejaVuSerif-Bold-6f" x="110.693359"/>
       <use xlink:href="#DejaVuSerif-Bold-72" x="177.392578"/>
       <use xlink:href="#DejaVuSerif-Bold-67" x="230.078125"/>
       <use xlink:href="#DejaVuSerif-Bold-61" x="300"/>
       <use xlink:href="#DejaVuSerif-Bold-6e" x="364.794922"/>
       <use xlink:href="#DejaVuSerif-Bold-5f" x="437.5"/>
       <use xlink:href="#DejaVuSerif-Bold-30" x="487.5"/>
       <use xlink:href="#DejaVuSerif-Bold-36" x="557.080078"/>
       <use xlink:href="#DejaVuSerif-Bold-35" x="626.660156"/>
       <use xlink:href="#DejaVuSerif-Bold-30" x="696.240234"/>
      </g>
     </g>
    </g>
    <g id="ytick_8">
     <g id="text_17">
      <!-- Morgan_0346 -->
      <g style="fill: #333333" transform="translate(7.2 253.754219) scale(0.13 -0.13)">
       <use xlink:href="#DejaVuSerif-Bold-4d"/>
       <use xlink:href="#DejaVuSerif-Bold-6f" x="110.693359"/>
       <use xlink:href="#DejaVuSerif-Bold-72" x="177.392578"/>
       <use xlink:href="#DejaVuSerif-Bold-67" x="230.078125"/>
       <use xlink:href="#DejaVuSerif-Bold-61" x="300"/>
       <use xlink:href="#DejaVuSerif-Bold-6e" x="364.794922"/>
       <use xlink:href="#DejaVuSerif-Bold-5f" x="437.5"/>
       <use xlink:href="#DejaVuSerif-Bold-30" x="487.5"/>
       <use xlink:href="#DejaVuSerif-Bold-33" x="557.080078"/>
       <use xlink:href="#DejaVuSerif-Bold-34" x="626.660156"/>
       <use xlink:href="#DejaVuSerif-Bold-36" x="696.240234"/>
      </g>
     </g>
    </g>
    <g id="ytick_9">
     <g id="text_18">
      <!-- Morgan_0058 -->
      <g style="fill: #333333" transform="translate(7.2 223.537969) scale(0.13 -0.13)">
       <use xlink:href="#DejaVuSerif-Bold-4d"/>
       <use xlink:href="#DejaVuSerif-Bold-6f" x="110.693359"/>
       <use xlink:href="#DejaVuSerif-Bold-72" x="177.392578"/>
       <use xlink:href="#DejaVuSerif-Bold-67" x="230.078125"/>
       <use xlink:href="#DejaVuSerif-Bold-61" x="300"/>
       <use xlink:href="#DejaVuSerif-Bold-6e" x="364.794922"/>
       <use xlink:href="#DejaVuSerif-Bold-5f" x="437.5"/>
       <use xlink:href="#DejaVuSerif-Bold-30" x="487.5"/>
       <use xlink:href="#DejaVuSerif-Bold-30" x="557.080078"/>
       <use xlink:href="#DejaVuSerif-Bold-35" x="626.660156"/>
       <use xlink:href="#DejaVuSerif-Bold-38" x="696.240234"/>
      </g>
     </g>
    </g>
    <g id="ytick_10">
     <g id="text_19">
      <!-- Morgan_0492 -->
      <g style="fill: #333333" transform="translate(7.2 193.321719) scale(0.13 -0.13)">
       <use xlink:href="#DejaVuSerif-Bold-4d"/>
       <use xlink:href="#DejaVuSerif-Bold-6f" x="110.693359"/>
       <use xlink:href="#DejaVuSerif-Bold-72" x="177.392578"/>
       <use xlink:href="#DejaVuSerif-Bold-67" x="230.078125"/>
       <use xlink:href="#DejaVuSerif-Bold-61" x="300"/>
       <use xlink:href="#DejaVuSerif-Bold-6e" x="364.794922"/>
       <use xlink:href="#DejaVuSerif-Bold-5f" x="437.5"/>
       <use xlink:href="#DejaVuSerif-Bold-30" x="487.5"/>
       <use xlink:href="#DejaVuSerif-Bold-34" x="557.080078"/>
       <use xlink:href="#DejaVuSerif-Bold-39" x="626.660156"/>
       <use xlink:href="#DejaVuSerif-Bold-32" x="696.240234"/>
      </g>
     </g>
    </g>
    <g id="ytick_11">
     <g id="text_20">
      <!-- Morgan_0352 -->
      <g style="fill: #333333" transform="translate(7.2 163.105469) scale(0.13 -0.13)">
       <use xlink:href="#DejaVuSerif-Bold-4d"/>
       <use xlink:href="#DejaVuSerif-Bold-6f" x="110.693359"/>
       <use xlink:href="#DejaVuSerif-Bold-72" x="177.392578"/>
       <use xlink:href="#DejaVuSerif-Bold-67" x="230.078125"/>
       <use xlink:href="#DejaVuSerif-Bold-61" x="300"/>
       <use xlink:href="#DejaVuSerif-Bold-6e" x="364.794922"/>
       <use xlink:href="#DejaVuSerif-Bold-5f" x="437.5"/>
       <use xlink:href="#DejaVuSerif-Bold-30" x="487.5"/>
       <use xlink:href="#DejaVuSerif-Bold-33" x="557.080078"/>
       <use xlink:href="#DejaVuSerif-Bold-35" x="626.660156"/>
       <use xlink:href="#DejaVuSerif-Bold-32" x="696.240234"/>
      </g>
     </g>
    </g>
    <g id="ytick_12">
     <g id="text_21">
      <!-- Morgan_0128 -->
      <g style="fill: #333333" transform="translate(7.2 132.889219) scale(0.13 -0.13)">
       <use xlink:href="#DejaVuSerif-Bold-4d"/>
       <use xlink:href="#DejaVuSerif-Bold-6f" x="110.693359"/>
       <use xlink:href="#DejaVuSerif-Bold-72" x="177.392578"/>
       <use xlink:href="#DejaVuSerif-Bold-67" x="230.078125"/>
       <use xlink:href="#DejaVuSerif-Bold-61" x="300"/>
       <use xlink:href="#DejaVuSerif-Bold-6e" x="364.794922"/>
       <use xlink:href="#DejaVuSerif-Bold-5f" x="437.5"/>
       <use xlink:href="#DejaVuSerif-Bold-30" x="487.5"/>
       <use xlink:href="#DejaVuSerif-Bold-31" x="557.080078"/>
       <use xlink:href="#DejaVuSerif-Bold-32" x="626.660156"/>
       <use xlink:href="#DejaVuSerif-Bold-38" x="696.240234"/>
      </g>
     </g>
    </g>
    <g id="ytick_13">
     <g id="text_22">
      <!-- Morgan_0610 -->
      <g style="fill: #333333" transform="translate(7.2 102.672969) scale(0.13 -0.13)">
       <use xlink:href="#DejaVuSerif-Bold-4d"/>
       <use xlink:href="#DejaVuSerif-Bold-6f" x="110.693359"/>
       <use xlink:href="#DejaVuSerif-Bold-72" x="177.392578"/>
       <use xlink:href="#DejaVuSerif-Bold-67" x="230.078125"/>
       <use xlink:href="#DejaVuSerif-Bold-61" x="300"/>
       <use xlink:href="#DejaVuSerif-Bold-6e" x="364.794922"/>
       <use xlink:href="#DejaVuSerif-Bold-5f" x="437.5"/>
       <use xlink:href="#DejaVuSerif-Bold-30" x="487.5"/>
       <use xlink:href="#DejaVuSerif-Bold-36" x="557.080078"/>
       <use xlink:href="#DejaVuSerif-Bold-31" x="626.660156"/>
       <use xlink:href="#DejaVuSerif-Bold-30" x="696.240234"/>
      </g>
     </g>
    </g>
    <g id="ytick_14">
     <g id="text_23">
      <!-- Morgan_0191 -->
      <g style="fill: #333333" transform="translate(7.2 72.456719) scale(0.13 -0.13)">
       <use xlink:href="#DejaVuSerif-Bold-4d"/>
       <use xlink:href="#DejaVuSerif-Bold-6f" x="110.693359"/>
       <use xlink:href="#DejaVuSerif-Bold-72" x="177.392578"/>
       <use xlink:href="#DejaVuSerif-Bold-67" x="230.078125"/>
       <use xlink:href="#DejaVuSerif-Bold-61" x="300"/>
       <use xlink:href="#DejaVuSerif-Bold-6e" x="364.794922"/>
       <use xlink:href="#DejaVuSerif-Bold-5f" x="437.5"/>
       <use xlink:href="#DejaVuSerif-Bold-30" x="487.5"/>
       <use xlink:href="#DejaVuSerif-Bold-31" x="557.080078"/>
       <use xlink:href="#DejaVuSerif-Bold-39" x="626.660156"/>
       <use xlink:href="#DejaVuSerif-Bold-31" x="696.240234"/>
      </g>
     </g>
    </g>
    <g id="ytick_15">
     <g id="text_24">
      <!-- Morgan_0136 -->
      <g style="fill: #333333" transform="translate(7.2 42.240469) scale(0.13 -0.13)">
       <use xlink:href="#DejaVuSerif-Bold-4d"/>
       <use xlink:href="#DejaVuSerif-Bold-6f" x="110.693359"/>
       <use xlink:href="#DejaVuSerif-Bold-72" x="177.392578"/>
       <use xlink:href="#DejaVuSerif-Bold-67" x="230.078125"/>
       <use xlink:href="#DejaVuSerif-Bold-61" x="300"/>
       <use xlink:href="#DejaVuSerif-Bold-6e" x="364.794922"/>
       <use xlink:href="#DejaVuSerif-Bold-5f" x="437.5"/>
       <use xlink:href="#DejaVuSerif-Bold-30" x="487.5"/>
       <use xlink:href="#DejaVuSerif-Bold-31" x="557.080078"/>
       <use xlink:href="#DejaVuSerif-Bold-33" x="626.660156"/>
       <use xlink:href="#DejaVuSerif-Bold-36" x="696.240234"/>
      </g>
     </g>
    </g>
   </g>
   <g id="patch_18">
    <path d="M 113.755625 490.66 
L 561.615625 490.66 
" style="fill: none; stroke: #000000; stroke-width: 0.8; stroke-linejoin: miter; stroke-linecap: square"/>
   </g>
  </g>
 </g>
 <defs>
  <clipPath id="pbd323e76be">
   <rect x="113.755625" y="7.2" width="447.86" height="483.46"/>
  </clipPath>
 </defs>
</svg>
