<?xml version="1.0" encoding="utf-8" standalone="no"?>
<!DOCTYPE svg PUBLIC "-//W3C//DTD SVG 1.1//EN"
  "http://www.w3.org/Graphics/SVG/1.1/DTD/svg11.dtd">
<svg xmlns:xlink="http://www.w3.org/1999/xlink" width="973.588437pt" height="428.547344pt" viewBox="0 0 973.588437 428.547344" xmlns="http://www.w3.org/2000/svg" version="1.1">
 <metadata>
  <rdf:RDF xmlns:dc="http://purl.org/dc/elements/1.1/" xmlns:cc="http://creativecommons.org/ns#" xmlns:rdf="http://www.w3.org/1999/02/22-rdf-syntax-ns#">
   <cc:Work>
    <dc:type rdf:resource="http://purl.org/dc/dcmitype/StillImage"/>
    <dc:date>2024-06-05T22:40:21.139967</dc:date>
    <dc:format>image/svg+xml</dc:format>
    <dc:creator>
     <cc:Agent>
      <dc:title>Matplotlib v3.6.0, https://matplotlib.org/</dc:title>
     </cc:Agent>
    </dc:creator>
   </cc:Work>
  </rdf:RDF>
 </metadata>
 <defs>
  <style type="text/css">*{stroke-linejoin: round; stroke-linecap: butt}</style>
 </defs>
 <g id="figure_1">
  <g id="patch_1">
   <path d="M 0 428.547344 
L 973.588437 428.547344 
L 973.588437 0 
L 0 0 
z
" style="fill: #ffffff"/>
  </g>
  <g id="axes_1">
   <g id="patch_2">
    <path d="M 73.588438 400.598906 
L 966.388438 400.598906 
L 966.388438 12.518906 
L 73.588438 12.518906 
z
" style="fill: #ffffff"/>
   </g>
   <g id="patch_3">
    <path d="M 114.170256 1121.318906 
L 129.439825 1121.318906 
L 129.439825 187.709306 
L 114.170256 187.709306 
z
" clip-path="url(#pee28b912aa)" style="fill: #d3eecd"/>
   </g>
   <g id="patch_4">
    <path d="M 231.628485 1121.318906 
L 246.898055 1121.318906 
L 246.898055 86.808506 
L 231.628485 86.808506 
z
" clip-path="url(#pee28b912aa)" style="fill: #d3eecd"/>
   </g>
   <g id="patch_5">
    <path d="M 349.086714 1121.318906 
L 364.356284 1121.318906 
L 364.356284 189.926906 
L 349.086714 189.926906 
z
" clip-path="url(#pee28b912aa)" style="fill: #d3eecd"/>
   </g>
   <g id="patch_6">
    <path d="M 466.544943 1121.318906 
L 481.814513 1121.318906 
L 481.814513 365.117306 
L 466.544943 365.117306 
z
" clip-path="url(#pee28b912aa)" style="fill: #d3eecd"/>
   </g>
   <g id="patch_7">
    <path d="M 584.003172 1121.318906 
L 599.272742 1121.318906 
L 599.272742 185.491706 
L 584.003172 185.491706 
z
" clip-path="url(#pee28b912aa)" style="fill: #d3eecd"/>
   </g>
   <g id="patch_8">
    <path d="M 701.461402 1121.318906 
L 716.730971 1121.318906 
L 716.730971 192.144506 
L 701.461402 192.144506 
z
" clip-path="url(#pee28b912aa)" style="fill: #d3eecd"/>
   </g>
   <g id="patch_9">
    <path d="M 818.919631 1121.318906 
L 834.189201 1121.318906 
L 834.189201 137.813306 
L 818.919631 137.813306 
z
" clip-path="url(#pee28b912aa)" style="fill: #d3eecd"/>
   </g>
   <g id="patch_10">
    <path d="M 129.439825 1121.318906 
L 144.709395 1121.318906 
L 144.709395 167.750906 
L 129.439825 167.750906 
z
" clip-path="url(#pee28b912aa)" style="fill: #bde5b6"/>
   </g>
   <g id="patch_11">
    <path d="M 246.898055 1121.318906 
L 262.167624 1121.318906 
L 262.167624 85.699706 
L 246.898055 85.699706 
z
" clip-path="url(#pee28b912aa)" style="fill: #bde5b6"/>
   </g>
   <g id="patch_12">
    <path d="M 364.356284 1121.318906 
L 379.625854 1121.318906 
L 379.625854 169.968506 
L 364.356284 169.968506 
z
" clip-path="url(#pee28b912aa)" style="fill: #bde5b6"/>
   </g>
   <g id="patch_13">
    <path d="M 481.814513 1121.318906 
L 497.084083 1121.318906 
L 497.084083 326.309306 
L 481.814513 326.309306 
z
" clip-path="url(#pee28b912aa)" style="fill: #bde5b6"/>
   </g>
   <g id="patch_14">
    <path d="M 599.272742 1121.318906 
L 614.542312 1121.318906 
L 614.542312 165.533306 
L 599.272742 165.533306 
z
" clip-path="url(#pee28b912aa)" style="fill: #bde5b6"/>
   </g>
   <g id="patch_15">
    <path d="M 716.730971 1121.318906 
L 732.000541 1121.318906 
L 732.000541 173.294906 
L 716.730971 173.294906 
z
" clip-path="url(#pee28b912aa)" style="fill: #bde5b6"/>
   </g>
   <g id="patch_16">
    <path d="M 834.189201 1121.318906 
L 849.45877 1121.318906 
L 849.45877 120.072506 
L 834.189201 120.072506 
z
" clip-path="url(#pee28b912aa)" style="fill: #bde5b6"/>
   </g>
   <g id="patch_17">
    <path d="M 144.709395 1121.318906 
L 159.978965 1121.318906 
L 159.978965 167.750906 
L 144.709395 167.750906 
z
" clip-path="url(#pee28b912aa)" style="fill: #a4da9e"/>
   </g>
   <g id="patch_18">
    <path d="M 262.167624 1121.318906 
L 277.437194 1121.318906 
L 277.437194 85.699706 
L 262.167624 85.699706 
z
" clip-path="url(#pee28b912aa)" style="fill: #a4da9e"/>
   </g>
   <g id="patch_19">
    <path d="M 379.625854 1121.318906 
L 394.895423 1121.318906 
L 394.895423 169.968506 
L 379.625854 169.968506 
z
" clip-path="url(#pee28b912aa)" style="fill: #a4da9e"/>
   </g>
   <g id="patch_20">
    <path d="M 497.084083 1121.318906 
L 512.353653 1121.318906 
L 512.353653 326.309306 
L 497.084083 326.309306 
z
" clip-path="url(#pee28b912aa)" style="fill: #a4da9e"/>
   </g>
   <g id="patch_21">
    <path d="M 614.542312 1121.318906 
L 629.811882 1121.318906 
L 629.811882 165.533306 
L 614.542312 165.533306 
z
" clip-path="url(#pee28b912aa)" style="fill: #a4da9e"/>
   </g>
   <g id="patch_22">
    <path d="M 732.000541 1121.318906 
L 747.270111 1121.318906 
L 747.270111 173.294906 
L 732.000541 173.294906 
z
" clip-path="url(#pee28b912aa)" style="fill: #a4da9e"/>
   </g>
   <g id="patch_23">
    <path d="M 849.45877 1121.318906 
L 864.72834 1121.318906 
L 864.72834 120.072506 
L 849.45877 120.072506 
z
" clip-path="url(#pee28b912aa)" style="fill: #a4da9e"/>
   </g>
   <g id="patch_24">
    <path d="M 159.978965 1121.318906 
L 175.248535 1121.318906 
L 175.248535 158.413643 
L 159.978965 158.413643 
z
" clip-path="url(#pee28b912aa)" style="fill: #86cc85"/>
   </g>
   <g id="patch_25">
    <path d="M 277.437194 1121.318906 
L 292.706764 1121.318906 
L 292.706764 79.755383 
L 277.437194 79.755383 
z
" clip-path="url(#pee28b912aa)" style="fill: #86cc85"/>
   </g>
   <g id="patch_26">
    <path d="M 394.895423 1121.318906 
L 410.164993 1121.318906 
L 410.164993 177.192173 
L 394.895423 177.192173 
z
" clip-path="url(#pee28b912aa)" style="fill: #86cc85"/>
   </g>
   <g id="patch_27">
    <path d="M 512.353653 1121.318906 
L 527.623222 1121.318906 
L 527.623222 306.788238 
L 512.353653 306.788238 
z
" clip-path="url(#pee28b912aa)" style="fill: #86cc85"/>
   </g>
   <g id="patch_28">
    <path d="M 629.811882 1121.318906 
L 645.081452 1121.318906 
L 645.081452 148.290335 
L 629.811882 148.290335 
z
" clip-path="url(#pee28b912aa)" style="fill: #86cc85"/>
   </g>
   <g id="patch_29">
    <path d="M 747.270111 1121.318906 
L 762.539681 1121.318906 
L 762.539681 204.426598 
L 747.270111 204.426598 
z
" clip-path="url(#pee28b912aa)" style="fill: #86cc85"/>
   </g>
   <g id="patch_30">
    <path d="M 864.72834 1121.318906 
L 879.99791 1121.318906 
L 879.99791 119.822133 
L 864.72834 119.822133 
z
" clip-path="url(#pee28b912aa)" style="fill: #86cc85"/>
   </g>
   <g id="patch_31">
    <path d="M 175.248535 1121.318906 
L 190.518105 1121.318906 
L 190.518105 177.866275 
L 175.248535 177.866275 
z
" clip-path="url(#pee28b912aa)" style="fill: #66bd6f"/>
   </g>
   <g id="patch_32">
    <path d="M 292.706764 1121.318906 
L 307.976334 1121.318906 
L 307.976334 83.538509 
L 292.706764 83.538509 
z
" clip-path="url(#pee28b912aa)" style="fill: #66bd6f"/>
   </g>
   <g id="patch_33">
    <path d="M 410.164993 1121.318906 
L 425.434563 1121.318906 
L 425.434563 202.918907 
L 410.164993 202.918907 
z
" clip-path="url(#pee28b912aa)" style="fill: #66bd6f"/>
   </g>
   <g id="patch_34">
    <path d="M 527.623222 1121.318906 
L 542.892792 1121.318906 
L 542.892792 345.296549 
L 527.623222 345.296549 
z
" clip-path="url(#pee28b912aa)" style="fill: #66bd6f"/>
   </g>
   <g id="patch_35">
    <path d="M 645.081452 1121.318906 
L 660.351021 1121.318906 
L 660.351021 154.067842 
L 645.081452 154.067842 
z
" clip-path="url(#pee28b912aa)" style="fill: #66bd6f"/>
   </g>
   <g id="patch_36">
    <path d="M 762.539681 1121.318906 
L 777.809251 1121.318906 
L 777.809251 247.072753 
L 762.539681 247.072753 
z
" clip-path="url(#pee28b912aa)" style="fill: #66bd6f"/>
   </g>
   <g id="patch_37">
    <path d="M 879.99791 1121.318906 
L 895.26748 1121.318906 
L 895.26748 119.822133 
L 879.99791 119.822133 
z
" clip-path="url(#pee28b912aa)" style="fill: #66bd6f"/>
   </g>
   <g id="patch_38">
    <path d="M 190.518105 1121.318906 
L 205.787674 1121.318906 
L 205.787674 168.139959 
L 190.518105 168.139959 
z
" clip-path="url(#pee28b912aa)" style="fill: #45ad5f"/>
   </g>
   <g id="patch_39">
    <path d="M 307.976334 1121.318906 
L 323.245904 1121.318906 
L 323.245904 78.551661 
L 307.976334 78.551661 
z
" clip-path="url(#pee28b912aa)" style="fill: #45ad5f"/>
   </g>
   <g id="patch_40">
    <path d="M 425.434563 1121.318906 
L 440.704133 1121.318906 
L 440.704133 193.547478 
L 425.434563 193.547478 
z
" clip-path="url(#pee28b912aa)" style="fill: #45ad5f"/>
   </g>
   <g id="patch_41">
    <path d="M 542.892792 1121.318906 
L 558.162362 1121.318906 
L 558.162362 324.539742 
L 542.892792 324.539742 
z
" clip-path="url(#pee28b912aa)" style="fill: #45ad5f"/>
   </g>
   <g id="patch_42">
    <path d="M 660.351021 1121.318906 
L 675.620591 1121.318906 
L 675.620591 133.040645 
L 660.351021 133.040645 
z
" clip-path="url(#pee28b912aa)" style="fill: #45ad5f"/>
   </g>
   <g id="patch_43">
    <path d="M 777.809251 1121.318906 
L 793.07882 1121.318906 
L 793.07882 247.072753 
L 777.809251 247.072753 
z
" clip-path="url(#pee28b912aa)" style="fill: #45ad5f"/>
   </g>
   <g id="patch_44">
    <path d="M 895.26748 1121.318906 
L 910.53705 1121.318906 
L 910.53705 101.938261 
L 895.26748 101.938261 
z
" clip-path="url(#pee28b912aa)" style="fill: #45ad5f"/>
   </g>
   <g id="patch_45">
    <path d="M 205.787674 1121.318906 
L 221.057244 1121.318906 
L 221.057244 158.413643 
L 205.787674 158.413643 
z
" clip-path="url(#pee28b912aa)" style="fill: #2f974e"/>
   </g>
   <g id="patch_46">
    <path d="M 323.245904 1121.318906 
L 338.515473 1121.318906 
L 338.515473 79.239501 
L 323.245904 79.239501 
z
" clip-path="url(#pee28b912aa)" style="fill: #2f974e"/>
   </g>
   <g id="patch_47">
    <path d="M 440.704133 1121.318906 
L 455.973703 1121.318906 
L 455.973703 183.982823 
L 440.704133 183.982823 
z
" clip-path="url(#pee28b912aa)" style="fill: #2f974e"/>
   </g>
   <g id="patch_48">
    <path d="M 558.162362 1121.318906 
L 573.431932 1121.318906 
L 573.431932 303.370802 
L 558.162362 303.370802 
z
" clip-path="url(#pee28b912aa)" style="fill: #2f974e"/>
   </g>
   <g id="patch_49">
    <path d="M 675.620591 1121.318906 
L 690.890161 1121.318906 
L 690.890161 111.078906 
L 675.620591 111.078906 
z
" clip-path="url(#pee28b912aa)" style="fill: #2f974e"/>
   </g>
   <g id="patch_50">
    <path d="M 793.07882 1121.318906 
L 808.34839 1121.318906 
L 808.34839 247.072753 
L 793.07882 247.072753 
z
" clip-path="url(#pee28b912aa)" style="fill: #2f974e"/>
   </g>
   <g id="patch_51">
    <path d="M 910.53705 1121.318906 
L 925.806619 1121.318906 
L 925.806619 84.05439 
L 910.53705 84.05439 
z
" clip-path="url(#pee28b912aa)" style="fill: #2f974e"/>
   </g>
   <g id="matplotlib.axis_1">
    <g id="xtick_1">
     <g id="line2d_1">
      <defs>
       <path id="m47821216f3" d="M 0 0 
L 0 3.5 
" style="stroke: #000000; stroke-width: 0.8"/>
      </defs>
      <g>
       <use xlink:href="#m47821216f3" x="167.61375" y="400.598906" style="stroke: #000000; stroke-width: 0.8"/>
      </g>
     </g>
     <g id="text_1">
      <!-- Accuracy -->
      <g transform="translate(132.014375 418.037656) scale(0.14 -0.14)">
       <defs>
        <path id="DejaVuSerif-Bold-41" d="M -50 0 
L -50 378 
L 331 378 
L 2088 4666 
L 2834 4666 
L 4594 378 
L 5038 378 
L 5038 0 
L 2853 0 
L 2853 378 
L 3309 378 
L 2925 1331 
L 1172 1331 
L 781 378 
L 1338 378 
L 1338 0 
L -50 0 
z
M 1325 1709 
L 2772 1709 
L 2053 3494 
L 1325 1709 
z
" transform="scale(0.015625)"/>
        <path id="DejaVuSerif-Bold-63" d="M 3609 1038 
Q 3491 469 3123 189 
Q 2756 -91 2125 -91 
Q 1238 -91 750 368 
Q 263 828 263 1663 
Q 263 2488 744 2950 
Q 1225 3413 2081 3413 
Q 2428 3413 2781 3347 
Q 3134 3281 3500 3150 
L 3500 2228 
L 3150 2228 
Q 3100 2650 2903 2854 
Q 2706 3059 2350 3059 
Q 1888 3059 1692 2746 
Q 1497 2434 1497 1663 
Q 1497 909 1687 586 
Q 1878 263 2309 263 
Q 2644 263 2845 463 
Q 3047 663 3091 1038 
L 3609 1038 
z
" transform="scale(0.015625)"/>
        <path id="DejaVuSerif-Bold-75" d="M 3963 3322 
L 3963 378 
L 4434 378 
L 4434 0 
L 2853 0 
L 2853 469 
Q 2656 172 2400 40 
Q 2144 -91 1753 -91 
Q 1194 -91 908 239 
Q 622 569 622 1209 
L 622 2944 
L 147 2944 
L 147 3322 
L 1728 3322 
L 1728 1381 
Q 1728 763 1831 595 
Q 1934 428 2209 428 
Q 2544 428 2698 675 
Q 2853 922 2853 1459 
L 2853 2944 
L 2450 2944 
L 2450 3322 
L 3963 3322 
z
" transform="scale(0.015625)"/>
        <path id="DejaVuSerif-Bold-72" d="M 3438 3359 
L 3438 2369 
L 3084 2369 
Q 3066 2634 2941 2764 
Q 2816 2894 2578 2894 
Q 2216 2894 2006 2575 
Q 1797 2256 1797 1691 
L 1797 378 
L 2400 378 
L 2400 0 
L 219 0 
L 219 378 
L 691 378 
L 691 2944 
L 184 2944 
L 184 3322 
L 1797 3322 
L 1797 2731 
Q 1959 3078 2226 3245 
Q 2494 3413 2881 3413 
Q 2978 3413 3117 3398 
Q 3256 3384 3438 3359 
z
" transform="scale(0.015625)"/>
        <path id="DejaVuSerif-Bold-61" d="M 3525 2041 
L 3525 378 
L 4000 378 
L 4000 0 
L 2419 0 
L 2419 422 
Q 2200 159 1931 34 
Q 1663 -91 1319 -91 
Q 809 -91 536 182 
Q 263 456 263 966 
Q 263 1525 655 1803 
Q 1047 2081 1838 2081 
L 2419 2081 
L 2419 2278 
Q 2419 2681 2228 2873 
Q 2038 3066 1638 3066 
Q 1306 3066 1126 2930 
Q 947 2794 872 2484 
L 519 2484 
L 519 3200 
Q 816 3306 1134 3359 
Q 1453 3413 1806 3413 
Q 2697 3413 3111 3081 
Q 3525 2750 3525 2041 
z
M 2419 1044 
L 2419 1709 
L 2003 1709 
Q 1694 1709 1528 1540 
Q 1363 1372 1363 1056 
Q 1363 741 1483 584 
Q 1603 428 1850 428 
Q 2106 428 2262 597 
Q 2419 766 2419 1044 
z
" transform="scale(0.015625)"/>
        <path id="DejaVuSerif-Bold-79" d="M 1997 -750 
Q 1847 -1116 1634 -1269 
Q 1422 -1422 1063 -1422 
Q 909 -1422 721 -1387 
Q 534 -1353 313 -1288 
L 313 -594 
L 666 -597 
Q 675 -838 779 -953 
Q 884 -1069 1094 -1069 
Q 1297 -1069 1422 -958 
Q 1547 -847 1672 -538 
L 1722 -422 
L 275 2944 
L -84 2944 
L -84 3322 
L 1831 3322 
L 1831 2944 
L 1434 2944 
L 2278 978 
L 3066 2944 
L 2625 2944 
L 2625 3322 
L 3872 3322 
L 3872 2944 
L 3469 2944 
L 1997 -750 
z
" transform="scale(0.015625)"/>
       </defs>
       <use xlink:href="#DejaVuSerif-Bold-41"/>
       <use xlink:href="#DejaVuSerif-Bold-63" x="77.587891"/>
       <use xlink:href="#DejaVuSerif-Bold-63" x="138.476562"/>
       <use xlink:href="#DejaVuSerif-Bold-75" x="199.365234"/>
       <use xlink:href="#DejaVuSerif-Bold-72" x="272.070312"/>
       <use xlink:href="#DejaVuSerif-Bold-61" x="324.755859"/>
       <use xlink:href="#DejaVuSerif-Bold-63" x="389.550781"/>
       <use xlink:href="#DejaVuSerif-Bold-79" x="450.439453"/>
      </g>
     </g>
    </g>
    <g id="xtick_2">
     <g id="line2d_2">
      <g>
       <use xlink:href="#m47821216f3" x="285.071979" y="400.598906" style="stroke: #000000; stroke-width: 0.8"/>
      </g>
     </g>
     <g id="text_2">
      <!-- AUC -->
      <g transform="translate(267.964635 418.236719) scale(0.14 -0.14)">
       <defs>
        <path id="DejaVuSerif-Bold-55" d="M 813 4288 
L 219 4288 
L 219 4666 
L 2619 4666 
L 2619 4288 
L 2022 4288 
L 2022 1953 
Q 2022 1081 2294 732 
Q 2566 384 3225 384 
Q 3869 384 4139 736 
Q 4409 1088 4409 1953 
L 4409 4288 
L 3816 4288 
L 3816 4666 
L 5441 4666 
L 5441 4288 
L 4844 4288 
L 4844 1888 
Q 4844 819 4381 364 
Q 3919 -91 2828 -91 
Q 1744 -91 1278 368 
Q 813 828 813 1894 
L 813 4288 
z
" transform="scale(0.015625)"/>
        <path id="DejaVuSerif-Bold-43" d="M 4769 1331 
Q 4584 609 4106 259 
Q 3628 -91 2822 -91 
Q 1641 -91 955 561 
Q 269 1213 269 2328 
Q 269 3447 955 4098 
Q 1641 4750 2822 4750 
Q 3238 4750 3688 4650 
Q 4138 4550 4641 4347 
L 4641 3200 
L 4244 3200 
Q 4122 3788 3800 4080 
Q 3478 4372 2950 4372 
Q 2269 4372 1937 3870 
Q 1606 3369 1606 2328 
Q 1606 1288 1937 788 
Q 2269 288 2956 288 
Q 3422 288 3717 547 
Q 4013 806 4147 1331 
L 4769 1331 
z
" transform="scale(0.015625)"/>
       </defs>
       <use xlink:href="#DejaVuSerif-Bold-41"/>
       <use xlink:href="#DejaVuSerif-Bold-55" x="77.587891"/>
       <use xlink:href="#DejaVuSerif-Bold-43" x="164.794922"/>
      </g>
     </g>
    </g>
    <g id="xtick_3">
     <g id="line2d_3">
      <g>
       <use xlink:href="#m47821216f3" x="402.530208" y="400.598906" style="stroke: #000000; stroke-width: 0.8"/>
      </g>
     </g>
     <g id="text_3">
      <!-- F1 Score -->
      <g transform="translate(368.124115 418.236719) scale(0.14 -0.14)">
       <defs>
        <path id="DejaVuSerif-Bold-46" d="M 300 0 
L 300 378 
L 897 378 
L 897 4288 
L 300 4288 
L 300 4666 
L 4459 4666 
L 4459 3566 
L 4031 3566 
L 4031 4238 
L 2106 4238 
L 2106 2741 
L 3291 2741 
L 3291 3334 
L 3719 3334 
L 3719 1722 
L 3291 1722 
L 3291 2316 
L 2106 2316 
L 2106 378 
L 2841 378 
L 2841 0 
L 300 0 
z
" transform="scale(0.015625)"/>
        <path id="DejaVuSerif-Bold-31" d="M 878 0 
L 878 378 
L 1753 378 
L 1753 4153 
L 781 3578 
L 781 4044 
L 1953 4750 
L 2938 4750 
L 2938 378 
L 3816 378 
L 3816 0 
L 878 0 
z
" transform="scale(0.015625)"/>
        <path id="DejaVuSerif-Bold-20" transform="scale(0.015625)"/>
        <path id="DejaVuSerif-Bold-53" d="M 494 225 
L 494 1331 
L 891 1331 
Q 981 806 1318 547 
Q 1656 288 2253 288 
Q 2738 288 2991 472 
Q 3244 656 3244 1013 
Q 3244 1294 3072 1450 
Q 2900 1606 2363 1741 
L 1663 1913 
Q 978 2088 700 2398 
Q 422 2709 422 3284 
Q 422 3978 883 4364 
Q 1344 4750 2175 4750 
Q 2584 4750 3026 4681 
Q 3469 4613 3944 4475 
L 3944 3444 
L 3547 3444 
Q 3456 3925 3150 4148 
Q 2844 4372 2278 4372 
Q 1816 4372 1580 4211 
Q 1344 4050 1344 3731 
Q 1344 3441 1506 3289 
Q 1669 3138 2303 2975 
L 3003 2803 
Q 3653 2641 3945 2297 
Q 4238 1953 4238 1350 
Q 4238 644 3750 276 
Q 3263 -91 2316 -91 
Q 1859 -91 1409 -12 
Q 959 66 494 225 
z
" transform="scale(0.015625)"/>
        <path id="DejaVuSerif-Bold-6f" d="M 2138 263 
Q 2488 263 2630 563 
Q 2772 863 2772 1663 
Q 2772 2463 2631 2761 
Q 2491 3059 2138 3059 
Q 1784 3059 1640 2757 
Q 1497 2456 1497 1663 
Q 1497 869 1640 566 
Q 1784 263 2138 263 
z
M 2138 -91 
Q 1259 -91 761 376 
Q 263 844 263 1663 
Q 263 2484 761 2948 
Q 1259 3413 2138 3413 
Q 3019 3413 3516 2948 
Q 4013 2484 4013 1663 
Q 4013 844 3514 376 
Q 3016 -91 2138 -91 
z
" transform="scale(0.015625)"/>
        <path id="DejaVuSerif-Bold-65" d="M 2566 1875 
Q 2566 2531 2444 2795 
Q 2322 3059 2028 3059 
Q 1744 3059 1620 2800 
Q 1497 2541 1497 1931 
L 1497 1875 
L 2566 1875 
z
M 3781 1503 
L 1497 1503 
L 1497 1478 
Q 1497 834 1690 548 
Q 1884 263 2316 263 
Q 2675 263 2897 453 
Q 3119 644 3181 1006 
L 3700 1006 
Q 3566 441 3166 175 
Q 2766 -91 2047 -91 
Q 1184 -91 723 364 
Q 263 819 263 1663 
Q 263 2488 734 2950 
Q 1206 3413 2047 3413 
Q 2872 3413 3312 2927 
Q 3753 2441 3781 1503 
z
" transform="scale(0.015625)"/>
       </defs>
       <use xlink:href="#DejaVuSerif-Bold-46"/>
       <use xlink:href="#DejaVuSerif-Bold-31" x="70.996094"/>
       <use xlink:href="#DejaVuSerif-Bold-20" x="140.576172"/>
       <use xlink:href="#DejaVuSerif-Bold-53" x="175.390625"/>
       <use xlink:href="#DejaVuSerif-Bold-63" x="247.607422"/>
       <use xlink:href="#DejaVuSerif-Bold-6f" x="308.496094"/>
       <use xlink:href="#DejaVuSerif-Bold-72" x="375.195312"/>
       <use xlink:href="#DejaVuSerif-Bold-65" x="427.880859"/>
      </g>
     </g>
    </g>
    <g id="xtick_4">
     <g id="line2d_4">
      <g>
       <use xlink:href="#m47821216f3" x="519.988437" y="400.598906" style="stroke: #000000; stroke-width: 0.8"/>
      </g>
     </g>
     <g id="text_4">
      <!-- MCC -->
      <g transform="translate(501.097187 418.236719) scale(0.14 -0.14)">
       <defs>
        <path id="DejaVuSerif-Bold-4d" d="M 269 0 
L 269 378 
L 863 378 
L 863 4288 
L 269 4288 
L 269 4666 
L 2194 4666 
L 3525 1672 
L 4863 4666 
L 6784 4666 
L 6784 4288 
L 6188 4288 
L 6188 378 
L 6784 378 
L 6784 0 
L 4384 0 
L 4384 378 
L 4978 378 
L 4978 3938 
L 3531 684 
L 2741 684 
L 1300 3938 
L 1300 378 
L 1894 378 
L 1894 0 
L 269 0 
z
" transform="scale(0.015625)"/>
       </defs>
       <use xlink:href="#DejaVuSerif-Bold-4d"/>
       <use xlink:href="#DejaVuSerif-Bold-43" x="110.693359"/>
       <use xlink:href="#DejaVuSerif-Bold-43" x="190.283203"/>
      </g>
     </g>
    </g>
    <g id="xtick_5">
     <g id="line2d_5">
      <g>
       <use xlink:href="#m47821216f3" x="637.446667" y="400.598906" style="stroke: #000000; stroke-width: 0.8"/>
      </g>
     </g>
     <g id="text_5">
      <!-- Precision -->
      <g transform="translate(600.761198 418.236719) scale(0.14 -0.14)">
       <defs>
        <path id="DejaVuSerif-Bold-50" d="M 300 0 
L 300 378 
L 897 378 
L 897 4288 
L 300 4288 
L 300 4666 
L 2956 4666 
Q 3734 4666 4193 4295 
Q 4653 3925 4653 3303 
Q 4653 2678 4192 2304 
Q 3731 1931 2956 1931 
L 2100 1931 
L 2100 378 
L 2853 378 
L 2853 0 
L 300 0 
z
M 2100 2309 
L 2450 2309 
Q 2856 2309 3098 2579 
Q 3341 2850 3341 3303 
Q 3341 3753 3100 4020 
Q 2859 4288 2450 4288 
L 2100 4288 
L 2100 2309 
z
" transform="scale(0.015625)"/>
        <path id="DejaVuSerif-Bold-69" d="M 588 4263 
Q 588 4516 763 4689 
Q 938 4863 1191 4863 
Q 1438 4863 1611 4689 
Q 1784 4516 1784 4263 
Q 1784 4016 1611 3842 
Q 1438 3669 1191 3669 
Q 938 3669 763 3841 
Q 588 4013 588 4263 
z
M 1797 378 
L 2272 378 
L 2272 0 
L 219 0 
L 219 378 
L 691 378 
L 691 2944 
L 219 2944 
L 219 3322 
L 1797 3322 
L 1797 378 
z
" transform="scale(0.015625)"/>
        <path id="DejaVuSerif-Bold-73" d="M 300 97 
L 300 1025 
L 653 1025 
Q 697 653 931 458 
Q 1166 263 1569 263 
Q 1906 263 2086 380 
Q 2266 497 2266 716 
Q 2266 916 2152 1025 
Q 2038 1134 1709 1216 
L 1253 1331 
Q 738 1459 506 1698 
Q 275 1938 275 2344 
Q 275 2884 650 3148 
Q 1025 3413 1806 3413 
Q 2100 3413 2433 3364 
Q 2766 3316 3169 3213 
L 3169 2375 
L 2816 2375 
Q 2788 2716 2573 2887 
Q 2359 3059 1959 3059 
Q 1622 3059 1448 2951 
Q 1275 2844 1275 2638 
Q 1275 2469 1375 2372 
Q 1475 2275 1734 2209 
L 2188 2094 
Q 2841 1928 3091 1684 
Q 3341 1441 3341 1006 
Q 3341 444 2939 176 
Q 2538 -91 1691 -91 
Q 1381 -91 1034 -44 
Q 688 3 300 97 
z
" transform="scale(0.015625)"/>
        <path id="DejaVuSerif-Bold-6e" d="M 219 0 
L 219 378 
L 691 378 
L 691 2944 
L 219 2944 
L 219 3322 
L 1797 3322 
L 1797 2853 
Q 1997 3150 2253 3281 
Q 2509 3413 2900 3413 
Q 3459 3413 3745 3083 
Q 4031 2753 4031 2113 
L 4031 378 
L 4506 378 
L 4506 0 
L 2522 0 
L 2522 378 
L 2925 378 
L 2925 2144 
Q 2925 2566 2817 2730 
Q 2709 2894 2444 2894 
Q 2109 2894 1953 2648 
Q 1797 2403 1797 1869 
L 1797 378 
L 2203 378 
L 2203 0 
L 219 0 
z
" transform="scale(0.015625)"/>
       </defs>
       <use xlink:href="#DejaVuSerif-Bold-50"/>
       <use xlink:href="#DejaVuSerif-Bold-72" x="75.195312"/>
       <use xlink:href="#DejaVuSerif-Bold-65" x="127.880859"/>
       <use xlink:href="#DejaVuSerif-Bold-63" x="191.503906"/>
       <use xlink:href="#DejaVuSerif-Bold-69" x="252.392578"/>
       <use xlink:href="#DejaVuSerif-Bold-73" x="290.380859"/>
       <use xlink:href="#DejaVuSerif-Bold-69" x="346.679688"/>
       <use xlink:href="#DejaVuSerif-Bold-6f" x="384.667969"/>
       <use xlink:href="#DejaVuSerif-Bold-6e" x="451.367188"/>
      </g>
     </g>
    </g>
    <g id="xtick_6">
     <g id="line2d_6">
      <g>
       <use xlink:href="#m47821216f3" x="754.904896" y="400.598906" style="stroke: #000000; stroke-width: 0.8"/>
      </g>
     </g>
     <g id="text_6">
      <!-- Recall -->
      <g transform="translate(730.517552 418.236719) scale(0.14 -0.14)">
       <defs>
        <path id="DejaVuSerif-Bold-52" d="M 3397 2278 
Q 3675 2238 3865 2094 
Q 4056 1950 4197 1678 
L 4878 378 
L 5356 378 
L 5356 0 
L 3822 0 
L 3078 1409 
Q 2863 1847 2711 1967 
Q 2559 2088 2291 2088 
L 2100 2088 
L 2100 378 
L 2700 378 
L 2700 0 
L 300 0 
L 300 378 
L 897 378 
L 897 4288 
L 300 4288 
L 300 4666 
L 2963 4666 
Q 3775 4666 4217 4339 
Q 4659 4013 4659 3413 
Q 4659 2925 4345 2642 
Q 4031 2359 3397 2278 
z
M 2100 2463 
L 2509 2463 
Q 2947 2463 3183 2700 
Q 3419 2938 3419 3378 
Q 3419 3819 3183 4053 
Q 2947 4288 2509 4288 
L 2100 4288 
L 2100 2463 
z
" transform="scale(0.015625)"/>
        <path id="DejaVuSerif-Bold-6c" d="M 1797 378 
L 2272 378 
L 2272 0 
L 219 0 
L 219 378 
L 691 378 
L 691 4488 
L 219 4488 
L 219 4863 
L 1797 4863 
L 1797 378 
z
" transform="scale(0.015625)"/>
       </defs>
       <use xlink:href="#DejaVuSerif-Bold-52"/>
       <use xlink:href="#DejaVuSerif-Bold-65" x="83.105469"/>
       <use xlink:href="#DejaVuSerif-Bold-63" x="146.728516"/>
       <use xlink:href="#DejaVuSerif-Bold-61" x="207.617188"/>
       <use xlink:href="#DejaVuSerif-Bold-6c" x="272.412109"/>
       <use xlink:href="#DejaVuSerif-Bold-6c" x="310.400391"/>
      </g>
     </g>
    </g>
    <g id="xtick_7">
     <g id="line2d_7">
      <g>
       <use xlink:href="#m47821216f3" x="872.363125" y="400.598906" style="stroke: #000000; stroke-width: 0.8"/>
      </g>
     </g>
     <g id="text_7">
      <!-- Specificity -->
      <g transform="translate(831.14625 418.236719) scale(0.14 -0.14)">
       <defs>
        <path id="DejaVuSerif-Bold-70" d="M 1728 1825 
L 1728 1497 
Q 1728 916 1876 656 
Q 2025 397 2356 397 
Q 2697 397 2836 672 
Q 2975 947 2975 1663 
Q 2975 2378 2836 2651 
Q 2697 2925 2356 2925 
Q 2025 2925 1876 2665 
Q 1728 2406 1728 1825 
z
M 622 2944 
L 147 2944 
L 147 3322 
L 1728 3322 
L 1728 2900 
Q 1869 3159 2106 3286 
Q 2344 3413 2694 3413 
Q 3403 3413 3811 2945 
Q 4219 2478 4219 1663 
Q 4219 847 3811 378 
Q 3403 -91 2694 -91 
Q 2344 -91 2106 36 
Q 1869 163 1728 422 
L 1728 -953 
L 2241 -953 
L 2241 -1331 
L 147 -1331 
L 147 -953 
L 622 -953 
L 622 2944 
z
" transform="scale(0.015625)"/>
        <path id="DejaVuSerif-Bold-66" d="M 3097 4031 
L 2747 4031 
Q 2722 4275 2605 4394 
Q 2488 4513 2272 4513 
Q 2022 4513 1909 4333 
Q 1797 4153 1797 3750 
L 1797 3322 
L 2631 3322 
L 2631 2944 
L 1797 2944 
L 1797 378 
L 2438 378 
L 2438 0 
L 219 0 
L 219 378 
L 691 378 
L 691 2944 
L 197 2944 
L 197 3322 
L 691 3322 
L 691 3738 
Q 691 4291 1044 4577 
Q 1397 4863 2081 4863 
Q 2347 4863 2600 4833 
Q 2853 4803 3097 4744 
L 3097 4031 
z
" transform="scale(0.015625)"/>
        <path id="DejaVuSerif-Bold-74" d="M 634 2944 
L 153 2944 
L 153 3322 
L 634 3322 
L 634 4353 
L 1741 4353 
L 1741 3322 
L 2663 3322 
L 2663 2944 
L 1741 2944 
L 1741 909 
Q 1741 475 1809 369 
Q 1878 263 2059 263 
Q 2259 263 2356 397 
Q 2453 531 2459 813 
L 2925 813 
Q 2897 313 2651 111 
Q 2406 -91 1806 -91 
Q 1122 -91 878 123 
Q 634 338 634 909 
L 634 2944 
z
" transform="scale(0.015625)"/>
       </defs>
       <use xlink:href="#DejaVuSerif-Bold-53"/>
       <use xlink:href="#DejaVuSerif-Bold-70" x="72.216797"/>
       <use xlink:href="#DejaVuSerif-Bold-65" x="142.138672"/>
       <use xlink:href="#DejaVuSerif-Bold-63" x="205.761719"/>
       <use xlink:href="#DejaVuSerif-Bold-69" x="266.650391"/>
       <use xlink:href="#DejaVuSerif-Bold-66" x="304.638672"/>
       <use xlink:href="#DejaVuSerif-Bold-69" x="347.65625"/>
       <use xlink:href="#DejaVuSerif-Bold-63" x="385.644531"/>
       <use xlink:href="#DejaVuSerif-Bold-69" x="446.533203"/>
       <use xlink:href="#DejaVuSerif-Bold-74" x="484.521484"/>
       <use xlink:href="#DejaVuSerif-Bold-79" x="530.712891"/>
      </g>
     </g>
    </g>
   </g>
   <g id="matplotlib.axis_2">
    <g id="ytick_1">
     <g id="line2d_8">
      <defs>
       <path id="m3ad69b578c" d="M 0 0 
L -3.5 0 
" style="stroke: #000000; stroke-width: 0.8"/>
      </defs>
      <g>
       <use xlink:href="#m3ad69b578c" x="73.588438" y="400.598906" style="stroke: #000000; stroke-width: 0.8"/>
      </g>
     </g>
     <g id="text_8">
      <!-- 0.65 -->
      <g transform="translate(32.491875 405.917812) scale(0.14 -0.14)">
       <defs>
        <path id="DejaVuSerif-Bold-30" d="M 2228 275 
Q 2603 275 2742 615 
Q 2881 956 2881 2328 
Q 2881 3691 2742 4037 
Q 2603 4384 2228 4384 
Q 1853 4384 1714 4043 
Q 1575 3703 1575 2328 
Q 1575 956 1714 615 
Q 1853 275 2228 275 
z
M 2228 -91 
Q 1294 -91 797 532 
Q 300 1156 300 2328 
Q 300 3500 797 4125 
Q 1294 4750 2228 4750 
Q 3159 4750 3656 4125 
Q 4153 3500 4153 2328 
Q 4153 1156 3656 532 
Q 3159 -91 2228 -91 
z
" transform="scale(0.015625)"/>
        <path id="DejaVuSerif-Bold-2e" d="M 519 506 
Q 519 750 694 925 
Q 869 1100 1113 1100 
Q 1359 1100 1534 925 
Q 1709 750 1709 506 
Q 1709 259 1534 84 
Q 1359 -91 1113 -91 
Q 869 -91 694 84 
Q 519 259 519 506 
z
" transform="scale(0.015625)"/>
        <path id="DejaVuSerif-Bold-36" d="M 1575 2766 
Q 1778 2928 2029 3009 
Q 2281 3091 2578 3091 
Q 3294 3091 3701 2672 
Q 4109 2253 4109 1522 
Q 4109 750 3650 329 
Q 3191 -91 2344 -91 
Q 1388 -91 895 486 
Q 403 1063 403 2181 
Q 403 3453 950 4101 
Q 1497 4750 2572 4750 
Q 2853 4750 3175 4703 
Q 3497 4656 3866 4563 
L 3866 3738 
L 3488 3738 
Q 3409 4056 3192 4220 
Q 2975 4384 2631 4384 
Q 2075 4384 1826 4003 
Q 1578 3622 1575 2766 
z
M 2272 275 
Q 2594 275 2731 548 
Q 2869 822 2869 1497 
Q 2869 2172 2731 2445 
Q 2594 2719 2272 2719 
Q 1950 2719 1814 2445 
Q 1678 2172 1678 1497 
Q 1678 822 1814 548 
Q 1950 275 2272 275 
z
" transform="scale(0.015625)"/>
        <path id="DejaVuSerif-Bold-35" d="M 3609 4666 
L 3609 3847 
L 1113 3847 
L 1113 2822 
Q 1319 2981 1572 3062 
Q 1825 3144 2106 3144 
Q 2969 3144 3469 2708 
Q 3969 2272 3969 1522 
Q 3969 759 3469 334 
Q 2969 -91 2069 -91 
Q 1688 -91 1311 -28 
Q 934 34 525 166 
L 525 1184 
L 900 1184 
Q 919 725 1139 500 
Q 1359 275 1791 275 
Q 2250 275 2472 583 
Q 2694 891 2694 1522 
Q 2694 2144 2476 2451 
Q 2259 2759 1819 2759 
Q 1581 2759 1395 2661 
Q 1209 2563 1050 2356 
L 738 2356 
L 738 4666 
L 3609 4666 
z
" transform="scale(0.015625)"/>
       </defs>
       <use xlink:href="#DejaVuSerif-Bold-30"/>
       <use xlink:href="#DejaVuSerif-Bold-2e" x="69.580078"/>
       <use xlink:href="#DejaVuSerif-Bold-36" x="104.394531"/>
       <use xlink:href="#DejaVuSerif-Bold-35" x="173.974609"/>
      </g>
     </g>
    </g>
    <g id="ytick_2">
     <g id="line2d_9">
      <g>
       <use xlink:href="#m3ad69b578c" x="73.588438" y="345.158906" style="stroke: #000000; stroke-width: 0.8"/>
      </g>
     </g>
     <g id="text_9">
      <!-- 0.70 -->
      <g transform="translate(32.491875 350.477812) scale(0.14 -0.14)">
       <defs>
        <path id="DejaVuSerif-Bold-37" d="M 3922 3872 
L 1997 0 
L 1363 0 
L 3238 3781 
L 934 3781 
L 934 3150 
L 506 3150 
L 506 4666 
L 3922 4666 
L 3922 3872 
z
" transform="scale(0.015625)"/>
       </defs>
       <use xlink:href="#DejaVuSerif-Bold-30"/>
       <use xlink:href="#DejaVuSerif-Bold-2e" x="69.580078"/>
       <use xlink:href="#DejaVuSerif-Bold-37" x="104.394531"/>
       <use xlink:href="#DejaVuSerif-Bold-30" x="173.974609"/>
      </g>
     </g>
    </g>
    <g id="ytick_3">
     <g id="line2d_10">
      <g>
       <use xlink:href="#m3ad69b578c" x="73.588438" y="289.718906" style="stroke: #000000; stroke-width: 0.8"/>
      </g>
     </g>
     <g id="text_10">
      <!-- 0.75 -->
      <g transform="translate(32.491875 295.037812) scale(0.14 -0.14)">
       <use xlink:href="#DejaVuSerif-Bold-30"/>
       <use xlink:href="#DejaVuSerif-Bold-2e" x="69.580078"/>
       <use xlink:href="#DejaVuSerif-Bold-37" x="104.394531"/>
       <use xlink:href="#DejaVuSerif-Bold-35" x="173.974609"/>
      </g>
     </g>
    </g>
    <g id="ytick_4">
     <g id="line2d_11">
      <g>
       <use xlink:href="#m3ad69b578c" x="73.588438" y="234.278906" style="stroke: #000000; stroke-width: 0.8"/>
      </g>
     </g>
     <g id="text_11">
      <!-- 0.80 -->
      <g transform="translate(32.491875 239.597812) scale(0.14 -0.14)">
       <defs>
        <path id="DejaVuSerif-Bold-38" d="M 2975 2484 
Q 3531 2394 3820 2075 
Q 4109 1756 4109 1241 
Q 4109 597 3623 253 
Q 3138 -91 2222 -91 
Q 1306 -91 818 253 
Q 331 597 331 1241 
Q 331 1756 622 2075 
Q 913 2394 1466 2484 
Q 975 2597 731 2861 
Q 488 3125 488 3531 
Q 488 4125 931 4437 
Q 1375 4750 2222 4750 
Q 3066 4750 3511 4437 
Q 3956 4125 3956 3531 
Q 3956 3125 3711 2861 
Q 3466 2597 2975 2484 
z
M 2747 3519 
Q 2747 4013 2628 4198 
Q 2509 4384 2222 4384 
Q 1931 4384 1814 4198 
Q 1697 4013 1697 3519 
Q 1697 3028 1814 2845 
Q 1931 2663 2222 2663 
Q 2513 2663 2630 2845 
Q 2747 3028 2747 3519 
z
M 2869 1294 
Q 2869 1866 2723 2081 
Q 2578 2297 2222 2297 
Q 1863 2297 1719 2081 
Q 1575 1866 1575 1294 
Q 1575 716 1720 495 
Q 1866 275 2222 275 
Q 2575 275 2722 495 
Q 2869 716 2869 1294 
z
" transform="scale(0.015625)"/>
       </defs>
       <use xlink:href="#DejaVuSerif-Bold-30"/>
       <use xlink:href="#DejaVuSerif-Bold-2e" x="69.580078"/>
       <use xlink:href="#DejaVuSerif-Bold-38" x="104.394531"/>
       <use xlink:href="#DejaVuSerif-Bold-30" x="173.974609"/>
      </g>
     </g>
    </g>
    <g id="ytick_5">
     <g id="line2d_12">
      <g>
       <use xlink:href="#m3ad69b578c" x="73.588438" y="178.838906" style="stroke: #000000; stroke-width: 0.8"/>
      </g>
     </g>
     <g id="text_12">
      <!-- 0.85 -->
      <g transform="translate(32.491875 184.157812) scale(0.14 -0.14)">
       <use xlink:href="#DejaVuSerif-Bold-30"/>
       <use xlink:href="#DejaVuSerif-Bold-2e" x="69.580078"/>
       <use xlink:href="#DejaVuSerif-Bold-38" x="104.394531"/>
       <use xlink:href="#DejaVuSerif-Bold-35" x="173.974609"/>
      </g>
     </g>
    </g>
    <g id="ytick_6">
     <g id="line2d_13">
      <g>
       <use xlink:href="#m3ad69b578c" x="73.588438" y="123.398906" style="stroke: #000000; stroke-width: 0.8"/>
      </g>
     </g>
     <g id="text_13">
      <!-- 0.90 -->
      <g transform="translate(32.491875 128.717812) scale(0.14 -0.14)">
       <defs>
        <path id="DejaVuSerif-Bold-39" d="M 2181 4384 
Q 1859 4384 1723 4111 
Q 1588 3838 1588 3163 
Q 1588 2488 1723 2214 
Q 1859 1941 2181 1941 
Q 2503 1941 2640 2214 
Q 2778 2488 2778 3163 
Q 2778 3838 2640 4111 
Q 2503 4384 2181 4384 
z
M 2878 1900 
Q 2672 1734 2420 1651 
Q 2169 1569 1875 1569 
Q 1163 1569 755 1986 
Q 347 2403 347 3138 
Q 347 3913 803 4331 
Q 1259 4750 2106 4750 
Q 3063 4750 3556 4172 
Q 4050 3594 4050 2478 
Q 4050 1206 3503 557 
Q 2956 -91 1881 -91 
Q 1600 -91 1278 -44 
Q 956 3 588 97 
L 588 922 
L 966 922 
Q 1044 603 1261 439 
Q 1478 275 1825 275 
Q 2375 275 2625 658 
Q 2875 1041 2878 1900 
z
" transform="scale(0.015625)"/>
       </defs>
       <use xlink:href="#DejaVuSerif-Bold-30"/>
       <use xlink:href="#DejaVuSerif-Bold-2e" x="69.580078"/>
       <use xlink:href="#DejaVuSerif-Bold-39" x="104.394531"/>
       <use xlink:href="#DejaVuSerif-Bold-30" x="173.974609"/>
      </g>
     </g>
    </g>
    <g id="ytick_7">
     <g id="line2d_14">
      <g>
       <use xlink:href="#m3ad69b578c" x="73.588438" y="67.958906" style="stroke: #000000; stroke-width: 0.8"/>
      </g>
     </g>
     <g id="text_14">
      <!-- 0.95 -->
      <g transform="translate(32.491875 73.277812) scale(0.14 -0.14)">
       <use xlink:href="#DejaVuSerif-Bold-30"/>
       <use xlink:href="#DejaVuSerif-Bold-2e" x="69.580078"/>
       <use xlink:href="#DejaVuSerif-Bold-39" x="104.394531"/>
       <use xlink:href="#DejaVuSerif-Bold-35" x="173.974609"/>
      </g>
     </g>
    </g>
    <g id="ytick_8">
     <g id="line2d_15">
      <g>
       <use xlink:href="#m3ad69b578c" x="73.588438" y="12.518906" style="stroke: #000000; stroke-width: 0.8"/>
      </g>
     </g>
     <g id="text_15">
      <!-- 1.00 -->
      <g transform="translate(32.491875 17.837812) scale(0.14 -0.14)">
       <use xlink:href="#DejaVuSerif-Bold-31"/>
       <use xlink:href="#DejaVuSerif-Bold-2e" x="69.580078"/>
       <use xlink:href="#DejaVuSerif-Bold-30" x="104.394531"/>
       <use xlink:href="#DejaVuSerif-Bold-30" x="173.974609"/>
      </g>
     </g>
    </g>
    <g id="text_16">
     <!-- Scores -->
     <g transform="translate(23.916563 247.525312) rotate(-90) scale(0.22 -0.22)">
      <use xlink:href="#DejaVuSerif-Bold-53"/>
      <use xlink:href="#DejaVuSerif-Bold-63" x="72.216797"/>
      <use xlink:href="#DejaVuSerif-Bold-6f" x="133.105469"/>
      <use xlink:href="#DejaVuSerif-Bold-72" x="199.804688"/>
      <use xlink:href="#DejaVuSerif-Bold-65" x="252.490234"/>
      <use xlink:href="#DejaVuSerif-Bold-73" x="316.113281"/>
     </g>
    </g>
   </g>
   <g id="patch_52">
    <path d="M 73.588438 400.598906 
L 73.588438 12.518906 
" style="fill: none; stroke: #000000; stroke-width: 1.6; stroke-linejoin: miter; stroke-linecap: square"/>
   </g>
   <g id="patch_53">
    <path d="M 966.388438 400.598906 
L 966.388438 12.518906 
" style="fill: none; stroke: #000000; stroke-width: 1.6; stroke-linejoin: miter; stroke-linecap: square"/>
   </g>
   <g id="patch_54">
    <path d="M 73.588438 400.598906 
L 966.388437 400.598906 
" style="fill: none; stroke: #000000; stroke-width: 1.6; stroke-linejoin: miter; stroke-linecap: square"/>
   </g>
   <g id="patch_55">
    <path d="M 73.588438 12.518906 
L 966.388437 12.518906 
" style="fill: none; stroke: #000000; stroke-width: 1.6; stroke-linejoin: miter; stroke-linecap: square"/>
   </g>
   <g id="text_17">
    <!-- 0.842 -->
    <g transform="translate(124.288478 184.709306) rotate(-90) scale(0.09 -0.09)">
     <defs>
      <path id="DejaVuSerif-Bold-34" d="M 4084 0 
L 1516 0 
L 1516 378 
L 2209 378 
L 2209 1228 
L 263 1228 
L 263 1588 
L 2216 4750 
L 3391 4750 
L 3391 1631 
L 4191 1631 
L 4191 1228 
L 3391 1228 
L 3391 378 
L 4084 378 
L 4084 0 
z
M 2209 1631 
L 2209 3897 
L 819 1631 
L 2209 1631 
z
" transform="scale(0.015625)"/>
      <path id="DejaVuSerif-Bold-32" d="M 844 3513 
L 469 3513 
L 469 4519 
Q 850 4634 1223 4692 
Q 1597 4750 1978 4750 
Q 2869 4750 3367 4386 
Q 3866 4022 3866 3372 
Q 3866 2909 3591 2542 
Q 3316 2175 2541 1672 
L 1241 819 
L 3450 819 
L 3450 1369 
L 3878 1369 
L 3878 0 
L 428 0 
L 428 763 
L 1119 1241 
Q 2003 1850 2297 2278 
Q 2591 2706 2591 3278 
Q 2591 3819 2367 4101 
Q 2144 4384 1716 4384 
Q 1347 4384 1125 4161 
Q 903 3938 844 3513 
z
" transform="scale(0.015625)"/>
     </defs>
     <use xlink:href="#DejaVuSerif-Bold-30"/>
     <use xlink:href="#DejaVuSerif-Bold-2e" x="69.580078"/>
     <use xlink:href="#DejaVuSerif-Bold-38" x="104.394531"/>
     <use xlink:href="#DejaVuSerif-Bold-34" x="173.974609"/>
     <use xlink:href="#DejaVuSerif-Bold-32" x="243.554688"/>
    </g>
   </g>
   <g id="text_18">
    <!-- 0.933 -->
    <g transform="translate(241.746707 83.808506) rotate(-90) scale(0.09 -0.09)">
     <defs>
      <path id="DejaVuSerif-Bold-33" d="M 550 4531 
Q 963 4641 1350 4695 
Q 1738 4750 2106 4750 
Q 2950 4750 3401 4448 
Q 3853 4147 3853 3584 
Q 3853 3163 3593 2900 
Q 3334 2638 2834 2547 
Q 3444 2450 3744 2131 
Q 4044 1813 4044 1259 
Q 4044 606 3526 257 
Q 3009 -91 2028 -91 
Q 1659 -91 1267 -28 
Q 875 34 447 159 
L 447 1184 
L 825 1184 
Q 859 741 1103 508 
Q 1347 275 1778 275 
Q 2253 275 2512 539 
Q 2772 803 2772 1288 
Q 2772 1794 2501 2069 
Q 2231 2344 1734 2344 
L 1528 2344 
L 1528 2719 
L 1691 2719 
Q 2150 2719 2381 2931 
Q 2613 3144 2613 3566 
Q 2613 3963 2395 4173 
Q 2178 4384 1772 4384 
Q 1403 4384 1187 4182 
Q 972 3981 928 3597 
L 550 3597 
L 550 4531 
z
" transform="scale(0.015625)"/>
     </defs>
     <use xlink:href="#DejaVuSerif-Bold-30"/>
     <use xlink:href="#DejaVuSerif-Bold-2e" x="69.580078"/>
     <use xlink:href="#DejaVuSerif-Bold-39" x="104.394531"/>
     <use xlink:href="#DejaVuSerif-Bold-33" x="173.974609"/>
     <use xlink:href="#DejaVuSerif-Bold-33" x="243.554688"/>
    </g>
   </g>
   <g id="text_19">
    <!-- 0.840 -->
    <g transform="translate(359.204936 186.926906) rotate(-90) scale(0.09 -0.09)">
     <use xlink:href="#DejaVuSerif-Bold-30"/>
     <use xlink:href="#DejaVuSerif-Bold-2e" x="69.580078"/>
     <use xlink:href="#DejaVuSerif-Bold-38" x="104.394531"/>
     <use xlink:href="#DejaVuSerif-Bold-34" x="173.974609"/>
     <use xlink:href="#DejaVuSerif-Bold-30" x="243.554688"/>
    </g>
   </g>
   <g id="text_20">
    <!-- 0.682 -->
    <g transform="translate(476.663166 362.117306) rotate(-90) scale(0.09 -0.09)">
     <use xlink:href="#DejaVuSerif-Bold-30"/>
     <use xlink:href="#DejaVuSerif-Bold-2e" x="69.580078"/>
     <use xlink:href="#DejaVuSerif-Bold-36" x="104.394531"/>
     <use xlink:href="#DejaVuSerif-Bold-38" x="173.974609"/>
     <use xlink:href="#DejaVuSerif-Bold-32" x="243.554688"/>
    </g>
   </g>
   <g id="text_21">
    <!-- 0.844 -->
    <g transform="translate(594.121395 182.491706) rotate(-90) scale(0.09 -0.09)">
     <use xlink:href="#DejaVuSerif-Bold-30"/>
     <use xlink:href="#DejaVuSerif-Bold-2e" x="69.580078"/>
     <use xlink:href="#DejaVuSerif-Bold-38" x="104.394531"/>
     <use xlink:href="#DejaVuSerif-Bold-34" x="173.974609"/>
     <use xlink:href="#DejaVuSerif-Bold-34" x="243.554688"/>
    </g>
   </g>
   <g id="text_22">
    <!-- 0.838 -->
    <g transform="translate(711.579624 189.144506) rotate(-90) scale(0.09 -0.09)">
     <use xlink:href="#DejaVuSerif-Bold-30"/>
     <use xlink:href="#DejaVuSerif-Bold-2e" x="69.580078"/>
     <use xlink:href="#DejaVuSerif-Bold-38" x="104.394531"/>
     <use xlink:href="#DejaVuSerif-Bold-33" x="173.974609"/>
     <use xlink:href="#DejaVuSerif-Bold-38" x="243.554688"/>
    </g>
   </g>
   <g id="text_23">
    <!-- 0.887 -->
    <g transform="translate(829.037853 134.813306) rotate(-90) scale(0.09 -0.09)">
     <use xlink:href="#DejaVuSerif-Bold-30"/>
     <use xlink:href="#DejaVuSerif-Bold-2e" x="69.580078"/>
     <use xlink:href="#DejaVuSerif-Bold-38" x="104.394531"/>
     <use xlink:href="#DejaVuSerif-Bold-38" x="173.974609"/>
     <use xlink:href="#DejaVuSerif-Bold-37" x="243.554688"/>
    </g>
   </g>
   <g id="text_24">
    <!-- 0.860 -->
    <g transform="translate(139.558048 164.750906) rotate(-90) scale(0.09 -0.09)">
     <use xlink:href="#DejaVuSerif-Bold-30"/>
     <use xlink:href="#DejaVuSerif-Bold-2e" x="69.580078"/>
     <use xlink:href="#DejaVuSerif-Bold-38" x="104.394531"/>
     <use xlink:href="#DejaVuSerif-Bold-36" x="173.974609"/>
     <use xlink:href="#DejaVuSerif-Bold-30" x="243.554688"/>
    </g>
   </g>
   <g id="text_25">
    <!-- 0.934 -->
    <g transform="translate(257.016277 82.699706) rotate(-90) scale(0.09 -0.09)">
     <use xlink:href="#DejaVuSerif-Bold-30"/>
     <use xlink:href="#DejaVuSerif-Bold-2e" x="69.580078"/>
     <use xlink:href="#DejaVuSerif-Bold-39" x="104.394531"/>
     <use xlink:href="#DejaVuSerif-Bold-33" x="173.974609"/>
     <use xlink:href="#DejaVuSerif-Bold-34" x="243.554688"/>
    </g>
   </g>
   <g id="text_26">
    <!-- 0.858 -->
    <g transform="translate(374.474506 166.968506) rotate(-90) scale(0.09 -0.09)">
     <use xlink:href="#DejaVuSerif-Bold-30"/>
     <use xlink:href="#DejaVuSerif-Bold-2e" x="69.580078"/>
     <use xlink:href="#DejaVuSerif-Bold-38" x="104.394531"/>
     <use xlink:href="#DejaVuSerif-Bold-35" x="173.974609"/>
     <use xlink:href="#DejaVuSerif-Bold-38" x="243.554688"/>
    </g>
   </g>
   <g id="text_27">
    <!-- 0.717 -->
    <g transform="translate(491.932735 323.309306) rotate(-90) scale(0.09 -0.09)">
     <use xlink:href="#DejaVuSerif-Bold-30"/>
     <use xlink:href="#DejaVuSerif-Bold-2e" x="69.580078"/>
     <use xlink:href="#DejaVuSerif-Bold-37" x="104.394531"/>
     <use xlink:href="#DejaVuSerif-Bold-31" x="173.974609"/>
     <use xlink:href="#DejaVuSerif-Bold-37" x="243.554688"/>
    </g>
   </g>
   <g id="text_28">
    <!-- 0.862 -->
    <g transform="translate(609.390965 162.533306) rotate(-90) scale(0.09 -0.09)">
     <use xlink:href="#DejaVuSerif-Bold-30"/>
     <use xlink:href="#DejaVuSerif-Bold-2e" x="69.580078"/>
     <use xlink:href="#DejaVuSerif-Bold-38" x="104.394531"/>
     <use xlink:href="#DejaVuSerif-Bold-36" x="173.974609"/>
     <use xlink:href="#DejaVuSerif-Bold-32" x="243.554688"/>
    </g>
   </g>
   <g id="text_29">
    <!-- 0.855 -->
    <g transform="translate(726.849194 170.294906) rotate(-90) scale(0.09 -0.09)">
     <use xlink:href="#DejaVuSerif-Bold-30"/>
     <use xlink:href="#DejaVuSerif-Bold-2e" x="69.580078"/>
     <use xlink:href="#DejaVuSerif-Bold-38" x="104.394531"/>
     <use xlink:href="#DejaVuSerif-Bold-35" x="173.974609"/>
     <use xlink:href="#DejaVuSerif-Bold-35" x="243.554688"/>
    </g>
   </g>
   <g id="text_30">
    <!-- 0.903 -->
    <g transform="translate(844.307423 117.072506) rotate(-90) scale(0.09 -0.09)">
     <use xlink:href="#DejaVuSerif-Bold-30"/>
     <use xlink:href="#DejaVuSerif-Bold-2e" x="69.580078"/>
     <use xlink:href="#DejaVuSerif-Bold-39" x="104.394531"/>
     <use xlink:href="#DejaVuSerif-Bold-30" x="173.974609"/>
     <use xlink:href="#DejaVuSerif-Bold-33" x="243.554688"/>
    </g>
   </g>
   <g id="text_31">
    <!-- 0.860 -->
    <g transform="translate(154.827618 164.750906) rotate(-90) scale(0.09 -0.09)">
     <use xlink:href="#DejaVuSerif-Bold-30"/>
     <use xlink:href="#DejaVuSerif-Bold-2e" x="69.580078"/>
     <use xlink:href="#DejaVuSerif-Bold-38" x="104.394531"/>
     <use xlink:href="#DejaVuSerif-Bold-36" x="173.974609"/>
     <use xlink:href="#DejaVuSerif-Bold-30" x="243.554688"/>
    </g>
   </g>
   <g id="text_32">
    <!-- 0.934 -->
    <g transform="translate(272.285847 82.699706) rotate(-90) scale(0.09 -0.09)">
     <use xlink:href="#DejaVuSerif-Bold-30"/>
     <use xlink:href="#DejaVuSerif-Bold-2e" x="69.580078"/>
     <use xlink:href="#DejaVuSerif-Bold-39" x="104.394531"/>
     <use xlink:href="#DejaVuSerif-Bold-33" x="173.974609"/>
     <use xlink:href="#DejaVuSerif-Bold-34" x="243.554688"/>
    </g>
   </g>
   <g id="text_33">
    <!-- 0.858 -->
    <g transform="translate(389.744076 166.968506) rotate(-90) scale(0.09 -0.09)">
     <use xlink:href="#DejaVuSerif-Bold-30"/>
     <use xlink:href="#DejaVuSerif-Bold-2e" x="69.580078"/>
     <use xlink:href="#DejaVuSerif-Bold-38" x="104.394531"/>
     <use xlink:href="#DejaVuSerif-Bold-35" x="173.974609"/>
     <use xlink:href="#DejaVuSerif-Bold-38" x="243.554688"/>
    </g>
   </g>
   <g id="text_34">
    <!-- 0.717 -->
    <g transform="translate(507.202305 323.309306) rotate(-90) scale(0.09 -0.09)">
     <use xlink:href="#DejaVuSerif-Bold-30"/>
     <use xlink:href="#DejaVuSerif-Bold-2e" x="69.580078"/>
     <use xlink:href="#DejaVuSerif-Bold-37" x="104.394531"/>
     <use xlink:href="#DejaVuSerif-Bold-31" x="173.974609"/>
     <use xlink:href="#DejaVuSerif-Bold-37" x="243.554688"/>
    </g>
   </g>
   <g id="text_35">
    <!-- 0.862 -->
    <g transform="translate(624.660534 162.533306) rotate(-90) scale(0.09 -0.09)">
     <use xlink:href="#DejaVuSerif-Bold-30"/>
     <use xlink:href="#DejaVuSerif-Bold-2e" x="69.580078"/>
     <use xlink:href="#DejaVuSerif-Bold-38" x="104.394531"/>
     <use xlink:href="#DejaVuSerif-Bold-36" x="173.974609"/>
     <use xlink:href="#DejaVuSerif-Bold-32" x="243.554688"/>
    </g>
   </g>
   <g id="text_36">
    <!-- 0.855 -->
    <g transform="translate(742.118764 170.294906) rotate(-90) scale(0.09 -0.09)">
     <use xlink:href="#DejaVuSerif-Bold-30"/>
     <use xlink:href="#DejaVuSerif-Bold-2e" x="69.580078"/>
     <use xlink:href="#DejaVuSerif-Bold-38" x="104.394531"/>
     <use xlink:href="#DejaVuSerif-Bold-35" x="173.974609"/>
     <use xlink:href="#DejaVuSerif-Bold-35" x="243.554688"/>
    </g>
   </g>
   <g id="text_37">
    <!-- 0.903 -->
    <g transform="translate(859.576993 117.072506) rotate(-90) scale(0.09 -0.09)">
     <use xlink:href="#DejaVuSerif-Bold-30"/>
     <use xlink:href="#DejaVuSerif-Bold-2e" x="69.580078"/>
     <use xlink:href="#DejaVuSerif-Bold-39" x="104.394531"/>
     <use xlink:href="#DejaVuSerif-Bold-30" x="173.974609"/>
     <use xlink:href="#DejaVuSerif-Bold-33" x="243.554688"/>
    </g>
   </g>
   <g id="text_38">
    <!-- 0.868 -->
    <g transform="translate(170.097187 155.413643) rotate(-90) scale(0.09 -0.09)">
     <use xlink:href="#DejaVuSerif-Bold-30"/>
     <use xlink:href="#DejaVuSerif-Bold-2e" x="69.580078"/>
     <use xlink:href="#DejaVuSerif-Bold-38" x="104.394531"/>
     <use xlink:href="#DejaVuSerif-Bold-36" x="173.974609"/>
     <use xlink:href="#DejaVuSerif-Bold-38" x="243.554688"/>
    </g>
   </g>
   <g id="text_39">
    <!-- 0.939 -->
    <g transform="translate(287.555417 76.755383) rotate(-90) scale(0.09 -0.09)">
     <use xlink:href="#DejaVuSerif-Bold-30"/>
     <use xlink:href="#DejaVuSerif-Bold-2e" x="69.580078"/>
     <use xlink:href="#DejaVuSerif-Bold-39" x="104.394531"/>
     <use xlink:href="#DejaVuSerif-Bold-33" x="173.974609"/>
     <use xlink:href="#DejaVuSerif-Bold-39" x="243.554688"/>
    </g>
   </g>
   <g id="text_40">
    <!-- 0.851 -->
    <g transform="translate(405.013646 174.192173) rotate(-90) scale(0.09 -0.09)">
     <use xlink:href="#DejaVuSerif-Bold-30"/>
     <use xlink:href="#DejaVuSerif-Bold-2e" x="69.580078"/>
     <use xlink:href="#DejaVuSerif-Bold-38" x="104.394531"/>
     <use xlink:href="#DejaVuSerif-Bold-35" x="173.974609"/>
     <use xlink:href="#DejaVuSerif-Bold-31" x="243.554688"/>
    </g>
   </g>
   <g id="text_41">
    <!-- 0.735 -->
    <g transform="translate(522.471875 303.788238) rotate(-90) scale(0.09 -0.09)">
     <use xlink:href="#DejaVuSerif-Bold-30"/>
     <use xlink:href="#DejaVuSerif-Bold-2e" x="69.580078"/>
     <use xlink:href="#DejaVuSerif-Bold-37" x="104.394531"/>
     <use xlink:href="#DejaVuSerif-Bold-33" x="173.974609"/>
     <use xlink:href="#DejaVuSerif-Bold-35" x="243.554688"/>
    </g>
   </g>
   <g id="text_42">
    <!-- 0.878 -->
    <g transform="translate(639.930104 145.290335) rotate(-90) scale(0.09 -0.09)">
     <use xlink:href="#DejaVuSerif-Bold-30"/>
     <use xlink:href="#DejaVuSerif-Bold-2e" x="69.580078"/>
     <use xlink:href="#DejaVuSerif-Bold-38" x="104.394531"/>
     <use xlink:href="#DejaVuSerif-Bold-37" x="173.974609"/>
     <use xlink:href="#DejaVuSerif-Bold-38" x="243.554688"/>
    </g>
   </g>
   <g id="text_43">
    <!-- 0.827 -->
    <g transform="translate(757.388333 201.426598) rotate(-90) scale(0.09 -0.09)">
     <use xlink:href="#DejaVuSerif-Bold-30"/>
     <use xlink:href="#DejaVuSerif-Bold-2e" x="69.580078"/>
     <use xlink:href="#DejaVuSerif-Bold-38" x="104.394531"/>
     <use xlink:href="#DejaVuSerif-Bold-32" x="173.974609"/>
     <use xlink:href="#DejaVuSerif-Bold-37" x="243.554688"/>
    </g>
   </g>
   <g id="text_44">
    <!-- 0.903 -->
    <g transform="translate(874.846563 116.822133) rotate(-90) scale(0.09 -0.09)">
     <use xlink:href="#DejaVuSerif-Bold-30"/>
     <use xlink:href="#DejaVuSerif-Bold-2e" x="69.580078"/>
     <use xlink:href="#DejaVuSerif-Bold-39" x="104.394531"/>
     <use xlink:href="#DejaVuSerif-Bold-30" x="173.974609"/>
     <use xlink:href="#DejaVuSerif-Bold-33" x="243.554688"/>
    </g>
   </g>
   <g id="text_45">
    <!-- 0.851 -->
    <g transform="translate(185.366757 174.866275) rotate(-90) scale(0.09 -0.09)">
     <use xlink:href="#DejaVuSerif-Bold-30"/>
     <use xlink:href="#DejaVuSerif-Bold-2e" x="69.580078"/>
     <use xlink:href="#DejaVuSerif-Bold-38" x="104.394531"/>
     <use xlink:href="#DejaVuSerif-Bold-35" x="173.974609"/>
     <use xlink:href="#DejaVuSerif-Bold-31" x="243.554688"/>
    </g>
   </g>
   <g id="text_46">
    <!-- 0.936 -->
    <g transform="translate(302.824986 80.538509) rotate(-90) scale(0.09 -0.09)">
     <use xlink:href="#DejaVuSerif-Bold-30"/>
     <use xlink:href="#DejaVuSerif-Bold-2e" x="69.580078"/>
     <use xlink:href="#DejaVuSerif-Bold-39" x="104.394531"/>
     <use xlink:href="#DejaVuSerif-Bold-33" x="173.974609"/>
     <use xlink:href="#DejaVuSerif-Bold-36" x="243.554688"/>
    </g>
   </g>
   <g id="text_47">
    <!-- 0.828 -->
    <g transform="translate(420.283216 199.918907) rotate(-90) scale(0.09 -0.09)">
     <use xlink:href="#DejaVuSerif-Bold-30"/>
     <use xlink:href="#DejaVuSerif-Bold-2e" x="69.580078"/>
     <use xlink:href="#DejaVuSerif-Bold-38" x="104.394531"/>
     <use xlink:href="#DejaVuSerif-Bold-32" x="173.974609"/>
     <use xlink:href="#DejaVuSerif-Bold-38" x="243.554688"/>
    </g>
   </g>
   <g id="text_48">
    <!-- 0.700 -->
    <g transform="translate(537.741445 342.296549) rotate(-90) scale(0.09 -0.09)">
     <use xlink:href="#DejaVuSerif-Bold-30"/>
     <use xlink:href="#DejaVuSerif-Bold-2e" x="69.580078"/>
     <use xlink:href="#DejaVuSerif-Bold-37" x="104.394531"/>
     <use xlink:href="#DejaVuSerif-Bold-30" x="173.974609"/>
     <use xlink:href="#DejaVuSerif-Bold-30" x="243.554688"/>
    </g>
   </g>
   <g id="text_49">
    <!-- 0.872 -->
    <g transform="translate(655.199674 151.067842) rotate(-90) scale(0.09 -0.09)">
     <use xlink:href="#DejaVuSerif-Bold-30"/>
     <use xlink:href="#DejaVuSerif-Bold-2e" x="69.580078"/>
     <use xlink:href="#DejaVuSerif-Bold-38" x="104.394531"/>
     <use xlink:href="#DejaVuSerif-Bold-37" x="173.974609"/>
     <use xlink:href="#DejaVuSerif-Bold-32" x="243.554688"/>
    </g>
   </g>
   <g id="text_50">
    <!-- 0.788 -->
    <g transform="translate(772.657903 244.072753) rotate(-90) scale(0.09 -0.09)">
     <use xlink:href="#DejaVuSerif-Bold-30"/>
     <use xlink:href="#DejaVuSerif-Bold-2e" x="69.580078"/>
     <use xlink:href="#DejaVuSerif-Bold-37" x="104.394531"/>
     <use xlink:href="#DejaVuSerif-Bold-38" x="173.974609"/>
     <use xlink:href="#DejaVuSerif-Bold-38" x="243.554688"/>
    </g>
   </g>
   <g id="text_51">
    <!-- 0.903 -->
    <g transform="translate(890.116132 116.822133) rotate(-90) scale(0.09 -0.09)">
     <use xlink:href="#DejaVuSerif-Bold-30"/>
     <use xlink:href="#DejaVuSerif-Bold-2e" x="69.580078"/>
     <use xlink:href="#DejaVuSerif-Bold-39" x="104.394531"/>
     <use xlink:href="#DejaVuSerif-Bold-30" x="173.974609"/>
     <use xlink:href="#DejaVuSerif-Bold-33" x="243.554688"/>
    </g>
   </g>
   <g id="text_52">
    <!-- 0.860 -->
    <g transform="translate(200.636327 165.139959) rotate(-90) scale(0.09 -0.09)">
     <use xlink:href="#DejaVuSerif-Bold-30"/>
     <use xlink:href="#DejaVuSerif-Bold-2e" x="69.580078"/>
     <use xlink:href="#DejaVuSerif-Bold-38" x="104.394531"/>
     <use xlink:href="#DejaVuSerif-Bold-36" x="173.974609"/>
     <use xlink:href="#DejaVuSerif-Bold-30" x="243.554688"/>
    </g>
   </g>
   <g id="text_53">
    <!-- 0.940 -->
    <g transform="translate(318.094556 75.551661) rotate(-90) scale(0.09 -0.09)">
     <use xlink:href="#DejaVuSerif-Bold-30"/>
     <use xlink:href="#DejaVuSerif-Bold-2e" x="69.580078"/>
     <use xlink:href="#DejaVuSerif-Bold-39" x="104.394531"/>
     <use xlink:href="#DejaVuSerif-Bold-34" x="173.974609"/>
     <use xlink:href="#DejaVuSerif-Bold-30" x="243.554688"/>
    </g>
   </g>
   <g id="text_54">
    <!-- 0.837 -->
    <g transform="translate(435.552785 190.547478) rotate(-90) scale(0.09 -0.09)">
     <use xlink:href="#DejaVuSerif-Bold-30"/>
     <use xlink:href="#DejaVuSerif-Bold-2e" x="69.580078"/>
     <use xlink:href="#DejaVuSerif-Bold-38" x="104.394531"/>
     <use xlink:href="#DejaVuSerif-Bold-33" x="173.974609"/>
     <use xlink:href="#DejaVuSerif-Bold-37" x="243.554688"/>
    </g>
   </g>
   <g id="text_55">
    <!-- 0.719 -->
    <g transform="translate(553.011015 321.539742) rotate(-90) scale(0.09 -0.09)">
     <use xlink:href="#DejaVuSerif-Bold-30"/>
     <use xlink:href="#DejaVuSerif-Bold-2e" x="69.580078"/>
     <use xlink:href="#DejaVuSerif-Bold-37" x="104.394531"/>
     <use xlink:href="#DejaVuSerif-Bold-31" x="173.974609"/>
     <use xlink:href="#DejaVuSerif-Bold-39" x="243.554688"/>
    </g>
   </g>
   <g id="text_56">
    <!-- 0.891 -->
    <g transform="translate(670.469244 130.040645) rotate(-90) scale(0.09 -0.09)">
     <use xlink:href="#DejaVuSerif-Bold-30"/>
     <use xlink:href="#DejaVuSerif-Bold-2e" x="69.580078"/>
     <use xlink:href="#DejaVuSerif-Bold-38" x="104.394531"/>
     <use xlink:href="#DejaVuSerif-Bold-39" x="173.974609"/>
     <use xlink:href="#DejaVuSerif-Bold-31" x="243.554688"/>
    </g>
   </g>
   <g id="text_57">
    <!-- 0.788 -->
    <g transform="translate(787.927473 244.072753) rotate(-90) scale(0.09 -0.09)">
     <use xlink:href="#DejaVuSerif-Bold-30"/>
     <use xlink:href="#DejaVuSerif-Bold-2e" x="69.580078"/>
     <use xlink:href="#DejaVuSerif-Bold-37" x="104.394531"/>
     <use xlink:href="#DejaVuSerif-Bold-38" x="173.974609"/>
     <use xlink:href="#DejaVuSerif-Bold-38" x="243.554688"/>
    </g>
   </g>
   <g id="text_58">
    <!-- 0.919 -->
    <g transform="translate(905.385702 98.938261) rotate(-90) scale(0.09 -0.09)">
     <use xlink:href="#DejaVuSerif-Bold-30"/>
     <use xlink:href="#DejaVuSerif-Bold-2e" x="69.580078"/>
     <use xlink:href="#DejaVuSerif-Bold-39" x="104.394531"/>
     <use xlink:href="#DejaVuSerif-Bold-31" x="173.974609"/>
     <use xlink:href="#DejaVuSerif-Bold-39" x="243.554688"/>
    </g>
   </g>
   <g id="text_59">
    <!-- 0.868 -->
    <g transform="translate(215.905897 155.413643) rotate(-90) scale(0.09 -0.09)">
     <use xlink:href="#DejaVuSerif-Bold-30"/>
     <use xlink:href="#DejaVuSerif-Bold-2e" x="69.580078"/>
     <use xlink:href="#DejaVuSerif-Bold-38" x="104.394531"/>
     <use xlink:href="#DejaVuSerif-Bold-36" x="173.974609"/>
     <use xlink:href="#DejaVuSerif-Bold-38" x="243.554688"/>
    </g>
   </g>
   <g id="text_60">
    <!-- 0.940 -->
    <g transform="translate(333.364126 76.239501) rotate(-90) scale(0.09 -0.09)">
     <use xlink:href="#DejaVuSerif-Bold-30"/>
     <use xlink:href="#DejaVuSerif-Bold-2e" x="69.580078"/>
     <use xlink:href="#DejaVuSerif-Bold-39" x="104.394531"/>
     <use xlink:href="#DejaVuSerif-Bold-34" x="173.974609"/>
     <use xlink:href="#DejaVuSerif-Bold-30" x="243.554688"/>
    </g>
   </g>
   <g id="text_61">
    <!-- 0.845 -->
    <g transform="translate(450.822355 180.982823) rotate(-90) scale(0.09 -0.09)">
     <use xlink:href="#DejaVuSerif-Bold-30"/>
     <use xlink:href="#DejaVuSerif-Bold-2e" x="69.580078"/>
     <use xlink:href="#DejaVuSerif-Bold-38" x="104.394531"/>
     <use xlink:href="#DejaVuSerif-Bold-34" x="173.974609"/>
     <use xlink:href="#DejaVuSerif-Bold-35" x="243.554688"/>
    </g>
   </g>
   <g id="text_62">
    <!-- 0.738 -->
    <g transform="translate(568.280584 300.370802) rotate(-90) scale(0.09 -0.09)">
     <use xlink:href="#DejaVuSerif-Bold-30"/>
     <use xlink:href="#DejaVuSerif-Bold-2e" x="69.580078"/>
     <use xlink:href="#DejaVuSerif-Bold-37" x="104.394531"/>
     <use xlink:href="#DejaVuSerif-Bold-33" x="173.974609"/>
     <use xlink:href="#DejaVuSerif-Bold-38" x="243.554688"/>
    </g>
   </g>
   <g id="text_63">
    <!-- 0.911 -->
    <g transform="translate(685.738814 108.078906) rotate(-90) scale(0.09 -0.09)">
     <use xlink:href="#DejaVuSerif-Bold-30"/>
     <use xlink:href="#DejaVuSerif-Bold-2e" x="69.580078"/>
     <use xlink:href="#DejaVuSerif-Bold-39" x="104.394531"/>
     <use xlink:href="#DejaVuSerif-Bold-31" x="173.974609"/>
     <use xlink:href="#DejaVuSerif-Bold-31" x="243.554688"/>
    </g>
   </g>
   <g id="text_64">
    <!-- 0.788 -->
    <g transform="translate(803.197043 244.072753) rotate(-90) scale(0.09 -0.09)">
     <use xlink:href="#DejaVuSerif-Bold-30"/>
     <use xlink:href="#DejaVuSerif-Bold-2e" x="69.580078"/>
     <use xlink:href="#DejaVuSerif-Bold-37" x="104.394531"/>
     <use xlink:href="#DejaVuSerif-Bold-38" x="173.974609"/>
     <use xlink:href="#DejaVuSerif-Bold-38" x="243.554688"/>
    </g>
   </g>
   <g id="text_65">
    <!-- 0.935 -->
    <g transform="translate(920.655272 81.05439) rotate(-90) scale(0.09 -0.09)">
     <use xlink:href="#DejaVuSerif-Bold-30"/>
     <use xlink:href="#DejaVuSerif-Bold-2e" x="69.580078"/>
     <use xlink:href="#DejaVuSerif-Bold-39" x="104.394531"/>
     <use xlink:href="#DejaVuSerif-Bold-33" x="173.974609"/>
     <use xlink:href="#DejaVuSerif-Bold-35" x="243.554688"/>
    </g>
   </g>
   <g id="legend_1">
    <g id="patch_56">
     <path d="M 134.949688 35.851856 
L 905.027188 35.851856 
Q 907.427188 35.851856 907.427188 33.451856 
L 907.427188 17.038106 
Q 907.427188 14.638106 905.027188 14.638106 
L 134.949688 14.638106 
Q 132.549688 14.638106 132.549688 17.038106 
L 132.549688 33.451856 
Q 132.549688 35.851856 134.949688 35.851856 
z
" style="fill: #ffffff; opacity: 0.8; stroke: #cccccc; stroke-linejoin: miter"/>
    </g>
    <g id="patch_57">
     <path d="M 137.349688 28.556231 
L 161.349688 28.556231 
L 161.349688 20.156231 
L 137.349688 20.156231 
z
" style="fill: #d3eecd"/>
    </g>
    <g id="text_66">
     <!-- DNN -->
     <g transform="translate(170.949688 28.556231) scale(0.12 -0.12)">
      <defs>
       <path id="DejaVuSerif-Bold-44" d="M 2100 378 
L 2534 378 
Q 3266 378 3605 847 
Q 3944 1316 3944 2338 
Q 3944 3353 3606 3820 
Q 3269 4288 2534 4288 
L 2100 4288 
L 2100 378 
z
M 300 0 
L 300 378 
L 897 378 
L 897 4288 
L 300 4288 
L 300 4666 
L 2694 4666 
Q 3950 4666 4615 4066 
Q 5281 3466 5281 2338 
Q 5281 1203 4614 601 
Q 3947 0 2694 0 
L 300 0 
z
" transform="scale(0.015625)"/>
       <path id="DejaVuSerif-Bold-4e" d="M 281 0 
L 281 378 
L 878 378 
L 878 4288 
L 281 4288 
L 281 4666 
L 1741 4666 
L 4556 1363 
L 4556 4288 
L 3963 4288 
L 3963 4666 
L 5594 4666 
L 5594 4288 
L 4997 4288 
L 4997 0 
L 4178 0 
L 1319 3372 
L 1319 378 
L 1913 378 
L 1913 0 
L 281 0 
z
" transform="scale(0.015625)"/>
      </defs>
      <use xlink:href="#DejaVuSerif-Bold-44"/>
      <use xlink:href="#DejaVuSerif-Bold-4e" x="86.71875"/>
      <use xlink:href="#DejaVuSerif-Bold-4e" x="178.125"/>
     </g>
    </g>
    <g id="patch_58">
     <path d="M 227.293438 28.556231 
L 251.293438 28.556231 
L 251.293438 20.156231 
L 227.293438 20.156231 
z
" style="fill: #bde5b6"/>
    </g>
    <g id="text_67">
     <!-- RF -->
     <g transform="translate(260.893438 28.556231) scale(0.12 -0.12)">
      <use xlink:href="#DejaVuSerif-Bold-52"/>
      <use xlink:href="#DejaVuSerif-Bold-46" x="83.105469"/>
     </g>
    </g>
    <g id="patch_59">
     <path d="M 303.386563 28.556231 
L 327.386563 28.556231 
L 327.386563 20.156231 
L 303.386563 20.156231 
z
" style="fill: #a4da9e"/>
    </g>
    <g id="text_68">
     <!-- GBDT -->
     <g transform="translate(336.986563 28.556231) scale(0.12 -0.12)">
      <defs>
       <path id="DejaVuSerif-Bold-47" d="M 4403 3200 
Q 4263 3819 3934 4095 
Q 3606 4372 3009 4372 
Q 2284 4372 1945 3880 
Q 1606 3388 1606 2328 
Q 1606 1278 1931 783 
Q 2256 288 2944 288 
Q 3206 288 3431 347 
Q 3656 406 3841 525 
L 3841 1806 
L 3278 1806 
L 3278 2181 
L 4959 2181 
L 4959 391 
Q 4434 147 3911 28 
Q 3388 -91 2841 -91 
Q 1641 -91 955 556 
Q 269 1203 269 2328 
Q 269 3456 955 4103 
Q 1641 4750 2841 4750 
Q 3341 4750 3825 4650 
Q 4309 4550 4800 4347 
L 4800 3200 
L 4403 3200 
z
" transform="scale(0.015625)"/>
       <path id="DejaVuSerif-Bold-42" d="M 300 0 
L 300 378 
L 897 378 
L 897 4288 
L 300 4288 
L 300 4666 
L 3066 4666 
Q 3919 4666 4347 4378 
Q 4775 4091 4775 3513 
Q 4775 3097 4479 2853 
Q 4184 2609 3603 2547 
Q 4306 2481 4681 2172 
Q 5056 1863 5056 1350 
Q 5056 656 4532 328 
Q 4009 0 2894 0 
L 300 0 
z
M 2100 2719 
L 2509 2719 
Q 3047 2719 3306 2914 
Q 3566 3109 3566 3513 
Q 3566 3919 3314 4103 
Q 3063 4288 2509 4288 
L 2100 4288 
L 2100 2719 
z
M 2100 378 
L 2547 378 
Q 3144 378 3431 615 
Q 3719 853 3719 1350 
Q 3719 1850 3428 2097 
Q 3138 2344 2547 2344 
L 2100 2344 
L 2100 378 
z
" transform="scale(0.015625)"/>
       <path id="DejaVuSerif-Bold-54" d="M 1159 0 
L 1159 378 
L 1778 378 
L 1778 4238 
L 500 4238 
L 500 3500 
L 72 3500 
L 72 4666 
L 4697 4666 
L 4697 3500 
L 4275 3500 
L 4275 4238 
L 2988 4238 
L 2988 378 
L 3609 378 
L 3609 0 
L 1159 0 
z
" transform="scale(0.015625)"/>
      </defs>
      <use xlink:href="#DejaVuSerif-Bold-47"/>
      <use xlink:href="#DejaVuSerif-Bold-42" x="85.400391"/>
      <use xlink:href="#DejaVuSerif-Bold-44" x="169.921875"/>
      <use xlink:href="#DejaVuSerif-Bold-54" x="256.640625"/>
     </g>
    </g>
    <g id="patch_60">
     <path d="M 400.714063 28.556231 
L 424.714063 28.556231 
L 424.714063 20.156231 
L 400.714063 20.156231 
z
" style="fill: #86cc85"/>
    </g>
    <g id="text_69">
     <!-- DNN-RF -->
     <g transform="translate(434.314063 28.556231) scale(0.12 -0.12)">
      <defs>
       <path id="DejaVuSerif-Bold-2d" d="M 347 2138 
L 2309 2138 
L 2309 1294 
L 347 1294 
L 347 2138 
z
" transform="scale(0.015625)"/>
      </defs>
      <use xlink:href="#DejaVuSerif-Bold-44"/>
      <use xlink:href="#DejaVuSerif-Bold-4e" x="86.71875"/>
      <use xlink:href="#DejaVuSerif-Bold-4e" x="178.125"/>
      <use xlink:href="#DejaVuSerif-Bold-2d" x="269.53125"/>
      <use xlink:href="#DejaVuSerif-Bold-52" x="311.035156"/>
      <use xlink:href="#DejaVuSerif-Bold-46" x="394.140625"/>
     </g>
    </g>
    <g id="patch_61">
     <path d="M 514.130938 28.556231 
L 538.130938 28.556231 
L 538.130938 20.156231 
L 514.130938 20.156231 
z
" style="fill: #66bd6f"/>
    </g>
    <g id="text_70">
     <!-- DNN-GBDT -->
     <g transform="translate(547.730938 28.556231) scale(0.12 -0.12)">
      <use xlink:href="#DejaVuSerif-Bold-44"/>
      <use xlink:href="#DejaVuSerif-Bold-4e" x="86.71875"/>
      <use xlink:href="#DejaVuSerif-Bold-4e" x="178.125"/>
      <use xlink:href="#DejaVuSerif-Bold-2d" x="269.53125"/>
      <use xlink:href="#DejaVuSerif-Bold-47" x="311.035156"/>
      <use xlink:href="#DejaVuSerif-Bold-42" x="396.435547"/>
      <use xlink:href="#DejaVuSerif-Bold-44" x="480.957031"/>
      <use xlink:href="#DejaVuSerif-Bold-54" x="567.675781"/>
     </g>
    </g>
    <g id="patch_62">
     <path d="M 648.782187 28.556231 
L 672.782187 28.556231 
L 672.782187 20.156231 
L 648.782187 20.156231 
z
" style="fill: #45ad5f"/>
    </g>
    <g id="text_71">
     <!-- RF-GBDT -->
     <g transform="translate(682.382187 28.556231) scale(0.12 -0.12)">
      <use xlink:href="#DejaVuSerif-Bold-52"/>
      <use xlink:href="#DejaVuSerif-Bold-46" x="83.105469"/>
      <use xlink:href="#DejaVuSerif-Bold-2d" x="149.601562"/>
      <use xlink:href="#DejaVuSerif-Bold-47" x="191.105469"/>
      <use xlink:href="#DejaVuSerif-Bold-42" x="276.505859"/>
      <use xlink:href="#DejaVuSerif-Bold-44" x="361.027344"/>
      <use xlink:href="#DejaVuSerif-Bold-54" x="447.746094"/>
     </g>
    </g>
    <g id="patch_63">
     <path d="M 769.042813 28.556231 
L 793.042813 28.556231 
L 793.042813 20.156231 
L 769.042813 20.156231 
z
" style="fill: #2f974e"/>
    </g>
    <g id="text_72">
     <!-- DNN-RF-GBDT -->
     <g transform="translate(802.642813 28.556231) scale(0.12 -0.12)">
      <use xlink:href="#DejaVuSerif-Bold-44"/>
      <use xlink:href="#DejaVuSerif-Bold-4e" x="86.71875"/>
      <use xlink:href="#DejaVuSerif-Bold-4e" x="178.125"/>
      <use xlink:href="#DejaVuSerif-Bold-2d" x="269.53125"/>
      <use xlink:href="#DejaVuSerif-Bold-52" x="311.035156"/>
      <use xlink:href="#DejaVuSerif-Bold-46" x="394.140625"/>
      <use xlink:href="#DejaVuSerif-Bold-2d" x="460.636719"/>
      <use xlink:href="#DejaVuSerif-Bold-47" x="502.140625"/>
      <use xlink:href="#DejaVuSerif-Bold-42" x="587.541016"/>
      <use xlink:href="#DejaVuSerif-Bold-44" x="672.0625"/>
      <use xlink:href="#DejaVuSerif-Bold-54" x="758.78125"/>
     </g>
    </g>
   </g>
  </g>
 </g>
 <defs>
  <clipPath id="pee28b912aa">
   <rect x="73.588438" y="12.518906" width="892.8" height="388.08"/>
  </clipPath>
 </defs>
</svg>
