<?xml version="1.0" encoding="utf-8" standalone="no"?>
<!DOCTYPE svg PUBLIC "-//W3C//DTD SVG 1.1//EN"
  "http://www.w3.org/Graphics/SVG/1.1/DTD/svg11.dtd">
<svg xmlns:xlink="http://www.w3.org/1999/xlink" width="453.473906pt" height="338.434688pt" viewBox="0 0 453.473906 338.434688" xmlns="http://www.w3.org/2000/svg" version="1.1">
 <metadata>
  <rdf:RDF xmlns:dc="http://purl.org/dc/elements/1.1/" xmlns:cc="http://creativecommons.org/ns#" xmlns:rdf="http://www.w3.org/1999/02/22-rdf-syntax-ns#">
   <cc:Work>
    <dc:type rdf:resource="http://purl.org/dc/dcmitype/StillImage"/>
    <dc:date>2025-01-20T20:36:29.908291</dc:date>
    <dc:format>image/svg+xml</dc:format>
    <dc:creator>
     <cc:Agent>
      <dc:title>Matplotlib v3.6.0, https://matplotlib.org/</dc:title>
     </cc:Agent>
    </dc:creator>
   </cc:Work>
  </rdf:RDF>
 </metadata>
 <defs>
  <style type="text/css">*{stroke-linejoin: round; stroke-linecap: butt}</style>
 </defs>
 <g id="figure_1">
  <g id="patch_1">
   <path d="M 0 338.434688 
L 453.473906 338.434688 
L 453.473906 0 
L 0 0 
z
" style="fill: #ffffff"/>
  </g>
  <g id="axes_1">
   <g id="patch_2">
    <path d="M 122.703906 309.7175 
L 446.273906 309.7175 
L 446.273906 25.3575 
L 122.703906 25.3575 
z
" style="fill: #ffffff"/>
   </g>
   <g id="patch_3">
    <path d="M -9584.396094 296.792045 
L 269.658615 296.792045 
L 269.658615 261.135619 
L -9584.396094 261.135619 
z
" clip-path="url(#pfa72925536)" style="fill: #86b6f6; stroke: #000000; stroke-linejoin: miter"/>
   </g>
   <g id="patch_4">
    <path d="M -9584.396094 252.221513 
L 351.899323 252.221513 
L 351.899323 216.565086 
L -9584.396094 216.565086 
z
" clip-path="url(#pfa72925536)" style="fill: #86b6f6; stroke: #000000; stroke-linejoin: miter"/>
   </g>
   <g id="patch_5">
    <path d="M -9584.396094 207.65098 
L 381.559906 207.65098 
L 381.559906 171.994553 
L -9584.396094 171.994553 
z
" clip-path="url(#pfa72925536)" style="fill: #86b6f6; stroke: #000000; stroke-linejoin: miter"/>
   </g>
   <g id="patch_6">
    <path d="M -9584.396094 163.080447 
L 370.77424 163.080447 
L 370.77424 127.42402 
L -9584.396094 127.42402 
z
" clip-path="url(#pfa72925536)" style="fill: #86b6f6; stroke: #000000; stroke-linejoin: miter"/>
   </g>
   <g id="patch_7">
    <path d="M -9584.396094 118.509914 
L 283.140698 118.509914 
L 283.140698 82.853487 
L -9584.396094 82.853487 
z
" clip-path="url(#pfa72925536)" style="fill: #86b6f6; stroke: #000000; stroke-linejoin: miter"/>
   </g>
   <g id="patch_8">
    <path d="M -9584.396094 73.939381 
L 370.77424 73.939381 
L 370.77424 38.282955 
L -9584.396094 38.282955 
z
" clip-path="url(#pfa72925536)" style="fill: #86b6f6; stroke: #000000; stroke-linejoin: miter"/>
   </g>
   <g id="matplotlib.axis_1">
    <g id="xtick_1">
     <g id="line2d_1">
      <defs>
       <path id="mc9bf3a9a39" d="M 0 0 
L 0 3.5 
" style="stroke: #000000; stroke-width: 0.8"/>
      </defs>
      <g>
       <use xlink:href="#mc9bf3a9a39" x="122.703906" y="309.7175" style="stroke: #000000; stroke-width: 0.8"/>
      </g>
     </g>
     <g id="text_1">
      <!-- 0.900 -->
      <g transform="translate(99.219531 328.115156) scale(0.15 -0.15)">
       <defs>
        <path id="DejaVuSerif-Bold-30" d="M 2228 275 
Q 2603 275 2742 615 
Q 2881 956 2881 2328 
Q 2881 3691 2742 4037 
Q 2603 4384 2228 4384 
Q 1853 4384 1714 4043 
Q 1575 3703 1575 2328 
Q 1575 956 1714 615 
Q 1853 275 2228 275 
z
M 2228 -91 
Q 1294 -91 797 532 
Q 300 1156 300 2328 
Q 300 3500 797 4125 
Q 1294 4750 2228 4750 
Q 3159 4750 3656 4125 
Q 4153 3500 4153 2328 
Q 4153 1156 3656 532 
Q 3159 -91 2228 -91 
z
" transform="scale(0.015625)"/>
        <path id="DejaVuSerif-Bold-2e" d="M 519 506 
Q 519 750 694 925 
Q 869 1100 1113 1100 
Q 1359 1100 1534 925 
Q 1709 750 1709 506 
Q 1709 259 1534 84 
Q 1359 -91 1113 -91 
Q 869 -91 694 84 
Q 519 259 519 506 
z
" transform="scale(0.015625)"/>
        <path id="DejaVuSerif-Bold-39" d="M 2181 4384 
Q 1859 4384 1723 4111 
Q 1588 3838 1588 3163 
Q 1588 2488 1723 2214 
Q 1859 1941 2181 1941 
Q 2503 1941 2640 2214 
Q 2778 2488 2778 3163 
Q 2778 3838 2640 4111 
Q 2503 4384 2181 4384 
z
M 2878 1900 
Q 2672 1734 2420 1651 
Q 2169 1569 1875 1569 
Q 1163 1569 755 1986 
Q 347 2403 347 3138 
Q 347 3913 803 4331 
Q 1259 4750 2106 4750 
Q 3063 4750 3556 4172 
Q 4050 3594 4050 2478 
Q 4050 1206 3503 557 
Q 2956 -91 1881 -91 
Q 1600 -91 1278 -44 
Q 956 3 588 97 
L 588 922 
L 966 922 
Q 1044 603 1261 439 
Q 1478 275 1825 275 
Q 2375 275 2625 658 
Q 2875 1041 2878 1900 
z
" transform="scale(0.015625)"/>
       </defs>
       <use xlink:href="#DejaVuSerif-Bold-30"/>
       <use xlink:href="#DejaVuSerif-Bold-2e" x="69.580078"/>
       <use xlink:href="#DejaVuSerif-Bold-39" x="104.394531"/>
       <use xlink:href="#DejaVuSerif-Bold-30" x="173.974609"/>
       <use xlink:href="#DejaVuSerif-Bold-30" x="243.554688"/>
      </g>
     </g>
    </g>
    <g id="xtick_2">
     <g id="line2d_2">
      <g>
       <use xlink:href="#mc9bf3a9a39" x="219.774906" y="309.7175" style="stroke: #000000; stroke-width: 0.8"/>
      </g>
     </g>
     <g id="text_2">
      <!-- 0.909 -->
      <g transform="translate(196.290531 328.115156) scale(0.15 -0.15)">
       <use xlink:href="#DejaVuSerif-Bold-30"/>
       <use xlink:href="#DejaVuSerif-Bold-2e" x="69.580078"/>
       <use xlink:href="#DejaVuSerif-Bold-39" x="104.394531"/>
       <use xlink:href="#DejaVuSerif-Bold-30" x="173.974609"/>
       <use xlink:href="#DejaVuSerif-Bold-39" x="243.554688"/>
      </g>
     </g>
    </g>
    <g id="xtick_3">
     <g id="line2d_3">
      <g>
       <use xlink:href="#mc9bf3a9a39" x="316.845906" y="309.7175" style="stroke: #000000; stroke-width: 0.8"/>
      </g>
     </g>
     <g id="text_3">
      <!-- 0.918 -->
      <g transform="translate(293.361531 328.115156) scale(0.15 -0.15)">
       <defs>
        <path id="DejaVuSerif-Bold-31" d="M 878 0 
L 878 378 
L 1753 378 
L 1753 4153 
L 781 3578 
L 781 4044 
L 1953 4750 
L 2938 4750 
L 2938 378 
L 3816 378 
L 3816 0 
L 878 0 
z
" transform="scale(0.015625)"/>
        <path id="DejaVuSerif-Bold-38" d="M 2975 2484 
Q 3531 2394 3820 2075 
Q 4109 1756 4109 1241 
Q 4109 597 3623 253 
Q 3138 -91 2222 -91 
Q 1306 -91 818 253 
Q 331 597 331 1241 
Q 331 1756 622 2075 
Q 913 2394 1466 2484 
Q 975 2597 731 2861 
Q 488 3125 488 3531 
Q 488 4125 931 4437 
Q 1375 4750 2222 4750 
Q 3066 4750 3511 4437 
Q 3956 4125 3956 3531 
Q 3956 3125 3711 2861 
Q 3466 2597 2975 2484 
z
M 2747 3519 
Q 2747 4013 2628 4198 
Q 2509 4384 2222 4384 
Q 1931 4384 1814 4198 
Q 1697 4013 1697 3519 
Q 1697 3028 1814 2845 
Q 1931 2663 2222 2663 
Q 2513 2663 2630 2845 
Q 2747 3028 2747 3519 
z
M 2869 1294 
Q 2869 1866 2723 2081 
Q 2578 2297 2222 2297 
Q 1863 2297 1719 2081 
Q 1575 1866 1575 1294 
Q 1575 716 1720 495 
Q 1866 275 2222 275 
Q 2575 275 2722 495 
Q 2869 716 2869 1294 
z
" transform="scale(0.015625)"/>
       </defs>
       <use xlink:href="#DejaVuSerif-Bold-30"/>
       <use xlink:href="#DejaVuSerif-Bold-2e" x="69.580078"/>
       <use xlink:href="#DejaVuSerif-Bold-39" x="104.394531"/>
       <use xlink:href="#DejaVuSerif-Bold-31" x="173.974609"/>
       <use xlink:href="#DejaVuSerif-Bold-38" x="243.554688"/>
      </g>
     </g>
    </g>
    <g id="xtick_4">
     <g id="line2d_4">
      <g>
       <use xlink:href="#mc9bf3a9a39" x="413.916906" y="309.7175" style="stroke: #000000; stroke-width: 0.8"/>
      </g>
     </g>
     <g id="text_4">
      <!-- 0.927 -->
      <g transform="translate(390.432531 328.115156) scale(0.15 -0.15)">
       <defs>
        <path id="DejaVuSerif-Bold-32" d="M 844 3513 
L 469 3513 
L 469 4519 
Q 850 4634 1223 4692 
Q 1597 4750 1978 4750 
Q 2869 4750 3367 4386 
Q 3866 4022 3866 3372 
Q 3866 2909 3591 2542 
Q 3316 2175 2541 1672 
L 1241 819 
L 3450 819 
L 3450 1369 
L 3878 1369 
L 3878 0 
L 428 0 
L 428 763 
L 1119 1241 
Q 2003 1850 2297 2278 
Q 2591 2706 2591 3278 
Q 2591 3819 2367 4101 
Q 2144 4384 1716 4384 
Q 1347 4384 1125 4161 
Q 903 3938 844 3513 
z
" transform="scale(0.015625)"/>
        <path id="DejaVuSerif-Bold-37" d="M 3922 3872 
L 1997 0 
L 1363 0 
L 3238 3781 
L 934 3781 
L 934 3150 
L 506 3150 
L 506 4666 
L 3922 4666 
L 3922 3872 
z
" transform="scale(0.015625)"/>
       </defs>
       <use xlink:href="#DejaVuSerif-Bold-30"/>
       <use xlink:href="#DejaVuSerif-Bold-2e" x="69.580078"/>
       <use xlink:href="#DejaVuSerif-Bold-39" x="104.394531"/>
       <use xlink:href="#DejaVuSerif-Bold-32" x="173.974609"/>
       <use xlink:href="#DejaVuSerif-Bold-37" x="243.554688"/>
      </g>
     </g>
    </g>
   </g>
   <g id="matplotlib.axis_2">
    <g id="ytick_1">
     <g id="line2d_5">
      <defs>
       <path id="m9a5584a793" d="M 0 0 
L -3.5 0 
" style="stroke: #000000; stroke-width: 0.8"/>
      </defs>
      <g>
       <use xlink:href="#m9a5584a793" x="122.703906" y="278.963832" style="stroke: #000000; stroke-width: 0.8"/>
      </g>
     </g>
     <g id="text_5">
      <!-- APFPs -->
      <g transform="translate(62.409375 284.66266) scale(0.15 -0.15)">
       <defs>
        <path id="DejaVuSerif-Bold-41" d="M -50 0 
L -50 378 
L 331 378 
L 2088 4666 
L 2834 4666 
L 4594 378 
L 5038 378 
L 5038 0 
L 2853 0 
L 2853 378 
L 3309 378 
L 2925 1331 
L 1172 1331 
L 781 378 
L 1338 378 
L 1338 0 
L -50 0 
z
M 1325 1709 
L 2772 1709 
L 2053 3494 
L 1325 1709 
z
" transform="scale(0.015625)"/>
        <path id="DejaVuSerif-Bold-50" d="M 300 0 
L 300 378 
L 897 378 
L 897 4288 
L 300 4288 
L 300 4666 
L 2956 4666 
Q 3734 4666 4193 4295 
Q 4653 3925 4653 3303 
Q 4653 2678 4192 2304 
Q 3731 1931 2956 1931 
L 2100 1931 
L 2100 378 
L 2853 378 
L 2853 0 
L 300 0 
z
M 2100 2309 
L 2450 2309 
Q 2856 2309 3098 2579 
Q 3341 2850 3341 3303 
Q 3341 3753 3100 4020 
Q 2859 4288 2450 4288 
L 2100 4288 
L 2100 2309 
z
" transform="scale(0.015625)"/>
        <path id="DejaVuSerif-Bold-46" d="M 300 0 
L 300 378 
L 897 378 
L 897 4288 
L 300 4288 
L 300 4666 
L 4459 4666 
L 4459 3566 
L 4031 3566 
L 4031 4238 
L 2106 4238 
L 2106 2741 
L 3291 2741 
L 3291 3334 
L 3719 3334 
L 3719 1722 
L 3291 1722 
L 3291 2316 
L 2106 2316 
L 2106 378 
L 2841 378 
L 2841 0 
L 300 0 
z
" transform="scale(0.015625)"/>
        <path id="DejaVuSerif-Bold-73" d="M 300 97 
L 300 1025 
L 653 1025 
Q 697 653 931 458 
Q 1166 263 1569 263 
Q 1906 263 2086 380 
Q 2266 497 2266 716 
Q 2266 916 2152 1025 
Q 2038 1134 1709 1216 
L 1253 1331 
Q 738 1459 506 1698 
Q 275 1938 275 2344 
Q 275 2884 650 3148 
Q 1025 3413 1806 3413 
Q 2100 3413 2433 3364 
Q 2766 3316 3169 3213 
L 3169 2375 
L 2816 2375 
Q 2788 2716 2573 2887 
Q 2359 3059 1959 3059 
Q 1622 3059 1448 2951 
Q 1275 2844 1275 2638 
Q 1275 2469 1375 2372 
Q 1475 2275 1734 2209 
L 2188 2094 
Q 2841 1928 3091 1684 
Q 3341 1441 3341 1006 
Q 3341 444 2939 176 
Q 2538 -91 1691 -91 
Q 1381 -91 1034 -44 
Q 688 3 300 97 
z
" transform="scale(0.015625)"/>
       </defs>
       <use xlink:href="#DejaVuSerif-Bold-41"/>
       <use xlink:href="#DejaVuSerif-Bold-50" x="77.587891"/>
       <use xlink:href="#DejaVuSerif-Bold-46" x="152.783203"/>
       <use xlink:href="#DejaVuSerif-Bold-50" x="223.779297"/>
       <use xlink:href="#DejaVuSerif-Bold-73" x="298.974609"/>
      </g>
     </g>
    </g>
    <g id="ytick_2">
     <g id="line2d_6">
      <g>
       <use xlink:href="#m9a5584a793" x="122.703906" y="234.393299" style="stroke: #000000; stroke-width: 0.8"/>
      </g>
     </g>
     <g id="text_6">
      <!-- AvalonFPs -->
      <g transform="translate(29.245313 240.092127) scale(0.15 -0.15)">
       <defs>
        <path id="DejaVuSerif-Bold-76" d="M 1428 0 
L 250 2944 
L -116 2944 
L -116 3322 
L 1791 3322 
L 1791 2944 
L 1388 2944 
L 2228 844 
L 3066 2944 
L 2631 2944 
L 2631 3322 
L 3878 3322 
L 3878 2944 
L 3494 2944 
L 2316 0 
L 1428 0 
z
" transform="scale(0.015625)"/>
        <path id="DejaVuSerif-Bold-61" d="M 3525 2041 
L 3525 378 
L 4000 378 
L 4000 0 
L 2419 0 
L 2419 422 
Q 2200 159 1931 34 
Q 1663 -91 1319 -91 
Q 809 -91 536 182 
Q 263 456 263 966 
Q 263 1525 655 1803 
Q 1047 2081 1838 2081 
L 2419 2081 
L 2419 2278 
Q 2419 2681 2228 2873 
Q 2038 3066 1638 3066 
Q 1306 3066 1126 2930 
Q 947 2794 872 2484 
L 519 2484 
L 519 3200 
Q 816 3306 1134 3359 
Q 1453 3413 1806 3413 
Q 2697 3413 3111 3081 
Q 3525 2750 3525 2041 
z
M 2419 1044 
L 2419 1709 
L 2003 1709 
Q 1694 1709 1528 1540 
Q 1363 1372 1363 1056 
Q 1363 741 1483 584 
Q 1603 428 1850 428 
Q 2106 428 2262 597 
Q 2419 766 2419 1044 
z
" transform="scale(0.015625)"/>
        <path id="DejaVuSerif-Bold-6c" d="M 1797 378 
L 2272 378 
L 2272 0 
L 219 0 
L 219 378 
L 691 378 
L 691 4488 
L 219 4488 
L 219 4863 
L 1797 4863 
L 1797 378 
z
" transform="scale(0.015625)"/>
        <path id="DejaVuSerif-Bold-6f" d="M 2138 263 
Q 2488 263 2630 563 
Q 2772 863 2772 1663 
Q 2772 2463 2631 2761 
Q 2491 3059 2138 3059 
Q 1784 3059 1640 2757 
Q 1497 2456 1497 1663 
Q 1497 869 1640 566 
Q 1784 263 2138 263 
z
M 2138 -91 
Q 1259 -91 761 376 
Q 263 844 263 1663 
Q 263 2484 761 2948 
Q 1259 3413 2138 3413 
Q 3019 3413 3516 2948 
Q 4013 2484 4013 1663 
Q 4013 844 3514 376 
Q 3016 -91 2138 -91 
z
" transform="scale(0.015625)"/>
        <path id="DejaVuSerif-Bold-6e" d="M 219 0 
L 219 378 
L 691 378 
L 691 2944 
L 219 2944 
L 219 3322 
L 1797 3322 
L 1797 2853 
Q 1997 3150 2253 3281 
Q 2509 3413 2900 3413 
Q 3459 3413 3745 3083 
Q 4031 2753 4031 2113 
L 4031 378 
L 4506 378 
L 4506 0 
L 2522 0 
L 2522 378 
L 2925 378 
L 2925 2144 
Q 2925 2566 2817 2730 
Q 2709 2894 2444 2894 
Q 2109 2894 1953 2648 
Q 1797 2403 1797 1869 
L 1797 378 
L 2203 378 
L 2203 0 
L 219 0 
z
" transform="scale(0.015625)"/>
       </defs>
       <use xlink:href="#DejaVuSerif-Bold-41"/>
       <use xlink:href="#DejaVuSerif-Bold-76" x="73.587891"/>
       <use xlink:href="#DejaVuSerif-Bold-61" x="131.693359"/>
       <use xlink:href="#DejaVuSerif-Bold-6c" x="196.488281"/>
       <use xlink:href="#DejaVuSerif-Bold-6f" x="234.476562"/>
       <use xlink:href="#DejaVuSerif-Bold-6e" x="301.175781"/>
       <use xlink:href="#DejaVuSerif-Bold-46" x="373.880859"/>
       <use xlink:href="#DejaVuSerif-Bold-50" x="444.876953"/>
       <use xlink:href="#DejaVuSerif-Bold-73" x="520.072266"/>
      </g>
     </g>
    </g>
    <g id="ytick_3">
     <g id="line2d_7">
      <g>
       <use xlink:href="#m9a5584a793" x="122.703906" y="189.822766" style="stroke: #000000; stroke-width: 0.8"/>
      </g>
     </g>
     <g id="text_7">
      <!-- ECFPs -->
      <g transform="translate(61.957031 195.521595) scale(0.15 -0.15)">
       <defs>
        <path id="DejaVuSerif-Bold-45" d="M 300 0 
L 300 378 
L 897 378 
L 897 4288 
L 300 4288 
L 300 4666 
L 4494 4666 
L 4494 3566 
L 4063 3566 
L 4063 4238 
L 2100 4238 
L 2100 2741 
L 3322 2741 
L 3322 3334 
L 3750 3334 
L 3750 1722 
L 3322 1722 
L 3322 2316 
L 2100 2316 
L 2100 428 
L 4122 428 
L 4122 1100 
L 4550 1100 
L 4550 0 
L 300 0 
z
" transform="scale(0.015625)"/>
        <path id="DejaVuSerif-Bold-43" d="M 4769 1331 
Q 4584 609 4106 259 
Q 3628 -91 2822 -91 
Q 1641 -91 955 561 
Q 269 1213 269 2328 
Q 269 3447 955 4098 
Q 1641 4750 2822 4750 
Q 3238 4750 3688 4650 
Q 4138 4550 4641 4347 
L 4641 3200 
L 4244 3200 
Q 4122 3788 3800 4080 
Q 3478 4372 2950 4372 
Q 2269 4372 1937 3870 
Q 1606 3369 1606 2328 
Q 1606 1288 1937 788 
Q 2269 288 2956 288 
Q 3422 288 3717 547 
Q 4013 806 4147 1331 
L 4769 1331 
z
" transform="scale(0.015625)"/>
       </defs>
       <use xlink:href="#DejaVuSerif-Bold-45"/>
       <use xlink:href="#DejaVuSerif-Bold-43" x="76.220703"/>
       <use xlink:href="#DejaVuSerif-Bold-46" x="155.810547"/>
       <use xlink:href="#DejaVuSerif-Bold-50" x="226.806641"/>
       <use xlink:href="#DejaVuSerif-Bold-73" x="302.001953"/>
      </g>
     </g>
    </g>
    <g id="ytick_4">
     <g id="line2d_8">
      <g>
       <use xlink:href="#m9a5584a793" x="122.703906" y="145.252234" style="stroke: #000000; stroke-width: 0.8"/>
      </g>
     </g>
     <g id="text_8">
      <!-- FCFPs -->
      <g transform="translate(62.739844 150.951062) scale(0.15 -0.15)">
       <use xlink:href="#DejaVuSerif-Bold-46"/>
       <use xlink:href="#DejaVuSerif-Bold-43" x="70.996094"/>
       <use xlink:href="#DejaVuSerif-Bold-46" x="150.585938"/>
       <use xlink:href="#DejaVuSerif-Bold-50" x="221.582031"/>
       <use xlink:href="#DejaVuSerif-Bold-73" x="296.777344"/>
      </g>
     </g>
    </g>
    <g id="ytick_5">
     <g id="line2d_9">
      <g>
       <use xlink:href="#m9a5584a793" x="122.703906" y="100.681701" style="stroke: #000000; stroke-width: 0.8"/>
      </g>
     </g>
     <g id="text_9">
      <!-- MACCS -->
      <g transform="translate(52.750781 106.380529) scale(0.15 -0.15)">
       <defs>
        <path id="DejaVuSerif-Bold-4d" d="M 269 0 
L 269 378 
L 863 378 
L 863 4288 
L 269 4288 
L 269 4666 
L 2194 4666 
L 3525 1672 
L 4863 4666 
L 6784 4666 
L 6784 4288 
L 6188 4288 
L 6188 378 
L 6784 378 
L 6784 0 
L 4384 0 
L 4384 378 
L 4978 378 
L 4978 3938 
L 3531 684 
L 2741 684 
L 1300 3938 
L 1300 378 
L 1894 378 
L 1894 0 
L 269 0 
z
" transform="scale(0.015625)"/>
        <path id="DejaVuSerif-Bold-53" d="M 494 225 
L 494 1331 
L 891 1331 
Q 981 806 1318 547 
Q 1656 288 2253 288 
Q 2738 288 2991 472 
Q 3244 656 3244 1013 
Q 3244 1294 3072 1450 
Q 2900 1606 2363 1741 
L 1663 1913 
Q 978 2088 700 2398 
Q 422 2709 422 3284 
Q 422 3978 883 4364 
Q 1344 4750 2175 4750 
Q 2584 4750 3026 4681 
Q 3469 4613 3944 4475 
L 3944 3444 
L 3547 3444 
Q 3456 3925 3150 4148 
Q 2844 4372 2278 4372 
Q 1816 4372 1580 4211 
Q 1344 4050 1344 3731 
Q 1344 3441 1506 3289 
Q 1669 3138 2303 2975 
L 3003 2803 
Q 3653 2641 3945 2297 
Q 4238 1953 4238 1350 
Q 4238 644 3750 276 
Q 3263 -91 2316 -91 
Q 1859 -91 1409 -12 
Q 959 66 494 225 
z
" transform="scale(0.015625)"/>
       </defs>
       <use xlink:href="#DejaVuSerif-Bold-4d"/>
       <use xlink:href="#DejaVuSerif-Bold-41" x="110.693359"/>
       <use xlink:href="#DejaVuSerif-Bold-43" x="188.28125"/>
       <use xlink:href="#DejaVuSerif-Bold-43" x="267.871094"/>
       <use xlink:href="#DejaVuSerif-Bold-53" x="347.460938"/>
      </g>
     </g>
    </g>
    <g id="ytick_6">
     <g id="line2d_10">
      <g>
       <use xlink:href="#m9a5584a793" x="122.703906" y="56.111168" style="stroke: #000000; stroke-width: 0.8"/>
      </g>
     </g>
     <g id="text_10">
      <!-- PubchemFPs -->
      <g transform="translate(7.2 61.809996) scale(0.15 -0.15)">
       <defs>
        <path id="DejaVuSerif-Bold-75" d="M 3963 3322 
L 3963 378 
L 4434 378 
L 4434 0 
L 2853 0 
L 2853 469 
Q 2656 172 2400 40 
Q 2144 -91 1753 -91 
Q 1194 -91 908 239 
Q 622 569 622 1209 
L 622 2944 
L 147 2944 
L 147 3322 
L 1728 3322 
L 1728 1381 
Q 1728 763 1831 595 
Q 1934 428 2209 428 
Q 2544 428 2698 675 
Q 2853 922 2853 1459 
L 2853 2944 
L 2450 2944 
L 2450 3322 
L 3963 3322 
z
" transform="scale(0.015625)"/>
        <path id="DejaVuSerif-Bold-62" d="M 622 378 
L 622 4488 
L 147 4488 
L 147 4863 
L 1728 4863 
L 1728 2900 
Q 1869 3159 2106 3286 
Q 2344 3413 2694 3413 
Q 3403 3413 3811 2945 
Q 4219 2478 4219 1663 
Q 4219 847 3811 378 
Q 3403 -91 2694 -91 
Q 2344 -91 2106 36 
Q 1869 163 1728 422 
L 1728 0 
L 147 0 
L 147 378 
L 622 378 
z
M 1728 1497 
Q 1728 916 1876 656 
Q 2025 397 2356 397 
Q 2697 397 2836 672 
Q 2975 947 2975 1663 
Q 2975 2378 2836 2651 
Q 2697 2925 2356 2925 
Q 2025 2925 1876 2665 
Q 1728 2406 1728 1825 
L 1728 1497 
z
" transform="scale(0.015625)"/>
        <path id="DejaVuSerif-Bold-63" d="M 3609 1038 
Q 3491 469 3123 189 
Q 2756 -91 2125 -91 
Q 1238 -91 750 368 
Q 263 828 263 1663 
Q 263 2488 744 2950 
Q 1225 3413 2081 3413 
Q 2428 3413 2781 3347 
Q 3134 3281 3500 3150 
L 3500 2228 
L 3150 2228 
Q 3100 2650 2903 2854 
Q 2706 3059 2350 3059 
Q 1888 3059 1692 2746 
Q 1497 2434 1497 1663 
Q 1497 909 1687 586 
Q 1878 263 2309 263 
Q 2644 263 2845 463 
Q 3047 663 3091 1038 
L 3609 1038 
z
" transform="scale(0.015625)"/>
        <path id="DejaVuSerif-Bold-68" d="M 219 0 
L 219 378 
L 691 378 
L 691 4488 
L 197 4488 
L 197 4863 
L 1797 4863 
L 1797 2853 
Q 1997 3150 2253 3281 
Q 2509 3413 2900 3413 
Q 3459 3413 3745 3083 
Q 4031 2753 4031 2113 
L 4031 378 
L 4506 378 
L 4506 0 
L 2522 0 
L 2522 378 
L 2925 378 
L 2925 2144 
Q 2925 2566 2817 2730 
Q 2709 2894 2444 2894 
Q 2109 2894 1953 2648 
Q 1797 2403 1797 1869 
L 1797 378 
L 2203 378 
L 2203 0 
L 219 0 
z
" transform="scale(0.015625)"/>
        <path id="DejaVuSerif-Bold-65" d="M 2566 1875 
Q 2566 2531 2444 2795 
Q 2322 3059 2028 3059 
Q 1744 3059 1620 2800 
Q 1497 2541 1497 1931 
L 1497 1875 
L 2566 1875 
z
M 3781 1503 
L 1497 1503 
L 1497 1478 
Q 1497 834 1690 548 
Q 1884 263 2316 263 
Q 2675 263 2897 453 
Q 3119 644 3181 1006 
L 3700 1006 
Q 3566 441 3166 175 
Q 2766 -91 2047 -91 
Q 1184 -91 723 364 
Q 263 819 263 1663 
Q 263 2488 734 2950 
Q 1206 3413 2047 3413 
Q 2872 3413 3312 2927 
Q 3753 2441 3781 1503 
z
" transform="scale(0.015625)"/>
        <path id="DejaVuSerif-Bold-6d" d="M 3884 2778 
Q 4116 3109 4384 3261 
Q 4653 3413 5013 3413 
Q 5584 3413 5867 3089 
Q 6150 2766 6150 2113 
L 6150 378 
L 6625 378 
L 6625 0 
L 4647 0 
L 4647 378 
L 5044 378 
L 5044 1947 
Q 5044 2569 4948 2731 
Q 4853 2894 4594 2894 
Q 4300 2894 4137 2667 
Q 3975 2441 3975 2022 
L 3975 378 
L 4372 378 
L 4372 0 
L 2472 0 
L 2472 378 
L 2869 378 
L 2869 1947 
Q 2869 2569 2772 2731 
Q 2675 2894 2419 2894 
Q 2122 2894 1959 2667 
Q 1797 2441 1797 2022 
L 1797 378 
L 2194 378 
L 2194 0 
L 219 0 
L 219 378 
L 691 378 
L 691 2944 
L 219 2944 
L 219 3322 
L 1797 3322 
L 1797 2853 
Q 1991 3144 2241 3278 
Q 2491 3413 2834 3413 
Q 3241 3413 3494 3258 
Q 3747 3103 3884 2778 
z
" transform="scale(0.015625)"/>
       </defs>
       <use xlink:href="#DejaVuSerif-Bold-50"/>
       <use xlink:href="#DejaVuSerif-Bold-75" x="75.195312"/>
       <use xlink:href="#DejaVuSerif-Bold-62" x="147.900391"/>
       <use xlink:href="#DejaVuSerif-Bold-63" x="217.822266"/>
       <use xlink:href="#DejaVuSerif-Bold-68" x="278.710938"/>
       <use xlink:href="#DejaVuSerif-Bold-65" x="351.416016"/>
       <use xlink:href="#DejaVuSerif-Bold-6d" x="415.039062"/>
       <use xlink:href="#DejaVuSerif-Bold-46" x="520.849609"/>
       <use xlink:href="#DejaVuSerif-Bold-50" x="591.845703"/>
       <use xlink:href="#DejaVuSerif-Bold-73" x="667.041016"/>
      </g>
     </g>
    </g>
   </g>
   <g id="patch_9">
    <path d="M 122.703906 309.7175 
L 122.703906 25.3575 
" style="fill: none; stroke: #000000; stroke-width: 2; stroke-linejoin: miter; stroke-linecap: square"/>
   </g>
   <g id="patch_10">
    <path d="M 446.273906 309.7175 
L 446.273906 25.3575 
" style="fill: none; stroke: #000000; stroke-width: 2; stroke-linejoin: miter; stroke-linecap: square"/>
   </g>
   <g id="patch_11">
    <path d="M 122.703906 309.7175 
L 446.273906 309.7175 
" style="fill: none; stroke: #000000; stroke-width: 2; stroke-linejoin: miter; stroke-linecap: square"/>
   </g>
   <g id="patch_12">
    <path d="M 122.703906 25.3575 
L 446.273906 25.3575 
" style="fill: none; stroke: #000000; stroke-width: 2; stroke-linejoin: miter; stroke-linecap: square"/>
   </g>
   <g id="text_11">
    <!-- AUC-ROC -->
    <g transform="translate(241.632656 19.3575) scale(0.16 -0.16)">
     <defs>
      <path id="DejaVuSerif-Bold-55" d="M 813 4288 
L 219 4288 
L 219 4666 
L 2619 4666 
L 2619 4288 
L 2022 4288 
L 2022 1953 
Q 2022 1081 2294 732 
Q 2566 384 3225 384 
Q 3869 384 4139 736 
Q 4409 1088 4409 1953 
L 4409 4288 
L 3816 4288 
L 3816 4666 
L 5441 4666 
L 5441 4288 
L 4844 4288 
L 4844 1888 
Q 4844 819 4381 364 
Q 3919 -91 2828 -91 
Q 1744 -91 1278 368 
Q 813 828 813 1894 
L 813 4288 
z
" transform="scale(0.015625)"/>
      <path id="DejaVuSerif-Bold-2d" d="M 347 2138 
L 2309 2138 
L 2309 1294 
L 347 1294 
L 347 2138 
z
" transform="scale(0.015625)"/>
      <path id="DejaVuSerif-Bold-52" d="M 3397 2278 
Q 3675 2238 3865 2094 
Q 4056 1950 4197 1678 
L 4878 378 
L 5356 378 
L 5356 0 
L 3822 0 
L 3078 1409 
Q 2863 1847 2711 1967 
Q 2559 2088 2291 2088 
L 2100 2088 
L 2100 378 
L 2700 378 
L 2700 0 
L 300 0 
L 300 378 
L 897 378 
L 897 4288 
L 300 4288 
L 300 4666 
L 2963 4666 
Q 3775 4666 4217 4339 
Q 4659 4013 4659 3413 
Q 4659 2925 4345 2642 
Q 4031 2359 3397 2278 
z
M 2100 2463 
L 2509 2463 
Q 2947 2463 3183 2700 
Q 3419 2938 3419 3378 
Q 3419 3819 3183 4053 
Q 2947 4288 2509 4288 
L 2100 4288 
L 2100 2463 
z
" transform="scale(0.015625)"/>
      <path id="DejaVuSerif-Bold-4f" d="M 2784 288 
Q 3381 288 3672 791 
Q 3963 1294 3963 2328 
Q 3963 3366 3672 3869 
Q 3381 4372 2784 4372 
Q 2191 4372 1898 3864 
Q 1606 3356 1606 2328 
Q 1606 1303 1898 795 
Q 2191 288 2784 288 
z
M 2784 -91 
Q 1606 -91 937 553 
Q 269 1197 269 2328 
Q 269 3459 939 4104 
Q 1609 4750 2784 4750 
Q 3963 4750 4631 4106 
Q 5300 3463 5300 2328 
Q 5300 1197 4629 553 
Q 3959 -91 2784 -91 
z
" transform="scale(0.015625)"/>
     </defs>
     <use xlink:href="#DejaVuSerif-Bold-41"/>
     <use xlink:href="#DejaVuSerif-Bold-55" x="77.587891"/>
     <use xlink:href="#DejaVuSerif-Bold-43" x="164.794922"/>
     <use xlink:href="#DejaVuSerif-Bold-2d" x="244.384766"/>
     <use xlink:href="#DejaVuSerif-Bold-52" x="285.888672"/>
     <use xlink:href="#DejaVuSerif-Bold-4f" x="368.994141"/>
     <use xlink:href="#DejaVuSerif-Bold-43" x="456.103516"/>
    </g>
   </g>
  </g>
 </g>
 <defs>
  <clipPath id="pfa72925536">
   <rect x="122.703906" y="25.3575" width="323.57" height="284.36"/>
  </clipPath>
 </defs>
</svg>
