<?xml version="1.0" encoding="utf-8" standalone="no"?>
<!DOCTYPE svg PUBLIC "-//W3C//DTD SVG 1.1//EN"
  "http://www.w3.org/Graphics/SVG/1.1/DTD/svg11.dtd">
<svg xmlns:xlink="http://www.w3.org/1999/xlink" width="360pt" height="360pt" viewBox="0 0 360 360" xmlns="http://www.w3.org/2000/svg" version="1.1">
 <metadata>
  <rdf:RDF xmlns:dc="http://purl.org/dc/elements/1.1/" xmlns:cc="http://creativecommons.org/ns#" xmlns:rdf="http://www.w3.org/1999/02/22-rdf-syntax-ns#">
   <cc:Work>
    <dc:type rdf:resource="http://purl.org/dc/dcmitype/StillImage"/>
    <dc:date>2024-06-03T16:29:56.524843</dc:date>
    <dc:format>image/svg+xml</dc:format>
    <dc:creator>
     <cc:Agent>
      <dc:title>Matplotlib v3.6.0, https://matplotlib.org/</dc:title>
     </cc:Agent>
    </dc:creator>
   </cc:Work>
  </rdf:RDF>
 </metadata>
 <defs>
  <style type="text/css">*{stroke-linejoin: round; stroke-linecap: butt}</style>
 </defs>
 <g id="figure_1">
  <g id="patch_1">
   <path d="M 0 360 
L 360 360 
L 360 0 
L 0 0 
z
" style="fill: #ffffff"/>
  </g>
  <g id="axes_1">
   <g id="patch_2">
    <path d="M 45 320.4 
L 324 320.4 
L 324 43.2 
L 45 43.2 
z
" style="fill: #ffffff"/>
   </g>
   <g id="matplotlib.axis_1">
    <g id="xtick_1">
     <g id="line2d_1">
      <path d="M 57.681818 320.4 
L 57.681818 43.2 
" clip-path="url(#p2242f3edb6)" style="fill: none; stroke-dasharray: 2.96,1.28; stroke-dashoffset: 0; stroke: #b0b0b0; stroke-width: 0.8"/>
     </g>
     <g id="line2d_2">
      <defs>
       <path id="m623198f8e4" d="M 0 0 
L 0 3.5 
" style="stroke: #000000; stroke-width: 0.8"/>
      </defs>
      <g>
       <use xlink:href="#m623198f8e4" x="57.681818" y="320.4" style="stroke: #000000; stroke-width: 0.8"/>
      </g>
     </g>
     <g id="text_1">
      <!-- 0.0 -->
      <g transform="translate(48.983381 334.998438) scale(0.1 -0.1)">
       <defs>
        <path id="DejaVuSerif-Bold-30" d="M 2228 275 
Q 2603 275 2742 615 
Q 2881 956 2881 2328 
Q 2881 3691 2742 4037 
Q 2603 4384 2228 4384 
Q 1853 4384 1714 4043 
Q 1575 3703 1575 2328 
Q 1575 956 1714 615 
Q 1853 275 2228 275 
z
M 2228 -91 
Q 1294 -91 797 532 
Q 300 1156 300 2328 
Q 300 3500 797 4125 
Q 1294 4750 2228 4750 
Q 3159 4750 3656 4125 
Q 4153 3500 4153 2328 
Q 4153 1156 3656 532 
Q 3159 -91 2228 -91 
z
" transform="scale(0.015625)"/>
        <path id="DejaVuSerif-Bold-2e" d="M 519 506 
Q 519 750 694 925 
Q 869 1100 1113 1100 
Q 1359 1100 1534 925 
Q 1709 750 1709 506 
Q 1709 259 1534 84 
Q 1359 -91 1113 -91 
Q 869 -91 694 84 
Q 519 259 519 506 
z
" transform="scale(0.015625)"/>
       </defs>
       <use xlink:href="#DejaVuSerif-Bold-30"/>
       <use xlink:href="#DejaVuSerif-Bold-2e" x="69.580078"/>
       <use xlink:href="#DejaVuSerif-Bold-30" x="104.394531"/>
      </g>
     </g>
    </g>
    <g id="xtick_2">
     <g id="line2d_3">
      <path d="M 108.409091 320.4 
L 108.409091 43.2 
" clip-path="url(#p2242f3edb6)" style="fill: none; stroke-dasharray: 2.96,1.28; stroke-dashoffset: 0; stroke: #b0b0b0; stroke-width: 0.8"/>
     </g>
     <g id="line2d_4">
      <g>
       <use xlink:href="#m623198f8e4" x="108.409091" y="320.4" style="stroke: #000000; stroke-width: 0.8"/>
      </g>
     </g>
     <g id="text_2">
      <!-- 0.2 -->
      <g transform="translate(99.710653 334.998438) scale(0.1 -0.1)">
       <defs>
        <path id="DejaVuSerif-Bold-32" d="M 844 3513 
L 469 3513 
L 469 4519 
Q 850 4634 1223 4692 
Q 1597 4750 1978 4750 
Q 2869 4750 3367 4386 
Q 3866 4022 3866 3372 
Q 3866 2909 3591 2542 
Q 3316 2175 2541 1672 
L 1241 819 
L 3450 819 
L 3450 1369 
L 3878 1369 
L 3878 0 
L 428 0 
L 428 763 
L 1119 1241 
Q 2003 1850 2297 2278 
Q 2591 2706 2591 3278 
Q 2591 3819 2367 4101 
Q 2144 4384 1716 4384 
Q 1347 4384 1125 4161 
Q 903 3938 844 3513 
z
" transform="scale(0.015625)"/>
       </defs>
       <use xlink:href="#DejaVuSerif-Bold-30"/>
       <use xlink:href="#DejaVuSerif-Bold-2e" x="69.580078"/>
       <use xlink:href="#DejaVuSerif-Bold-32" x="104.394531"/>
      </g>
     </g>
    </g>
    <g id="xtick_3">
     <g id="line2d_5">
      <path d="M 159.136364 320.4 
L 159.136364 43.2 
" clip-path="url(#p2242f3edb6)" style="fill: none; stroke-dasharray: 2.96,1.28; stroke-dashoffset: 0; stroke: #b0b0b0; stroke-width: 0.8"/>
     </g>
     <g id="line2d_6">
      <g>
       <use xlink:href="#m623198f8e4" x="159.136364" y="320.4" style="stroke: #000000; stroke-width: 0.8"/>
      </g>
     </g>
     <g id="text_3">
      <!-- 0.4 -->
      <g transform="translate(150.437926 334.998438) scale(0.1 -0.1)">
       <defs>
        <path id="DejaVuSerif-Bold-34" d="M 4084 0 
L 1516 0 
L 1516 378 
L 2209 378 
L 2209 1228 
L 263 1228 
L 263 1588 
L 2216 4750 
L 3391 4750 
L 3391 1631 
L 4191 1631 
L 4191 1228 
L 3391 1228 
L 3391 378 
L 4084 378 
L 4084 0 
z
M 2209 1631 
L 2209 3897 
L 819 1631 
L 2209 1631 
z
" transform="scale(0.015625)"/>
       </defs>
       <use xlink:href="#DejaVuSerif-Bold-30"/>
       <use xlink:href="#DejaVuSerif-Bold-2e" x="69.580078"/>
       <use xlink:href="#DejaVuSerif-Bold-34" x="104.394531"/>
      </g>
     </g>
    </g>
    <g id="xtick_4">
     <g id="line2d_7">
      <path d="M 209.863636 320.4 
L 209.863636 43.2 
" clip-path="url(#p2242f3edb6)" style="fill: none; stroke-dasharray: 2.96,1.28; stroke-dashoffset: 0; stroke: #b0b0b0; stroke-width: 0.8"/>
     </g>
     <g id="line2d_8">
      <g>
       <use xlink:href="#m623198f8e4" x="209.863636" y="320.4" style="stroke: #000000; stroke-width: 0.8"/>
      </g>
     </g>
     <g id="text_4">
      <!-- 0.6 -->
      <g transform="translate(201.165199 334.998438) scale(0.1 -0.1)">
       <defs>
        <path id="DejaVuSerif-Bold-36" d="M 1575 2766 
Q 1778 2928 2029 3009 
Q 2281 3091 2578 3091 
Q 3294 3091 3701 2672 
Q 4109 2253 4109 1522 
Q 4109 750 3650 329 
Q 3191 -91 2344 -91 
Q 1388 -91 895 486 
Q 403 1063 403 2181 
Q 403 3453 950 4101 
Q 1497 4750 2572 4750 
Q 2853 4750 3175 4703 
Q 3497 4656 3866 4563 
L 3866 3738 
L 3488 3738 
Q 3409 4056 3192 4220 
Q 2975 4384 2631 4384 
Q 2075 4384 1826 4003 
Q 1578 3622 1575 2766 
z
M 2272 275 
Q 2594 275 2731 548 
Q 2869 822 2869 1497 
Q 2869 2172 2731 2445 
Q 2594 2719 2272 2719 
Q 1950 2719 1814 2445 
Q 1678 2172 1678 1497 
Q 1678 822 1814 548 
Q 1950 275 2272 275 
z
" transform="scale(0.015625)"/>
       </defs>
       <use xlink:href="#DejaVuSerif-Bold-30"/>
       <use xlink:href="#DejaVuSerif-Bold-2e" x="69.580078"/>
       <use xlink:href="#DejaVuSerif-Bold-36" x="104.394531"/>
      </g>
     </g>
    </g>
    <g id="xtick_5">
     <g id="line2d_9">
      <path d="M 260.590909 320.4 
L 260.590909 43.2 
" clip-path="url(#p2242f3edb6)" style="fill: none; stroke-dasharray: 2.96,1.28; stroke-dashoffset: 0; stroke: #b0b0b0; stroke-width: 0.8"/>
     </g>
     <g id="line2d_10">
      <g>
       <use xlink:href="#m623198f8e4" x="260.590909" y="320.4" style="stroke: #000000; stroke-width: 0.8"/>
      </g>
     </g>
     <g id="text_5">
      <!-- 0.8 -->
      <g transform="translate(251.892472 334.998438) scale(0.1 -0.1)">
       <defs>
        <path id="DejaVuSerif-Bold-38" d="M 2975 2484 
Q 3531 2394 3820 2075 
Q 4109 1756 4109 1241 
Q 4109 597 3623 253 
Q 3138 -91 2222 -91 
Q 1306 -91 818 253 
Q 331 597 331 1241 
Q 331 1756 622 2075 
Q 913 2394 1466 2484 
Q 975 2597 731 2861 
Q 488 3125 488 3531 
Q 488 4125 931 4437 
Q 1375 4750 2222 4750 
Q 3066 4750 3511 4437 
Q 3956 4125 3956 3531 
Q 3956 3125 3711 2861 
Q 3466 2597 2975 2484 
z
M 2747 3519 
Q 2747 4013 2628 4198 
Q 2509 4384 2222 4384 
Q 1931 4384 1814 4198 
Q 1697 4013 1697 3519 
Q 1697 3028 1814 2845 
Q 1931 2663 2222 2663 
Q 2513 2663 2630 2845 
Q 2747 3028 2747 3519 
z
M 2869 1294 
Q 2869 1866 2723 2081 
Q 2578 2297 2222 2297 
Q 1863 2297 1719 2081 
Q 1575 1866 1575 1294 
Q 1575 716 1720 495 
Q 1866 275 2222 275 
Q 2575 275 2722 495 
Q 2869 716 2869 1294 
z
" transform="scale(0.015625)"/>
       </defs>
       <use xlink:href="#DejaVuSerif-Bold-30"/>
       <use xlink:href="#DejaVuSerif-Bold-2e" x="69.580078"/>
       <use xlink:href="#DejaVuSerif-Bold-38" x="104.394531"/>
      </g>
     </g>
    </g>
    <g id="xtick_6">
     <g id="line2d_11">
      <path d="M 311.318182 320.4 
L 311.318182 43.2 
" clip-path="url(#p2242f3edb6)" style="fill: none; stroke-dasharray: 2.96,1.28; stroke-dashoffset: 0; stroke: #b0b0b0; stroke-width: 0.8"/>
     </g>
     <g id="line2d_12">
      <g>
       <use xlink:href="#m623198f8e4" x="311.318182" y="320.4" style="stroke: #000000; stroke-width: 0.8"/>
      </g>
     </g>
     <g id="text_6">
      <!-- 1.0 -->
      <g transform="translate(302.619744 334.998438) scale(0.1 -0.1)">
       <defs>
        <path id="DejaVuSerif-Bold-31" d="M 878 0 
L 878 378 
L 1753 378 
L 1753 4153 
L 781 3578 
L 781 4044 
L 1953 4750 
L 2938 4750 
L 2938 378 
L 3816 378 
L 3816 0 
L 878 0 
z
" transform="scale(0.015625)"/>
       </defs>
       <use xlink:href="#DejaVuSerif-Bold-31"/>
       <use xlink:href="#DejaVuSerif-Bold-2e" x="69.580078"/>
       <use xlink:href="#DejaVuSerif-Bold-30" x="104.394531"/>
      </g>
     </g>
    </g>
    <g id="text_7">
     <!-- False Positive Rate -->
     <g transform="translate(105.205078 352.475781) scale(0.15 -0.15)">
      <defs>
       <path id="DejaVuSerif-Bold-46" d="M 300 0 
L 300 378 
L 897 378 
L 897 4288 
L 300 4288 
L 300 4666 
L 4459 4666 
L 4459 3566 
L 4031 3566 
L 4031 4238 
L 2106 4238 
L 2106 2741 
L 3291 2741 
L 3291 3334 
L 3719 3334 
L 3719 1722 
L 3291 1722 
L 3291 2316 
L 2106 2316 
L 2106 378 
L 2841 378 
L 2841 0 
L 300 0 
z
" transform="scale(0.015625)"/>
       <path id="DejaVuSerif-Bold-61" d="M 3525 2041 
L 3525 378 
L 4000 378 
L 4000 0 
L 2419 0 
L 2419 422 
Q 2200 159 1931 34 
Q 1663 -91 1319 -91 
Q 809 -91 536 182 
Q 263 456 263 966 
Q 263 1525 655 1803 
Q 1047 2081 1838 2081 
L 2419 2081 
L 2419 2278 
Q 2419 2681 2228 2873 
Q 2038 3066 1638 3066 
Q 1306 3066 1126 2930 
Q 947 2794 872 2484 
L 519 2484 
L 519 3200 
Q 816 3306 1134 3359 
Q 1453 3413 1806 3413 
Q 2697 3413 3111 3081 
Q 3525 2750 3525 2041 
z
M 2419 1044 
L 2419 1709 
L 2003 1709 
Q 1694 1709 1528 1540 
Q 1363 1372 1363 1056 
Q 1363 741 1483 584 
Q 1603 428 1850 428 
Q 2106 428 2262 597 
Q 2419 766 2419 1044 
z
" transform="scale(0.015625)"/>
       <path id="DejaVuSerif-Bold-6c" d="M 1797 378 
L 2272 378 
L 2272 0 
L 219 0 
L 219 378 
L 691 378 
L 691 4488 
L 219 4488 
L 219 4863 
L 1797 4863 
L 1797 378 
z
" transform="scale(0.015625)"/>
       <path id="DejaVuSerif-Bold-73" d="M 300 97 
L 300 1025 
L 653 1025 
Q 697 653 931 458 
Q 1166 263 1569 263 
Q 1906 263 2086 380 
Q 2266 497 2266 716 
Q 2266 916 2152 1025 
Q 2038 1134 1709 1216 
L 1253 1331 
Q 738 1459 506 1698 
Q 275 1938 275 2344 
Q 275 2884 650 3148 
Q 1025 3413 1806 3413 
Q 2100 3413 2433 3364 
Q 2766 3316 3169 3213 
L 3169 2375 
L 2816 2375 
Q 2788 2716 2573 2887 
Q 2359 3059 1959 3059 
Q 1622 3059 1448 2951 
Q 1275 2844 1275 2638 
Q 1275 2469 1375 2372 
Q 1475 2275 1734 2209 
L 2188 2094 
Q 2841 1928 3091 1684 
Q 3341 1441 3341 1006 
Q 3341 444 2939 176 
Q 2538 -91 1691 -91 
Q 1381 -91 1034 -44 
Q 688 3 300 97 
z
" transform="scale(0.015625)"/>
       <path id="DejaVuSerif-Bold-65" d="M 2566 1875 
Q 2566 2531 2444 2795 
Q 2322 3059 2028 3059 
Q 1744 3059 1620 2800 
Q 1497 2541 1497 1931 
L 1497 1875 
L 2566 1875 
z
M 3781 1503 
L 1497 1503 
L 1497 1478 
Q 1497 834 1690 548 
Q 1884 263 2316 263 
Q 2675 263 2897 453 
Q 3119 644 3181 1006 
L 3700 1006 
Q 3566 441 3166 175 
Q 2766 -91 2047 -91 
Q 1184 -91 723 364 
Q 263 819 263 1663 
Q 263 2488 734 2950 
Q 1206 3413 2047 3413 
Q 2872 3413 3312 2927 
Q 3753 2441 3781 1503 
z
" transform="scale(0.015625)"/>
       <path id="DejaVuSerif-Bold-20" transform="scale(0.015625)"/>
       <path id="DejaVuSerif-Bold-50" d="M 300 0 
L 300 378 
L 897 378 
L 897 4288 
L 300 4288 
L 300 4666 
L 2956 4666 
Q 3734 4666 4193 4295 
Q 4653 3925 4653 3303 
Q 4653 2678 4192 2304 
Q 3731 1931 2956 1931 
L 2100 1931 
L 2100 378 
L 2853 378 
L 2853 0 
L 300 0 
z
M 2100 2309 
L 2450 2309 
Q 2856 2309 3098 2579 
Q 3341 2850 3341 3303 
Q 3341 3753 3100 4020 
Q 2859 4288 2450 4288 
L 2100 4288 
L 2100 2309 
z
" transform="scale(0.015625)"/>
       <path id="DejaVuSerif-Bold-6f" d="M 2138 263 
Q 2488 263 2630 563 
Q 2772 863 2772 1663 
Q 2772 2463 2631 2761 
Q 2491 3059 2138 3059 
Q 1784 3059 1640 2757 
Q 1497 2456 1497 1663 
Q 1497 869 1640 566 
Q 1784 263 2138 263 
z
M 2138 -91 
Q 1259 -91 761 376 
Q 263 844 263 1663 
Q 263 2484 761 2948 
Q 1259 3413 2138 3413 
Q 3019 3413 3516 2948 
Q 4013 2484 4013 1663 
Q 4013 844 3514 376 
Q 3016 -91 2138 -91 
z
" transform="scale(0.015625)"/>
       <path id="DejaVuSerif-Bold-69" d="M 588 4263 
Q 588 4516 763 4689 
Q 938 4863 1191 4863 
Q 1438 4863 1611 4689 
Q 1784 4516 1784 4263 
Q 1784 4016 1611 3842 
Q 1438 3669 1191 3669 
Q 938 3669 763 3841 
Q 588 4013 588 4263 
z
M 1797 378 
L 2272 378 
L 2272 0 
L 219 0 
L 219 378 
L 691 378 
L 691 2944 
L 219 2944 
L 219 3322 
L 1797 3322 
L 1797 378 
z
" transform="scale(0.015625)"/>
       <path id="DejaVuSerif-Bold-74" d="M 634 2944 
L 153 2944 
L 153 3322 
L 634 3322 
L 634 4353 
L 1741 4353 
L 1741 3322 
L 2663 3322 
L 2663 2944 
L 1741 2944 
L 1741 909 
Q 1741 475 1809 369 
Q 1878 263 2059 263 
Q 2259 263 2356 397 
Q 2453 531 2459 813 
L 2925 813 
Q 2897 313 2651 111 
Q 2406 -91 1806 -91 
Q 1122 -91 878 123 
Q 634 338 634 909 
L 634 2944 
z
" transform="scale(0.015625)"/>
       <path id="DejaVuSerif-Bold-76" d="M 1428 0 
L 250 2944 
L -116 2944 
L -116 3322 
L 1791 3322 
L 1791 2944 
L 1388 2944 
L 2228 844 
L 3066 2944 
L 2631 2944 
L 2631 3322 
L 3878 3322 
L 3878 2944 
L 3494 2944 
L 2316 0 
L 1428 0 
z
" transform="scale(0.015625)"/>
       <path id="DejaVuSerif-Bold-52" d="M 3397 2278 
Q 3675 2238 3865 2094 
Q 4056 1950 4197 1678 
L 4878 378 
L 5356 378 
L 5356 0 
L 3822 0 
L 3078 1409 
Q 2863 1847 2711 1967 
Q 2559 2088 2291 2088 
L 2100 2088 
L 2100 378 
L 2700 378 
L 2700 0 
L 300 0 
L 300 378 
L 897 378 
L 897 4288 
L 300 4288 
L 300 4666 
L 2963 4666 
Q 3775 4666 4217 4339 
Q 4659 4013 4659 3413 
Q 4659 2925 4345 2642 
Q 4031 2359 3397 2278 
z
M 2100 2463 
L 2509 2463 
Q 2947 2463 3183 2700 
Q 3419 2938 3419 3378 
Q 3419 3819 3183 4053 
Q 2947 4288 2509 4288 
L 2100 4288 
L 2100 2463 
z
" transform="scale(0.015625)"/>
      </defs>
      <use xlink:href="#DejaVuSerif-Bold-46"/>
      <use xlink:href="#DejaVuSerif-Bold-61" x="65.496094"/>
      <use xlink:href="#DejaVuSerif-Bold-6c" x="130.291016"/>
      <use xlink:href="#DejaVuSerif-Bold-73" x="168.279297"/>
      <use xlink:href="#DejaVuSerif-Bold-65" x="224.578125"/>
      <use xlink:href="#DejaVuSerif-Bold-20" x="288.201172"/>
      <use xlink:href="#DejaVuSerif-Bold-50" x="323.015625"/>
      <use xlink:href="#DejaVuSerif-Bold-6f" x="395.585938"/>
      <use xlink:href="#DejaVuSerif-Bold-73" x="462.285156"/>
      <use xlink:href="#DejaVuSerif-Bold-69" x="518.583984"/>
      <use xlink:href="#DejaVuSerif-Bold-74" x="556.572266"/>
      <use xlink:href="#DejaVuSerif-Bold-69" x="602.763672"/>
      <use xlink:href="#DejaVuSerif-Bold-76" x="640.751953"/>
      <use xlink:href="#DejaVuSerif-Bold-65" x="698.857422"/>
      <use xlink:href="#DejaVuSerif-Bold-20" x="762.480469"/>
      <use xlink:href="#DejaVuSerif-Bold-52" x="797.294922"/>
      <use xlink:href="#DejaVuSerif-Bold-61" x="882.650391"/>
      <use xlink:href="#DejaVuSerif-Bold-74" x="947.445312"/>
      <use xlink:href="#DejaVuSerif-Bold-65" x="993.636719"/>
     </g>
    </g>
   </g>
   <g id="matplotlib.axis_2">
    <g id="ytick_1">
     <g id="line2d_13">
      <path d="M 45 307.8 
L 324 307.8 
" clip-path="url(#p2242f3edb6)" style="fill: none; stroke-dasharray: 2.96,1.28; stroke-dashoffset: 0; stroke: #b0b0b0; stroke-width: 0.8"/>
     </g>
     <g id="line2d_14">
      <defs>
       <path id="m474e226d4d" d="M 0 0 
L -3.5 0 
" style="stroke: #000000; stroke-width: 0.8"/>
      </defs>
      <g>
       <use xlink:href="#m474e226d4d" x="45" y="307.8" style="stroke: #000000; stroke-width: 0.8"/>
      </g>
     </g>
     <g id="text_8">
      <!-- 0.0 -->
      <g transform="translate(20.603125 311.599219) scale(0.1 -0.1)">
       <use xlink:href="#DejaVuSerif-Bold-30"/>
       <use xlink:href="#DejaVuSerif-Bold-2e" x="69.580078"/>
       <use xlink:href="#DejaVuSerif-Bold-30" x="104.394531"/>
      </g>
     </g>
    </g>
    <g id="ytick_2">
     <g id="line2d_15">
      <path d="M 45 257.4 
L 324 257.4 
" clip-path="url(#p2242f3edb6)" style="fill: none; stroke-dasharray: 2.96,1.28; stroke-dashoffset: 0; stroke: #b0b0b0; stroke-width: 0.8"/>
     </g>
     <g id="line2d_16">
      <g>
       <use xlink:href="#m474e226d4d" x="45" y="257.4" style="stroke: #000000; stroke-width: 0.8"/>
      </g>
     </g>
     <g id="text_9">
      <!-- 0.2 -->
      <g transform="translate(20.603125 261.199219) scale(0.1 -0.1)">
       <use xlink:href="#DejaVuSerif-Bold-30"/>
       <use xlink:href="#DejaVuSerif-Bold-2e" x="69.580078"/>
       <use xlink:href="#DejaVuSerif-Bold-32" x="104.394531"/>
      </g>
     </g>
    </g>
    <g id="ytick_3">
     <g id="line2d_17">
      <path d="M 45 207 
L 324 207 
" clip-path="url(#p2242f3edb6)" style="fill: none; stroke-dasharray: 2.96,1.28; stroke-dashoffset: 0; stroke: #b0b0b0; stroke-width: 0.8"/>
     </g>
     <g id="line2d_18">
      <g>
       <use xlink:href="#m474e226d4d" x="45" y="207" style="stroke: #000000; stroke-width: 0.8"/>
      </g>
     </g>
     <g id="text_10">
      <!-- 0.4 -->
      <g transform="translate(20.603125 210.799219) scale(0.1 -0.1)">
       <use xlink:href="#DejaVuSerif-Bold-30"/>
       <use xlink:href="#DejaVuSerif-Bold-2e" x="69.580078"/>
       <use xlink:href="#DejaVuSerif-Bold-34" x="104.394531"/>
      </g>
     </g>
    </g>
    <g id="ytick_4">
     <g id="line2d_19">
      <path d="M 45 156.6 
L 324 156.6 
" clip-path="url(#p2242f3edb6)" style="fill: none; stroke-dasharray: 2.96,1.28; stroke-dashoffset: 0; stroke: #b0b0b0; stroke-width: 0.8"/>
     </g>
     <g id="line2d_20">
      <g>
       <use xlink:href="#m474e226d4d" x="45" y="156.6" style="stroke: #000000; stroke-width: 0.8"/>
      </g>
     </g>
     <g id="text_11">
      <!-- 0.6 -->
      <g transform="translate(20.603125 160.399219) scale(0.1 -0.1)">
       <use xlink:href="#DejaVuSerif-Bold-30"/>
       <use xlink:href="#DejaVuSerif-Bold-2e" x="69.580078"/>
       <use xlink:href="#DejaVuSerif-Bold-36" x="104.394531"/>
      </g>
     </g>
    </g>
    <g id="ytick_5">
     <g id="line2d_21">
      <path d="M 45 106.2 
L 324 106.2 
" clip-path="url(#p2242f3edb6)" style="fill: none; stroke-dasharray: 2.96,1.28; stroke-dashoffset: 0; stroke: #b0b0b0; stroke-width: 0.8"/>
     </g>
     <g id="line2d_22">
      <g>
       <use xlink:href="#m474e226d4d" x="45" y="106.2" style="stroke: #000000; stroke-width: 0.8"/>
      </g>
     </g>
     <g id="text_12">
      <!-- 0.8 -->
      <g transform="translate(20.603125 109.999219) scale(0.1 -0.1)">
       <use xlink:href="#DejaVuSerif-Bold-30"/>
       <use xlink:href="#DejaVuSerif-Bold-2e" x="69.580078"/>
       <use xlink:href="#DejaVuSerif-Bold-38" x="104.394531"/>
      </g>
     </g>
    </g>
    <g id="ytick_6">
     <g id="line2d_23">
      <path d="M 45 55.8 
L 324 55.8 
" clip-path="url(#p2242f3edb6)" style="fill: none; stroke-dasharray: 2.96,1.28; stroke-dashoffset: 0; stroke: #b0b0b0; stroke-width: 0.8"/>
     </g>
     <g id="line2d_24">
      <g>
       <use xlink:href="#m474e226d4d" x="45" y="55.8" style="stroke: #000000; stroke-width: 0.8"/>
      </g>
     </g>
     <g id="text_13">
      <!-- 1.0 -->
      <g transform="translate(20.603125 59.599219) scale(0.1 -0.1)">
       <use xlink:href="#DejaVuSerif-Bold-31"/>
       <use xlink:href="#DejaVuSerif-Bold-2e" x="69.580078"/>
       <use xlink:href="#DejaVuSerif-Bold-30" x="104.394531"/>
      </g>
     </g>
    </g>
    <g id="text_14">
     <!-- True Positive Rate -->
     <g transform="translate(13.483594 258.69375) rotate(-90) scale(0.15 -0.15)">
      <defs>
       <path id="DejaVuSerif-Bold-54" d="M 1159 0 
L 1159 378 
L 1778 378 
L 1778 4238 
L 500 4238 
L 500 3500 
L 72 3500 
L 72 4666 
L 4697 4666 
L 4697 3500 
L 4275 3500 
L 4275 4238 
L 2988 4238 
L 2988 378 
L 3609 378 
L 3609 0 
L 1159 0 
z
" transform="scale(0.015625)"/>
       <path id="DejaVuSerif-Bold-72" d="M 3438 3359 
L 3438 2369 
L 3084 2369 
Q 3066 2634 2941 2764 
Q 2816 2894 2578 2894 
Q 2216 2894 2006 2575 
Q 1797 2256 1797 1691 
L 1797 378 
L 2400 378 
L 2400 0 
L 219 0 
L 219 378 
L 691 378 
L 691 2944 
L 184 2944 
L 184 3322 
L 1797 3322 
L 1797 2731 
Q 1959 3078 2226 3245 
Q 2494 3413 2881 3413 
Q 2978 3413 3117 3398 
Q 3256 3384 3438 3359 
z
" transform="scale(0.015625)"/>
       <path id="DejaVuSerif-Bold-75" d="M 3963 3322 
L 3963 378 
L 4434 378 
L 4434 0 
L 2853 0 
L 2853 469 
Q 2656 172 2400 40 
Q 2144 -91 1753 -91 
Q 1194 -91 908 239 
Q 622 569 622 1209 
L 622 2944 
L 147 2944 
L 147 3322 
L 1728 3322 
L 1728 1381 
Q 1728 763 1831 595 
Q 1934 428 2209 428 
Q 2544 428 2698 675 
Q 2853 922 2853 1459 
L 2853 2944 
L 2450 2944 
L 2450 3322 
L 3963 3322 
z
" transform="scale(0.015625)"/>
      </defs>
      <use xlink:href="#DejaVuSerif-Bold-54"/>
      <use xlink:href="#DejaVuSerif-Bold-72" x="67.164062"/>
      <use xlink:href="#DejaVuSerif-Bold-75" x="119.849609"/>
      <use xlink:href="#DejaVuSerif-Bold-65" x="192.554688"/>
      <use xlink:href="#DejaVuSerif-Bold-20" x="256.177734"/>
      <use xlink:href="#DejaVuSerif-Bold-50" x="290.992188"/>
      <use xlink:href="#DejaVuSerif-Bold-6f" x="363.5625"/>
      <use xlink:href="#DejaVuSerif-Bold-73" x="430.261719"/>
      <use xlink:href="#DejaVuSerif-Bold-69" x="486.560547"/>
      <use xlink:href="#DejaVuSerif-Bold-74" x="524.548828"/>
      <use xlink:href="#DejaVuSerif-Bold-69" x="570.740234"/>
      <use xlink:href="#DejaVuSerif-Bold-76" x="608.728516"/>
      <use xlink:href="#DejaVuSerif-Bold-65" x="666.833984"/>
      <use xlink:href="#DejaVuSerif-Bold-20" x="730.457031"/>
      <use xlink:href="#DejaVuSerif-Bold-52" x="765.271484"/>
      <use xlink:href="#DejaVuSerif-Bold-61" x="850.626953"/>
      <use xlink:href="#DejaVuSerif-Bold-74" x="915.421875"/>
      <use xlink:href="#DejaVuSerif-Bold-65" x="961.613281"/>
     </g>
    </g>
   </g>
   <g id="line2d_25">
    <path d="M 57.681818 307.8 
L 57.681818 300.56555 
L 57.681818 295.742584 
L 57.681818 290.919617 
L 57.681818 288.508134 
L 57.681818 274.039234 
L 57.681818 271.627751 
L 57.681818 257.158852 
L 57.681818 254.747368 
L 57.681818 253.541627 
L 57.681818 248.71866 
L 57.681818 243.895694 
L 57.681818 241.484211 
L 57.681818 239.072727 
L 57.681818 236.661244 
L 57.681818 234.249761 
L 57.681818 230.632536 
L 57.681818 223.398086 
L 57.681818 220.986603 
L 57.681818 219.780861 
L 57.681818 217.369378 
L 57.681818 214.957895 
L 57.681818 212.546411 
L 57.681818 211.34067 
L 57.681818 199.283254 
L 57.681818 192.048804 
L 57.681818 189.637321 
L 57.681818 183.608612 
L 57.681818 173.962679 
L 57.681818 165.522488 
L 57.681818 163.111005 
L 57.681818 155.876555 
L 57.681818 153.465072 
L 57.681818 125.733014 
L 57.681818 123.321531 
L 57.681818 122.115789 
L 57.681818 117.292823 
L 57.681818 116.087081 
L 58.717069 112.469856 
L 58.717069 106.441148 
L 58.717069 104.029665 
L 58.717069 101.618182 
L 60.78757 98.000957 
L 60.78757 94.383732 
L 61.82282 94.383732 
L 61.82282 76.297608 
L 62.858071 75.091866 
L 62.858071 71.474641 
L 64.928571 71.474641 
L 65.963822 70.2689 
L 65.963822 67.857416 
L 68.034323 65.445933 
L 71.140074 65.445933 
L 73.210575 64.240191 
L 74.245826 64.240191 
L 74.245826 63.03445 
L 75.281076 61.828708 
L 75.281076 60.622967 
L 77.351577 60.622967 
L 79.422078 60.622967 
L 80.457328 59.417225 
L 81.492579 59.417225 
L 83.56308 58.211483 
L 84.59833 58.211483 
L 87.704082 57.005742 
L 107.37384 57.005742 
L 109.444341 57.005742 
L 128.07885 57.005742 
L 129.1141 55.8 
L 135.325603 55.8 
L 137.396104 55.8 
L 151.88961 55.8 
L 153.960111 55.8 
L 167.418367 55.8 
L 169.488868 55.8 
L 174.665121 55.8 
L 176.735622 55.8 
L 179.841373 55.8 
L 183.982375 55.8 
L 186.052876 55.8 
L 209.863636 55.8 
L 212.969388 55.8 
L 215.039889 55.8 
L 223.321892 55.8 
L 225.392393 55.8 
L 245.062152 55.8 
L 247.132653 55.8 
L 260.590909 55.8 
L 264.731911 55.8 
L 271.978664 55.8 
L 277.154917 55.8 
L 279.225417 55.8 
L 282.331169 55.8 
L 305.106679 55.8 
L 307.17718 55.8 
L 311.318182 55.8 
" clip-path="url(#p2242f3edb6)" style="fill: none; stroke: #5d9c59; stroke-width: 1.5; stroke-linecap: square"/>
   </g>
   <g id="line2d_26">
    <path d="M 57.681818 307.8 
L 57.681818 298.107692 
L 57.681818 210.876923 
L 57.681818 191.492308 
L 57.681818 172.107692 
L 61.772727 172.107692 
L 61.772727 157.569231 
L 65.863636 157.569231 
L 65.863636 147.876923 
L 69.954545 147.876923 
L 69.954545 138.184615 
L 69.954545 128.492308 
L 69.954545 118.8 
L 74.045455 118.8 
L 74.045455 109.107692 
L 78.136364 109.107692 
L 78.136364 104.261538 
L 82.227273 104.261538 
L 82.227273 99.415385 
L 86.318182 99.415385 
L 86.318182 94.569231 
L 90.409091 89.723077 
L 98.590909 80.030769 
L 98.590909 75.184615 
L 119.045455 75.184615 
L 119.045455 70.338462 
L 123.136364 70.338462 
L 123.136364 65.492308 
L 164.045455 65.492308 
L 164.045455 60.646154 
L 172.227273 60.646154 
L 172.227273 55.8 
L 184.5 55.8 
L 192.681818 55.8 
L 290.863636 55.8 
L 311.318182 55.8 
" clip-path="url(#p2242f3edb6)" style="fill: none; stroke: #5463ff; stroke-width: 1.5; stroke-linecap: square"/>
   </g>
   <g id="line2d_27">
    <path d="M 57.681818 307.8 
L 311.318182 55.8 
" clip-path="url(#p2242f3edb6)" style="fill: none; stroke-dasharray: 5.55,2.4; stroke-dashoffset: 0; stroke: #000000; stroke-width: 1.5"/>
   </g>
   <g id="patch_3">
    <path d="M 45 320.4 
L 45 43.2 
" style="fill: none; stroke: #000000; stroke-width: 1.5; stroke-linejoin: miter; stroke-linecap: square"/>
   </g>
   <g id="patch_4">
    <path d="M 324 320.4 
L 324 43.2 
" style="fill: none; stroke: #000000; stroke-width: 1.5; stroke-linejoin: miter; stroke-linecap: square"/>
   </g>
   <g id="patch_5">
    <path d="M 45 320.4 
L 324 320.4 
" style="fill: none; stroke: #000000; stroke-width: 1.5; stroke-linejoin: miter; stroke-linecap: square"/>
   </g>
   <g id="patch_6">
    <path d="M 45 43.2 
L 324 43.2 
" style="fill: none; stroke: #000000; stroke-width: 1.5; stroke-linejoin: miter; stroke-linecap: square"/>
   </g>
   <g id="text_15">
    <!-- XGBoost-AvalonFPs -->
    <g transform="translate(96.39625 37.2) scale(0.16 -0.16)">
     <defs>
      <path id="DejaVuSerif-Bold-58" d="M 2169 1797 
L 1197 378 
L 1772 378 
L 1772 0 
L 116 0 
L 116 378 
L 691 378 
L 1919 2163 
L 459 4288 
L 31 4288 
L 31 4666 
L 2350 4666 
L 2350 4288 
L 1838 4288 
L 2741 2975 
L 3634 4288 
L 3091 4288 
L 3091 4666 
L 4716 4666 
L 4716 4288 
L 4141 4288 
L 2988 2613 
L 4519 378 
L 4959 378 
L 4959 0 
L 2631 0 
L 2631 378 
L 3150 378 
L 2169 1797 
z
" transform="scale(0.015625)"/>
      <path id="DejaVuSerif-Bold-47" d="M 4403 3200 
Q 4263 3819 3934 4095 
Q 3606 4372 3009 4372 
Q 2284 4372 1945 3880 
Q 1606 3388 1606 2328 
Q 1606 1278 1931 783 
Q 2256 288 2944 288 
Q 3206 288 3431 347 
Q 3656 406 3841 525 
L 3841 1806 
L 3278 1806 
L 3278 2181 
L 4959 2181 
L 4959 391 
Q 4434 147 3911 28 
Q 3388 -91 2841 -91 
Q 1641 -91 955 556 
Q 269 1203 269 2328 
Q 269 3456 955 4103 
Q 1641 4750 2841 4750 
Q 3341 4750 3825 4650 
Q 4309 4550 4800 4347 
L 4800 3200 
L 4403 3200 
z
" transform="scale(0.015625)"/>
      <path id="DejaVuSerif-Bold-42" d="M 300 0 
L 300 378 
L 897 378 
L 897 4288 
L 300 4288 
L 300 4666 
L 3066 4666 
Q 3919 4666 4347 4378 
Q 4775 4091 4775 3513 
Q 4775 3097 4479 2853 
Q 4184 2609 3603 2547 
Q 4306 2481 4681 2172 
Q 5056 1863 5056 1350 
Q 5056 656 4532 328 
Q 4009 0 2894 0 
L 300 0 
z
M 2100 2719 
L 2509 2719 
Q 3047 2719 3306 2914 
Q 3566 3109 3566 3513 
Q 3566 3919 3314 4103 
Q 3063 4288 2509 4288 
L 2100 4288 
L 2100 2719 
z
M 2100 378 
L 2547 378 
Q 3144 378 3431 615 
Q 3719 853 3719 1350 
Q 3719 1850 3428 2097 
Q 3138 2344 2547 2344 
L 2100 2344 
L 2100 378 
z
" transform="scale(0.015625)"/>
      <path id="DejaVuSerif-Bold-2d" d="M 347 2138 
L 2309 2138 
L 2309 1294 
L 347 1294 
L 347 2138 
z
" transform="scale(0.015625)"/>
      <path id="DejaVuSerif-Bold-41" d="M -50 0 
L -50 378 
L 331 378 
L 2088 4666 
L 2834 4666 
L 4594 378 
L 5038 378 
L 5038 0 
L 2853 0 
L 2853 378 
L 3309 378 
L 2925 1331 
L 1172 1331 
L 781 378 
L 1338 378 
L 1338 0 
L -50 0 
z
M 1325 1709 
L 2772 1709 
L 2053 3494 
L 1325 1709 
z
" transform="scale(0.015625)"/>
      <path id="DejaVuSerif-Bold-6e" d="M 219 0 
L 219 378 
L 691 378 
L 691 2944 
L 219 2944 
L 219 3322 
L 1797 3322 
L 1797 2853 
Q 1997 3150 2253 3281 
Q 2509 3413 2900 3413 
Q 3459 3413 3745 3083 
Q 4031 2753 4031 2113 
L 4031 378 
L 4506 378 
L 4506 0 
L 2522 0 
L 2522 378 
L 2925 378 
L 2925 2144 
Q 2925 2566 2817 2730 
Q 2709 2894 2444 2894 
Q 2109 2894 1953 2648 
Q 1797 2403 1797 1869 
L 1797 378 
L 2203 378 
L 2203 0 
L 219 0 
z
" transform="scale(0.015625)"/>
     </defs>
     <use xlink:href="#DejaVuSerif-Bold-58"/>
     <use xlink:href="#DejaVuSerif-Bold-47" x="77.587891"/>
     <use xlink:href="#DejaVuSerif-Bold-42" x="162.988281"/>
     <use xlink:href="#DejaVuSerif-Bold-6f" x="247.509766"/>
     <use xlink:href="#DejaVuSerif-Bold-6f" x="314.208984"/>
     <use xlink:href="#DejaVuSerif-Bold-73" x="380.908203"/>
     <use xlink:href="#DejaVuSerif-Bold-74" x="437.207031"/>
     <use xlink:href="#DejaVuSerif-Bold-2d" x="483.398438"/>
     <use xlink:href="#DejaVuSerif-Bold-41" x="524.902344"/>
     <use xlink:href="#DejaVuSerif-Bold-76" x="598.490234"/>
     <use xlink:href="#DejaVuSerif-Bold-61" x="656.595703"/>
     <use xlink:href="#DejaVuSerif-Bold-6c" x="721.390625"/>
     <use xlink:href="#DejaVuSerif-Bold-6f" x="759.378906"/>
     <use xlink:href="#DejaVuSerif-Bold-6e" x="826.078125"/>
     <use xlink:href="#DejaVuSerif-Bold-46" x="898.783203"/>
     <use xlink:href="#DejaVuSerif-Bold-50" x="969.779297"/>
     <use xlink:href="#DejaVuSerif-Bold-73" x="1044.974609"/>
    </g>
   </g>
   <g id="legend_1">
    <g id="patch_7">
     <path d="M 120.5875 315.4 
L 317 315.4 
Q 319 315.4 319 313.4 
L 319 285.04375 
Q 319 283.04375 317 283.04375 
L 120.5875 283.04375 
Q 118.5875 283.04375 118.5875 285.04375 
L 118.5875 313.4 
Q 118.5875 315.4 120.5875 315.4 
z
" style="fill: #ffffff; opacity: 0.8; stroke: #cccccc; stroke-linejoin: miter"/>
    </g>
    <g id="line2d_28">
     <path d="M 122.5875 291.142187 
L 132.5875 291.142187 
L 142.5875 291.142187 
" style="fill: none; stroke: #5d9c59; stroke-width: 1.5; stroke-linecap: square"/>
    </g>
    <g id="text_16">
     <!-- XGBoost-Train (AUC = 0.993) -->
     <g transform="translate(150.5875 294.642187) scale(0.1 -0.1)">
      <defs>
       <path id="DejaVuSerif-Bold-28" d="M 2694 -997 
Q 1641 -606 1122 122 
Q 603 850 603 1931 
Q 603 3013 1115 3731 
Q 1628 4450 2694 4863 
L 2694 4488 
Q 2200 4188 1983 3598 
Q 1766 3009 1766 1931 
Q 1766 856 1983 267 
Q 2200 -322 2694 -622 
L 2694 -997 
z
" transform="scale(0.015625)"/>
       <path id="DejaVuSerif-Bold-55" d="M 813 4288 
L 219 4288 
L 219 4666 
L 2619 4666 
L 2619 4288 
L 2022 4288 
L 2022 1953 
Q 2022 1081 2294 732 
Q 2566 384 3225 384 
Q 3869 384 4139 736 
Q 4409 1088 4409 1953 
L 4409 4288 
L 3816 4288 
L 3816 4666 
L 5441 4666 
L 5441 4288 
L 4844 4288 
L 4844 1888 
Q 4844 819 4381 364 
Q 3919 -91 2828 -91 
Q 1744 -91 1278 368 
Q 813 828 813 1894 
L 813 4288 
z
" transform="scale(0.015625)"/>
       <path id="DejaVuSerif-Bold-43" d="M 4769 1331 
Q 4584 609 4106 259 
Q 3628 -91 2822 -91 
Q 1641 -91 955 561 
Q 269 1213 269 2328 
Q 269 3447 955 4098 
Q 1641 4750 2822 4750 
Q 3238 4750 3688 4650 
Q 4138 4550 4641 4347 
L 4641 3200 
L 4244 3200 
Q 4122 3788 3800 4080 
Q 3478 4372 2950 4372 
Q 2269 4372 1937 3870 
Q 1606 3369 1606 2328 
Q 1606 1288 1937 788 
Q 2269 288 2956 288 
Q 3422 288 3717 547 
Q 4013 806 4147 1331 
L 4769 1331 
z
" transform="scale(0.015625)"/>
       <path id="DejaVuSerif-Bold-3d" d="M 678 1650 
L 4684 1650 
L 4684 941 
L 678 941 
L 678 1650 
z
M 678 3072 
L 4684 3072 
L 4684 2363 
L 678 2363 
L 678 3072 
z
" transform="scale(0.015625)"/>
       <path id="DejaVuSerif-Bold-39" d="M 2181 4384 
Q 1859 4384 1723 4111 
Q 1588 3838 1588 3163 
Q 1588 2488 1723 2214 
Q 1859 1941 2181 1941 
Q 2503 1941 2640 2214 
Q 2778 2488 2778 3163 
Q 2778 3838 2640 4111 
Q 2503 4384 2181 4384 
z
M 2878 1900 
Q 2672 1734 2420 1651 
Q 2169 1569 1875 1569 
Q 1163 1569 755 1986 
Q 347 2403 347 3138 
Q 347 3913 803 4331 
Q 1259 4750 2106 4750 
Q 3063 4750 3556 4172 
Q 4050 3594 4050 2478 
Q 4050 1206 3503 557 
Q 2956 -91 1881 -91 
Q 1600 -91 1278 -44 
Q 956 3 588 97 
L 588 922 
L 966 922 
Q 1044 603 1261 439 
Q 1478 275 1825 275 
Q 2375 275 2625 658 
Q 2875 1041 2878 1900 
z
" transform="scale(0.015625)"/>
       <path id="DejaVuSerif-Bold-33" d="M 550 4531 
Q 963 4641 1350 4695 
Q 1738 4750 2106 4750 
Q 2950 4750 3401 4448 
Q 3853 4147 3853 3584 
Q 3853 3163 3593 2900 
Q 3334 2638 2834 2547 
Q 3444 2450 3744 2131 
Q 4044 1813 4044 1259 
Q 4044 606 3526 257 
Q 3009 -91 2028 -91 
Q 1659 -91 1267 -28 
Q 875 34 447 159 
L 447 1184 
L 825 1184 
Q 859 741 1103 508 
Q 1347 275 1778 275 
Q 2253 275 2512 539 
Q 2772 803 2772 1288 
Q 2772 1794 2501 2069 
Q 2231 2344 1734 2344 
L 1528 2344 
L 1528 2719 
L 1691 2719 
Q 2150 2719 2381 2931 
Q 2613 3144 2613 3566 
Q 2613 3963 2395 4173 
Q 2178 4384 1772 4384 
Q 1403 4384 1187 4182 
Q 972 3981 928 3597 
L 550 3597 
L 550 4531 
z
" transform="scale(0.015625)"/>
       <path id="DejaVuSerif-Bold-29" d="M 325 -997 
L 325 -622 
Q 819 -322 1036 267 
Q 1253 856 1253 1931 
Q 1253 3009 1036 3598 
Q 819 4188 325 4488 
L 325 4863 
Q 1391 4450 1905 3731 
Q 2419 3013 2419 1931 
Q 2419 850 1898 122 
Q 1378 -606 325 -997 
z
" transform="scale(0.015625)"/>
      </defs>
      <use xlink:href="#DejaVuSerif-Bold-58"/>
      <use xlink:href="#DejaVuSerif-Bold-47" x="77.587891"/>
      <use xlink:href="#DejaVuSerif-Bold-42" x="162.988281"/>
      <use xlink:href="#DejaVuSerif-Bold-6f" x="247.509766"/>
      <use xlink:href="#DejaVuSerif-Bold-6f" x="314.208984"/>
      <use xlink:href="#DejaVuSerif-Bold-73" x="380.908203"/>
      <use xlink:href="#DejaVuSerif-Bold-74" x="437.207031"/>
      <use xlink:href="#DejaVuSerif-Bold-2d" x="483.398438"/>
      <use xlink:href="#DejaVuSerif-Bold-54" x="508.402344"/>
      <use xlink:href="#DejaVuSerif-Bold-72" x="575.566406"/>
      <use xlink:href="#DejaVuSerif-Bold-61" x="628.251953"/>
      <use xlink:href="#DejaVuSerif-Bold-69" x="693.046875"/>
      <use xlink:href="#DejaVuSerif-Bold-6e" x="731.035156"/>
      <use xlink:href="#DejaVuSerif-Bold-20" x="803.740234"/>
      <use xlink:href="#DejaVuSerif-Bold-28" x="838.554688"/>
      <use xlink:href="#DejaVuSerif-Bold-41" x="885.869141"/>
      <use xlink:href="#DejaVuSerif-Bold-55" x="963.457031"/>
      <use xlink:href="#DejaVuSerif-Bold-43" x="1050.664062"/>
      <use xlink:href="#DejaVuSerif-Bold-20" x="1130.253906"/>
      <use xlink:href="#DejaVuSerif-Bold-3d" x="1165.068359"/>
      <use xlink:href="#DejaVuSerif-Bold-20" x="1248.857422"/>
      <use xlink:href="#DejaVuSerif-Bold-30" x="1283.671875"/>
      <use xlink:href="#DejaVuSerif-Bold-2e" x="1353.251953"/>
      <use xlink:href="#DejaVuSerif-Bold-39" x="1388.066406"/>
      <use xlink:href="#DejaVuSerif-Bold-39" x="1457.646484"/>
      <use xlink:href="#DejaVuSerif-Bold-33" x="1527.226562"/>
      <use xlink:href="#DejaVuSerif-Bold-29" x="1596.806641"/>
     </g>
    </g>
    <g id="line2d_29">
     <path d="M 122.5875 305.820312 
L 132.5875 305.820312 
L 142.5875 305.820312 
" style="fill: none; stroke: #5463ff; stroke-width: 1.5; stroke-linecap: square"/>
    </g>
    <g id="text_17">
     <!-- XGBoost-Test (AUC = 0.947) -->
     <g transform="translate(150.5875 309.320312) scale(0.1 -0.1)">
      <defs>
       <path id="DejaVuSerif-Bold-37" d="M 3922 3872 
L 1997 0 
L 1363 0 
L 3238 3781 
L 934 3781 
L 934 3150 
L 506 3150 
L 506 4666 
L 3922 4666 
L 3922 3872 
z
" transform="scale(0.015625)"/>
      </defs>
      <use xlink:href="#DejaVuSerif-Bold-58"/>
      <use xlink:href="#DejaVuSerif-Bold-47" x="77.587891"/>
      <use xlink:href="#DejaVuSerif-Bold-42" x="162.988281"/>
      <use xlink:href="#DejaVuSerif-Bold-6f" x="247.509766"/>
      <use xlink:href="#DejaVuSerif-Bold-6f" x="314.208984"/>
      <use xlink:href="#DejaVuSerif-Bold-73" x="380.908203"/>
      <use xlink:href="#DejaVuSerif-Bold-74" x="437.207031"/>
      <use xlink:href="#DejaVuSerif-Bold-2d" x="483.398438"/>
      <use xlink:href="#DejaVuSerif-Bold-54" x="508.402344"/>
      <use xlink:href="#DejaVuSerif-Bold-65" x="571.316406"/>
      <use xlink:href="#DejaVuSerif-Bold-73" x="634.939453"/>
      <use xlink:href="#DejaVuSerif-Bold-74" x="691.238281"/>
      <use xlink:href="#DejaVuSerif-Bold-20" x="737.429688"/>
      <use xlink:href="#DejaVuSerif-Bold-28" x="772.244141"/>
      <use xlink:href="#DejaVuSerif-Bold-41" x="819.558594"/>
      <use xlink:href="#DejaVuSerif-Bold-55" x="897.146484"/>
      <use xlink:href="#DejaVuSerif-Bold-43" x="984.353516"/>
      <use xlink:href="#DejaVuSerif-Bold-20" x="1063.943359"/>
      <use xlink:href="#DejaVuSerif-Bold-3d" x="1098.757812"/>
      <use xlink:href="#DejaVuSerif-Bold-20" x="1182.546875"/>
      <use xlink:href="#DejaVuSerif-Bold-30" x="1217.361328"/>
      <use xlink:href="#DejaVuSerif-Bold-2e" x="1286.941406"/>
      <use xlink:href="#DejaVuSerif-Bold-39" x="1321.755859"/>
      <use xlink:href="#DejaVuSerif-Bold-34" x="1391.335938"/>
      <use xlink:href="#DejaVuSerif-Bold-37" x="1460.916016"/>
      <use xlink:href="#DejaVuSerif-Bold-29" x="1530.496094"/>
     </g>
    </g>
   </g>
  </g>
 </g>
 <defs>
  <clipPath id="p2242f3edb6">
   <rect x="45" y="43.2" width="279" height="277.2"/>
  </clipPath>
 </defs>
</svg>
