<?xml version="1.0" encoding="utf-8" standalone="no"?>
<!DOCTYPE svg PUBLIC "-//W3C//DTD SVG 1.1//EN"
  "http://www.w3.org/Graphics/SVG/1.1/DTD/svg11.dtd">
<svg xmlns:xlink="http://www.w3.org/1999/xlink" width="964.346406pt" height="258.141484pt" viewBox="0 0 964.346406 258.141484" xmlns="http://www.w3.org/2000/svg" version="1.1">
 <metadata>
  <rdf:RDF xmlns:dc="http://purl.org/dc/elements/1.1/" xmlns:cc="http://creativecommons.org/ns#" xmlns:rdf="http://www.w3.org/1999/02/22-rdf-syntax-ns#">
   <cc:Work>
    <dc:type rdf:resource="http://purl.org/dc/dcmitype/StillImage"/>
    <dc:date>2024-06-05T22:32:44.707474</dc:date>
    <dc:format>image/svg+xml</dc:format>
    <dc:creator>
     <cc:Agent>
      <dc:title>Matplotlib v3.6.0, https://matplotlib.org/</dc:title>
     </cc:Agent>
    </dc:creator>
   </cc:Work>
  </rdf:RDF>
 </metadata>
 <defs>
  <style type="text/css">*{stroke-linejoin: round; stroke-linecap: butt}</style>
 </defs>
 <g id="figure_1">
  <g id="patch_1">
   <path d="M 0 258.141484 
L 964.346406 258.141484 
L 964.346406 0 
L 0 0 
z
" style="fill: #ffffff"/>
  </g>
  <g id="axes_1">
   <g id="patch_2">
    <path d="M 64.346406 233.139141 
L 957.146406 233.139141 
L 957.146406 11.379141 
L 64.346406 11.379141 
z
" style="fill: #ffffff"/>
   </g>
   <g id="patch_3">
    <path d="M 104.928224 565.779141 
L 120.197794 565.779141 
L 120.197794 98.974341 
L 104.928224 98.974341 
z
" clip-path="url(#p54ba612586)" style="fill: #b7d4ea"/>
   </g>
   <g id="patch_4">
    <path d="M 222.386454 565.779141 
L 237.656023 565.779141 
L 237.656023 48.523941 
L 222.386454 48.523941 
z
" clip-path="url(#p54ba612586)" style="fill: #b7d4ea"/>
   </g>
   <g id="patch_5">
    <path d="M 339.844683 565.779141 
L 355.114253 565.779141 
L 355.114253 100.083141 
L 339.844683 100.083141 
z
" clip-path="url(#p54ba612586)" style="fill: #b7d4ea"/>
   </g>
   <g id="patch_6">
    <path d="M 457.302912 565.779141 
L 472.572482 565.779141 
L 472.572482 187.678341 
L 457.302912 187.678341 
z
" clip-path="url(#p54ba612586)" style="fill: #b7d4ea"/>
   </g>
   <g id="patch_7">
    <path d="M 574.761141 565.779141 
L 590.030711 565.779141 
L 590.030711 97.865541 
L 574.761141 97.865541 
z
" clip-path="url(#p54ba612586)" style="fill: #b7d4ea"/>
   </g>
   <g id="patch_8">
    <path d="M 692.21937 565.779141 
L 707.48894 565.779141 
L 707.48894 101.191941 
L 692.21937 101.191941 
z
" clip-path="url(#p54ba612586)" style="fill: #b7d4ea"/>
   </g>
   <g id="patch_9">
    <path d="M 809.6776 565.779141 
L 824.947169 565.779141 
L 824.947169 74.026341 
L 809.6776 74.026341 
z
" clip-path="url(#p54ba612586)" style="fill: #b7d4ea"/>
   </g>
   <g id="patch_10">
    <path d="M 120.197794 565.779141 
L 135.467364 565.779141 
L 135.467364 88.995141 
L 120.197794 88.995141 
z
" clip-path="url(#p54ba612586)" style="fill: #a6cee4"/>
   </g>
   <g id="patch_11">
    <path d="M 237.656023 565.779141 
L 252.925593 565.779141 
L 252.925593 47.969541 
L 237.656023 47.969541 
z
" clip-path="url(#p54ba612586)" style="fill: #a6cee4"/>
   </g>
   <g id="patch_12">
    <path d="M 355.114253 565.779141 
L 370.383822 565.779141 
L 370.383822 90.103941 
L 355.114253 90.103941 
z
" clip-path="url(#p54ba612586)" style="fill: #a6cee4"/>
   </g>
   <g id="patch_13">
    <path d="M 472.572482 565.779141 
L 487.842052 565.779141 
L 487.842052 168.274341 
L 472.572482 168.274341 
z
" clip-path="url(#p54ba612586)" style="fill: #a6cee4"/>
   </g>
   <g id="patch_14">
    <path d="M 590.030711 565.779141 
L 605.300281 565.779141 
L 605.300281 87.886341 
L 590.030711 87.886341 
z
" clip-path="url(#p54ba612586)" style="fill: #a6cee4"/>
   </g>
   <g id="patch_15">
    <path d="M 707.48894 565.779141 
L 722.75851 565.779141 
L 722.75851 91.767141 
L 707.48894 91.767141 
z
" clip-path="url(#p54ba612586)" style="fill: #a6cee4"/>
   </g>
   <g id="patch_16">
    <path d="M 824.947169 565.779141 
L 840.216739 565.779141 
L 840.216739 65.155941 
L 824.947169 65.155941 
z
" clip-path="url(#p54ba612586)" style="fill: #a6cee4"/>
   </g>
   <g id="patch_17">
    <path d="M 135.467364 565.779141 
L 150.736934 565.779141 
L 150.736934 88.995141 
L 135.467364 88.995141 
z
" clip-path="url(#p54ba612586)" style="fill: #94c4df"/>
   </g>
   <g id="patch_18">
    <path d="M 252.925593 565.779141 
L 268.195163 565.779141 
L 268.195163 47.969541 
L 252.925593 47.969541 
z
" clip-path="url(#p54ba612586)" style="fill: #94c4df"/>
   </g>
   <g id="patch_19">
    <path d="M 370.383822 565.779141 
L 385.653392 565.779141 
L 385.653392 90.103941 
L 370.383822 90.103941 
z
" clip-path="url(#p54ba612586)" style="fill: #94c4df"/>
   </g>
   <g id="patch_20">
    <path d="M 487.842052 565.779141 
L 503.111621 565.779141 
L 503.111621 168.274341 
L 487.842052 168.274341 
z
" clip-path="url(#p54ba612586)" style="fill: #94c4df"/>
   </g>
   <g id="patch_21">
    <path d="M 605.300281 565.779141 
L 620.569851 565.779141 
L 620.569851 87.886341 
L 605.300281 87.886341 
z
" clip-path="url(#p54ba612586)" style="fill: #94c4df"/>
   </g>
   <g id="patch_22">
    <path d="M 722.75851 565.779141 
L 738.02808 565.779141 
L 738.02808 91.767141 
L 722.75851 91.767141 
z
" clip-path="url(#p54ba612586)" style="fill: #94c4df"/>
   </g>
   <g id="patch_23">
    <path d="M 840.216739 565.779141 
L 855.486309 565.779141 
L 855.486309 65.155941 
L 840.216739 65.155941 
z
" clip-path="url(#p54ba612586)" style="fill: #94c4df"/>
   </g>
   <g id="patch_24">
    <path d="M 150.736934 565.779141 
L 166.006504 565.779141 
L 166.006504 84.326509 
L 150.736934 84.326509 
z
" clip-path="url(#p54ba612586)" style="fill: #7fb9da"/>
   </g>
   <g id="patch_25">
    <path d="M 268.195163 565.779141 
L 283.464733 565.779141 
L 283.464733 44.997379 
L 268.195163 44.997379 
z
" clip-path="url(#p54ba612586)" style="fill: #7fb9da"/>
   </g>
   <g id="patch_26">
    <path d="M 385.653392 565.779141 
L 400.922962 565.779141 
L 400.922962 93.715774 
L 385.653392 93.715774 
z
" clip-path="url(#p54ba612586)" style="fill: #7fb9da"/>
   </g>
   <g id="patch_27">
    <path d="M 503.111621 565.779141 
L 518.381191 565.779141 
L 518.381191 158.513807 
L 503.111621 158.513807 
z
" clip-path="url(#p54ba612586)" style="fill: #7fb9da"/>
   </g>
   <g id="patch_28">
    <path d="M 620.569851 565.779141 
L 635.83942 565.779141 
L 635.83942 79.264855 
L 620.569851 79.264855 
z
" clip-path="url(#p54ba612586)" style="fill: #7fb9da"/>
   </g>
   <g id="patch_29">
    <path d="M 738.02808 565.779141 
L 753.29765 565.779141 
L 753.29765 107.332987 
L 738.02808 107.332987 
z
" clip-path="url(#p54ba612586)" style="fill: #7fb9da"/>
   </g>
   <g id="patch_30">
    <path d="M 855.486309 565.779141 
L 870.755879 565.779141 
L 870.755879 65.030754 
L 855.486309 65.030754 
z
" clip-path="url(#p54ba612586)" style="fill: #7fb9da"/>
   </g>
   <g id="patch_31">
    <path d="M 166.006504 565.779141 
L 181.276073 565.779141 
L 181.276073 94.052825 
L 166.006504 94.052825 
z
" clip-path="url(#p54ba612586)" style="fill: #6aaed6"/>
   </g>
   <g id="patch_32">
    <path d="M 283.464733 565.779141 
L 298.734303 565.779141 
L 298.734303 46.888942 
L 283.464733 46.888942 
z
" clip-path="url(#p54ba612586)" style="fill: #6aaed6"/>
   </g>
   <g id="patch_33">
    <path d="M 400.922962 565.779141 
L 416.192532 565.779141 
L 416.192532 106.579141 
L 400.922962 106.579141 
z
" clip-path="url(#p54ba612586)" style="fill: #6aaed6"/>
   </g>
   <g id="patch_34">
    <path d="M 518.381191 565.779141 
L 533.650761 565.779141 
L 533.650761 177.767962 
L 518.381191 177.767962 
z
" clip-path="url(#p54ba612586)" style="fill: #6aaed6"/>
   </g>
   <g id="patch_35">
    <path d="M 635.83942 565.779141 
L 651.10899 565.779141 
L 651.10899 82.153608 
L 635.83942 82.153608 
z
" clip-path="url(#p54ba612586)" style="fill: #6aaed6"/>
   </g>
   <g id="patch_36">
    <path d="M 753.29765 565.779141 
L 768.567219 565.779141 
L 768.567219 128.656064 
L 753.29765 128.656064 
z
" clip-path="url(#p54ba612586)" style="fill: #6aaed6"/>
   </g>
   <g id="patch_37">
    <path d="M 870.755879 565.779141 
L 886.025448 565.779141 
L 886.025448 65.030754 
L 870.755879 65.030754 
z
" clip-path="url(#p54ba612586)" style="fill: #6aaed6"/>
   </g>
   <g id="patch_38">
    <path d="M 181.276073 565.779141 
L 196.545643 565.779141 
L 196.545643 89.189667 
L 181.276073 89.189667 
z
" clip-path="url(#p54ba612586)" style="fill: #5ba3d0"/>
   </g>
   <g id="patch_39">
    <path d="M 298.734303 565.779141 
L 314.003872 565.779141 
L 314.003872 44.395518 
L 298.734303 44.395518 
z
" clip-path="url(#p54ba612586)" style="fill: #5ba3d0"/>
   </g>
   <g id="patch_40">
    <path d="M 416.192532 565.779141 
L 431.462102 565.779141 
L 431.462102 101.893426 
L 416.192532 101.893426 
z
" clip-path="url(#p54ba612586)" style="fill: #5ba3d0"/>
   </g>
   <g id="patch_41">
    <path d="M 533.650761 565.779141 
L 548.920331 565.779141 
L 548.920331 167.389559 
L 533.650761 167.389559 
z
" clip-path="url(#p54ba612586)" style="fill: #5ba3d0"/>
   </g>
   <g id="patch_42">
    <path d="M 651.10899 565.779141 
L 666.37856 565.779141 
L 666.37856 71.64001 
L 651.10899 71.64001 
z
" clip-path="url(#p54ba612586)" style="fill: #5ba3d0"/>
   </g>
   <g id="patch_43">
    <path d="M 768.567219 565.779141 
L 783.836789 565.779141 
L 783.836789 128.656064 
L 768.567219 128.656064 
z
" clip-path="url(#p54ba612586)" style="fill: #5ba3d0"/>
   </g>
   <g id="patch_44">
    <path d="M 886.025448 565.779141 
L 901.295018 565.779141 
L 901.295018 56.088818 
L 886.025448 56.088818 
z
" clip-path="url(#p54ba612586)" style="fill: #5ba3d0"/>
   </g>
   <g id="patch_45">
    <path d="M 196.545643 565.779141 
L 211.815213 565.779141 
L 211.815213 84.326509 
L 196.545643 84.326509 
z
" clip-path="url(#p54ba612586)" style="fill: #4a98c9"/>
   </g>
   <g id="patch_46">
    <path d="M 314.003872 565.779141 
L 329.273442 565.779141 
L 329.273442 44.739438 
L 314.003872 44.739438 
z
" clip-path="url(#p54ba612586)" style="fill: #4a98c9"/>
   </g>
   <g id="patch_47">
    <path d="M 431.462102 565.779141 
L 446.731671 565.779141 
L 446.731671 97.111099 
L 431.462102 97.111099 
z
" clip-path="url(#p54ba612586)" style="fill: #4a98c9"/>
   </g>
   <g id="patch_48">
    <path d="M 548.920331 565.779141 
L 564.189901 565.779141 
L 564.189901 156.805089 
L 548.920331 156.805089 
z
" clip-path="url(#p54ba612586)" style="fill: #4a98c9"/>
   </g>
   <g id="patch_49">
    <path d="M 666.37856 565.779141 
L 681.64813 565.779141 
L 681.64813 60.659141 
L 666.37856 60.659141 
z
" clip-path="url(#p54ba612586)" style="fill: #4a98c9"/>
   </g>
   <g id="patch_50">
    <path d="M 783.836789 565.779141 
L 799.106359 565.779141 
L 799.106359 128.656064 
L 783.836789 128.656064 
z
" clip-path="url(#p54ba612586)" style="fill: #4a98c9"/>
   </g>
   <g id="patch_51">
    <path d="M 901.295018 565.779141 
L 916.564588 565.779141 
L 916.564588 47.146883 
L 901.295018 47.146883 
z
" clip-path="url(#p54ba612586)" style="fill: #4a98c9"/>
   </g>
   <g id="matplotlib.axis_1">
    <g id="xtick_1">
     <g id="line2d_1">
      <defs>
       <path id="m5077249b0a" d="M 0 0 
L 0 3.5 
" style="stroke: #000000; stroke-width: 0.8"/>
      </defs>
      <g>
       <use xlink:href="#m5077249b0a" x="127.832579" y="233.139141" style="stroke: #000000; stroke-width: 0.8"/>
      </g>
     </g>
     <g id="text_1">
      <!-- Accuracy -->
      <g transform="translate(99.861642 248.341016) scale(0.11 -0.11)">
       <defs>
        <path id="DejaVuSerif-Bold-41" d="M -50 0 
L -50 378 
L 331 378 
L 2088 4666 
L 2834 4666 
L 4594 378 
L 5038 378 
L 5038 0 
L 2853 0 
L 2853 378 
L 3309 378 
L 2925 1331 
L 1172 1331 
L 781 378 
L 1338 378 
L 1338 0 
L -50 0 
z
M 1325 1709 
L 2772 1709 
L 2053 3494 
L 1325 1709 
z
" transform="scale(0.015625)"/>
        <path id="DejaVuSerif-Bold-63" d="M 3609 1038 
Q 3491 469 3123 189 
Q 2756 -91 2125 -91 
Q 1238 -91 750 368 
Q 263 828 263 1663 
Q 263 2488 744 2950 
Q 1225 3413 2081 3413 
Q 2428 3413 2781 3347 
Q 3134 3281 3500 3150 
L 3500 2228 
L 3150 2228 
Q 3100 2650 2903 2854 
Q 2706 3059 2350 3059 
Q 1888 3059 1692 2746 
Q 1497 2434 1497 1663 
Q 1497 909 1687 586 
Q 1878 263 2309 263 
Q 2644 263 2845 463 
Q 3047 663 3091 1038 
L 3609 1038 
z
" transform="scale(0.015625)"/>
        <path id="DejaVuSerif-Bold-75" d="M 3963 3322 
L 3963 378 
L 4434 378 
L 4434 0 
L 2853 0 
L 2853 469 
Q 2656 172 2400 40 
Q 2144 -91 1753 -91 
Q 1194 -91 908 239 
Q 622 569 622 1209 
L 622 2944 
L 147 2944 
L 147 3322 
L 1728 3322 
L 1728 1381 
Q 1728 763 1831 595 
Q 1934 428 2209 428 
Q 2544 428 2698 675 
Q 2853 922 2853 1459 
L 2853 2944 
L 2450 2944 
L 2450 3322 
L 3963 3322 
z
" transform="scale(0.015625)"/>
        <path id="DejaVuSerif-Bold-72" d="M 3438 3359 
L 3438 2369 
L 3084 2369 
Q 3066 2634 2941 2764 
Q 2816 2894 2578 2894 
Q 2216 2894 2006 2575 
Q 1797 2256 1797 1691 
L 1797 378 
L 2400 378 
L 2400 0 
L 219 0 
L 219 378 
L 691 378 
L 691 2944 
L 184 2944 
L 184 3322 
L 1797 3322 
L 1797 2731 
Q 1959 3078 2226 3245 
Q 2494 3413 2881 3413 
Q 2978 3413 3117 3398 
Q 3256 3384 3438 3359 
z
" transform="scale(0.015625)"/>
        <path id="DejaVuSerif-Bold-61" d="M 3525 2041 
L 3525 378 
L 4000 378 
L 4000 0 
L 2419 0 
L 2419 422 
Q 2200 159 1931 34 
Q 1663 -91 1319 -91 
Q 809 -91 536 182 
Q 263 456 263 966 
Q 263 1525 655 1803 
Q 1047 2081 1838 2081 
L 2419 2081 
L 2419 2278 
Q 2419 2681 2228 2873 
Q 2038 3066 1638 3066 
Q 1306 3066 1126 2930 
Q 947 2794 872 2484 
L 519 2484 
L 519 3200 
Q 816 3306 1134 3359 
Q 1453 3413 1806 3413 
Q 2697 3413 3111 3081 
Q 3525 2750 3525 2041 
z
M 2419 1044 
L 2419 1709 
L 2003 1709 
Q 1694 1709 1528 1540 
Q 1363 1372 1363 1056 
Q 1363 741 1483 584 
Q 1603 428 1850 428 
Q 2106 428 2262 597 
Q 2419 766 2419 1044 
z
" transform="scale(0.015625)"/>
        <path id="DejaVuSerif-Bold-79" d="M 1997 -750 
Q 1847 -1116 1634 -1269 
Q 1422 -1422 1063 -1422 
Q 909 -1422 721 -1387 
Q 534 -1353 313 -1288 
L 313 -594 
L 666 -597 
Q 675 -838 779 -953 
Q 884 -1069 1094 -1069 
Q 1297 -1069 1422 -958 
Q 1547 -847 1672 -538 
L 1722 -422 
L 275 2944 
L -84 2944 
L -84 3322 
L 1831 3322 
L 1831 2944 
L 1434 2944 
L 2278 978 
L 3066 2944 
L 2625 2944 
L 2625 3322 
L 3872 3322 
L 3872 2944 
L 3469 2944 
L 1997 -750 
z
" transform="scale(0.015625)"/>
       </defs>
       <use xlink:href="#DejaVuSerif-Bold-41"/>
       <use xlink:href="#DejaVuSerif-Bold-63" x="77.587891"/>
       <use xlink:href="#DejaVuSerif-Bold-63" x="138.476562"/>
       <use xlink:href="#DejaVuSerif-Bold-75" x="199.365234"/>
       <use xlink:href="#DejaVuSerif-Bold-72" x="272.070312"/>
       <use xlink:href="#DejaVuSerif-Bold-61" x="324.755859"/>
       <use xlink:href="#DejaVuSerif-Bold-63" x="389.550781"/>
       <use xlink:href="#DejaVuSerif-Bold-79" x="450.439453"/>
      </g>
     </g>
    </g>
    <g id="xtick_2">
     <g id="line2d_2">
      <g>
       <use xlink:href="#m5077249b0a" x="245.290808" y="233.139141" style="stroke: #000000; stroke-width: 0.8"/>
      </g>
     </g>
     <g id="text_2">
      <!-- AUC -->
      <g transform="translate(231.849324 248.497422) scale(0.11 -0.11)">
       <defs>
        <path id="DejaVuSerif-Bold-55" d="M 813 4288 
L 219 4288 
L 219 4666 
L 2619 4666 
L 2619 4288 
L 2022 4288 
L 2022 1953 
Q 2022 1081 2294 732 
Q 2566 384 3225 384 
Q 3869 384 4139 736 
Q 4409 1088 4409 1953 
L 4409 4288 
L 3816 4288 
L 3816 4666 
L 5441 4666 
L 5441 4288 
L 4844 4288 
L 4844 1888 
Q 4844 819 4381 364 
Q 3919 -91 2828 -91 
Q 1744 -91 1278 368 
Q 813 828 813 1894 
L 813 4288 
z
" transform="scale(0.015625)"/>
        <path id="DejaVuSerif-Bold-43" d="M 4769 1331 
Q 4584 609 4106 259 
Q 3628 -91 2822 -91 
Q 1641 -91 955 561 
Q 269 1213 269 2328 
Q 269 3447 955 4098 
Q 1641 4750 2822 4750 
Q 3238 4750 3688 4650 
Q 4138 4550 4641 4347 
L 4641 3200 
L 4244 3200 
Q 4122 3788 3800 4080 
Q 3478 4372 2950 4372 
Q 2269 4372 1937 3870 
Q 1606 3369 1606 2328 
Q 1606 1288 1937 788 
Q 2269 288 2956 288 
Q 3422 288 3717 547 
Q 4013 806 4147 1331 
L 4769 1331 
z
" transform="scale(0.015625)"/>
       </defs>
       <use xlink:href="#DejaVuSerif-Bold-41"/>
       <use xlink:href="#DejaVuSerif-Bold-55" x="77.587891"/>
       <use xlink:href="#DejaVuSerif-Bold-43" x="164.794922"/>
      </g>
     </g>
    </g>
    <g id="xtick_3">
     <g id="line2d_3">
      <g>
       <use xlink:href="#m5077249b0a" x="362.749037" y="233.139141" style="stroke: #000000; stroke-width: 0.8"/>
      </g>
     </g>
     <g id="text_3">
      <!-- F1 Score -->
      <g transform="translate(335.715678 248.497422) scale(0.11 -0.11)">
       <defs>
        <path id="DejaVuSerif-Bold-46" d="M 300 0 
L 300 378 
L 897 378 
L 897 4288 
L 300 4288 
L 300 4666 
L 4459 4666 
L 4459 3566 
L 4031 3566 
L 4031 4238 
L 2106 4238 
L 2106 2741 
L 3291 2741 
L 3291 3334 
L 3719 3334 
L 3719 1722 
L 3291 1722 
L 3291 2316 
L 2106 2316 
L 2106 378 
L 2841 378 
L 2841 0 
L 300 0 
z
" transform="scale(0.015625)"/>
        <path id="DejaVuSerif-Bold-31" d="M 878 0 
L 878 378 
L 1753 378 
L 1753 4153 
L 781 3578 
L 781 4044 
L 1953 4750 
L 2938 4750 
L 2938 378 
L 3816 378 
L 3816 0 
L 878 0 
z
" transform="scale(0.015625)"/>
        <path id="DejaVuSerif-Bold-20" transform="scale(0.015625)"/>
        <path id="DejaVuSerif-Bold-53" d="M 494 225 
L 494 1331 
L 891 1331 
Q 981 806 1318 547 
Q 1656 288 2253 288 
Q 2738 288 2991 472 
Q 3244 656 3244 1013 
Q 3244 1294 3072 1450 
Q 2900 1606 2363 1741 
L 1663 1913 
Q 978 2088 700 2398 
Q 422 2709 422 3284 
Q 422 3978 883 4364 
Q 1344 4750 2175 4750 
Q 2584 4750 3026 4681 
Q 3469 4613 3944 4475 
L 3944 3444 
L 3547 3444 
Q 3456 3925 3150 4148 
Q 2844 4372 2278 4372 
Q 1816 4372 1580 4211 
Q 1344 4050 1344 3731 
Q 1344 3441 1506 3289 
Q 1669 3138 2303 2975 
L 3003 2803 
Q 3653 2641 3945 2297 
Q 4238 1953 4238 1350 
Q 4238 644 3750 276 
Q 3263 -91 2316 -91 
Q 1859 -91 1409 -12 
Q 959 66 494 225 
z
" transform="scale(0.015625)"/>
        <path id="DejaVuSerif-Bold-6f" d="M 2138 263 
Q 2488 263 2630 563 
Q 2772 863 2772 1663 
Q 2772 2463 2631 2761 
Q 2491 3059 2138 3059 
Q 1784 3059 1640 2757 
Q 1497 2456 1497 1663 
Q 1497 869 1640 566 
Q 1784 263 2138 263 
z
M 2138 -91 
Q 1259 -91 761 376 
Q 263 844 263 1663 
Q 263 2484 761 2948 
Q 1259 3413 2138 3413 
Q 3019 3413 3516 2948 
Q 4013 2484 4013 1663 
Q 4013 844 3514 376 
Q 3016 -91 2138 -91 
z
" transform="scale(0.015625)"/>
        <path id="DejaVuSerif-Bold-65" d="M 2566 1875 
Q 2566 2531 2444 2795 
Q 2322 3059 2028 3059 
Q 1744 3059 1620 2800 
Q 1497 2541 1497 1931 
L 1497 1875 
L 2566 1875 
z
M 3781 1503 
L 1497 1503 
L 1497 1478 
Q 1497 834 1690 548 
Q 1884 263 2316 263 
Q 2675 263 2897 453 
Q 3119 644 3181 1006 
L 3700 1006 
Q 3566 441 3166 175 
Q 2766 -91 2047 -91 
Q 1184 -91 723 364 
Q 263 819 263 1663 
Q 263 2488 734 2950 
Q 1206 3413 2047 3413 
Q 2872 3413 3312 2927 
Q 3753 2441 3781 1503 
z
" transform="scale(0.015625)"/>
       </defs>
       <use xlink:href="#DejaVuSerif-Bold-46"/>
       <use xlink:href="#DejaVuSerif-Bold-31" x="70.996094"/>
       <use xlink:href="#DejaVuSerif-Bold-20" x="140.576172"/>
       <use xlink:href="#DejaVuSerif-Bold-53" x="175.390625"/>
       <use xlink:href="#DejaVuSerif-Bold-63" x="247.607422"/>
       <use xlink:href="#DejaVuSerif-Bold-6f" x="308.496094"/>
       <use xlink:href="#DejaVuSerif-Bold-72" x="375.195312"/>
       <use xlink:href="#DejaVuSerif-Bold-65" x="427.880859"/>
      </g>
     </g>
    </g>
    <g id="xtick_4">
     <g id="line2d_4">
      <g>
       <use xlink:href="#m5077249b0a" x="480.207267" y="233.139141" style="stroke: #000000; stroke-width: 0.8"/>
      </g>
     </g>
     <g id="text_4">
      <!-- MCC -->
      <g transform="translate(465.364142 248.497422) scale(0.11 -0.11)">
       <defs>
        <path id="DejaVuSerif-Bold-4d" d="M 269 0 
L 269 378 
L 863 378 
L 863 4288 
L 269 4288 
L 269 4666 
L 2194 4666 
L 3525 1672 
L 4863 4666 
L 6784 4666 
L 6784 4288 
L 6188 4288 
L 6188 378 
L 6784 378 
L 6784 0 
L 4384 0 
L 4384 378 
L 4978 378 
L 4978 3938 
L 3531 684 
L 2741 684 
L 1300 3938 
L 1300 378 
L 1894 378 
L 1894 0 
L 269 0 
z
" transform="scale(0.015625)"/>
       </defs>
       <use xlink:href="#DejaVuSerif-Bold-4d"/>
       <use xlink:href="#DejaVuSerif-Bold-43" x="110.693359"/>
       <use xlink:href="#DejaVuSerif-Bold-43" x="190.283203"/>
      </g>
     </g>
    </g>
    <g id="xtick_5">
     <g id="line2d_5">
      <g>
       <use xlink:href="#m5077249b0a" x="597.665496" y="233.139141" style="stroke: #000000; stroke-width: 0.8"/>
      </g>
     </g>
     <g id="text_5">
      <!-- Precision -->
      <g transform="translate(568.841199 248.497422) scale(0.11 -0.11)">
       <defs>
        <path id="DejaVuSerif-Bold-50" d="M 300 0 
L 300 378 
L 897 378 
L 897 4288 
L 300 4288 
L 300 4666 
L 2956 4666 
Q 3734 4666 4193 4295 
Q 4653 3925 4653 3303 
Q 4653 2678 4192 2304 
Q 3731 1931 2956 1931 
L 2100 1931 
L 2100 378 
L 2853 378 
L 2853 0 
L 300 0 
z
M 2100 2309 
L 2450 2309 
Q 2856 2309 3098 2579 
Q 3341 2850 3341 3303 
Q 3341 3753 3100 4020 
Q 2859 4288 2450 4288 
L 2100 4288 
L 2100 2309 
z
" transform="scale(0.015625)"/>
        <path id="DejaVuSerif-Bold-69" d="M 588 4263 
Q 588 4516 763 4689 
Q 938 4863 1191 4863 
Q 1438 4863 1611 4689 
Q 1784 4516 1784 4263 
Q 1784 4016 1611 3842 
Q 1438 3669 1191 3669 
Q 938 3669 763 3841 
Q 588 4013 588 4263 
z
M 1797 378 
L 2272 378 
L 2272 0 
L 219 0 
L 219 378 
L 691 378 
L 691 2944 
L 219 2944 
L 219 3322 
L 1797 3322 
L 1797 378 
z
" transform="scale(0.015625)"/>
        <path id="DejaVuSerif-Bold-73" d="M 300 97 
L 300 1025 
L 653 1025 
Q 697 653 931 458 
Q 1166 263 1569 263 
Q 1906 263 2086 380 
Q 2266 497 2266 716 
Q 2266 916 2152 1025 
Q 2038 1134 1709 1216 
L 1253 1331 
Q 738 1459 506 1698 
Q 275 1938 275 2344 
Q 275 2884 650 3148 
Q 1025 3413 1806 3413 
Q 2100 3413 2433 3364 
Q 2766 3316 3169 3213 
L 3169 2375 
L 2816 2375 
Q 2788 2716 2573 2887 
Q 2359 3059 1959 3059 
Q 1622 3059 1448 2951 
Q 1275 2844 1275 2638 
Q 1275 2469 1375 2372 
Q 1475 2275 1734 2209 
L 2188 2094 
Q 2841 1928 3091 1684 
Q 3341 1441 3341 1006 
Q 3341 444 2939 176 
Q 2538 -91 1691 -91 
Q 1381 -91 1034 -44 
Q 688 3 300 97 
z
" transform="scale(0.015625)"/>
        <path id="DejaVuSerif-Bold-6e" d="M 219 0 
L 219 378 
L 691 378 
L 691 2944 
L 219 2944 
L 219 3322 
L 1797 3322 
L 1797 2853 
Q 1997 3150 2253 3281 
Q 2509 3413 2900 3413 
Q 3459 3413 3745 3083 
Q 4031 2753 4031 2113 
L 4031 378 
L 4506 378 
L 4506 0 
L 2522 0 
L 2522 378 
L 2925 378 
L 2925 2144 
Q 2925 2566 2817 2730 
Q 2709 2894 2444 2894 
Q 2109 2894 1953 2648 
Q 1797 2403 1797 1869 
L 1797 378 
L 2203 378 
L 2203 0 
L 219 0 
z
" transform="scale(0.015625)"/>
       </defs>
       <use xlink:href="#DejaVuSerif-Bold-50"/>
       <use xlink:href="#DejaVuSerif-Bold-72" x="75.195312"/>
       <use xlink:href="#DejaVuSerif-Bold-65" x="127.880859"/>
       <use xlink:href="#DejaVuSerif-Bold-63" x="191.503906"/>
       <use xlink:href="#DejaVuSerif-Bold-69" x="252.392578"/>
       <use xlink:href="#DejaVuSerif-Bold-73" x="290.380859"/>
       <use xlink:href="#DejaVuSerif-Bold-69" x="346.679688"/>
       <use xlink:href="#DejaVuSerif-Bold-6f" x="384.667969"/>
       <use xlink:href="#DejaVuSerif-Bold-6e" x="451.367188"/>
      </g>
     </g>
    </g>
    <g id="xtick_6">
     <g id="line2d_6">
      <g>
       <use xlink:href="#m5077249b0a" x="715.123725" y="233.139141" style="stroke: #000000; stroke-width: 0.8"/>
      </g>
     </g>
     <g id="text_6">
      <!-- Recall -->
      <g transform="translate(695.962241 248.497422) scale(0.11 -0.11)">
       <defs>
        <path id="DejaVuSerif-Bold-52" d="M 3397 2278 
Q 3675 2238 3865 2094 
Q 4056 1950 4197 1678 
L 4878 378 
L 5356 378 
L 5356 0 
L 3822 0 
L 3078 1409 
Q 2863 1847 2711 1967 
Q 2559 2088 2291 2088 
L 2100 2088 
L 2100 378 
L 2700 378 
L 2700 0 
L 300 0 
L 300 378 
L 897 378 
L 897 4288 
L 300 4288 
L 300 4666 
L 2963 4666 
Q 3775 4666 4217 4339 
Q 4659 4013 4659 3413 
Q 4659 2925 4345 2642 
Q 4031 2359 3397 2278 
z
M 2100 2463 
L 2509 2463 
Q 2947 2463 3183 2700 
Q 3419 2938 3419 3378 
Q 3419 3819 3183 4053 
Q 2947 4288 2509 4288 
L 2100 4288 
L 2100 2463 
z
" transform="scale(0.015625)"/>
        <path id="DejaVuSerif-Bold-6c" d="M 1797 378 
L 2272 378 
L 2272 0 
L 219 0 
L 219 378 
L 691 378 
L 691 4488 
L 219 4488 
L 219 4863 
L 1797 4863 
L 1797 378 
z
" transform="scale(0.015625)"/>
       </defs>
       <use xlink:href="#DejaVuSerif-Bold-52"/>
       <use xlink:href="#DejaVuSerif-Bold-65" x="83.105469"/>
       <use xlink:href="#DejaVuSerif-Bold-63" x="146.728516"/>
       <use xlink:href="#DejaVuSerif-Bold-61" x="207.617188"/>
       <use xlink:href="#DejaVuSerif-Bold-6c" x="272.412109"/>
       <use xlink:href="#DejaVuSerif-Bold-6c" x="310.400391"/>
      </g>
     </g>
    </g>
    <g id="xtick_7">
     <g id="line2d_7">
      <g>
       <use xlink:href="#m5077249b0a" x="832.581954" y="233.139141" style="stroke: #000000; stroke-width: 0.8"/>
      </g>
     </g>
     <g id="text_7">
      <!-- Specificity -->
      <g transform="translate(800.197267 248.497422) scale(0.11 -0.11)">
       <defs>
        <path id="DejaVuSerif-Bold-70" d="M 1728 1825 
L 1728 1497 
Q 1728 916 1876 656 
Q 2025 397 2356 397 
Q 2697 397 2836 672 
Q 2975 947 2975 1663 
Q 2975 2378 2836 2651 
Q 2697 2925 2356 2925 
Q 2025 2925 1876 2665 
Q 1728 2406 1728 1825 
z
M 622 2944 
L 147 2944 
L 147 3322 
L 1728 3322 
L 1728 2900 
Q 1869 3159 2106 3286 
Q 2344 3413 2694 3413 
Q 3403 3413 3811 2945 
Q 4219 2478 4219 1663 
Q 4219 847 3811 378 
Q 3403 -91 2694 -91 
Q 2344 -91 2106 36 
Q 1869 163 1728 422 
L 1728 -953 
L 2241 -953 
L 2241 -1331 
L 147 -1331 
L 147 -953 
L 622 -953 
L 622 2944 
z
" transform="scale(0.015625)"/>
        <path id="DejaVuSerif-Bold-66" d="M 3097 4031 
L 2747 4031 
Q 2722 4275 2605 4394 
Q 2488 4513 2272 4513 
Q 2022 4513 1909 4333 
Q 1797 4153 1797 3750 
L 1797 3322 
L 2631 3322 
L 2631 2944 
L 1797 2944 
L 1797 378 
L 2438 378 
L 2438 0 
L 219 0 
L 219 378 
L 691 378 
L 691 2944 
L 197 2944 
L 197 3322 
L 691 3322 
L 691 3738 
Q 691 4291 1044 4577 
Q 1397 4863 2081 4863 
Q 2347 4863 2600 4833 
Q 2853 4803 3097 4744 
L 3097 4031 
z
" transform="scale(0.015625)"/>
        <path id="DejaVuSerif-Bold-74" d="M 634 2944 
L 153 2944 
L 153 3322 
L 634 3322 
L 634 4353 
L 1741 4353 
L 1741 3322 
L 2663 3322 
L 2663 2944 
L 1741 2944 
L 1741 909 
Q 1741 475 1809 369 
Q 1878 263 2059 263 
Q 2259 263 2356 397 
Q 2453 531 2459 813 
L 2925 813 
Q 2897 313 2651 111 
Q 2406 -91 1806 -91 
Q 1122 -91 878 123 
Q 634 338 634 909 
L 634 2944 
z
" transform="scale(0.015625)"/>
       </defs>
       <use xlink:href="#DejaVuSerif-Bold-53"/>
       <use xlink:href="#DejaVuSerif-Bold-70" x="72.216797"/>
       <use xlink:href="#DejaVuSerif-Bold-65" x="142.138672"/>
       <use xlink:href="#DejaVuSerif-Bold-63" x="205.761719"/>
       <use xlink:href="#DejaVuSerif-Bold-69" x="266.650391"/>
       <use xlink:href="#DejaVuSerif-Bold-66" x="304.638672"/>
       <use xlink:href="#DejaVuSerif-Bold-69" x="347.65625"/>
       <use xlink:href="#DejaVuSerif-Bold-63" x="385.644531"/>
       <use xlink:href="#DejaVuSerif-Bold-69" x="446.533203"/>
       <use xlink:href="#DejaVuSerif-Bold-74" x="484.521484"/>
       <use xlink:href="#DejaVuSerif-Bold-79" x="530.712891"/>
      </g>
     </g>
    </g>
   </g>
   <g id="matplotlib.axis_2">
    <g id="ytick_1">
     <g id="line2d_8">
      <defs>
       <path id="ma09d06f719" d="M 0 0 
L -3.5 0 
" style="stroke: #000000; stroke-width: 0.8"/>
      </defs>
      <g>
       <use xlink:href="#ma09d06f719" x="64.346406" y="233.139141" style="stroke: #000000; stroke-width: 0.8"/>
      </g>
     </g>
     <g id="text_8">
      <!-- 0.60 -->
      <g transform="translate(30.55625 237.318281) scale(0.11 -0.11)">
       <defs>
        <path id="DejaVuSerif-Bold-30" d="M 2228 275 
Q 2603 275 2742 615 
Q 2881 956 2881 2328 
Q 2881 3691 2742 4037 
Q 2603 4384 2228 4384 
Q 1853 4384 1714 4043 
Q 1575 3703 1575 2328 
Q 1575 956 1714 615 
Q 1853 275 2228 275 
z
M 2228 -91 
Q 1294 -91 797 532 
Q 300 1156 300 2328 
Q 300 3500 797 4125 
Q 1294 4750 2228 4750 
Q 3159 4750 3656 4125 
Q 4153 3500 4153 2328 
Q 4153 1156 3656 532 
Q 3159 -91 2228 -91 
z
" transform="scale(0.015625)"/>
        <path id="DejaVuSerif-Bold-2e" d="M 519 506 
Q 519 750 694 925 
Q 869 1100 1113 1100 
Q 1359 1100 1534 925 
Q 1709 750 1709 506 
Q 1709 259 1534 84 
Q 1359 -91 1113 -91 
Q 869 -91 694 84 
Q 519 259 519 506 
z
" transform="scale(0.015625)"/>
        <path id="DejaVuSerif-Bold-36" d="M 1575 2766 
Q 1778 2928 2029 3009 
Q 2281 3091 2578 3091 
Q 3294 3091 3701 2672 
Q 4109 2253 4109 1522 
Q 4109 750 3650 329 
Q 3191 -91 2344 -91 
Q 1388 -91 895 486 
Q 403 1063 403 2181 
Q 403 3453 950 4101 
Q 1497 4750 2572 4750 
Q 2853 4750 3175 4703 
Q 3497 4656 3866 4563 
L 3866 3738 
L 3488 3738 
Q 3409 4056 3192 4220 
Q 2975 4384 2631 4384 
Q 2075 4384 1826 4003 
Q 1578 3622 1575 2766 
z
M 2272 275 
Q 2594 275 2731 548 
Q 2869 822 2869 1497 
Q 2869 2172 2731 2445 
Q 2594 2719 2272 2719 
Q 1950 2719 1814 2445 
Q 1678 2172 1678 1497 
Q 1678 822 1814 548 
Q 1950 275 2272 275 
z
" transform="scale(0.015625)"/>
       </defs>
       <use xlink:href="#DejaVuSerif-Bold-30"/>
       <use xlink:href="#DejaVuSerif-Bold-2e" x="69.580078"/>
       <use xlink:href="#DejaVuSerif-Bold-36" x="104.394531"/>
       <use xlink:href="#DejaVuSerif-Bold-30" x="173.974609"/>
      </g>
     </g>
    </g>
    <g id="ytick_2">
     <g id="line2d_9">
      <g>
       <use xlink:href="#ma09d06f719" x="64.346406" y="205.419141" style="stroke: #000000; stroke-width: 0.8"/>
      </g>
     </g>
     <g id="text_9">
      <!-- 0.65 -->
      <g transform="translate(30.55625 209.598281) scale(0.11 -0.11)">
       <defs>
        <path id="DejaVuSerif-Bold-35" d="M 3609 4666 
L 3609 3847 
L 1113 3847 
L 1113 2822 
Q 1319 2981 1572 3062 
Q 1825 3144 2106 3144 
Q 2969 3144 3469 2708 
Q 3969 2272 3969 1522 
Q 3969 759 3469 334 
Q 2969 -91 2069 -91 
Q 1688 -91 1311 -28 
Q 934 34 525 166 
L 525 1184 
L 900 1184 
Q 919 725 1139 500 
Q 1359 275 1791 275 
Q 2250 275 2472 583 
Q 2694 891 2694 1522 
Q 2694 2144 2476 2451 
Q 2259 2759 1819 2759 
Q 1581 2759 1395 2661 
Q 1209 2563 1050 2356 
L 738 2356 
L 738 4666 
L 3609 4666 
z
" transform="scale(0.015625)"/>
       </defs>
       <use xlink:href="#DejaVuSerif-Bold-30"/>
       <use xlink:href="#DejaVuSerif-Bold-2e" x="69.580078"/>
       <use xlink:href="#DejaVuSerif-Bold-36" x="104.394531"/>
       <use xlink:href="#DejaVuSerif-Bold-35" x="173.974609"/>
      </g>
     </g>
    </g>
    <g id="ytick_3">
     <g id="line2d_10">
      <g>
       <use xlink:href="#ma09d06f719" x="64.346406" y="177.699141" style="stroke: #000000; stroke-width: 0.8"/>
      </g>
     </g>
     <g id="text_10">
      <!-- 0.70 -->
      <g transform="translate(30.55625 181.878281) scale(0.11 -0.11)">
       <defs>
        <path id="DejaVuSerif-Bold-37" d="M 3922 3872 
L 1997 0 
L 1363 0 
L 3238 3781 
L 934 3781 
L 934 3150 
L 506 3150 
L 506 4666 
L 3922 4666 
L 3922 3872 
z
" transform="scale(0.015625)"/>
       </defs>
       <use xlink:href="#DejaVuSerif-Bold-30"/>
       <use xlink:href="#DejaVuSerif-Bold-2e" x="69.580078"/>
       <use xlink:href="#DejaVuSerif-Bold-37" x="104.394531"/>
       <use xlink:href="#DejaVuSerif-Bold-30" x="173.974609"/>
      </g>
     </g>
    </g>
    <g id="ytick_4">
     <g id="line2d_11">
      <g>
       <use xlink:href="#ma09d06f719" x="64.346406" y="149.979141" style="stroke: #000000; stroke-width: 0.8"/>
      </g>
     </g>
     <g id="text_11">
      <!-- 0.75 -->
      <g transform="translate(30.55625 154.158281) scale(0.11 -0.11)">
       <use xlink:href="#DejaVuSerif-Bold-30"/>
       <use xlink:href="#DejaVuSerif-Bold-2e" x="69.580078"/>
       <use xlink:href="#DejaVuSerif-Bold-37" x="104.394531"/>
       <use xlink:href="#DejaVuSerif-Bold-35" x="173.974609"/>
      </g>
     </g>
    </g>
    <g id="ytick_5">
     <g id="line2d_12">
      <g>
       <use xlink:href="#ma09d06f719" x="64.346406" y="122.259141" style="stroke: #000000; stroke-width: 0.8"/>
      </g>
     </g>
     <g id="text_12">
      <!-- 0.80 -->
      <g transform="translate(30.55625 126.438281) scale(0.11 -0.11)">
       <defs>
        <path id="DejaVuSerif-Bold-38" d="M 2975 2484 
Q 3531 2394 3820 2075 
Q 4109 1756 4109 1241 
Q 4109 597 3623 253 
Q 3138 -91 2222 -91 
Q 1306 -91 818 253 
Q 331 597 331 1241 
Q 331 1756 622 2075 
Q 913 2394 1466 2484 
Q 975 2597 731 2861 
Q 488 3125 488 3531 
Q 488 4125 931 4437 
Q 1375 4750 2222 4750 
Q 3066 4750 3511 4437 
Q 3956 4125 3956 3531 
Q 3956 3125 3711 2861 
Q 3466 2597 2975 2484 
z
M 2747 3519 
Q 2747 4013 2628 4198 
Q 2509 4384 2222 4384 
Q 1931 4384 1814 4198 
Q 1697 4013 1697 3519 
Q 1697 3028 1814 2845 
Q 1931 2663 2222 2663 
Q 2513 2663 2630 2845 
Q 2747 3028 2747 3519 
z
M 2869 1294 
Q 2869 1866 2723 2081 
Q 2578 2297 2222 2297 
Q 1863 2297 1719 2081 
Q 1575 1866 1575 1294 
Q 1575 716 1720 495 
Q 1866 275 2222 275 
Q 2575 275 2722 495 
Q 2869 716 2869 1294 
z
" transform="scale(0.015625)"/>
       </defs>
       <use xlink:href="#DejaVuSerif-Bold-30"/>
       <use xlink:href="#DejaVuSerif-Bold-2e" x="69.580078"/>
       <use xlink:href="#DejaVuSerif-Bold-38" x="104.394531"/>
       <use xlink:href="#DejaVuSerif-Bold-30" x="173.974609"/>
      </g>
     </g>
    </g>
    <g id="ytick_6">
     <g id="line2d_13">
      <g>
       <use xlink:href="#ma09d06f719" x="64.346406" y="94.539141" style="stroke: #000000; stroke-width: 0.8"/>
      </g>
     </g>
     <g id="text_13">
      <!-- 0.85 -->
      <g transform="translate(30.55625 98.718281) scale(0.11 -0.11)">
       <use xlink:href="#DejaVuSerif-Bold-30"/>
       <use xlink:href="#DejaVuSerif-Bold-2e" x="69.580078"/>
       <use xlink:href="#DejaVuSerif-Bold-38" x="104.394531"/>
       <use xlink:href="#DejaVuSerif-Bold-35" x="173.974609"/>
      </g>
     </g>
    </g>
    <g id="ytick_7">
     <g id="line2d_14">
      <g>
       <use xlink:href="#ma09d06f719" x="64.346406" y="66.819141" style="stroke: #000000; stroke-width: 0.8"/>
      </g>
     </g>
     <g id="text_14">
      <!-- 0.90 -->
      <g transform="translate(30.55625 70.998281) scale(0.11 -0.11)">
       <defs>
        <path id="DejaVuSerif-Bold-39" d="M 2181 4384 
Q 1859 4384 1723 4111 
Q 1588 3838 1588 3163 
Q 1588 2488 1723 2214 
Q 1859 1941 2181 1941 
Q 2503 1941 2640 2214 
Q 2778 2488 2778 3163 
Q 2778 3838 2640 4111 
Q 2503 4384 2181 4384 
z
M 2878 1900 
Q 2672 1734 2420 1651 
Q 2169 1569 1875 1569 
Q 1163 1569 755 1986 
Q 347 2403 347 3138 
Q 347 3913 803 4331 
Q 1259 4750 2106 4750 
Q 3063 4750 3556 4172 
Q 4050 3594 4050 2478 
Q 4050 1206 3503 557 
Q 2956 -91 1881 -91 
Q 1600 -91 1278 -44 
Q 956 3 588 97 
L 588 922 
L 966 922 
Q 1044 603 1261 439 
Q 1478 275 1825 275 
Q 2375 275 2625 658 
Q 2875 1041 2878 1900 
z
" transform="scale(0.015625)"/>
       </defs>
       <use xlink:href="#DejaVuSerif-Bold-30"/>
       <use xlink:href="#DejaVuSerif-Bold-2e" x="69.580078"/>
       <use xlink:href="#DejaVuSerif-Bold-39" x="104.394531"/>
       <use xlink:href="#DejaVuSerif-Bold-30" x="173.974609"/>
      </g>
     </g>
    </g>
    <g id="ytick_8">
     <g id="line2d_15">
      <g>
       <use xlink:href="#ma09d06f719" x="64.346406" y="39.099141" style="stroke: #000000; stroke-width: 0.8"/>
      </g>
     </g>
     <g id="text_15">
      <!-- 0.95 -->
      <g transform="translate(30.55625 43.278281) scale(0.11 -0.11)">
       <use xlink:href="#DejaVuSerif-Bold-30"/>
       <use xlink:href="#DejaVuSerif-Bold-2e" x="69.580078"/>
       <use xlink:href="#DejaVuSerif-Bold-39" x="104.394531"/>
       <use xlink:href="#DejaVuSerif-Bold-35" x="173.974609"/>
      </g>
     </g>
    </g>
    <g id="ytick_9">
     <g id="line2d_16">
      <g>
       <use xlink:href="#ma09d06f719" x="64.346406" y="11.379141" style="stroke: #000000; stroke-width: 0.8"/>
      </g>
     </g>
     <g id="text_16">
      <!-- 1.00 -->
      <g transform="translate(30.55625 15.558281) scale(0.11 -0.11)">
       <use xlink:href="#DejaVuSerif-Bold-31"/>
       <use xlink:href="#DejaVuSerif-Bold-2e" x="69.580078"/>
       <use xlink:href="#DejaVuSerif-Bold-30" x="104.394531"/>
       <use xlink:href="#DejaVuSerif-Bold-30" x="173.974609"/>
      </g>
     </g>
    </g>
    <g id="text_17">
     <!-- Scores -->
     <g transform="translate(22.396875 159.501328) rotate(-90) scale(0.2 -0.2)">
      <use xlink:href="#DejaVuSerif-Bold-53"/>
      <use xlink:href="#DejaVuSerif-Bold-63" x="72.216797"/>
      <use xlink:href="#DejaVuSerif-Bold-6f" x="133.105469"/>
      <use xlink:href="#DejaVuSerif-Bold-72" x="199.804688"/>
      <use xlink:href="#DejaVuSerif-Bold-65" x="252.490234"/>
      <use xlink:href="#DejaVuSerif-Bold-73" x="316.113281"/>
     </g>
    </g>
   </g>
   <g id="patch_52">
    <path d="M 64.346406 233.139141 
L 64.346406 11.379141 
" style="fill: none; stroke: #000000; stroke-width: 1.6; stroke-linejoin: miter; stroke-linecap: square"/>
   </g>
   <g id="patch_53">
    <path d="M 957.146406 233.139141 
L 957.146406 11.379141 
" style="fill: none; stroke: #000000; stroke-width: 1.6; stroke-linejoin: miter; stroke-linecap: square"/>
   </g>
   <g id="patch_54">
    <path d="M 64.346406 233.139141 
L 957.146406 233.139141 
" style="fill: none; stroke: #000000; stroke-width: 1.6; stroke-linejoin: miter; stroke-linecap: square"/>
   </g>
   <g id="patch_55">
    <path d="M 64.346406 11.379141 
L 957.146406 11.379141 
" style="fill: none; stroke: #000000; stroke-width: 1.6; stroke-linejoin: miter; stroke-linecap: square"/>
   </g>
   <g id="text_18">
    <!-- 0.842 -->
    <g transform="translate(114.770509 95.974341) rotate(-90) scale(0.08 -0.08)">
     <defs>
      <path id="DejaVuSerif-Bold-34" d="M 4084 0 
L 1516 0 
L 1516 378 
L 2209 378 
L 2209 1228 
L 263 1228 
L 263 1588 
L 2216 4750 
L 3391 4750 
L 3391 1631 
L 4191 1631 
L 4191 1228 
L 3391 1228 
L 3391 378 
L 4084 378 
L 4084 0 
z
M 2209 1631 
L 2209 3897 
L 819 1631 
L 2209 1631 
z
" transform="scale(0.015625)"/>
      <path id="DejaVuSerif-Bold-32" d="M 844 3513 
L 469 3513 
L 469 4519 
Q 850 4634 1223 4692 
Q 1597 4750 1978 4750 
Q 2869 4750 3367 4386 
Q 3866 4022 3866 3372 
Q 3866 2909 3591 2542 
Q 3316 2175 2541 1672 
L 1241 819 
L 3450 819 
L 3450 1369 
L 3878 1369 
L 3878 0 
L 428 0 
L 428 763 
L 1119 1241 
Q 2003 1850 2297 2278 
Q 2591 2706 2591 3278 
Q 2591 3819 2367 4101 
Q 2144 4384 1716 4384 
Q 1347 4384 1125 4161 
Q 903 3938 844 3513 
z
" transform="scale(0.015625)"/>
     </defs>
     <use xlink:href="#DejaVuSerif-Bold-30"/>
     <use xlink:href="#DejaVuSerif-Bold-2e" x="69.580078"/>
     <use xlink:href="#DejaVuSerif-Bold-38" x="104.394531"/>
     <use xlink:href="#DejaVuSerif-Bold-34" x="173.974609"/>
     <use xlink:href="#DejaVuSerif-Bold-32" x="243.554688"/>
    </g>
   </g>
   <g id="text_19">
    <!-- 0.933 -->
    <g transform="translate(232.228739 45.523941) rotate(-90) scale(0.08 -0.08)">
     <defs>
      <path id="DejaVuSerif-Bold-33" d="M 550 4531 
Q 963 4641 1350 4695 
Q 1738 4750 2106 4750 
Q 2950 4750 3401 4448 
Q 3853 4147 3853 3584 
Q 3853 3163 3593 2900 
Q 3334 2638 2834 2547 
Q 3444 2450 3744 2131 
Q 4044 1813 4044 1259 
Q 4044 606 3526 257 
Q 3009 -91 2028 -91 
Q 1659 -91 1267 -28 
Q 875 34 447 159 
L 447 1184 
L 825 1184 
Q 859 741 1103 508 
Q 1347 275 1778 275 
Q 2253 275 2512 539 
Q 2772 803 2772 1288 
Q 2772 1794 2501 2069 
Q 2231 2344 1734 2344 
L 1528 2344 
L 1528 2719 
L 1691 2719 
Q 2150 2719 2381 2931 
Q 2613 3144 2613 3566 
Q 2613 3963 2395 4173 
Q 2178 4384 1772 4384 
Q 1403 4384 1187 4182 
Q 972 3981 928 3597 
L 550 3597 
L 550 4531 
z
" transform="scale(0.015625)"/>
     </defs>
     <use xlink:href="#DejaVuSerif-Bold-30"/>
     <use xlink:href="#DejaVuSerif-Bold-2e" x="69.580078"/>
     <use xlink:href="#DejaVuSerif-Bold-39" x="104.394531"/>
     <use xlink:href="#DejaVuSerif-Bold-33" x="173.974609"/>
     <use xlink:href="#DejaVuSerif-Bold-33" x="243.554688"/>
    </g>
   </g>
   <g id="text_20">
    <!-- 0.840 -->
    <g transform="translate(349.686968 97.083141) rotate(-90) scale(0.08 -0.08)">
     <use xlink:href="#DejaVuSerif-Bold-30"/>
     <use xlink:href="#DejaVuSerif-Bold-2e" x="69.580078"/>
     <use xlink:href="#DejaVuSerif-Bold-38" x="104.394531"/>
     <use xlink:href="#DejaVuSerif-Bold-34" x="173.974609"/>
     <use xlink:href="#DejaVuSerif-Bold-30" x="243.554688"/>
    </g>
   </g>
   <g id="text_21">
    <!-- 0.682 -->
    <g transform="translate(467.145197 184.678341) rotate(-90) scale(0.08 -0.08)">
     <use xlink:href="#DejaVuSerif-Bold-30"/>
     <use xlink:href="#DejaVuSerif-Bold-2e" x="69.580078"/>
     <use xlink:href="#DejaVuSerif-Bold-36" x="104.394531"/>
     <use xlink:href="#DejaVuSerif-Bold-38" x="173.974609"/>
     <use xlink:href="#DejaVuSerif-Bold-32" x="243.554688"/>
    </g>
   </g>
   <g id="text_22">
    <!-- 0.844 -->
    <g transform="translate(584.603426 94.865541) rotate(-90) scale(0.08 -0.08)">
     <use xlink:href="#DejaVuSerif-Bold-30"/>
     <use xlink:href="#DejaVuSerif-Bold-2e" x="69.580078"/>
     <use xlink:href="#DejaVuSerif-Bold-38" x="104.394531"/>
     <use xlink:href="#DejaVuSerif-Bold-34" x="173.974609"/>
     <use xlink:href="#DejaVuSerif-Bold-34" x="243.554688"/>
    </g>
   </g>
   <g id="text_23">
    <!-- 0.838 -->
    <g transform="translate(702.061655 98.191941) rotate(-90) scale(0.08 -0.08)">
     <use xlink:href="#DejaVuSerif-Bold-30"/>
     <use xlink:href="#DejaVuSerif-Bold-2e" x="69.580078"/>
     <use xlink:href="#DejaVuSerif-Bold-38" x="104.394531"/>
     <use xlink:href="#DejaVuSerif-Bold-33" x="173.974609"/>
     <use xlink:href="#DejaVuSerif-Bold-38" x="243.554688"/>
    </g>
   </g>
   <g id="text_24">
    <!-- 0.887 -->
    <g transform="translate(819.519884 71.026341) rotate(-90) scale(0.08 -0.08)">
     <use xlink:href="#DejaVuSerif-Bold-30"/>
     <use xlink:href="#DejaVuSerif-Bold-2e" x="69.580078"/>
     <use xlink:href="#DejaVuSerif-Bold-38" x="104.394531"/>
     <use xlink:href="#DejaVuSerif-Bold-38" x="173.974609"/>
     <use xlink:href="#DejaVuSerif-Bold-37" x="243.554688"/>
    </g>
   </g>
   <g id="text_25">
    <!-- 0.860 -->
    <g transform="translate(130.040079 85.995141) rotate(-90) scale(0.08 -0.08)">
     <use xlink:href="#DejaVuSerif-Bold-30"/>
     <use xlink:href="#DejaVuSerif-Bold-2e" x="69.580078"/>
     <use xlink:href="#DejaVuSerif-Bold-38" x="104.394531"/>
     <use xlink:href="#DejaVuSerif-Bold-36" x="173.974609"/>
     <use xlink:href="#DejaVuSerif-Bold-30" x="243.554688"/>
    </g>
   </g>
   <g id="text_26">
    <!-- 0.934 -->
    <g transform="translate(247.498308 44.969541) rotate(-90) scale(0.08 -0.08)">
     <use xlink:href="#DejaVuSerif-Bold-30"/>
     <use xlink:href="#DejaVuSerif-Bold-2e" x="69.580078"/>
     <use xlink:href="#DejaVuSerif-Bold-39" x="104.394531"/>
     <use xlink:href="#DejaVuSerif-Bold-33" x="173.974609"/>
     <use xlink:href="#DejaVuSerif-Bold-34" x="243.554688"/>
    </g>
   </g>
   <g id="text_27">
    <!-- 0.858 -->
    <g transform="translate(364.956537 87.103941) rotate(-90) scale(0.08 -0.08)">
     <use xlink:href="#DejaVuSerif-Bold-30"/>
     <use xlink:href="#DejaVuSerif-Bold-2e" x="69.580078"/>
     <use xlink:href="#DejaVuSerif-Bold-38" x="104.394531"/>
     <use xlink:href="#DejaVuSerif-Bold-35" x="173.974609"/>
     <use xlink:href="#DejaVuSerif-Bold-38" x="243.554688"/>
    </g>
   </g>
   <g id="text_28">
    <!-- 0.717 -->
    <g transform="translate(482.414767 165.274341) rotate(-90) scale(0.08 -0.08)">
     <use xlink:href="#DejaVuSerif-Bold-30"/>
     <use xlink:href="#DejaVuSerif-Bold-2e" x="69.580078"/>
     <use xlink:href="#DejaVuSerif-Bold-37" x="104.394531"/>
     <use xlink:href="#DejaVuSerif-Bold-31" x="173.974609"/>
     <use xlink:href="#DejaVuSerif-Bold-37" x="243.554688"/>
    </g>
   </g>
   <g id="text_29">
    <!-- 0.862 -->
    <g transform="translate(599.872996 84.886341) rotate(-90) scale(0.08 -0.08)">
     <use xlink:href="#DejaVuSerif-Bold-30"/>
     <use xlink:href="#DejaVuSerif-Bold-2e" x="69.580078"/>
     <use xlink:href="#DejaVuSerif-Bold-38" x="104.394531"/>
     <use xlink:href="#DejaVuSerif-Bold-36" x="173.974609"/>
     <use xlink:href="#DejaVuSerif-Bold-32" x="243.554688"/>
    </g>
   </g>
   <g id="text_30">
    <!-- 0.855 -->
    <g transform="translate(717.331225 88.767141) rotate(-90) scale(0.08 -0.08)">
     <use xlink:href="#DejaVuSerif-Bold-30"/>
     <use xlink:href="#DejaVuSerif-Bold-2e" x="69.580078"/>
     <use xlink:href="#DejaVuSerif-Bold-38" x="104.394531"/>
     <use xlink:href="#DejaVuSerif-Bold-35" x="173.974609"/>
     <use xlink:href="#DejaVuSerif-Bold-35" x="243.554688"/>
    </g>
   </g>
   <g id="text_31">
    <!-- 0.903 -->
    <g transform="translate(834.789454 62.155941) rotate(-90) scale(0.08 -0.08)">
     <use xlink:href="#DejaVuSerif-Bold-30"/>
     <use xlink:href="#DejaVuSerif-Bold-2e" x="69.580078"/>
     <use xlink:href="#DejaVuSerif-Bold-39" x="104.394531"/>
     <use xlink:href="#DejaVuSerif-Bold-30" x="173.974609"/>
     <use xlink:href="#DejaVuSerif-Bold-33" x="243.554688"/>
    </g>
   </g>
   <g id="text_32">
    <!-- 0.860 -->
    <g transform="translate(145.309649 85.995141) rotate(-90) scale(0.08 -0.08)">
     <use xlink:href="#DejaVuSerif-Bold-30"/>
     <use xlink:href="#DejaVuSerif-Bold-2e" x="69.580078"/>
     <use xlink:href="#DejaVuSerif-Bold-38" x="104.394531"/>
     <use xlink:href="#DejaVuSerif-Bold-36" x="173.974609"/>
     <use xlink:href="#DejaVuSerif-Bold-30" x="243.554688"/>
    </g>
   </g>
   <g id="text_33">
    <!-- 0.934 -->
    <g transform="translate(262.767878 44.969541) rotate(-90) scale(0.08 -0.08)">
     <use xlink:href="#DejaVuSerif-Bold-30"/>
     <use xlink:href="#DejaVuSerif-Bold-2e" x="69.580078"/>
     <use xlink:href="#DejaVuSerif-Bold-39" x="104.394531"/>
     <use xlink:href="#DejaVuSerif-Bold-33" x="173.974609"/>
     <use xlink:href="#DejaVuSerif-Bold-34" x="243.554688"/>
    </g>
   </g>
   <g id="text_34">
    <!-- 0.858 -->
    <g transform="translate(380.226107 87.103941) rotate(-90) scale(0.08 -0.08)">
     <use xlink:href="#DejaVuSerif-Bold-30"/>
     <use xlink:href="#DejaVuSerif-Bold-2e" x="69.580078"/>
     <use xlink:href="#DejaVuSerif-Bold-38" x="104.394531"/>
     <use xlink:href="#DejaVuSerif-Bold-35" x="173.974609"/>
     <use xlink:href="#DejaVuSerif-Bold-38" x="243.554688"/>
    </g>
   </g>
   <g id="text_35">
    <!-- 0.717 -->
    <g transform="translate(497.684336 165.274341) rotate(-90) scale(0.08 -0.08)">
     <use xlink:href="#DejaVuSerif-Bold-30"/>
     <use xlink:href="#DejaVuSerif-Bold-2e" x="69.580078"/>
     <use xlink:href="#DejaVuSerif-Bold-37" x="104.394531"/>
     <use xlink:href="#DejaVuSerif-Bold-31" x="173.974609"/>
     <use xlink:href="#DejaVuSerif-Bold-37" x="243.554688"/>
    </g>
   </g>
   <g id="text_36">
    <!-- 0.862 -->
    <g transform="translate(615.142566 84.886341) rotate(-90) scale(0.08 -0.08)">
     <use xlink:href="#DejaVuSerif-Bold-30"/>
     <use xlink:href="#DejaVuSerif-Bold-2e" x="69.580078"/>
     <use xlink:href="#DejaVuSerif-Bold-38" x="104.394531"/>
     <use xlink:href="#DejaVuSerif-Bold-36" x="173.974609"/>
     <use xlink:href="#DejaVuSerif-Bold-32" x="243.554688"/>
    </g>
   </g>
   <g id="text_37">
    <!-- 0.855 -->
    <g transform="translate(732.600795 88.767141) rotate(-90) scale(0.08 -0.08)">
     <use xlink:href="#DejaVuSerif-Bold-30"/>
     <use xlink:href="#DejaVuSerif-Bold-2e" x="69.580078"/>
     <use xlink:href="#DejaVuSerif-Bold-38" x="104.394531"/>
     <use xlink:href="#DejaVuSerif-Bold-35" x="173.974609"/>
     <use xlink:href="#DejaVuSerif-Bold-35" x="243.554688"/>
    </g>
   </g>
   <g id="text_38">
    <!-- 0.903 -->
    <g transform="translate(850.059024 62.155941) rotate(-90) scale(0.08 -0.08)">
     <use xlink:href="#DejaVuSerif-Bold-30"/>
     <use xlink:href="#DejaVuSerif-Bold-2e" x="69.580078"/>
     <use xlink:href="#DejaVuSerif-Bold-39" x="104.394531"/>
     <use xlink:href="#DejaVuSerif-Bold-30" x="173.974609"/>
     <use xlink:href="#DejaVuSerif-Bold-33" x="243.554688"/>
    </g>
   </g>
   <g id="text_39">
    <!-- 0.868 -->
    <g transform="translate(160.579219 81.326509) rotate(-90) scale(0.08 -0.08)">
     <use xlink:href="#DejaVuSerif-Bold-30"/>
     <use xlink:href="#DejaVuSerif-Bold-2e" x="69.580078"/>
     <use xlink:href="#DejaVuSerif-Bold-38" x="104.394531"/>
     <use xlink:href="#DejaVuSerif-Bold-36" x="173.974609"/>
     <use xlink:href="#DejaVuSerif-Bold-38" x="243.554688"/>
    </g>
   </g>
   <g id="text_40">
    <!-- 0.939 -->
    <g transform="translate(278.037448 41.997379) rotate(-90) scale(0.08 -0.08)">
     <use xlink:href="#DejaVuSerif-Bold-30"/>
     <use xlink:href="#DejaVuSerif-Bold-2e" x="69.580078"/>
     <use xlink:href="#DejaVuSerif-Bold-39" x="104.394531"/>
     <use xlink:href="#DejaVuSerif-Bold-33" x="173.974609"/>
     <use xlink:href="#DejaVuSerif-Bold-39" x="243.554688"/>
    </g>
   </g>
   <g id="text_41">
    <!-- 0.851 -->
    <g transform="translate(395.495677 90.715774) rotate(-90) scale(0.08 -0.08)">
     <use xlink:href="#DejaVuSerif-Bold-30"/>
     <use xlink:href="#DejaVuSerif-Bold-2e" x="69.580078"/>
     <use xlink:href="#DejaVuSerif-Bold-38" x="104.394531"/>
     <use xlink:href="#DejaVuSerif-Bold-35" x="173.974609"/>
     <use xlink:href="#DejaVuSerif-Bold-31" x="243.554688"/>
    </g>
   </g>
   <g id="text_42">
    <!-- 0.735 -->
    <g transform="translate(512.953906 155.513807) rotate(-90) scale(0.08 -0.08)">
     <use xlink:href="#DejaVuSerif-Bold-30"/>
     <use xlink:href="#DejaVuSerif-Bold-2e" x="69.580078"/>
     <use xlink:href="#DejaVuSerif-Bold-37" x="104.394531"/>
     <use xlink:href="#DejaVuSerif-Bold-33" x="173.974609"/>
     <use xlink:href="#DejaVuSerif-Bold-35" x="243.554688"/>
    </g>
   </g>
   <g id="text_43">
    <!-- 0.878 -->
    <g transform="translate(630.412135 76.264855) rotate(-90) scale(0.08 -0.08)">
     <use xlink:href="#DejaVuSerif-Bold-30"/>
     <use xlink:href="#DejaVuSerif-Bold-2e" x="69.580078"/>
     <use xlink:href="#DejaVuSerif-Bold-38" x="104.394531"/>
     <use xlink:href="#DejaVuSerif-Bold-37" x="173.974609"/>
     <use xlink:href="#DejaVuSerif-Bold-38" x="243.554688"/>
    </g>
   </g>
   <g id="text_44">
    <!-- 0.827 -->
    <g transform="translate(747.870365 104.332987) rotate(-90) scale(0.08 -0.08)">
     <use xlink:href="#DejaVuSerif-Bold-30"/>
     <use xlink:href="#DejaVuSerif-Bold-2e" x="69.580078"/>
     <use xlink:href="#DejaVuSerif-Bold-38" x="104.394531"/>
     <use xlink:href="#DejaVuSerif-Bold-32" x="173.974609"/>
     <use xlink:href="#DejaVuSerif-Bold-37" x="243.554688"/>
    </g>
   </g>
   <g id="text_45">
    <!-- 0.903 -->
    <g transform="translate(865.328594 62.030754) rotate(-90) scale(0.08 -0.08)">
     <use xlink:href="#DejaVuSerif-Bold-30"/>
     <use xlink:href="#DejaVuSerif-Bold-2e" x="69.580078"/>
     <use xlink:href="#DejaVuSerif-Bold-39" x="104.394531"/>
     <use xlink:href="#DejaVuSerif-Bold-30" x="173.974609"/>
     <use xlink:href="#DejaVuSerif-Bold-33" x="243.554688"/>
    </g>
   </g>
   <g id="text_46">
    <!-- 0.851 -->
    <g transform="translate(175.848789 91.052825) rotate(-90) scale(0.08 -0.08)">
     <use xlink:href="#DejaVuSerif-Bold-30"/>
     <use xlink:href="#DejaVuSerif-Bold-2e" x="69.580078"/>
     <use xlink:href="#DejaVuSerif-Bold-38" x="104.394531"/>
     <use xlink:href="#DejaVuSerif-Bold-35" x="173.974609"/>
     <use xlink:href="#DejaVuSerif-Bold-31" x="243.554688"/>
    </g>
   </g>
   <g id="text_47">
    <!-- 0.936 -->
    <g transform="translate(293.307018 43.888942) rotate(-90) scale(0.08 -0.08)">
     <use xlink:href="#DejaVuSerif-Bold-30"/>
     <use xlink:href="#DejaVuSerif-Bold-2e" x="69.580078"/>
     <use xlink:href="#DejaVuSerif-Bold-39" x="104.394531"/>
     <use xlink:href="#DejaVuSerif-Bold-33" x="173.974609"/>
     <use xlink:href="#DejaVuSerif-Bold-36" x="243.554688"/>
    </g>
   </g>
   <g id="text_48">
    <!-- 0.828 -->
    <g transform="translate(410.765247 103.579141) rotate(-90) scale(0.08 -0.08)">
     <use xlink:href="#DejaVuSerif-Bold-30"/>
     <use xlink:href="#DejaVuSerif-Bold-2e" x="69.580078"/>
     <use xlink:href="#DejaVuSerif-Bold-38" x="104.394531"/>
     <use xlink:href="#DejaVuSerif-Bold-32" x="173.974609"/>
     <use xlink:href="#DejaVuSerif-Bold-38" x="243.554688"/>
    </g>
   </g>
   <g id="text_49">
    <!-- 0.700 -->
    <g transform="translate(528.223476 174.767962) rotate(-90) scale(0.08 -0.08)">
     <use xlink:href="#DejaVuSerif-Bold-30"/>
     <use xlink:href="#DejaVuSerif-Bold-2e" x="69.580078"/>
     <use xlink:href="#DejaVuSerif-Bold-37" x="104.394531"/>
     <use xlink:href="#DejaVuSerif-Bold-30" x="173.974609"/>
     <use xlink:href="#DejaVuSerif-Bold-30" x="243.554688"/>
    </g>
   </g>
   <g id="text_50">
    <!-- 0.872 -->
    <g transform="translate(645.681705 79.153608) rotate(-90) scale(0.08 -0.08)">
     <use xlink:href="#DejaVuSerif-Bold-30"/>
     <use xlink:href="#DejaVuSerif-Bold-2e" x="69.580078"/>
     <use xlink:href="#DejaVuSerif-Bold-38" x="104.394531"/>
     <use xlink:href="#DejaVuSerif-Bold-37" x="173.974609"/>
     <use xlink:href="#DejaVuSerif-Bold-32" x="243.554688"/>
    </g>
   </g>
   <g id="text_51">
    <!-- 0.788 -->
    <g transform="translate(763.139934 125.656064) rotate(-90) scale(0.08 -0.08)">
     <use xlink:href="#DejaVuSerif-Bold-30"/>
     <use xlink:href="#DejaVuSerif-Bold-2e" x="69.580078"/>
     <use xlink:href="#DejaVuSerif-Bold-37" x="104.394531"/>
     <use xlink:href="#DejaVuSerif-Bold-38" x="173.974609"/>
     <use xlink:href="#DejaVuSerif-Bold-38" x="243.554688"/>
    </g>
   </g>
   <g id="text_52">
    <!-- 0.903 -->
    <g transform="translate(880.598164 62.030754) rotate(-90) scale(0.08 -0.08)">
     <use xlink:href="#DejaVuSerif-Bold-30"/>
     <use xlink:href="#DejaVuSerif-Bold-2e" x="69.580078"/>
     <use xlink:href="#DejaVuSerif-Bold-39" x="104.394531"/>
     <use xlink:href="#DejaVuSerif-Bold-30" x="173.974609"/>
     <use xlink:href="#DejaVuSerif-Bold-33" x="243.554688"/>
    </g>
   </g>
   <g id="text_53">
    <!-- 0.860 -->
    <g transform="translate(191.118358 86.189667) rotate(-90) scale(0.08 -0.08)">
     <use xlink:href="#DejaVuSerif-Bold-30"/>
     <use xlink:href="#DejaVuSerif-Bold-2e" x="69.580078"/>
     <use xlink:href="#DejaVuSerif-Bold-38" x="104.394531"/>
     <use xlink:href="#DejaVuSerif-Bold-36" x="173.974609"/>
     <use xlink:href="#DejaVuSerif-Bold-30" x="243.554688"/>
    </g>
   </g>
   <g id="text_54">
    <!-- 0.940 -->
    <g transform="translate(308.576587 41.395518) rotate(-90) scale(0.08 -0.08)">
     <use xlink:href="#DejaVuSerif-Bold-30"/>
     <use xlink:href="#DejaVuSerif-Bold-2e" x="69.580078"/>
     <use xlink:href="#DejaVuSerif-Bold-39" x="104.394531"/>
     <use xlink:href="#DejaVuSerif-Bold-34" x="173.974609"/>
     <use xlink:href="#DejaVuSerif-Bold-30" x="243.554688"/>
    </g>
   </g>
   <g id="text_55">
    <!-- 0.837 -->
    <g transform="translate(426.034817 98.893426) rotate(-90) scale(0.08 -0.08)">
     <use xlink:href="#DejaVuSerif-Bold-30"/>
     <use xlink:href="#DejaVuSerif-Bold-2e" x="69.580078"/>
     <use xlink:href="#DejaVuSerif-Bold-38" x="104.394531"/>
     <use xlink:href="#DejaVuSerif-Bold-33" x="173.974609"/>
     <use xlink:href="#DejaVuSerif-Bold-37" x="243.554688"/>
    </g>
   </g>
   <g id="text_56">
    <!-- 0.719 -->
    <g transform="translate(543.493046 164.389559) rotate(-90) scale(0.08 -0.08)">
     <use xlink:href="#DejaVuSerif-Bold-30"/>
     <use xlink:href="#DejaVuSerif-Bold-2e" x="69.580078"/>
     <use xlink:href="#DejaVuSerif-Bold-37" x="104.394531"/>
     <use xlink:href="#DejaVuSerif-Bold-31" x="173.974609"/>
     <use xlink:href="#DejaVuSerif-Bold-39" x="243.554688"/>
    </g>
   </g>
   <g id="text_57">
    <!-- 0.891 -->
    <g transform="translate(660.951275 68.64001) rotate(-90) scale(0.08 -0.08)">
     <use xlink:href="#DejaVuSerif-Bold-30"/>
     <use xlink:href="#DejaVuSerif-Bold-2e" x="69.580078"/>
     <use xlink:href="#DejaVuSerif-Bold-38" x="104.394531"/>
     <use xlink:href="#DejaVuSerif-Bold-39" x="173.974609"/>
     <use xlink:href="#DejaVuSerif-Bold-31" x="243.554688"/>
    </g>
   </g>
   <g id="text_58">
    <!-- 0.788 -->
    <g transform="translate(778.409504 125.656064) rotate(-90) scale(0.08 -0.08)">
     <use xlink:href="#DejaVuSerif-Bold-30"/>
     <use xlink:href="#DejaVuSerif-Bold-2e" x="69.580078"/>
     <use xlink:href="#DejaVuSerif-Bold-37" x="104.394531"/>
     <use xlink:href="#DejaVuSerif-Bold-38" x="173.974609"/>
     <use xlink:href="#DejaVuSerif-Bold-38" x="243.554688"/>
    </g>
   </g>
   <g id="text_59">
    <!-- 0.919 -->
    <g transform="translate(895.867733 53.088818) rotate(-90) scale(0.08 -0.08)">
     <use xlink:href="#DejaVuSerif-Bold-30"/>
     <use xlink:href="#DejaVuSerif-Bold-2e" x="69.580078"/>
     <use xlink:href="#DejaVuSerif-Bold-39" x="104.394531"/>
     <use xlink:href="#DejaVuSerif-Bold-31" x="173.974609"/>
     <use xlink:href="#DejaVuSerif-Bold-39" x="243.554688"/>
    </g>
   </g>
   <g id="text_60">
    <!-- 0.868 -->
    <g transform="translate(206.387928 81.326509) rotate(-90) scale(0.08 -0.08)">
     <use xlink:href="#DejaVuSerif-Bold-30"/>
     <use xlink:href="#DejaVuSerif-Bold-2e" x="69.580078"/>
     <use xlink:href="#DejaVuSerif-Bold-38" x="104.394531"/>
     <use xlink:href="#DejaVuSerif-Bold-36" x="173.974609"/>
     <use xlink:href="#DejaVuSerif-Bold-38" x="243.554688"/>
    </g>
   </g>
   <g id="text_61">
    <!-- 0.940 -->
    <g transform="translate(323.846157 41.739438) rotate(-90) scale(0.08 -0.08)">
     <use xlink:href="#DejaVuSerif-Bold-30"/>
     <use xlink:href="#DejaVuSerif-Bold-2e" x="69.580078"/>
     <use xlink:href="#DejaVuSerif-Bold-39" x="104.394531"/>
     <use xlink:href="#DejaVuSerif-Bold-34" x="173.974609"/>
     <use xlink:href="#DejaVuSerif-Bold-30" x="243.554688"/>
    </g>
   </g>
   <g id="text_62">
    <!-- 0.845 -->
    <g transform="translate(441.304386 94.111099) rotate(-90) scale(0.08 -0.08)">
     <use xlink:href="#DejaVuSerif-Bold-30"/>
     <use xlink:href="#DejaVuSerif-Bold-2e" x="69.580078"/>
     <use xlink:href="#DejaVuSerif-Bold-38" x="104.394531"/>
     <use xlink:href="#DejaVuSerif-Bold-34" x="173.974609"/>
     <use xlink:href="#DejaVuSerif-Bold-35" x="243.554688"/>
    </g>
   </g>
   <g id="text_63">
    <!-- 0.738 -->
    <g transform="translate(558.762616 153.805089) rotate(-90) scale(0.08 -0.08)">
     <use xlink:href="#DejaVuSerif-Bold-30"/>
     <use xlink:href="#DejaVuSerif-Bold-2e" x="69.580078"/>
     <use xlink:href="#DejaVuSerif-Bold-37" x="104.394531"/>
     <use xlink:href="#DejaVuSerif-Bold-33" x="173.974609"/>
     <use xlink:href="#DejaVuSerif-Bold-38" x="243.554688"/>
    </g>
   </g>
   <g id="text_64">
    <!-- 0.911 -->
    <g transform="translate(676.220845 57.659141) rotate(-90) scale(0.08 -0.08)">
     <use xlink:href="#DejaVuSerif-Bold-30"/>
     <use xlink:href="#DejaVuSerif-Bold-2e" x="69.580078"/>
     <use xlink:href="#DejaVuSerif-Bold-39" x="104.394531"/>
     <use xlink:href="#DejaVuSerif-Bold-31" x="173.974609"/>
     <use xlink:href="#DejaVuSerif-Bold-31" x="243.554688"/>
    </g>
   </g>
   <g id="text_65">
    <!-- 0.788 -->
    <g transform="translate(793.679074 125.656064) rotate(-90) scale(0.08 -0.08)">
     <use xlink:href="#DejaVuSerif-Bold-30"/>
     <use xlink:href="#DejaVuSerif-Bold-2e" x="69.580078"/>
     <use xlink:href="#DejaVuSerif-Bold-37" x="104.394531"/>
     <use xlink:href="#DejaVuSerif-Bold-38" x="173.974609"/>
     <use xlink:href="#DejaVuSerif-Bold-38" x="243.554688"/>
    </g>
   </g>
   <g id="text_66">
    <!-- 0.935 -->
    <g transform="translate(911.137303 44.146883) rotate(-90) scale(0.08 -0.08)">
     <use xlink:href="#DejaVuSerif-Bold-30"/>
     <use xlink:href="#DejaVuSerif-Bold-2e" x="69.580078"/>
     <use xlink:href="#DejaVuSerif-Bold-39" x="104.394531"/>
     <use xlink:href="#DejaVuSerif-Bold-33" x="173.974609"/>
     <use xlink:href="#DejaVuSerif-Bold-35" x="243.554688"/>
    </g>
   </g>
   <g id="legend_1">
    <g id="patch_56">
     <path d="M 254.053906 27.304041 
L 767.438906 27.304041 
Q 769.038906 27.304041 769.038906 25.704041 
L 769.038906 14.761541 
Q 769.038906 13.161541 767.438906 13.161541 
L 254.053906 13.161541 
Q 252.453906 13.161541 252.453906 14.761541 
L 252.453906 25.704041 
Q 252.453906 27.304041 254.053906 27.304041 
z
" style="fill: #ffffff; opacity: 0.8; stroke: #cccccc; stroke-linejoin: miter"/>
    </g>
    <g id="patch_57">
     <path d="M 255.653906 22.440291 
L 271.653906 22.440291 
L 271.653906 16.840291 
L 255.653906 16.840291 
z
" style="fill: #b7d4ea"/>
    </g>
    <g id="text_67">
     <!-- DNN -->
     <g transform="translate(278.053906 22.440291) scale(0.08 -0.08)">
      <defs>
       <path id="DejaVuSerif-Bold-44" d="M 2100 378 
L 2534 378 
Q 3266 378 3605 847 
Q 3944 1316 3944 2338 
Q 3944 3353 3606 3820 
Q 3269 4288 2534 4288 
L 2100 4288 
L 2100 378 
z
M 300 0 
L 300 378 
L 897 378 
L 897 4288 
L 300 4288 
L 300 4666 
L 2694 4666 
Q 3950 4666 4615 4066 
Q 5281 3466 5281 2338 
Q 5281 1203 4614 601 
Q 3947 0 2694 0 
L 300 0 
z
" transform="scale(0.015625)"/>
       <path id="DejaVuSerif-Bold-4e" d="M 281 0 
L 281 378 
L 878 378 
L 878 4288 
L 281 4288 
L 281 4666 
L 1741 4666 
L 4556 1363 
L 4556 4288 
L 3963 4288 
L 3963 4666 
L 5594 4666 
L 5594 4288 
L 4997 4288 
L 4997 0 
L 4178 0 
L 1319 3372 
L 1319 378 
L 1913 378 
L 1913 0 
L 281 0 
z
" transform="scale(0.015625)"/>
      </defs>
      <use xlink:href="#DejaVuSerif-Bold-44"/>
      <use xlink:href="#DejaVuSerif-Bold-4e" x="86.71875"/>
      <use xlink:href="#DejaVuSerif-Bold-4e" x="178.125"/>
     </g>
    </g>
    <g id="patch_58">
     <path d="M 315.616406 22.440291 
L 331.616406 22.440291 
L 331.616406 16.840291 
L 315.616406 16.840291 
z
" style="fill: #a6cee4"/>
    </g>
    <g id="text_68">
     <!-- RF -->
     <g transform="translate(338.016406 22.440291) scale(0.08 -0.08)">
      <use xlink:href="#DejaVuSerif-Bold-52"/>
      <use xlink:href="#DejaVuSerif-Bold-46" x="83.105469"/>
     </g>
    </g>
    <g id="patch_59">
     <path d="M 366.345156 22.440291 
L 382.345156 22.440291 
L 382.345156 16.840291 
L 366.345156 16.840291 
z
" style="fill: #94c4df"/>
    </g>
    <g id="text_69">
     <!-- GBDT -->
     <g transform="translate(388.745156 22.440291) scale(0.08 -0.08)">
      <defs>
       <path id="DejaVuSerif-Bold-47" d="M 4403 3200 
Q 4263 3819 3934 4095 
Q 3606 4372 3009 4372 
Q 2284 4372 1945 3880 
Q 1606 3388 1606 2328 
Q 1606 1278 1931 783 
Q 2256 288 2944 288 
Q 3206 288 3431 347 
Q 3656 406 3841 525 
L 3841 1806 
L 3278 1806 
L 3278 2181 
L 4959 2181 
L 4959 391 
Q 4434 147 3911 28 
Q 3388 -91 2841 -91 
Q 1641 -91 955 556 
Q 269 1203 269 2328 
Q 269 3456 955 4103 
Q 1641 4750 2841 4750 
Q 3341 4750 3825 4650 
Q 4309 4550 4800 4347 
L 4800 3200 
L 4403 3200 
z
" transform="scale(0.015625)"/>
       <path id="DejaVuSerif-Bold-42" d="M 300 0 
L 300 378 
L 897 378 
L 897 4288 
L 300 4288 
L 300 4666 
L 3066 4666 
Q 3919 4666 4347 4378 
Q 4775 4091 4775 3513 
Q 4775 3097 4479 2853 
Q 4184 2609 3603 2547 
Q 4306 2481 4681 2172 
Q 5056 1863 5056 1350 
Q 5056 656 4532 328 
Q 4009 0 2894 0 
L 300 0 
z
M 2100 2719 
L 2509 2719 
Q 3047 2719 3306 2914 
Q 3566 3109 3566 3513 
Q 3566 3919 3314 4103 
Q 3063 4288 2509 4288 
L 2100 4288 
L 2100 2719 
z
M 2100 378 
L 2547 378 
Q 3144 378 3431 615 
Q 3719 853 3719 1350 
Q 3719 1850 3428 2097 
Q 3138 2344 2547 2344 
L 2100 2344 
L 2100 378 
z
" transform="scale(0.015625)"/>
       <path id="DejaVuSerif-Bold-54" d="M 1159 0 
L 1159 378 
L 1778 378 
L 1778 4238 
L 500 4238 
L 500 3500 
L 72 3500 
L 72 4666 
L 4697 4666 
L 4697 3500 
L 4275 3500 
L 4275 4238 
L 2988 4238 
L 2988 378 
L 3609 378 
L 3609 0 
L 1159 0 
z
" transform="scale(0.015625)"/>
      </defs>
      <use xlink:href="#DejaVuSerif-Bold-47"/>
      <use xlink:href="#DejaVuSerif-Bold-42" x="85.400391"/>
      <use xlink:href="#DejaVuSerif-Bold-44" x="169.921875"/>
      <use xlink:href="#DejaVuSerif-Bold-54" x="256.640625"/>
     </g>
    </g>
    <g id="patch_60">
     <path d="M 431.230156 22.440291 
L 447.230156 22.440291 
L 447.230156 16.840291 
L 431.230156 16.840291 
z
" style="fill: #7fb9da"/>
    </g>
    <g id="text_70">
     <!-- DNN-RF -->
     <g transform="translate(453.630156 22.440291) scale(0.08 -0.08)">
      <defs>
       <path id="DejaVuSerif-Bold-2d" d="M 347 2138 
L 2309 2138 
L 2309 1294 
L 347 1294 
L 347 2138 
z
" transform="scale(0.015625)"/>
      </defs>
      <use xlink:href="#DejaVuSerif-Bold-44"/>
      <use xlink:href="#DejaVuSerif-Bold-4e" x="86.71875"/>
      <use xlink:href="#DejaVuSerif-Bold-4e" x="178.125"/>
      <use xlink:href="#DejaVuSerif-Bold-2d" x="269.53125"/>
      <use xlink:href="#DejaVuSerif-Bold-52" x="311.035156"/>
      <use xlink:href="#DejaVuSerif-Bold-46" x="394.140625"/>
     </g>
    </g>
    <g id="patch_61">
     <path d="M 506.841406 22.440291 
L 522.841406 22.440291 
L 522.841406 16.840291 
L 506.841406 16.840291 
z
" style="fill: #6aaed6"/>
    </g>
    <g id="text_71">
     <!-- DNN-GBDT -->
     <g transform="translate(529.241406 22.440291) scale(0.08 -0.08)">
      <use xlink:href="#DejaVuSerif-Bold-44"/>
      <use xlink:href="#DejaVuSerif-Bold-4e" x="86.71875"/>
      <use xlink:href="#DejaVuSerif-Bold-4e" x="178.125"/>
      <use xlink:href="#DejaVuSerif-Bold-2d" x="269.53125"/>
      <use xlink:href="#DejaVuSerif-Bold-47" x="311.035156"/>
      <use xlink:href="#DejaVuSerif-Bold-42" x="396.435547"/>
      <use xlink:href="#DejaVuSerif-Bold-44" x="480.957031"/>
      <use xlink:href="#DejaVuSerif-Bold-54" x="567.675781"/>
     </g>
    </g>
    <g id="patch_62">
     <path d="M 596.608906 22.440291 
L 612.608906 22.440291 
L 612.608906 16.840291 
L 596.608906 16.840291 
z
" style="fill: #5ba3d0"/>
    </g>
    <g id="text_72">
     <!-- RF-GBDT -->
     <g transform="translate(619.008906 22.440291) scale(0.08 -0.08)">
      <use xlink:href="#DejaVuSerif-Bold-52"/>
      <use xlink:href="#DejaVuSerif-Bold-46" x="83.105469"/>
      <use xlink:href="#DejaVuSerif-Bold-2d" x="149.601562"/>
      <use xlink:href="#DejaVuSerif-Bold-47" x="191.105469"/>
      <use xlink:href="#DejaVuSerif-Bold-42" x="276.505859"/>
      <use xlink:href="#DejaVuSerif-Bold-44" x="361.027344"/>
      <use xlink:href="#DejaVuSerif-Bold-54" x="447.746094"/>
     </g>
    </g>
    <g id="patch_63">
     <path d="M 676.782656 22.440291 
L 692.782656 22.440291 
L 692.782656 16.840291 
L 676.782656 16.840291 
z
" style="fill: #4a98c9"/>
    </g>
    <g id="text_73">
     <!-- DNN-RF-GBDT -->
     <g transform="translate(699.182656 22.440291) scale(0.08 -0.08)">
      <use xlink:href="#DejaVuSerif-Bold-44"/>
      <use xlink:href="#DejaVuSerif-Bold-4e" x="86.71875"/>
      <use xlink:href="#DejaVuSerif-Bold-4e" x="178.125"/>
      <use xlink:href="#DejaVuSerif-Bold-2d" x="269.53125"/>
      <use xlink:href="#DejaVuSerif-Bold-52" x="311.035156"/>
      <use xlink:href="#DejaVuSerif-Bold-46" x="394.140625"/>
      <use xlink:href="#DejaVuSerif-Bold-2d" x="460.636719"/>
      <use xlink:href="#DejaVuSerif-Bold-47" x="502.140625"/>
      <use xlink:href="#DejaVuSerif-Bold-42" x="587.541016"/>
      <use xlink:href="#DejaVuSerif-Bold-44" x="672.0625"/>
      <use xlink:href="#DejaVuSerif-Bold-54" x="758.78125"/>
     </g>
    </g>
   </g>
  </g>
 </g>
 <defs>
  <clipPath id="p54ba612586">
   <rect x="64.346406" y="11.379141" width="892.8" height="221.76"/>
  </clipPath>
 </defs>
</svg>
