<?xml version="1.0" encoding="utf-8" standalone="no"?>
<!DOCTYPE svg PUBLIC "-//W3C//DTD SVG 1.1//EN"
  "http://www.w3.org/Graphics/SVG/1.1/DTD/svg11.dtd">
<svg xmlns:xlink="http://www.w3.org/1999/xlink" width="864pt" height="360pt" viewBox="0 0 864 360" xmlns="http://www.w3.org/2000/svg" version="1.1">
 <metadata>
  <rdf:RDF xmlns:dc="http://purl.org/dc/elements/1.1/" xmlns:cc="http://creativecommons.org/ns#" xmlns:rdf="http://www.w3.org/1999/02/22-rdf-syntax-ns#">
   <cc:Work>
    <dc:type rdf:resource="http://purl.org/dc/dcmitype/StillImage"/>
    <dc:date>2024-06-02T21:52:38.854718</dc:date>
    <dc:format>image/svg+xml</dc:format>
    <dc:creator>
     <cc:Agent>
      <dc:title>Matplotlib v3.6.0, https://matplotlib.org/</dc:title>
     </cc:Agent>
    </dc:creator>
   </cc:Work>
  </rdf:RDF>
 </metadata>
 <defs>
  <style type="text/css">*{stroke-linejoin: round; stroke-linecap: butt}</style>
 </defs>
 <g id="figure_1">
  <g id="patch_1">
   <path d="M 0 360 
L 864 360 
L 864 0 
L 0 0 
z
" style="fill: #ffffff"/>
  </g>
  <g id="axes_1">
   <g id="patch_2">
    <path d="M 108 320.4 
L 412.363636 320.4 
L 412.363636 43.2 
L 108 43.2 
z
" style="fill: #ffffff"/>
   </g>
   <g id="QuadMesh_1">
    <path d="M 108 43.2 
L 260.181818 43.2 
L 260.181818 181.8 
L 108 181.8 
L 108 43.2 
" clip-path="url(#pbabe4c8a8c)" style="fill: #08306b"/>
    <path d="M 260.181818 43.2 
L 412.363636 43.2 
L 412.363636 181.8 
L 260.181818 181.8 
L 260.181818 43.2 
" clip-path="url(#pbabe4c8a8c)" style="fill: #f1f7fd"/>
    <path d="M 108 181.8 
L 260.181818 181.8 
L 260.181818 320.4 
L 108 320.4 
L 108 181.8 
" clip-path="url(#pbabe4c8a8c)" style="fill: #f7fbff"/>
    <path d="M 260.181818 181.8 
L 412.363636 181.8 
L 412.363636 320.4 
L 260.181818 320.4 
L 260.181818 181.8 
" clip-path="url(#pbabe4c8a8c)" style="fill: #0a549e"/>
   </g>
   <g id="matplotlib.axis_1">
    <g id="xtick_1">
     <g id="line2d_1">
      <defs>
       <path id="mca6f0235fa" d="M 0 0 
L 0 3.5 
" style="stroke: #000000; stroke-width: 0.8"/>
      </defs>
      <g>
       <use xlink:href="#mca6f0235fa" x="184.090909" y="320.4" style="stroke: #000000; stroke-width: 0.8"/>
      </g>
     </g>
     <g id="text_1">
      <!-- 0 -->
      <g transform="translate(180.612003 334.998438) scale(0.1 -0.1)">
       <defs>
        <path id="DejaVuSerif-Bold-30" d="M 2228 275 
Q 2603 275 2742 615 
Q 2881 956 2881 2328 
Q 2881 3691 2742 4037 
Q 2603 4384 2228 4384 
Q 1853 4384 1714 4043 
Q 1575 3703 1575 2328 
Q 1575 956 1714 615 
Q 1853 275 2228 275 
z
M 2228 -91 
Q 1294 -91 797 532 
Q 300 1156 300 2328 
Q 300 3500 797 4125 
Q 1294 4750 2228 4750 
Q 3159 4750 3656 4125 
Q 4153 3500 4153 2328 
Q 4153 1156 3656 532 
Q 3159 -91 2228 -91 
z
" transform="scale(0.015625)"/>
       </defs>
       <use xlink:href="#DejaVuSerif-Bold-30"/>
      </g>
     </g>
    </g>
    <g id="xtick_2">
     <g id="line2d_2">
      <g>
       <use xlink:href="#mca6f0235fa" x="336.272727" y="320.4" style="stroke: #000000; stroke-width: 0.8"/>
      </g>
     </g>
     <g id="text_2">
      <!-- 1 -->
      <g transform="translate(332.793821 334.998438) scale(0.1 -0.1)">
       <defs>
        <path id="DejaVuSerif-Bold-31" d="M 878 0 
L 878 378 
L 1753 378 
L 1753 4153 
L 781 3578 
L 781 4044 
L 1953 4750 
L 2938 4750 
L 2938 378 
L 3816 378 
L 3816 0 
L 878 0 
z
" transform="scale(0.015625)"/>
       </defs>
       <use xlink:href="#DejaVuSerif-Bold-31"/>
      </g>
     </g>
    </g>
    <g id="text_3">
     <!-- Predicted Class -->
     <g transform="translate(220.572443 348.676562) scale(0.1 -0.1)">
      <defs>
       <path id="DejaVuSerif-50" d="M 1581 2375 
L 2406 2375 
Q 2872 2375 3115 2626 
Q 3359 2878 3359 3353 
Q 3359 3831 3115 4081 
Q 2872 4331 2406 4331 
L 1581 4331 
L 1581 2375 
z
M 353 0 
L 353 331 
L 947 331 
L 947 4331 
L 353 4331 
L 353 4666 
L 2559 4666 
Q 3259 4666 3668 4311 
Q 4078 3956 4078 3353 
Q 4078 2753 3668 2397 
Q 3259 2041 2559 2041 
L 1581 2041 
L 1581 331 
L 2303 331 
L 2303 0 
L 353 0 
z
" transform="scale(0.015625)"/>
       <path id="DejaVuSerif-72" d="M 3059 3328 
L 3059 2497 
L 2728 2497 
Q 2713 2744 2591 2866 
Q 2469 2988 2234 2988 
Q 1809 2988 1582 2694 
Q 1356 2400 1356 1850 
L 1356 331 
L 2022 331 
L 2022 0 
L 263 0 
L 263 331 
L 781 331 
L 781 2994 
L 231 2994 
L 231 3322 
L 1356 3322 
L 1356 2731 
Q 1525 3078 1790 3245 
Q 2056 3413 2438 3413 
Q 2578 3413 2733 3391 
Q 2888 3369 3059 3328 
z
" transform="scale(0.015625)"/>
       <path id="DejaVuSerif-65" d="M 3469 1600 
L 991 1600 
L 991 1575 
Q 991 903 1244 561 
Q 1497 219 1991 219 
Q 2369 219 2611 417 
Q 2853 616 2950 1006 
L 3413 1006 
Q 3275 459 2904 184 
Q 2534 -91 1931 -91 
Q 1203 -91 761 389 
Q 319 869 319 1663 
Q 319 2450 753 2931 
Q 1188 3413 1894 3413 
Q 2647 3413 3050 2948 
Q 3453 2484 3469 1600 
z
M 2791 1931 
Q 2772 2513 2545 2808 
Q 2319 3103 1894 3103 
Q 1497 3103 1269 2806 
Q 1041 2509 991 1931 
L 2791 1931 
z
" transform="scale(0.015625)"/>
       <path id="DejaVuSerif-64" d="M 3359 331 
L 3909 331 
L 3909 0 
L 2784 0 
L 2784 519 
Q 2616 206 2355 57 
Q 2094 -91 1709 -91 
Q 1097 -91 708 395 
Q 319 881 319 1663 
Q 319 2444 706 2928 
Q 1094 3413 1709 3413 
Q 2094 3413 2355 3264 
Q 2616 3116 2784 2803 
L 2784 4531 
L 2241 4531 
L 2241 4863 
L 3359 4863 
L 3359 331 
z
M 2784 1497 
L 2784 1825 
Q 2784 2422 2554 2737 
Q 2325 3053 1888 3053 
Q 1444 3053 1217 2703 
Q 991 2353 991 1663 
Q 991 975 1217 622 
Q 1444 269 1888 269 
Q 2325 269 2554 583 
Q 2784 897 2784 1497 
z
" transform="scale(0.015625)"/>
       <path id="DejaVuSerif-69" d="M 622 4353 
Q 622 4497 726 4603 
Q 831 4709 978 4709 
Q 1122 4709 1226 4603 
Q 1331 4497 1331 4353 
Q 1331 4206 1228 4103 
Q 1125 4000 978 4000 
Q 831 4000 726 4103 
Q 622 4206 622 4353 
z
M 1356 331 
L 1900 331 
L 1900 0 
L 231 0 
L 231 331 
L 781 331 
L 781 2988 
L 231 2988 
L 231 3322 
L 1356 3322 
L 1356 331 
z
" transform="scale(0.015625)"/>
       <path id="DejaVuSerif-63" d="M 3291 997 
Q 3169 466 2822 187 
Q 2475 -91 1925 -91 
Q 1200 -91 759 389 
Q 319 869 319 1663 
Q 319 2459 759 2936 
Q 1200 3413 1925 3413 
Q 2241 3413 2553 3339 
Q 2866 3266 3181 3116 
L 3181 2266 
L 2847 2266 
Q 2781 2703 2561 2903 
Q 2341 3103 1931 3103 
Q 1466 3103 1228 2742 
Q 991 2381 991 1663 
Q 991 944 1227 581 
Q 1463 219 1931 219 
Q 2303 219 2525 412 
Q 2747 606 2828 997 
L 3291 997 
z
" transform="scale(0.015625)"/>
       <path id="DejaVuSerif-74" d="M 691 2988 
L 184 2988 
L 184 3322 
L 691 3322 
L 691 4353 
L 1269 4353 
L 1269 3322 
L 2350 3322 
L 2350 2988 
L 1269 2988 
L 1269 878 
Q 1269 456 1350 337 
Q 1431 219 1650 219 
Q 1875 219 1978 351 
Q 2081 484 2088 781 
L 2522 781 
Q 2497 328 2275 118 
Q 2053 -91 1600 -91 
Q 1103 -91 897 129 
Q 691 350 691 878 
L 691 2988 
z
" transform="scale(0.015625)"/>
       <path id="DejaVuSerif-20" transform="scale(0.015625)"/>
       <path id="DejaVuSerif-43" d="M 4513 1234 
Q 4306 581 3820 245 
Q 3334 -91 2591 -91 
Q 2134 -91 1743 65 
Q 1353 222 1050 525 
Q 700 875 529 1320 
Q 359 1766 359 2328 
Q 359 3416 987 4083 
Q 1616 4750 2644 4750 
Q 3025 4750 3456 4650 
Q 3888 4550 4384 4347 
L 4384 3272 
L 4031 3272 
Q 3916 3859 3567 4137 
Q 3219 4416 2591 4416 
Q 1844 4416 1459 3886 
Q 1075 3356 1075 2328 
Q 1075 1303 1459 773 
Q 1844 244 2591 244 
Q 3113 244 3450 492 
Q 3788 741 3938 1234 
L 4513 1234 
z
" transform="scale(0.015625)"/>
       <path id="DejaVuSerif-6c" d="M 1313 331 
L 1856 331 
L 1856 0 
L 184 0 
L 184 331 
L 738 331 
L 738 4531 
L 184 4531 
L 184 4863 
L 1313 4863 
L 1313 331 
z
" transform="scale(0.015625)"/>
       <path id="DejaVuSerif-61" d="M 2547 1044 
L 2547 1747 
L 1806 1747 
Q 1378 1747 1168 1562 
Q 959 1378 959 997 
Q 959 650 1171 447 
Q 1384 244 1747 244 
Q 2106 244 2326 466 
Q 2547 688 2547 1044 
z
M 3122 2075 
L 3122 331 
L 3634 331 
L 3634 0 
L 2547 0 
L 2547 359 
Q 2356 128 2106 18 
Q 1856 -91 1522 -91 
Q 969 -91 644 203 
Q 319 497 319 997 
Q 319 1513 691 1797 
Q 1063 2081 1741 2081 
L 2547 2081 
L 2547 2309 
Q 2547 2688 2317 2895 
Q 2088 3103 1672 3103 
Q 1328 3103 1125 2947 
Q 922 2791 872 2484 
L 575 2484 
L 575 3156 
Q 875 3284 1158 3348 
Q 1441 3413 1709 3413 
Q 2400 3413 2761 3070 
Q 3122 2728 3122 2075 
z
" transform="scale(0.015625)"/>
       <path id="DejaVuSerif-73" d="M 359 184 
L 359 959 
L 691 959 
Q 703 588 923 403 
Q 1144 219 1575 219 
Q 1963 219 2166 364 
Q 2369 509 2369 788 
Q 2369 1006 2220 1140 
Q 2072 1275 1594 1428 
L 1178 1569 
Q 750 1706 558 1912 
Q 366 2119 366 2438 
Q 366 2894 700 3153 
Q 1034 3413 1625 3413 
Q 1888 3413 2178 3344 
Q 2469 3275 2778 3144 
L 2778 2419 
L 2447 2419 
Q 2434 2741 2221 2922 
Q 2009 3103 1644 3103 
Q 1281 3103 1095 2975 
Q 909 2847 909 2591 
Q 909 2381 1050 2254 
Q 1191 2128 1613 1997 
L 2069 1856 
Q 2541 1709 2748 1489 
Q 2956 1269 2956 922 
Q 2956 450 2595 179 
Q 2234 -91 1600 -91 
Q 1278 -91 972 -22 
Q 666 47 359 184 
z
" transform="scale(0.015625)"/>
      </defs>
      <use xlink:href="#DejaVuSerif-50"/>
      <use xlink:href="#DejaVuSerif-72" x="67.285156"/>
      <use xlink:href="#DejaVuSerif-65" x="115.087891"/>
      <use xlink:href="#DejaVuSerif-64" x="174.267578"/>
      <use xlink:href="#DejaVuSerif-69" x="238.28125"/>
      <use xlink:href="#DejaVuSerif-63" x="270.263672"/>
      <use xlink:href="#DejaVuSerif-74" x="326.269531"/>
      <use xlink:href="#DejaVuSerif-65" x="366.455078"/>
      <use xlink:href="#DejaVuSerif-64" x="425.634766"/>
      <use xlink:href="#DejaVuSerif-20" x="489.648438"/>
      <use xlink:href="#DejaVuSerif-43" x="521.435547"/>
      <use xlink:href="#DejaVuSerif-6c" x="597.949219"/>
      <use xlink:href="#DejaVuSerif-61" x="629.931641"/>
      <use xlink:href="#DejaVuSerif-73" x="689.550781"/>
      <use xlink:href="#DejaVuSerif-73" x="740.869141"/>
     </g>
    </g>
   </g>
   <g id="matplotlib.axis_2">
    <g id="ytick_1">
     <g id="line2d_3">
      <defs>
       <path id="mb81d47b07a" d="M 0 0 
L -3.5 0 
" style="stroke: #000000; stroke-width: 0.8"/>
      </defs>
      <g>
       <use xlink:href="#mb81d47b07a" x="108" y="112.5" style="stroke: #000000; stroke-width: 0.8"/>
      </g>
     </g>
     <g id="text_4">
      <!-- 0 -->
      <g transform="translate(98.920312 115.978906) rotate(-90) scale(0.1 -0.1)">
       <use xlink:href="#DejaVuSerif-Bold-30"/>
      </g>
     </g>
    </g>
    <g id="ytick_2">
     <g id="line2d_4">
      <g>
       <use xlink:href="#mb81d47b07a" x="108" y="251.1" style="stroke: #000000; stroke-width: 0.8"/>
      </g>
     </g>
     <g id="text_5">
      <!-- 1 -->
      <g transform="translate(98.920312 254.578906) rotate(-90) scale(0.1 -0.1)">
       <use xlink:href="#DejaVuSerif-Bold-31"/>
      </g>
     </g>
    </g>
    <g id="text_6">
     <!-- True Class -->
     <g transform="translate(85.242188 208.83125) rotate(-90) scale(0.1 -0.1)">
      <defs>
       <path id="DejaVuSerif-54" d="M 1222 0 
L 1222 331 
L 1819 331 
L 1819 4294 
L 447 4294 
L 447 3566 
L 63 3566 
L 63 4666 
L 4206 4666 
L 4206 3566 
L 3822 3566 
L 3822 4294 
L 2450 4294 
L 2450 331 
L 3047 331 
L 3047 0 
L 1222 0 
z
" transform="scale(0.015625)"/>
       <path id="DejaVuSerif-75" d="M 2266 3322 
L 3341 3322 
L 3341 331 
L 3884 331 
L 3884 0 
L 2766 0 
L 2766 588 
Q 2606 256 2353 82 
Q 2100 -91 1766 -91 
Q 1213 -91 952 223 
Q 691 538 691 1209 
L 691 2988 
L 172 2988 
L 172 3322 
L 1269 3322 
L 1269 1388 
Q 1269 781 1417 556 
Q 1566 331 1947 331 
Q 2347 331 2556 625 
Q 2766 919 2766 1478 
L 2766 2988 
L 2266 2988 
L 2266 3322 
z
" transform="scale(0.015625)"/>
      </defs>
      <use xlink:href="#DejaVuSerif-54"/>
      <use xlink:href="#DejaVuSerif-72" x="66.699219"/>
      <use xlink:href="#DejaVuSerif-75" x="114.501953"/>
      <use xlink:href="#DejaVuSerif-65" x="178.90625"/>
      <use xlink:href="#DejaVuSerif-20" x="238.085938"/>
      <use xlink:href="#DejaVuSerif-43" x="269.873047"/>
      <use xlink:href="#DejaVuSerif-6c" x="346.386719"/>
      <use xlink:href="#DejaVuSerif-61" x="378.369141"/>
      <use xlink:href="#DejaVuSerif-73" x="437.988281"/>
      <use xlink:href="#DejaVuSerif-73" x="489.306641"/>
     </g>
    </g>
   </g>
   <g id="text_7">
    <!-- 225 -->
    <g style="fill: #ffffff" transform="translate(173.65419 115.259375) scale(0.1 -0.1)">
     <defs>
      <path id="DejaVuSerif-Bold-32" d="M 844 3513 
L 469 3513 
L 469 4519 
Q 850 4634 1223 4692 
Q 1597 4750 1978 4750 
Q 2869 4750 3367 4386 
Q 3866 4022 3866 3372 
Q 3866 2909 3591 2542 
Q 3316 2175 2541 1672 
L 1241 819 
L 3450 819 
L 3450 1369 
L 3878 1369 
L 3878 0 
L 428 0 
L 428 763 
L 1119 1241 
Q 2003 1850 2297 2278 
Q 2591 2706 2591 3278 
Q 2591 3819 2367 4101 
Q 2144 4384 1716 4384 
Q 1347 4384 1125 4161 
Q 903 3938 844 3513 
z
" transform="scale(0.015625)"/>
      <path id="DejaVuSerif-Bold-35" d="M 3609 4666 
L 3609 3847 
L 1113 3847 
L 1113 2822 
Q 1319 2981 1572 3062 
Q 1825 3144 2106 3144 
Q 2969 3144 3469 2708 
Q 3969 2272 3969 1522 
Q 3969 759 3469 334 
Q 2969 -91 2069 -91 
Q 1688 -91 1311 -28 
Q 934 34 525 166 
L 525 1184 
L 900 1184 
Q 919 725 1139 500 
Q 1359 275 1791 275 
Q 2250 275 2472 583 
Q 2694 891 2694 1522 
Q 2694 2144 2476 2451 
Q 2259 2759 1819 2759 
Q 1581 2759 1395 2661 
Q 1209 2563 1050 2356 
L 738 2356 
L 738 4666 
L 3609 4666 
z
" transform="scale(0.015625)"/>
     </defs>
     <use xlink:href="#DejaVuSerif-Bold-32"/>
     <use xlink:href="#DejaVuSerif-Bold-32" x="69.580078"/>
     <use xlink:href="#DejaVuSerif-Bold-35" x="139.160156"/>
    </g>
   </g>
   <g id="text_8">
    <!-- 20 -->
    <g style="fill: #262626" transform="translate(329.314915 115.259375) scale(0.1 -0.1)">
     <use xlink:href="#DejaVuSerif-Bold-32"/>
     <use xlink:href="#DejaVuSerif-Bold-30" x="69.580078"/>
    </g>
   </g>
   <g id="text_9">
    <!-- 13 -->
    <g style="fill: #262626" transform="translate(177.133097 253.859375) scale(0.1 -0.1)">
     <defs>
      <path id="DejaVuSerif-Bold-33" d="M 550 4531 
Q 963 4641 1350 4695 
Q 1738 4750 2106 4750 
Q 2950 4750 3401 4448 
Q 3853 4147 3853 3584 
Q 3853 3163 3593 2900 
Q 3334 2638 2834 2547 
Q 3444 2450 3744 2131 
Q 4044 1813 4044 1259 
Q 4044 606 3526 257 
Q 3009 -91 2028 -91 
Q 1659 -91 1267 -28 
Q 875 34 447 159 
L 447 1184 
L 825 1184 
Q 859 741 1103 508 
Q 1347 275 1778 275 
Q 2253 275 2512 539 
Q 2772 803 2772 1288 
Q 2772 1794 2501 2069 
Q 2231 2344 1734 2344 
L 1528 2344 
L 1528 2719 
L 1691 2719 
Q 2150 2719 2381 2931 
Q 2613 3144 2613 3566 
Q 2613 3963 2395 4173 
Q 2178 4384 1772 4384 
Q 1403 4384 1187 4182 
Q 972 3981 928 3597 
L 550 3597 
L 550 4531 
z
" transform="scale(0.015625)"/>
     </defs>
     <use xlink:href="#DejaVuSerif-Bold-31"/>
     <use xlink:href="#DejaVuSerif-Bold-33" x="69.580078"/>
    </g>
   </g>
   <g id="text_10">
    <!-- 196 -->
    <g style="fill: #ffffff" transform="translate(325.836009 253.859375) scale(0.1 -0.1)">
     <defs>
      <path id="DejaVuSerif-Bold-39" d="M 2181 4384 
Q 1859 4384 1723 4111 
Q 1588 3838 1588 3163 
Q 1588 2488 1723 2214 
Q 1859 1941 2181 1941 
Q 2503 1941 2640 2214 
Q 2778 2488 2778 3163 
Q 2778 3838 2640 4111 
Q 2503 4384 2181 4384 
z
M 2878 1900 
Q 2672 1734 2420 1651 
Q 2169 1569 1875 1569 
Q 1163 1569 755 1986 
Q 347 2403 347 3138 
Q 347 3913 803 4331 
Q 1259 4750 2106 4750 
Q 3063 4750 3556 4172 
Q 4050 3594 4050 2478 
Q 4050 1206 3503 557 
Q 2956 -91 1881 -91 
Q 1600 -91 1278 -44 
Q 956 3 588 97 
L 588 922 
L 966 922 
Q 1044 603 1261 439 
Q 1478 275 1825 275 
Q 2375 275 2625 658 
Q 2875 1041 2878 1900 
z
" transform="scale(0.015625)"/>
      <path id="DejaVuSerif-Bold-36" d="M 1575 2766 
Q 1778 2928 2029 3009 
Q 2281 3091 2578 3091 
Q 3294 3091 3701 2672 
Q 4109 2253 4109 1522 
Q 4109 750 3650 329 
Q 3191 -91 2344 -91 
Q 1388 -91 895 486 
Q 403 1063 403 2181 
Q 403 3453 950 4101 
Q 1497 4750 2572 4750 
Q 2853 4750 3175 4703 
Q 3497 4656 3866 4563 
L 3866 3738 
L 3488 3738 
Q 3409 4056 3192 4220 
Q 2975 4384 2631 4384 
Q 2075 4384 1826 4003 
Q 1578 3622 1575 2766 
z
M 2272 275 
Q 2594 275 2731 548 
Q 2869 822 2869 1497 
Q 2869 2172 2731 2445 
Q 2594 2719 2272 2719 
Q 1950 2719 1814 2445 
Q 1678 2172 1678 1497 
Q 1678 822 1814 548 
Q 1950 275 2272 275 
z
" transform="scale(0.015625)"/>
     </defs>
     <use xlink:href="#DejaVuSerif-Bold-31"/>
     <use xlink:href="#DejaVuSerif-Bold-39" x="69.580078"/>
     <use xlink:href="#DejaVuSerif-Bold-36" x="139.160156"/>
    </g>
   </g>
   <g id="text_11">
    <!-- Confusion Matrix of Train -->
    <g transform="translate(181.467443 37.2) scale(0.12 -0.12)">
     <defs>
      <path id="DejaVuSerif-6f" d="M 1925 219 
Q 2388 219 2623 584 
Q 2859 950 2859 1663 
Q 2859 2375 2623 2739 
Q 2388 3103 1925 3103 
Q 1463 3103 1227 2739 
Q 991 2375 991 1663 
Q 991 950 1228 584 
Q 1466 219 1925 219 
z
M 1925 -91 
Q 1200 -91 759 389 
Q 319 869 319 1663 
Q 319 2456 758 2934 
Q 1197 3413 1925 3413 
Q 2653 3413 3092 2934 
Q 3531 2456 3531 1663 
Q 3531 869 3092 389 
Q 2653 -91 1925 -91 
z
" transform="scale(0.015625)"/>
      <path id="DejaVuSerif-6e" d="M 263 0 
L 263 331 
L 781 331 
L 781 2988 
L 231 2988 
L 231 3322 
L 1356 3322 
L 1356 2731 
Q 1516 3069 1770 3241 
Q 2025 3413 2363 3413 
Q 2913 3413 3172 3097 
Q 3431 2781 3431 2113 
L 3431 331 
L 3944 331 
L 3944 0 
L 2356 0 
L 2356 331 
L 2853 331 
L 2853 1931 
Q 2853 2541 2703 2767 
Q 2553 2994 2175 2994 
Q 1775 2994 1565 2701 
Q 1356 2409 1356 1850 
L 1356 331 
L 1856 331 
L 1856 0 
L 263 0 
z
" transform="scale(0.015625)"/>
      <path id="DejaVuSerif-66" d="M 2753 4078 
L 2450 4078 
Q 2447 4313 2317 4434 
Q 2188 4556 1941 4556 
Q 1619 4556 1487 4379 
Q 1356 4203 1356 3750 
L 1356 3322 
L 2284 3322 
L 2284 2988 
L 1356 2988 
L 1356 331 
L 2094 331 
L 2094 0 
L 231 0 
L 231 331 
L 781 331 
L 781 2988 
L 231 2988 
L 231 3322 
L 781 3322 
L 781 3738 
Q 781 4294 1070 4578 
Q 1359 4863 1919 4863 
Q 2128 4863 2337 4825 
Q 2547 4788 2753 4709 
L 2753 4078 
z
" transform="scale(0.015625)"/>
      <path id="DejaVuSerif-4d" d="M 353 0 
L 353 331 
L 947 331 
L 947 4331 
L 319 4331 
L 319 4666 
L 1678 4666 
L 3316 1344 
L 4953 4666 
L 6228 4666 
L 6228 4331 
L 5606 4331 
L 5606 331 
L 6203 331 
L 6203 0 
L 4378 0 
L 4378 331 
L 4972 331 
L 4972 3938 
L 3372 684 
L 2931 684 
L 1331 3938 
L 1331 331 
L 1925 331 
L 1925 0 
L 353 0 
z
" transform="scale(0.015625)"/>
      <path id="DejaVuSerif-78" d="M 1863 2028 
L 2559 2988 
L 2113 2988 
L 2113 3322 
L 3391 3322 
L 3391 2988 
L 2950 2988 
L 2059 1759 
L 3097 331 
L 3531 331 
L 3531 0 
L 1997 0 
L 1997 331 
L 2419 331 
L 1697 1325 
L 972 331 
L 1403 331 
L 1403 0 
L 141 0 
L 141 331 
L 581 331 
L 1497 1594 
L 488 2988 
L 78 2988 
L 78 3322 
L 1563 3322 
L 1563 2988 
L 1166 2988 
L 1863 2028 
z
" transform="scale(0.015625)"/>
     </defs>
     <use xlink:href="#DejaVuSerif-43"/>
     <use xlink:href="#DejaVuSerif-6f" x="76.513672"/>
     <use xlink:href="#DejaVuSerif-6e" x="136.71875"/>
     <use xlink:href="#DejaVuSerif-66" x="201.123047"/>
     <use xlink:href="#DejaVuSerif-75" x="238.134766"/>
     <use xlink:href="#DejaVuSerif-73" x="302.539062"/>
     <use xlink:href="#DejaVuSerif-69" x="353.857422"/>
     <use xlink:href="#DejaVuSerif-6f" x="385.839844"/>
     <use xlink:href="#DejaVuSerif-6e" x="446.044922"/>
     <use xlink:href="#DejaVuSerif-20" x="510.449219"/>
     <use xlink:href="#DejaVuSerif-4d" x="542.236328"/>
     <use xlink:href="#DejaVuSerif-61" x="644.628906"/>
     <use xlink:href="#DejaVuSerif-74" x="704.248047"/>
     <use xlink:href="#DejaVuSerif-72" x="744.433594"/>
     <use xlink:href="#DejaVuSerif-69" x="792.236328"/>
     <use xlink:href="#DejaVuSerif-78" x="824.21875"/>
     <use xlink:href="#DejaVuSerif-20" x="880.615234"/>
     <use xlink:href="#DejaVuSerif-6f" x="912.402344"/>
     <use xlink:href="#DejaVuSerif-66" x="972.607422"/>
     <use xlink:href="#DejaVuSerif-20" x="1009.619141"/>
     <use xlink:href="#DejaVuSerif-54" x="1041.40625"/>
     <use xlink:href="#DejaVuSerif-72" x="1108.105469"/>
     <use xlink:href="#DejaVuSerif-61" x="1155.908203"/>
     <use xlink:href="#DejaVuSerif-69" x="1215.527344"/>
     <use xlink:href="#DejaVuSerif-6e" x="1247.509766"/>
    </g>
   </g>
  </g>
  <g id="axes_2">
   <g id="patch_3">
    <path d="M 473.236364 320.4 
L 777.6 320.4 
L 777.6 43.2 
L 473.236364 43.2 
z
" style="fill: #ffffff"/>
   </g>
   <g id="QuadMesh_2">
    <path d="M 473.236364 43.2 
L 625.418182 43.2 
L 625.418182 181.8 
L 473.236364 181.8 
L 473.236364 43.2 
" clip-path="url(#p86c21d630c)" style="fill: #08306b"/>
    <path d="M 625.418182 43.2 
L 777.6 43.2 
L 777.6 181.8 
L 625.418182 181.8 
L 625.418182 43.2 
" clip-path="url(#p86c21d630c)" style="fill: #f7fbff"/>
    <path d="M 473.236364 181.8 
L 625.418182 181.8 
L 625.418182 320.4 
L 473.236364 320.4 
L 473.236364 181.8 
" clip-path="url(#p86c21d630c)" style="fill: #eef5fc"/>
    <path d="M 625.418182 181.8 
L 777.6 181.8 
L 777.6 320.4 
L 625.418182 320.4 
L 625.418182 181.8 
" clip-path="url(#p86c21d630c)" style="fill: #2373b6"/>
   </g>
   <g id="matplotlib.axis_3">
    <g id="xtick_3">
     <g id="line2d_5">
      <g>
       <use xlink:href="#mca6f0235fa" x="549.327273" y="320.4" style="stroke: #000000; stroke-width: 0.8"/>
      </g>
     </g>
     <g id="text_12">
      <!-- 0 -->
      <g transform="translate(545.848366 334.998438) scale(0.1 -0.1)">
       <use xlink:href="#DejaVuSerif-Bold-30"/>
      </g>
     </g>
    </g>
    <g id="xtick_4">
     <g id="line2d_6">
      <g>
       <use xlink:href="#mca6f0235fa" x="701.509091" y="320.4" style="stroke: #000000; stroke-width: 0.8"/>
      </g>
     </g>
     <g id="text_13">
      <!-- 1 -->
      <g transform="translate(698.030185 334.998438) scale(0.1 -0.1)">
       <use xlink:href="#DejaVuSerif-Bold-31"/>
      </g>
     </g>
    </g>
    <g id="text_14">
     <!-- Predicted Class -->
     <g transform="translate(585.808807 348.676562) scale(0.1 -0.1)">
      <use xlink:href="#DejaVuSerif-50"/>
      <use xlink:href="#DejaVuSerif-72" x="67.285156"/>
      <use xlink:href="#DejaVuSerif-65" x="115.087891"/>
      <use xlink:href="#DejaVuSerif-64" x="174.267578"/>
      <use xlink:href="#DejaVuSerif-69" x="238.28125"/>
      <use xlink:href="#DejaVuSerif-63" x="270.263672"/>
      <use xlink:href="#DejaVuSerif-74" x="326.269531"/>
      <use xlink:href="#DejaVuSerif-65" x="366.455078"/>
      <use xlink:href="#DejaVuSerif-64" x="425.634766"/>
      <use xlink:href="#DejaVuSerif-20" x="489.648438"/>
      <use xlink:href="#DejaVuSerif-43" x="521.435547"/>
      <use xlink:href="#DejaVuSerif-6c" x="597.949219"/>
      <use xlink:href="#DejaVuSerif-61" x="629.931641"/>
      <use xlink:href="#DejaVuSerif-73" x="689.550781"/>
      <use xlink:href="#DejaVuSerif-73" x="740.869141"/>
     </g>
    </g>
   </g>
   <g id="matplotlib.axis_4">
    <g id="ytick_3">
     <g id="line2d_7">
      <g>
       <use xlink:href="#mb81d47b07a" x="473.236364" y="112.5" style="stroke: #000000; stroke-width: 0.8"/>
      </g>
     </g>
     <g id="text_15">
      <!-- 0 -->
      <g transform="translate(464.156676 115.978906) rotate(-90) scale(0.1 -0.1)">
       <use xlink:href="#DejaVuSerif-Bold-30"/>
      </g>
     </g>
    </g>
    <g id="ytick_4">
     <g id="line2d_8">
      <g>
       <use xlink:href="#mb81d47b07a" x="473.236364" y="251.1" style="stroke: #000000; stroke-width: 0.8"/>
      </g>
     </g>
     <g id="text_16">
      <!-- 1 -->
      <g transform="translate(464.156676 254.578906) rotate(-90) scale(0.1 -0.1)">
       <use xlink:href="#DejaVuSerif-Bold-31"/>
      </g>
     </g>
    </g>
    <g id="text_17">
     <!-- True Class -->
     <g transform="translate(450.478551 208.83125) rotate(-90) scale(0.1 -0.1)">
      <use xlink:href="#DejaVuSerif-54"/>
      <use xlink:href="#DejaVuSerif-72" x="66.699219"/>
      <use xlink:href="#DejaVuSerif-75" x="114.501953"/>
      <use xlink:href="#DejaVuSerif-65" x="178.90625"/>
      <use xlink:href="#DejaVuSerif-20" x="238.085938"/>
      <use xlink:href="#DejaVuSerif-43" x="269.873047"/>
      <use xlink:href="#DejaVuSerif-6c" x="346.386719"/>
      <use xlink:href="#DejaVuSerif-61" x="378.369141"/>
      <use xlink:href="#DejaVuSerif-73" x="437.988281"/>
      <use xlink:href="#DejaVuSerif-73" x="489.306641"/>
     </g>
    </g>
   </g>
   <g id="text_18">
    <!-- 54 -->
    <g style="fill: #ffffff" transform="translate(542.36946 115.259375) scale(0.1 -0.1)">
     <defs>
      <path id="DejaVuSerif-Bold-34" d="M 4084 0 
L 1516 0 
L 1516 378 
L 2209 378 
L 2209 1228 
L 263 1228 
L 263 1588 
L 2216 4750 
L 3391 4750 
L 3391 1631 
L 4191 1631 
L 4191 1228 
L 3391 1228 
L 3391 378 
L 4084 378 
L 4084 0 
z
M 2209 1631 
L 2209 3897 
L 819 1631 
L 2209 1631 
z
" transform="scale(0.015625)"/>
     </defs>
     <use xlink:href="#DejaVuSerif-Bold-35"/>
     <use xlink:href="#DejaVuSerif-Bold-34" x="69.580078"/>
    </g>
   </g>
   <g id="text_19">
    <!-- 8 -->
    <g style="fill: #262626" transform="translate(698.030185 115.259375) scale(0.1 -0.1)">
     <defs>
      <path id="DejaVuSerif-Bold-38" d="M 2975 2484 
Q 3531 2394 3820 2075 
Q 4109 1756 4109 1241 
Q 4109 597 3623 253 
Q 3138 -91 2222 -91 
Q 1306 -91 818 253 
Q 331 597 331 1241 
Q 331 1756 622 2075 
Q 913 2394 1466 2484 
Q 975 2597 731 2861 
Q 488 3125 488 3531 
Q 488 4125 931 4437 
Q 1375 4750 2222 4750 
Q 3066 4750 3511 4437 
Q 3956 4125 3956 3531 
Q 3956 3125 3711 2861 
Q 3466 2597 2975 2484 
z
M 2747 3519 
Q 2747 4013 2628 4198 
Q 2509 4384 2222 4384 
Q 1931 4384 1814 4198 
Q 1697 4013 1697 3519 
Q 1697 3028 1814 2845 
Q 1931 2663 2222 2663 
Q 2513 2663 2630 2845 
Q 2747 3028 2747 3519 
z
M 2869 1294 
Q 2869 1866 2723 2081 
Q 2578 2297 2222 2297 
Q 1863 2297 1719 2081 
Q 1575 1866 1575 1294 
Q 1575 716 1720 495 
Q 1866 275 2222 275 
Q 2575 275 2722 495 
Q 2869 716 2869 1294 
z
" transform="scale(0.015625)"/>
     </defs>
     <use xlink:href="#DejaVuSerif-Bold-38"/>
    </g>
   </g>
   <g id="text_20">
    <!-- 10 -->
    <g style="fill: #262626" transform="translate(542.36946 253.859375) scale(0.1 -0.1)">
     <use xlink:href="#DejaVuSerif-Bold-31"/>
     <use xlink:href="#DejaVuSerif-Bold-30" x="69.580078"/>
    </g>
   </g>
   <g id="text_21">
    <!-- 42 -->
    <g style="fill: #ffffff" transform="translate(694.551278 253.859375) scale(0.1 -0.1)">
     <use xlink:href="#DejaVuSerif-Bold-34"/>
     <use xlink:href="#DejaVuSerif-Bold-32" x="69.580078"/>
    </g>
   </g>
   <g id="text_22">
    <!-- Confusion Matrix of Test -->
    <g transform="translate(550.356307 37.2) scale(0.12 -0.12)">
     <use xlink:href="#DejaVuSerif-43"/>
     <use xlink:href="#DejaVuSerif-6f" x="76.513672"/>
     <use xlink:href="#DejaVuSerif-6e" x="136.71875"/>
     <use xlink:href="#DejaVuSerif-66" x="201.123047"/>
     <use xlink:href="#DejaVuSerif-75" x="238.134766"/>
     <use xlink:href="#DejaVuSerif-73" x="302.539062"/>
     <use xlink:href="#DejaVuSerif-69" x="353.857422"/>
     <use xlink:href="#DejaVuSerif-6f" x="385.839844"/>
     <use xlink:href="#DejaVuSerif-6e" x="446.044922"/>
     <use xlink:href="#DejaVuSerif-20" x="510.449219"/>
     <use xlink:href="#DejaVuSerif-4d" x="542.236328"/>
     <use xlink:href="#DejaVuSerif-61" x="644.628906"/>
     <use xlink:href="#DejaVuSerif-74" x="704.248047"/>
     <use xlink:href="#DejaVuSerif-72" x="744.433594"/>
     <use xlink:href="#DejaVuSerif-69" x="792.236328"/>
     <use xlink:href="#DejaVuSerif-78" x="824.21875"/>
     <use xlink:href="#DejaVuSerif-20" x="880.615234"/>
     <use xlink:href="#DejaVuSerif-6f" x="912.402344"/>
     <use xlink:href="#DejaVuSerif-66" x="972.607422"/>
     <use xlink:href="#DejaVuSerif-20" x="1009.619141"/>
     <use xlink:href="#DejaVuSerif-54" x="1041.40625"/>
     <use xlink:href="#DejaVuSerif-65" x="1100.355469"/>
     <use xlink:href="#DejaVuSerif-73" x="1159.535156"/>
     <use xlink:href="#DejaVuSerif-74" x="1210.853516"/>
    </g>
   </g>
  </g>
 </g>
 <defs>
  <clipPath id="pbabe4c8a8c">
   <rect x="108" y="43.2" width="304.363636" height="277.2"/>
  </clipPath>
  <clipPath id="p86c21d630c">
   <rect x="473.236364" y="43.2" width="304.363636" height="277.2"/>
  </clipPath>
 </defs>
</svg>
