<?xml version="1.0" encoding="utf-8" standalone="no"?>
<!DOCTYPE svg PUBLIC "-//W3C//DTD SVG 1.1//EN"
  "http://www.w3.org/Graphics/SVG/1.1/DTD/svg11.dtd">
<svg xmlns:xlink="http://www.w3.org/1999/xlink" width="864pt" height="360pt" viewBox="0 0 864 360" xmlns="http://www.w3.org/2000/svg" version="1.1">
 <metadata>
  <rdf:RDF xmlns:dc="http://purl.org/dc/elements/1.1/" xmlns:cc="http://creativecommons.org/ns#" xmlns:rdf="http://www.w3.org/1999/02/22-rdf-syntax-ns#">
   <cc:Work>
    <dc:type rdf:resource="http://purl.org/dc/dcmitype/StillImage"/>
    <dc:date>2024-06-03T16:55:58.205122</dc:date>
    <dc:format>image/svg+xml</dc:format>
    <dc:creator>
     <cc:Agent>
      <dc:title>Matplotlib v3.6.0, https://matplotlib.org/</dc:title>
     </cc:Agent>
    </dc:creator>
   </cc:Work>
  </rdf:RDF>
 </metadata>
 <defs>
  <style type="text/css">*{stroke-linejoin: round; stroke-linecap: butt}</style>
 </defs>
 <g id="figure_1">
  <g id="patch_1">
   <path d="M 0 360 
L 864 360 
L 864 0 
L 0 0 
z
" style="fill: #ffffff"/>
  </g>
  <g id="axes_1">
   <g id="patch_2">
    <path d="M 108 320.4 
L 412.363636 320.4 
L 412.363636 43.2 
L 108 43.2 
z
" style="fill: #ffffff"/>
   </g>
   <g id="matplotlib.axis_1">
    <g id="xtick_1">
     <g id="line2d_1">
      <path d="M 121.834711 320.4 
L 121.834711 43.2 
" clip-path="url(#pd414139403)" style="fill: none; stroke-dasharray: 2.96,1.28; stroke-dashoffset: 0; stroke: #b0b0b0; stroke-width: 0.8"/>
     </g>
     <g id="line2d_2">
      <defs>
       <path id="md98eb123ca" d="M 0 0 
L 0 3.5 
" style="stroke: #000000; stroke-width: 0.8"/>
      </defs>
      <g>
       <use xlink:href="#md98eb123ca" x="121.834711" y="320.4" style="stroke: #000000; stroke-width: 0.8"/>
      </g>
     </g>
     <g id="text_1">
      <!-- 0.0 -->
      <g transform="translate(113.136273 334.998438) scale(0.1 -0.1)">
       <defs>
        <path id="DejaVuSerif-Bold-30" d="M 2228 275 
Q 2603 275 2742 615 
Q 2881 956 2881 2328 
Q 2881 3691 2742 4037 
Q 2603 4384 2228 4384 
Q 1853 4384 1714 4043 
Q 1575 3703 1575 2328 
Q 1575 956 1714 615 
Q 1853 275 2228 275 
z
M 2228 -91 
Q 1294 -91 797 532 
Q 300 1156 300 2328 
Q 300 3500 797 4125 
Q 1294 4750 2228 4750 
Q 3159 4750 3656 4125 
Q 4153 3500 4153 2328 
Q 4153 1156 3656 532 
Q 3159 -91 2228 -91 
z
" transform="scale(0.015625)"/>
        <path id="DejaVuSerif-Bold-2e" d="M 519 506 
Q 519 750 694 925 
Q 869 1100 1113 1100 
Q 1359 1100 1534 925 
Q 1709 750 1709 506 
Q 1709 259 1534 84 
Q 1359 -91 1113 -91 
Q 869 -91 694 84 
Q 519 259 519 506 
z
" transform="scale(0.015625)"/>
       </defs>
       <use xlink:href="#DejaVuSerif-Bold-30"/>
       <use xlink:href="#DejaVuSerif-Bold-2e" x="69.580078"/>
       <use xlink:href="#DejaVuSerif-Bold-30" x="104.394531"/>
      </g>
     </g>
    </g>
    <g id="xtick_2">
     <g id="line2d_3">
      <path d="M 177.173554 320.4 
L 177.173554 43.2 
" clip-path="url(#pd414139403)" style="fill: none; stroke-dasharray: 2.96,1.28; stroke-dashoffset: 0; stroke: #b0b0b0; stroke-width: 0.8"/>
     </g>
     <g id="line2d_4">
      <g>
       <use xlink:href="#md98eb123ca" x="177.173554" y="320.4" style="stroke: #000000; stroke-width: 0.8"/>
      </g>
     </g>
     <g id="text_2">
      <!-- 0.2 -->
      <g transform="translate(168.475116 334.998438) scale(0.1 -0.1)">
       <defs>
        <path id="DejaVuSerif-Bold-32" d="M 844 3513 
L 469 3513 
L 469 4519 
Q 850 4634 1223 4692 
Q 1597 4750 1978 4750 
Q 2869 4750 3367 4386 
Q 3866 4022 3866 3372 
Q 3866 2909 3591 2542 
Q 3316 2175 2541 1672 
L 1241 819 
L 3450 819 
L 3450 1369 
L 3878 1369 
L 3878 0 
L 428 0 
L 428 763 
L 1119 1241 
Q 2003 1850 2297 2278 
Q 2591 2706 2591 3278 
Q 2591 3819 2367 4101 
Q 2144 4384 1716 4384 
Q 1347 4384 1125 4161 
Q 903 3938 844 3513 
z
" transform="scale(0.015625)"/>
       </defs>
       <use xlink:href="#DejaVuSerif-Bold-30"/>
       <use xlink:href="#DejaVuSerif-Bold-2e" x="69.580078"/>
       <use xlink:href="#DejaVuSerif-Bold-32" x="104.394531"/>
      </g>
     </g>
    </g>
    <g id="xtick_3">
     <g id="line2d_5">
      <path d="M 232.512397 320.4 
L 232.512397 43.2 
" clip-path="url(#pd414139403)" style="fill: none; stroke-dasharray: 2.96,1.28; stroke-dashoffset: 0; stroke: #b0b0b0; stroke-width: 0.8"/>
     </g>
     <g id="line2d_6">
      <g>
       <use xlink:href="#md98eb123ca" x="232.512397" y="320.4" style="stroke: #000000; stroke-width: 0.8"/>
      </g>
     </g>
     <g id="text_3">
      <!-- 0.4 -->
      <g transform="translate(223.813959 334.998438) scale(0.1 -0.1)">
       <defs>
        <path id="DejaVuSerif-Bold-34" d="M 4084 0 
L 1516 0 
L 1516 378 
L 2209 378 
L 2209 1228 
L 263 1228 
L 263 1588 
L 2216 4750 
L 3391 4750 
L 3391 1631 
L 4191 1631 
L 4191 1228 
L 3391 1228 
L 3391 378 
L 4084 378 
L 4084 0 
z
M 2209 1631 
L 2209 3897 
L 819 1631 
L 2209 1631 
z
" transform="scale(0.015625)"/>
       </defs>
       <use xlink:href="#DejaVuSerif-Bold-30"/>
       <use xlink:href="#DejaVuSerif-Bold-2e" x="69.580078"/>
       <use xlink:href="#DejaVuSerif-Bold-34" x="104.394531"/>
      </g>
     </g>
    </g>
    <g id="xtick_4">
     <g id="line2d_7">
      <path d="M 287.85124 320.4 
L 287.85124 43.2 
" clip-path="url(#pd414139403)" style="fill: none; stroke-dasharray: 2.96,1.28; stroke-dashoffset: 0; stroke: #b0b0b0; stroke-width: 0.8"/>
     </g>
     <g id="line2d_8">
      <g>
       <use xlink:href="#md98eb123ca" x="287.85124" y="320.4" style="stroke: #000000; stroke-width: 0.8"/>
      </g>
     </g>
     <g id="text_4">
      <!-- 0.6 -->
      <g transform="translate(279.152802 334.998438) scale(0.1 -0.1)">
       <defs>
        <path id="DejaVuSerif-Bold-36" d="M 1575 2766 
Q 1778 2928 2029 3009 
Q 2281 3091 2578 3091 
Q 3294 3091 3701 2672 
Q 4109 2253 4109 1522 
Q 4109 750 3650 329 
Q 3191 -91 2344 -91 
Q 1388 -91 895 486 
Q 403 1063 403 2181 
Q 403 3453 950 4101 
Q 1497 4750 2572 4750 
Q 2853 4750 3175 4703 
Q 3497 4656 3866 4563 
L 3866 3738 
L 3488 3738 
Q 3409 4056 3192 4220 
Q 2975 4384 2631 4384 
Q 2075 4384 1826 4003 
Q 1578 3622 1575 2766 
z
M 2272 275 
Q 2594 275 2731 548 
Q 2869 822 2869 1497 
Q 2869 2172 2731 2445 
Q 2594 2719 2272 2719 
Q 1950 2719 1814 2445 
Q 1678 2172 1678 1497 
Q 1678 822 1814 548 
Q 1950 275 2272 275 
z
" transform="scale(0.015625)"/>
       </defs>
       <use xlink:href="#DejaVuSerif-Bold-30"/>
       <use xlink:href="#DejaVuSerif-Bold-2e" x="69.580078"/>
       <use xlink:href="#DejaVuSerif-Bold-36" x="104.394531"/>
      </g>
     </g>
    </g>
    <g id="xtick_5">
     <g id="line2d_9">
      <path d="M 343.190083 320.4 
L 343.190083 43.2 
" clip-path="url(#pd414139403)" style="fill: none; stroke-dasharray: 2.96,1.28; stroke-dashoffset: 0; stroke: #b0b0b0; stroke-width: 0.8"/>
     </g>
     <g id="line2d_10">
      <g>
       <use xlink:href="#md98eb123ca" x="343.190083" y="320.4" style="stroke: #000000; stroke-width: 0.8"/>
      </g>
     </g>
     <g id="text_5">
      <!-- 0.8 -->
      <g transform="translate(334.491645 334.998438) scale(0.1 -0.1)">
       <defs>
        <path id="DejaVuSerif-Bold-38" d="M 2975 2484 
Q 3531 2394 3820 2075 
Q 4109 1756 4109 1241 
Q 4109 597 3623 253 
Q 3138 -91 2222 -91 
Q 1306 -91 818 253 
Q 331 597 331 1241 
Q 331 1756 622 2075 
Q 913 2394 1466 2484 
Q 975 2597 731 2861 
Q 488 3125 488 3531 
Q 488 4125 931 4437 
Q 1375 4750 2222 4750 
Q 3066 4750 3511 4437 
Q 3956 4125 3956 3531 
Q 3956 3125 3711 2861 
Q 3466 2597 2975 2484 
z
M 2747 3519 
Q 2747 4013 2628 4198 
Q 2509 4384 2222 4384 
Q 1931 4384 1814 4198 
Q 1697 4013 1697 3519 
Q 1697 3028 1814 2845 
Q 1931 2663 2222 2663 
Q 2513 2663 2630 2845 
Q 2747 3028 2747 3519 
z
M 2869 1294 
Q 2869 1866 2723 2081 
Q 2578 2297 2222 2297 
Q 1863 2297 1719 2081 
Q 1575 1866 1575 1294 
Q 1575 716 1720 495 
Q 1866 275 2222 275 
Q 2575 275 2722 495 
Q 2869 716 2869 1294 
z
" transform="scale(0.015625)"/>
       </defs>
       <use xlink:href="#DejaVuSerif-Bold-30"/>
       <use xlink:href="#DejaVuSerif-Bold-2e" x="69.580078"/>
       <use xlink:href="#DejaVuSerif-Bold-38" x="104.394531"/>
      </g>
     </g>
    </g>
    <g id="xtick_6">
     <g id="line2d_11">
      <path d="M 398.528926 320.4 
L 398.528926 43.2 
" clip-path="url(#pd414139403)" style="fill: none; stroke-dasharray: 2.96,1.28; stroke-dashoffset: 0; stroke: #b0b0b0; stroke-width: 0.8"/>
     </g>
     <g id="line2d_12">
      <g>
       <use xlink:href="#md98eb123ca" x="398.528926" y="320.4" style="stroke: #000000; stroke-width: 0.8"/>
      </g>
     </g>
     <g id="text_6">
      <!-- 1.0 -->
      <g transform="translate(389.830488 334.998438) scale(0.1 -0.1)">
       <defs>
        <path id="DejaVuSerif-Bold-31" d="M 878 0 
L 878 378 
L 1753 378 
L 1753 4153 
L 781 3578 
L 781 4044 
L 1953 4750 
L 2938 4750 
L 2938 378 
L 3816 378 
L 3816 0 
L 878 0 
z
" transform="scale(0.015625)"/>
       </defs>
       <use xlink:href="#DejaVuSerif-Bold-31"/>
       <use xlink:href="#DejaVuSerif-Bold-2e" x="69.580078"/>
       <use xlink:href="#DejaVuSerif-Bold-30" x="104.394531"/>
      </g>
     </g>
    </g>
    <g id="text_7">
     <!-- False Positive Rate -->
     <g transform="translate(212.206818 348.676562) scale(0.1 -0.1)">
      <defs>
       <path id="DejaVuSerif-46" d="M 353 0 
L 353 331 
L 947 331 
L 947 4331 
L 353 4331 
L 353 4666 
L 4172 4666 
L 4172 3628 
L 3788 3628 
L 3788 4281 
L 1581 4281 
L 1581 2719 
L 3175 2719 
L 3175 3303 
L 3559 3303 
L 3559 1753 
L 3175 1753 
L 3175 2338 
L 1581 2338 
L 1581 331 
L 2328 331 
L 2328 0 
L 353 0 
z
" transform="scale(0.015625)"/>
       <path id="DejaVuSerif-61" d="M 2547 1044 
L 2547 1747 
L 1806 1747 
Q 1378 1747 1168 1562 
Q 959 1378 959 997 
Q 959 650 1171 447 
Q 1384 244 1747 244 
Q 2106 244 2326 466 
Q 2547 688 2547 1044 
z
M 3122 2075 
L 3122 331 
L 3634 331 
L 3634 0 
L 2547 0 
L 2547 359 
Q 2356 128 2106 18 
Q 1856 -91 1522 -91 
Q 969 -91 644 203 
Q 319 497 319 997 
Q 319 1513 691 1797 
Q 1063 2081 1741 2081 
L 2547 2081 
L 2547 2309 
Q 2547 2688 2317 2895 
Q 2088 3103 1672 3103 
Q 1328 3103 1125 2947 
Q 922 2791 872 2484 
L 575 2484 
L 575 3156 
Q 875 3284 1158 3348 
Q 1441 3413 1709 3413 
Q 2400 3413 2761 3070 
Q 3122 2728 3122 2075 
z
" transform="scale(0.015625)"/>
       <path id="DejaVuSerif-6c" d="M 1313 331 
L 1856 331 
L 1856 0 
L 184 0 
L 184 331 
L 738 331 
L 738 4531 
L 184 4531 
L 184 4863 
L 1313 4863 
L 1313 331 
z
" transform="scale(0.015625)"/>
       <path id="DejaVuSerif-73" d="M 359 184 
L 359 959 
L 691 959 
Q 703 588 923 403 
Q 1144 219 1575 219 
Q 1963 219 2166 364 
Q 2369 509 2369 788 
Q 2369 1006 2220 1140 
Q 2072 1275 1594 1428 
L 1178 1569 
Q 750 1706 558 1912 
Q 366 2119 366 2438 
Q 366 2894 700 3153 
Q 1034 3413 1625 3413 
Q 1888 3413 2178 3344 
Q 2469 3275 2778 3144 
L 2778 2419 
L 2447 2419 
Q 2434 2741 2221 2922 
Q 2009 3103 1644 3103 
Q 1281 3103 1095 2975 
Q 909 2847 909 2591 
Q 909 2381 1050 2254 
Q 1191 2128 1613 1997 
L 2069 1856 
Q 2541 1709 2748 1489 
Q 2956 1269 2956 922 
Q 2956 450 2595 179 
Q 2234 -91 1600 -91 
Q 1278 -91 972 -22 
Q 666 47 359 184 
z
" transform="scale(0.015625)"/>
       <path id="DejaVuSerif-65" d="M 3469 1600 
L 991 1600 
L 991 1575 
Q 991 903 1244 561 
Q 1497 219 1991 219 
Q 2369 219 2611 417 
Q 2853 616 2950 1006 
L 3413 1006 
Q 3275 459 2904 184 
Q 2534 -91 1931 -91 
Q 1203 -91 761 389 
Q 319 869 319 1663 
Q 319 2450 753 2931 
Q 1188 3413 1894 3413 
Q 2647 3413 3050 2948 
Q 3453 2484 3469 1600 
z
M 2791 1931 
Q 2772 2513 2545 2808 
Q 2319 3103 1894 3103 
Q 1497 3103 1269 2806 
Q 1041 2509 991 1931 
L 2791 1931 
z
" transform="scale(0.015625)"/>
       <path id="DejaVuSerif-20" transform="scale(0.015625)"/>
       <path id="DejaVuSerif-50" d="M 1581 2375 
L 2406 2375 
Q 2872 2375 3115 2626 
Q 3359 2878 3359 3353 
Q 3359 3831 3115 4081 
Q 2872 4331 2406 4331 
L 1581 4331 
L 1581 2375 
z
M 353 0 
L 353 331 
L 947 331 
L 947 4331 
L 353 4331 
L 353 4666 
L 2559 4666 
Q 3259 4666 3668 4311 
Q 4078 3956 4078 3353 
Q 4078 2753 3668 2397 
Q 3259 2041 2559 2041 
L 1581 2041 
L 1581 331 
L 2303 331 
L 2303 0 
L 353 0 
z
" transform="scale(0.015625)"/>
       <path id="DejaVuSerif-6f" d="M 1925 219 
Q 2388 219 2623 584 
Q 2859 950 2859 1663 
Q 2859 2375 2623 2739 
Q 2388 3103 1925 3103 
Q 1463 3103 1227 2739 
Q 991 2375 991 1663 
Q 991 950 1228 584 
Q 1466 219 1925 219 
z
M 1925 -91 
Q 1200 -91 759 389 
Q 319 869 319 1663 
Q 319 2456 758 2934 
Q 1197 3413 1925 3413 
Q 2653 3413 3092 2934 
Q 3531 2456 3531 1663 
Q 3531 869 3092 389 
Q 2653 -91 1925 -91 
z
" transform="scale(0.015625)"/>
       <path id="DejaVuSerif-69" d="M 622 4353 
Q 622 4497 726 4603 
Q 831 4709 978 4709 
Q 1122 4709 1226 4603 
Q 1331 4497 1331 4353 
Q 1331 4206 1228 4103 
Q 1125 4000 978 4000 
Q 831 4000 726 4103 
Q 622 4206 622 4353 
z
M 1356 331 
L 1900 331 
L 1900 0 
L 231 0 
L 231 331 
L 781 331 
L 781 2988 
L 231 2988 
L 231 3322 
L 1356 3322 
L 1356 331 
z
" transform="scale(0.015625)"/>
       <path id="DejaVuSerif-74" d="M 691 2988 
L 184 2988 
L 184 3322 
L 691 3322 
L 691 4353 
L 1269 4353 
L 1269 3322 
L 2350 3322 
L 2350 2988 
L 1269 2988 
L 1269 878 
Q 1269 456 1350 337 
Q 1431 219 1650 219 
Q 1875 219 1978 351 
Q 2081 484 2088 781 
L 2522 781 
Q 2497 328 2275 118 
Q 2053 -91 1600 -91 
Q 1103 -91 897 129 
Q 691 350 691 878 
L 691 2988 
z
" transform="scale(0.015625)"/>
       <path id="DejaVuSerif-76" d="M 1581 0 
L 359 2988 
L -19 2988 
L -19 3322 
L 1509 3322 
L 1509 2988 
L 978 2988 
L 1913 703 
L 2847 2988 
L 2350 2988 
L 2350 3322 
L 3597 3322 
L 3597 2988 
L 3225 2988 
L 2003 0 
L 1581 0 
z
" transform="scale(0.015625)"/>
       <path id="DejaVuSerif-52" d="M 3066 2316 
Q 3284 2256 3442 2114 
Q 3600 1972 3725 1716 
L 4403 331 
L 4972 331 
L 4972 0 
L 3872 0 
L 3144 1484 
Q 2934 1916 2759 2042 
Q 2584 2169 2278 2169 
L 1581 2169 
L 1581 331 
L 2241 331 
L 2241 0 
L 353 0 
L 353 331 
L 947 331 
L 947 4331 
L 353 4331 
L 353 4666 
L 2719 4666 
Q 3400 4666 3770 4341 
Q 4141 4016 4141 3419 
Q 4141 2938 3870 2661 
Q 3600 2384 3066 2316 
z
M 1581 2503 
L 2503 2503 
Q 2975 2503 3200 2726 
Q 3425 2950 3425 3419 
Q 3425 3888 3200 4109 
Q 2975 4331 2503 4331 
L 1581 4331 
L 1581 2503 
z
" transform="scale(0.015625)"/>
      </defs>
      <use xlink:href="#DejaVuSerif-46"/>
      <use xlink:href="#DejaVuSerif-61" x="62.634766"/>
      <use xlink:href="#DejaVuSerif-6c" x="122.253906"/>
      <use xlink:href="#DejaVuSerif-73" x="154.236328"/>
      <use xlink:href="#DejaVuSerif-65" x="205.554688"/>
      <use xlink:href="#DejaVuSerif-20" x="264.734375"/>
      <use xlink:href="#DejaVuSerif-50" x="296.521484"/>
      <use xlink:href="#DejaVuSerif-6f" x="359.806641"/>
      <use xlink:href="#DejaVuSerif-73" x="420.011719"/>
      <use xlink:href="#DejaVuSerif-69" x="471.330078"/>
      <use xlink:href="#DejaVuSerif-74" x="503.3125"/>
      <use xlink:href="#DejaVuSerif-69" x="543.498047"/>
      <use xlink:href="#DejaVuSerif-76" x="575.480469"/>
      <use xlink:href="#DejaVuSerif-65" x="631.974609"/>
      <use xlink:href="#DejaVuSerif-20" x="691.154297"/>
      <use xlink:href="#DejaVuSerif-52" x="722.941406"/>
      <use xlink:href="#DejaVuSerif-61" x="800.484375"/>
      <use xlink:href="#DejaVuSerif-74" x="860.103516"/>
      <use xlink:href="#DejaVuSerif-65" x="900.289062"/>
     </g>
    </g>
   </g>
   <g id="matplotlib.axis_2">
    <g id="ytick_1">
     <g id="line2d_13">
      <path d="M 108 307.8 
L 412.363636 307.8 
" clip-path="url(#pd414139403)" style="fill: none; stroke-dasharray: 2.96,1.28; stroke-dashoffset: 0; stroke: #b0b0b0; stroke-width: 0.8"/>
     </g>
     <g id="line2d_14">
      <defs>
       <path id="m8ac6c090c9" d="M 0 0 
L -3.5 0 
" style="stroke: #000000; stroke-width: 0.8"/>
      </defs>
      <g>
       <use xlink:href="#m8ac6c090c9" x="108" y="307.8" style="stroke: #000000; stroke-width: 0.8"/>
      </g>
     </g>
     <g id="text_8">
      <!-- 0.0 -->
      <g transform="translate(83.603125 311.599219) scale(0.1 -0.1)">
       <use xlink:href="#DejaVuSerif-Bold-30"/>
       <use xlink:href="#DejaVuSerif-Bold-2e" x="69.580078"/>
       <use xlink:href="#DejaVuSerif-Bold-30" x="104.394531"/>
      </g>
     </g>
    </g>
    <g id="ytick_2">
     <g id="line2d_15">
      <path d="M 108 257.4 
L 412.363636 257.4 
" clip-path="url(#pd414139403)" style="fill: none; stroke-dasharray: 2.96,1.28; stroke-dashoffset: 0; stroke: #b0b0b0; stroke-width: 0.8"/>
     </g>
     <g id="line2d_16">
      <g>
       <use xlink:href="#m8ac6c090c9" x="108" y="257.4" style="stroke: #000000; stroke-width: 0.8"/>
      </g>
     </g>
     <g id="text_9">
      <!-- 0.2 -->
      <g transform="translate(83.603125 261.199219) scale(0.1 -0.1)">
       <use xlink:href="#DejaVuSerif-Bold-30"/>
       <use xlink:href="#DejaVuSerif-Bold-2e" x="69.580078"/>
       <use xlink:href="#DejaVuSerif-Bold-32" x="104.394531"/>
      </g>
     </g>
    </g>
    <g id="ytick_3">
     <g id="line2d_17">
      <path d="M 108 207 
L 412.363636 207 
" clip-path="url(#pd414139403)" style="fill: none; stroke-dasharray: 2.96,1.28; stroke-dashoffset: 0; stroke: #b0b0b0; stroke-width: 0.8"/>
     </g>
     <g id="line2d_18">
      <g>
       <use xlink:href="#m8ac6c090c9" x="108" y="207" style="stroke: #000000; stroke-width: 0.8"/>
      </g>
     </g>
     <g id="text_10">
      <!-- 0.4 -->
      <g transform="translate(83.603125 210.799219) scale(0.1 -0.1)">
       <use xlink:href="#DejaVuSerif-Bold-30"/>
       <use xlink:href="#DejaVuSerif-Bold-2e" x="69.580078"/>
       <use xlink:href="#DejaVuSerif-Bold-34" x="104.394531"/>
      </g>
     </g>
    </g>
    <g id="ytick_4">
     <g id="line2d_19">
      <path d="M 108 156.6 
L 412.363636 156.6 
" clip-path="url(#pd414139403)" style="fill: none; stroke-dasharray: 2.96,1.28; stroke-dashoffset: 0; stroke: #b0b0b0; stroke-width: 0.8"/>
     </g>
     <g id="line2d_20">
      <g>
       <use xlink:href="#m8ac6c090c9" x="108" y="156.6" style="stroke: #000000; stroke-width: 0.8"/>
      </g>
     </g>
     <g id="text_11">
      <!-- 0.6 -->
      <g transform="translate(83.603125 160.399219) scale(0.1 -0.1)">
       <use xlink:href="#DejaVuSerif-Bold-30"/>
       <use xlink:href="#DejaVuSerif-Bold-2e" x="69.580078"/>
       <use xlink:href="#DejaVuSerif-Bold-36" x="104.394531"/>
      </g>
     </g>
    </g>
    <g id="ytick_5">
     <g id="line2d_21">
      <path d="M 108 106.2 
L 412.363636 106.2 
" clip-path="url(#pd414139403)" style="fill: none; stroke-dasharray: 2.96,1.28; stroke-dashoffset: 0; stroke: #b0b0b0; stroke-width: 0.8"/>
     </g>
     <g id="line2d_22">
      <g>
       <use xlink:href="#m8ac6c090c9" x="108" y="106.2" style="stroke: #000000; stroke-width: 0.8"/>
      </g>
     </g>
     <g id="text_12">
      <!-- 0.8 -->
      <g transform="translate(83.603125 109.999219) scale(0.1 -0.1)">
       <use xlink:href="#DejaVuSerif-Bold-30"/>
       <use xlink:href="#DejaVuSerif-Bold-2e" x="69.580078"/>
       <use xlink:href="#DejaVuSerif-Bold-38" x="104.394531"/>
      </g>
     </g>
    </g>
    <g id="ytick_6">
     <g id="line2d_23">
      <path d="M 108 55.8 
L 412.363636 55.8 
" clip-path="url(#pd414139403)" style="fill: none; stroke-dasharray: 2.96,1.28; stroke-dashoffset: 0; stroke: #b0b0b0; stroke-width: 0.8"/>
     </g>
     <g id="line2d_24">
      <g>
       <use xlink:href="#m8ac6c090c9" x="108" y="55.8" style="stroke: #000000; stroke-width: 0.8"/>
      </g>
     </g>
     <g id="text_13">
      <!-- 1.0 -->
      <g transform="translate(83.603125 59.599219) scale(0.1 -0.1)">
       <use xlink:href="#DejaVuSerif-Bold-31"/>
       <use xlink:href="#DejaVuSerif-Bold-2e" x="69.580078"/>
       <use xlink:href="#DejaVuSerif-Bold-30" x="104.394531"/>
      </g>
     </g>
    </g>
    <g id="text_14">
     <!-- True Positive Rate -->
     <g transform="translate(77.523438 228.442187) rotate(-90) scale(0.1 -0.1)">
      <defs>
       <path id="DejaVuSerif-54" d="M 1222 0 
L 1222 331 
L 1819 331 
L 1819 4294 
L 447 4294 
L 447 3566 
L 63 3566 
L 63 4666 
L 4206 4666 
L 4206 3566 
L 3822 3566 
L 3822 4294 
L 2450 4294 
L 2450 331 
L 3047 331 
L 3047 0 
L 1222 0 
z
" transform="scale(0.015625)"/>
       <path id="DejaVuSerif-72" d="M 3059 3328 
L 3059 2497 
L 2728 2497 
Q 2713 2744 2591 2866 
Q 2469 2988 2234 2988 
Q 1809 2988 1582 2694 
Q 1356 2400 1356 1850 
L 1356 331 
L 2022 331 
L 2022 0 
L 263 0 
L 263 331 
L 781 331 
L 781 2994 
L 231 2994 
L 231 3322 
L 1356 3322 
L 1356 2731 
Q 1525 3078 1790 3245 
Q 2056 3413 2438 3413 
Q 2578 3413 2733 3391 
Q 2888 3369 3059 3328 
z
" transform="scale(0.015625)"/>
       <path id="DejaVuSerif-75" d="M 2266 3322 
L 3341 3322 
L 3341 331 
L 3884 331 
L 3884 0 
L 2766 0 
L 2766 588 
Q 2606 256 2353 82 
Q 2100 -91 1766 -91 
Q 1213 -91 952 223 
Q 691 538 691 1209 
L 691 2988 
L 172 2988 
L 172 3322 
L 1269 3322 
L 1269 1388 
Q 1269 781 1417 556 
Q 1566 331 1947 331 
Q 2347 331 2556 625 
Q 2766 919 2766 1478 
L 2766 2988 
L 2266 2988 
L 2266 3322 
z
" transform="scale(0.015625)"/>
      </defs>
      <use xlink:href="#DejaVuSerif-54"/>
      <use xlink:href="#DejaVuSerif-72" x="66.699219"/>
      <use xlink:href="#DejaVuSerif-75" x="114.501953"/>
      <use xlink:href="#DejaVuSerif-65" x="178.90625"/>
      <use xlink:href="#DejaVuSerif-20" x="238.085938"/>
      <use xlink:href="#DejaVuSerif-50" x="269.873047"/>
      <use xlink:href="#DejaVuSerif-6f" x="333.158203"/>
      <use xlink:href="#DejaVuSerif-73" x="393.363281"/>
      <use xlink:href="#DejaVuSerif-69" x="444.681641"/>
      <use xlink:href="#DejaVuSerif-74" x="476.664062"/>
      <use xlink:href="#DejaVuSerif-69" x="516.849609"/>
      <use xlink:href="#DejaVuSerif-76" x="548.832031"/>
      <use xlink:href="#DejaVuSerif-65" x="605.326172"/>
      <use xlink:href="#DejaVuSerif-20" x="664.505859"/>
      <use xlink:href="#DejaVuSerif-52" x="696.292969"/>
      <use xlink:href="#DejaVuSerif-61" x="773.835938"/>
      <use xlink:href="#DejaVuSerif-74" x="833.455078"/>
      <use xlink:href="#DejaVuSerif-65" x="873.640625"/>
     </g>
    </g>
   </g>
   <g id="line2d_25">
    <path d="M 121.834711 307.8 
L 121.834711 306.594258 
L 121.834711 304.182775 
L 121.834711 301.771292 
L 121.834711 299.359809 
L 121.834711 289.713876 
L 121.834711 281.273684 
L 121.834711 271.627751 
L 121.834711 269.216268 
L 121.834711 265.599043 
L 121.834711 263.18756 
L 121.834711 261.981818 
L 121.834711 259.570335 
L 121.834711 254.747368 
L 121.834711 252.335885 
L 121.834711 220.986603 
L 121.834711 217.369378 
L 121.834711 212.546411 
L 121.834711 210.134928 
L 121.834711 208.929187 
L 121.834711 206.517703 
L 121.834711 183.608612 
L 121.834711 181.197129 
L 121.834711 170.345455 
L 121.834711 167.933971 
L 121.834711 157.082297 
L 121.834711 154.670813 
L 121.834711 118.498565 
L 121.834711 116.087081 
L 121.834711 114.88134 
L 121.834711 110.058373 
L 121.834711 101.618182 
L 122.964075 98.000957 
L 122.964075 96.795215 
L 124.093439 94.383732 
L 124.093439 89.560766 
L 125.222803 85.943541 
L 125.222803 83.532057 
L 126.352167 81.120574 
L 126.352167 77.503349 
L 127.481531 76.297608 
L 127.481531 75.091866 
L 128.610896 73.886124 
L 128.610896 71.474641 
L 131.998988 67.857416 
L 134.257716 65.445933 
L 135.38708 65.445933 
L 135.38708 64.240191 
L 136.516445 64.240191 
L 139.904537 60.622967 
L 141.033901 60.622967 
L 142.163265 59.417225 
L 144.421994 59.417225 
L 146.680722 59.417225 
L 148.93945 58.211483 
L 151.198178 58.211483 
L 152.327543 57.005742 
L 157.974363 57.005742 
L 159.103727 55.8 
L 180.561646 55.8 
L 182.820374 55.8 
L 199.760837 55.8 
L 202.019565 55.8 
L 206.537021 55.8 
L 209.925114 55.8 
L 217.830663 55.8 
L 224.606848 55.8 
L 227.99494 55.8 
L 230.253668 55.8 
L 251.711587 55.8 
L 253.970315 55.8 
L 256.229044 55.8 
L 260.7465 55.8 
L 264.134593 55.8 
L 266.393321 55.8 
L 274.29887 55.8 
L 276.557598 55.8 
L 287.85124 55.8 
L 296.886153 55.8 
L 302.532974 55.8 
L 304.791702 55.8 
L 314.955979 55.8 
L 317.214707 55.8 
L 320.6028 55.8 
L 325.120256 55.8 
L 327.378985 55.8 
L 328.508349 55.8 
L 330.767077 55.8 
L 331.896441 55.8 
L 334.15517 55.8 
L 338.672626 55.8 
L 342.060719 55.8 
L 347.707539 55.8 
L 348.836903 55.8 
L 351.095632 55.8 
L 363.518637 55.8 
L 368.036094 55.8 
L 372.55355 55.8 
L 378.200371 55.8 
L 380.459099 55.8 
L 383.847192 55.8 
L 388.364648 55.8 
L 390.623377 55.8 
L 398.528926 55.8 
" clip-path="url(#pd414139403)" style="fill: none; stroke: #1f77b4; stroke-width: 1.5; stroke-linecap: square"/>
   </g>
   <g id="line2d_26">
    <path d="M 121.834711 307.8 
L 398.528926 55.8 
" clip-path="url(#pd414139403)" style="fill: none; stroke-dasharray: 5.55,2.4; stroke-dashoffset: 0; stroke: #000000; stroke-width: 1.5"/>
   </g>
   <g id="patch_3">
    <path d="M 108 320.4 
L 108 43.2 
" style="fill: none; stroke: #000000; stroke-width: 1.5; stroke-linejoin: miter; stroke-linecap: square"/>
   </g>
   <g id="patch_4">
    <path d="M 412.363636 320.4 
L 412.363636 43.2 
" style="fill: none; stroke: #000000; stroke-width: 1.5; stroke-linejoin: miter; stroke-linecap: square"/>
   </g>
   <g id="patch_5">
    <path d="M 108 320.4 
L 412.363636 320.4 
" style="fill: none; stroke: #000000; stroke-width: 1.5; stroke-linejoin: miter; stroke-linecap: square"/>
   </g>
   <g id="patch_6">
    <path d="M 108 43.2 
L 412.363636 43.2 
" style="fill: none; stroke: #000000; stroke-width: 1.5; stroke-linejoin: miter; stroke-linecap: square"/>
   </g>
   <g id="text_15">
    <!-- Receiver Operating Characteristic -->
    <g transform="translate(155.510881 37.2) scale(0.12 -0.12)">
     <defs>
      <path id="DejaVuSerif-63" d="M 3291 997 
Q 3169 466 2822 187 
Q 2475 -91 1925 -91 
Q 1200 -91 759 389 
Q 319 869 319 1663 
Q 319 2459 759 2936 
Q 1200 3413 1925 3413 
Q 2241 3413 2553 3339 
Q 2866 3266 3181 3116 
L 3181 2266 
L 2847 2266 
Q 2781 2703 2561 2903 
Q 2341 3103 1931 3103 
Q 1466 3103 1228 2742 
Q 991 2381 991 1663 
Q 991 944 1227 581 
Q 1463 219 1931 219 
Q 2303 219 2525 412 
Q 2747 606 2828 997 
L 3291 997 
z
" transform="scale(0.015625)"/>
      <path id="DejaVuSerif-4f" d="M 2625 244 
Q 3391 244 3781 770 
Q 4172 1297 4172 2328 
Q 4172 3363 3781 3889 
Q 3391 4416 2625 4416 
Q 1856 4416 1465 3889 
Q 1075 3363 1075 2328 
Q 1075 1297 1465 770 
Q 1856 244 2625 244 
z
M 2625 -91 
Q 2150 -91 1751 65 
Q 1353 222 1050 525 
Q 700 875 529 1319 
Q 359 1763 359 2328 
Q 359 2894 529 3339 
Q 700 3784 1050 4134 
Q 1356 4441 1750 4595 
Q 2144 4750 2625 4750 
Q 3641 4750 4266 4084 
Q 4891 3419 4891 2328 
Q 4891 1769 4719 1320 
Q 4547 872 4197 525 
Q 3891 219 3497 64 
Q 3103 -91 2625 -91 
z
" transform="scale(0.015625)"/>
      <path id="DejaVuSerif-70" d="M 1313 1825 
L 1313 1497 
Q 1313 897 1542 583 
Q 1772 269 2209 269 
Q 2650 269 2876 622 
Q 3103 975 3103 1663 
Q 3103 2353 2876 2703 
Q 2650 3053 2209 3053 
Q 1772 3053 1542 2737 
Q 1313 2422 1313 1825 
z
M 738 2988 
L 184 2988 
L 184 3322 
L 1313 3322 
L 1313 2803 
Q 1481 3116 1742 3264 
Q 2003 3413 2388 3413 
Q 3000 3413 3387 2928 
Q 3775 2444 3775 1663 
Q 3775 881 3387 395 
Q 3000 -91 2388 -91 
Q 2003 -91 1742 57 
Q 1481 206 1313 519 
L 1313 -997 
L 1856 -997 
L 1856 -1331 
L 184 -1331 
L 184 -997 
L 738 -997 
L 738 2988 
z
" transform="scale(0.015625)"/>
      <path id="DejaVuSerif-6e" d="M 263 0 
L 263 331 
L 781 331 
L 781 2988 
L 231 2988 
L 231 3322 
L 1356 3322 
L 1356 2731 
Q 1516 3069 1770 3241 
Q 2025 3413 2363 3413 
Q 2913 3413 3172 3097 
Q 3431 2781 3431 2113 
L 3431 331 
L 3944 331 
L 3944 0 
L 2356 0 
L 2356 331 
L 2853 331 
L 2853 1931 
Q 2853 2541 2703 2767 
Q 2553 2994 2175 2994 
Q 1775 2994 1565 2701 
Q 1356 2409 1356 1850 
L 1356 331 
L 1856 331 
L 1856 0 
L 263 0 
z
" transform="scale(0.015625)"/>
      <path id="DejaVuSerif-67" d="M 3359 2988 
L 3359 72 
Q 3359 -644 2965 -1033 
Q 2572 -1422 1844 -1422 
Q 1516 -1422 1216 -1362 
Q 916 -1303 641 -1184 
L 641 -488 
L 941 -488 
Q 997 -813 1206 -963 
Q 1416 -1113 1806 -1113 
Q 2313 -1113 2548 -827 
Q 2784 -541 2784 72 
L 2784 519 
Q 2616 206 2355 57 
Q 2094 -91 1709 -91 
Q 1097 -91 708 395 
Q 319 881 319 1663 
Q 319 2444 706 2928 
Q 1094 3413 1709 3413 
Q 2094 3413 2355 3264 
Q 2616 3116 2784 2803 
L 2784 3322 
L 3909 3322 
L 3909 2988 
L 3359 2988 
z
M 2784 1825 
Q 2784 2422 2554 2737 
Q 2325 3053 1888 3053 
Q 1444 3053 1217 2703 
Q 991 2353 991 1663 
Q 991 975 1217 622 
Q 1444 269 1888 269 
Q 2325 269 2554 583 
Q 2784 897 2784 1497 
L 2784 1825 
z
" transform="scale(0.015625)"/>
      <path id="DejaVuSerif-43" d="M 4513 1234 
Q 4306 581 3820 245 
Q 3334 -91 2591 -91 
Q 2134 -91 1743 65 
Q 1353 222 1050 525 
Q 700 875 529 1320 
Q 359 1766 359 2328 
Q 359 3416 987 4083 
Q 1616 4750 2644 4750 
Q 3025 4750 3456 4650 
Q 3888 4550 4384 4347 
L 4384 3272 
L 4031 3272 
Q 3916 3859 3567 4137 
Q 3219 4416 2591 4416 
Q 1844 4416 1459 3886 
Q 1075 3356 1075 2328 
Q 1075 1303 1459 773 
Q 1844 244 2591 244 
Q 3113 244 3450 492 
Q 3788 741 3938 1234 
L 4513 1234 
z
" transform="scale(0.015625)"/>
      <path id="DejaVuSerif-68" d="M 263 0 
L 263 331 
L 781 331 
L 781 4531 
L 231 4531 
L 231 4863 
L 1356 4863 
L 1356 2731 
Q 1516 3069 1770 3241 
Q 2025 3413 2363 3413 
Q 2913 3413 3172 3097 
Q 3431 2781 3431 2113 
L 3431 331 
L 3944 331 
L 3944 0 
L 2356 0 
L 2356 331 
L 2853 331 
L 2853 1931 
Q 2853 2541 2704 2764 
Q 2556 2988 2175 2988 
Q 1775 2988 1565 2697 
Q 1356 2406 1356 1850 
L 1356 331 
L 1856 331 
L 1856 0 
L 263 0 
z
" transform="scale(0.015625)"/>
     </defs>
     <use xlink:href="#DejaVuSerif-52"/>
     <use xlink:href="#DejaVuSerif-65" x="75.292969"/>
     <use xlink:href="#DejaVuSerif-63" x="134.472656"/>
     <use xlink:href="#DejaVuSerif-65" x="190.478516"/>
     <use xlink:href="#DejaVuSerif-69" x="249.658203"/>
     <use xlink:href="#DejaVuSerif-76" x="281.640625"/>
     <use xlink:href="#DejaVuSerif-65" x="338.134766"/>
     <use xlink:href="#DejaVuSerif-72" x="397.314453"/>
     <use xlink:href="#DejaVuSerif-20" x="445.117188"/>
     <use xlink:href="#DejaVuSerif-4f" x="476.904297"/>
     <use xlink:href="#DejaVuSerif-70" x="558.886719"/>
     <use xlink:href="#DejaVuSerif-65" x="622.900391"/>
     <use xlink:href="#DejaVuSerif-72" x="682.080078"/>
     <use xlink:href="#DejaVuSerif-61" x="729.882812"/>
     <use xlink:href="#DejaVuSerif-74" x="789.501953"/>
     <use xlink:href="#DejaVuSerif-69" x="829.6875"/>
     <use xlink:href="#DejaVuSerif-6e" x="861.669922"/>
     <use xlink:href="#DejaVuSerif-67" x="926.074219"/>
     <use xlink:href="#DejaVuSerif-20" x="990.087891"/>
     <use xlink:href="#DejaVuSerif-43" x="1021.875"/>
     <use xlink:href="#DejaVuSerif-68" x="1098.388672"/>
     <use xlink:href="#DejaVuSerif-61" x="1162.792969"/>
     <use xlink:href="#DejaVuSerif-72" x="1222.412109"/>
     <use xlink:href="#DejaVuSerif-61" x="1270.214844"/>
     <use xlink:href="#DejaVuSerif-63" x="1329.833984"/>
     <use xlink:href="#DejaVuSerif-74" x="1385.839844"/>
     <use xlink:href="#DejaVuSerif-65" x="1426.025391"/>
     <use xlink:href="#DejaVuSerif-72" x="1485.205078"/>
     <use xlink:href="#DejaVuSerif-69" x="1533.007812"/>
     <use xlink:href="#DejaVuSerif-73" x="1564.990234"/>
     <use xlink:href="#DejaVuSerif-74" x="1616.308594"/>
     <use xlink:href="#DejaVuSerif-69" x="1656.494141"/>
     <use xlink:href="#DejaVuSerif-63" x="1688.476562"/>
    </g>
   </g>
   <g id="legend_1">
    <g id="patch_7">
     <path d="M 225.835511 315.4 
L 405.363636 315.4 
Q 407.363636 315.4 407.363636 313.4 
L 407.363636 299.721875 
Q 407.363636 297.721875 405.363636 297.721875 
L 225.835511 297.721875 
Q 223.835511 297.721875 223.835511 299.721875 
L 223.835511 313.4 
Q 223.835511 315.4 225.835511 315.4 
z
" style="fill: #ffffff; opacity: 0.8; stroke: #cccccc; stroke-linejoin: miter"/>
    </g>
    <g id="line2d_27">
     <path d="M 227.835511 305.820312 
L 237.835511 305.820312 
L 247.835511 305.820312 
" style="fill: none; stroke: #1f77b4; stroke-width: 1.5; stroke-linecap: square"/>
    </g>
    <g id="text_16">
     <!-- GBDT-Train (AUC = 0.995) -->
     <g transform="translate(255.835511 309.320312) scale(0.1 -0.1)">
      <defs>
       <path id="DejaVuSerif-Bold-47" d="M 4403 3200 
Q 4263 3819 3934 4095 
Q 3606 4372 3009 4372 
Q 2284 4372 1945 3880 
Q 1606 3388 1606 2328 
Q 1606 1278 1931 783 
Q 2256 288 2944 288 
Q 3206 288 3431 347 
Q 3656 406 3841 525 
L 3841 1806 
L 3278 1806 
L 3278 2181 
L 4959 2181 
L 4959 391 
Q 4434 147 3911 28 
Q 3388 -91 2841 -91 
Q 1641 -91 955 556 
Q 269 1203 269 2328 
Q 269 3456 955 4103 
Q 1641 4750 2841 4750 
Q 3341 4750 3825 4650 
Q 4309 4550 4800 4347 
L 4800 3200 
L 4403 3200 
z
" transform="scale(0.015625)"/>
       <path id="DejaVuSerif-Bold-42" d="M 300 0 
L 300 378 
L 897 378 
L 897 4288 
L 300 4288 
L 300 4666 
L 3066 4666 
Q 3919 4666 4347 4378 
Q 4775 4091 4775 3513 
Q 4775 3097 4479 2853 
Q 4184 2609 3603 2547 
Q 4306 2481 4681 2172 
Q 5056 1863 5056 1350 
Q 5056 656 4532 328 
Q 4009 0 2894 0 
L 300 0 
z
M 2100 2719 
L 2509 2719 
Q 3047 2719 3306 2914 
Q 3566 3109 3566 3513 
Q 3566 3919 3314 4103 
Q 3063 4288 2509 4288 
L 2100 4288 
L 2100 2719 
z
M 2100 378 
L 2547 378 
Q 3144 378 3431 615 
Q 3719 853 3719 1350 
Q 3719 1850 3428 2097 
Q 3138 2344 2547 2344 
L 2100 2344 
L 2100 378 
z
" transform="scale(0.015625)"/>
       <path id="DejaVuSerif-Bold-44" d="M 2100 378 
L 2534 378 
Q 3266 378 3605 847 
Q 3944 1316 3944 2338 
Q 3944 3353 3606 3820 
Q 3269 4288 2534 4288 
L 2100 4288 
L 2100 378 
z
M 300 0 
L 300 378 
L 897 378 
L 897 4288 
L 300 4288 
L 300 4666 
L 2694 4666 
Q 3950 4666 4615 4066 
Q 5281 3466 5281 2338 
Q 5281 1203 4614 601 
Q 3947 0 2694 0 
L 300 0 
z
" transform="scale(0.015625)"/>
       <path id="DejaVuSerif-Bold-54" d="M 1159 0 
L 1159 378 
L 1778 378 
L 1778 4238 
L 500 4238 
L 500 3500 
L 72 3500 
L 72 4666 
L 4697 4666 
L 4697 3500 
L 4275 3500 
L 4275 4238 
L 2988 4238 
L 2988 378 
L 3609 378 
L 3609 0 
L 1159 0 
z
" transform="scale(0.015625)"/>
       <path id="DejaVuSerif-Bold-2d" d="M 347 2138 
L 2309 2138 
L 2309 1294 
L 347 1294 
L 347 2138 
z
" transform="scale(0.015625)"/>
       <path id="DejaVuSerif-Bold-72" d="M 3438 3359 
L 3438 2369 
L 3084 2369 
Q 3066 2634 2941 2764 
Q 2816 2894 2578 2894 
Q 2216 2894 2006 2575 
Q 1797 2256 1797 1691 
L 1797 378 
L 2400 378 
L 2400 0 
L 219 0 
L 219 378 
L 691 378 
L 691 2944 
L 184 2944 
L 184 3322 
L 1797 3322 
L 1797 2731 
Q 1959 3078 2226 3245 
Q 2494 3413 2881 3413 
Q 2978 3413 3117 3398 
Q 3256 3384 3438 3359 
z
" transform="scale(0.015625)"/>
       <path id="DejaVuSerif-Bold-61" d="M 3525 2041 
L 3525 378 
L 4000 378 
L 4000 0 
L 2419 0 
L 2419 422 
Q 2200 159 1931 34 
Q 1663 -91 1319 -91 
Q 809 -91 536 182 
Q 263 456 263 966 
Q 263 1525 655 1803 
Q 1047 2081 1838 2081 
L 2419 2081 
L 2419 2278 
Q 2419 2681 2228 2873 
Q 2038 3066 1638 3066 
Q 1306 3066 1126 2930 
Q 947 2794 872 2484 
L 519 2484 
L 519 3200 
Q 816 3306 1134 3359 
Q 1453 3413 1806 3413 
Q 2697 3413 3111 3081 
Q 3525 2750 3525 2041 
z
M 2419 1044 
L 2419 1709 
L 2003 1709 
Q 1694 1709 1528 1540 
Q 1363 1372 1363 1056 
Q 1363 741 1483 584 
Q 1603 428 1850 428 
Q 2106 428 2262 597 
Q 2419 766 2419 1044 
z
" transform="scale(0.015625)"/>
       <path id="DejaVuSerif-Bold-69" d="M 588 4263 
Q 588 4516 763 4689 
Q 938 4863 1191 4863 
Q 1438 4863 1611 4689 
Q 1784 4516 1784 4263 
Q 1784 4016 1611 3842 
Q 1438 3669 1191 3669 
Q 938 3669 763 3841 
Q 588 4013 588 4263 
z
M 1797 378 
L 2272 378 
L 2272 0 
L 219 0 
L 219 378 
L 691 378 
L 691 2944 
L 219 2944 
L 219 3322 
L 1797 3322 
L 1797 378 
z
" transform="scale(0.015625)"/>
       <path id="DejaVuSerif-Bold-6e" d="M 219 0 
L 219 378 
L 691 378 
L 691 2944 
L 219 2944 
L 219 3322 
L 1797 3322 
L 1797 2853 
Q 1997 3150 2253 3281 
Q 2509 3413 2900 3413 
Q 3459 3413 3745 3083 
Q 4031 2753 4031 2113 
L 4031 378 
L 4506 378 
L 4506 0 
L 2522 0 
L 2522 378 
L 2925 378 
L 2925 2144 
Q 2925 2566 2817 2730 
Q 2709 2894 2444 2894 
Q 2109 2894 1953 2648 
Q 1797 2403 1797 1869 
L 1797 378 
L 2203 378 
L 2203 0 
L 219 0 
z
" transform="scale(0.015625)"/>
       <path id="DejaVuSerif-Bold-20" transform="scale(0.015625)"/>
       <path id="DejaVuSerif-Bold-28" d="M 2694 -997 
Q 1641 -606 1122 122 
Q 603 850 603 1931 
Q 603 3013 1115 3731 
Q 1628 4450 2694 4863 
L 2694 4488 
Q 2200 4188 1983 3598 
Q 1766 3009 1766 1931 
Q 1766 856 1983 267 
Q 2200 -322 2694 -622 
L 2694 -997 
z
" transform="scale(0.015625)"/>
       <path id="DejaVuSerif-Bold-41" d="M -50 0 
L -50 378 
L 331 378 
L 2088 4666 
L 2834 4666 
L 4594 378 
L 5038 378 
L 5038 0 
L 2853 0 
L 2853 378 
L 3309 378 
L 2925 1331 
L 1172 1331 
L 781 378 
L 1338 378 
L 1338 0 
L -50 0 
z
M 1325 1709 
L 2772 1709 
L 2053 3494 
L 1325 1709 
z
" transform="scale(0.015625)"/>
       <path id="DejaVuSerif-Bold-55" d="M 813 4288 
L 219 4288 
L 219 4666 
L 2619 4666 
L 2619 4288 
L 2022 4288 
L 2022 1953 
Q 2022 1081 2294 732 
Q 2566 384 3225 384 
Q 3869 384 4139 736 
Q 4409 1088 4409 1953 
L 4409 4288 
L 3816 4288 
L 3816 4666 
L 5441 4666 
L 5441 4288 
L 4844 4288 
L 4844 1888 
Q 4844 819 4381 364 
Q 3919 -91 2828 -91 
Q 1744 -91 1278 368 
Q 813 828 813 1894 
L 813 4288 
z
" transform="scale(0.015625)"/>
       <path id="DejaVuSerif-Bold-43" d="M 4769 1331 
Q 4584 609 4106 259 
Q 3628 -91 2822 -91 
Q 1641 -91 955 561 
Q 269 1213 269 2328 
Q 269 3447 955 4098 
Q 1641 4750 2822 4750 
Q 3238 4750 3688 4650 
Q 4138 4550 4641 4347 
L 4641 3200 
L 4244 3200 
Q 4122 3788 3800 4080 
Q 3478 4372 2950 4372 
Q 2269 4372 1937 3870 
Q 1606 3369 1606 2328 
Q 1606 1288 1937 788 
Q 2269 288 2956 288 
Q 3422 288 3717 547 
Q 4013 806 4147 1331 
L 4769 1331 
z
" transform="scale(0.015625)"/>
       <path id="DejaVuSerif-Bold-3d" d="M 678 1650 
L 4684 1650 
L 4684 941 
L 678 941 
L 678 1650 
z
M 678 3072 
L 4684 3072 
L 4684 2363 
L 678 2363 
L 678 3072 
z
" transform="scale(0.015625)"/>
       <path id="DejaVuSerif-Bold-39" d="M 2181 4384 
Q 1859 4384 1723 4111 
Q 1588 3838 1588 3163 
Q 1588 2488 1723 2214 
Q 1859 1941 2181 1941 
Q 2503 1941 2640 2214 
Q 2778 2488 2778 3163 
Q 2778 3838 2640 4111 
Q 2503 4384 2181 4384 
z
M 2878 1900 
Q 2672 1734 2420 1651 
Q 2169 1569 1875 1569 
Q 1163 1569 755 1986 
Q 347 2403 347 3138 
Q 347 3913 803 4331 
Q 1259 4750 2106 4750 
Q 3063 4750 3556 4172 
Q 4050 3594 4050 2478 
Q 4050 1206 3503 557 
Q 2956 -91 1881 -91 
Q 1600 -91 1278 -44 
Q 956 3 588 97 
L 588 922 
L 966 922 
Q 1044 603 1261 439 
Q 1478 275 1825 275 
Q 2375 275 2625 658 
Q 2875 1041 2878 1900 
z
" transform="scale(0.015625)"/>
       <path id="DejaVuSerif-Bold-35" d="M 3609 4666 
L 3609 3847 
L 1113 3847 
L 1113 2822 
Q 1319 2981 1572 3062 
Q 1825 3144 2106 3144 
Q 2969 3144 3469 2708 
Q 3969 2272 3969 1522 
Q 3969 759 3469 334 
Q 2969 -91 2069 -91 
Q 1688 -91 1311 -28 
Q 934 34 525 166 
L 525 1184 
L 900 1184 
Q 919 725 1139 500 
Q 1359 275 1791 275 
Q 2250 275 2472 583 
Q 2694 891 2694 1522 
Q 2694 2144 2476 2451 
Q 2259 2759 1819 2759 
Q 1581 2759 1395 2661 
Q 1209 2563 1050 2356 
L 738 2356 
L 738 4666 
L 3609 4666 
z
" transform="scale(0.015625)"/>
       <path id="DejaVuSerif-Bold-29" d="M 325 -997 
L 325 -622 
Q 819 -322 1036 267 
Q 1253 856 1253 1931 
Q 1253 3009 1036 3598 
Q 819 4188 325 4488 
L 325 4863 
Q 1391 4450 1905 3731 
Q 2419 3013 2419 1931 
Q 2419 850 1898 122 
Q 1378 -606 325 -997 
z
" transform="scale(0.015625)"/>
      </defs>
      <use xlink:href="#DejaVuSerif-Bold-47"/>
      <use xlink:href="#DejaVuSerif-Bold-42" x="85.400391"/>
      <use xlink:href="#DejaVuSerif-Bold-44" x="169.921875"/>
      <use xlink:href="#DejaVuSerif-Bold-54" x="256.640625"/>
      <use xlink:href="#DejaVuSerif-Bold-2d" x="314.554688"/>
      <use xlink:href="#DejaVuSerif-Bold-54" x="339.558594"/>
      <use xlink:href="#DejaVuSerif-Bold-72" x="406.722656"/>
      <use xlink:href="#DejaVuSerif-Bold-61" x="459.408203"/>
      <use xlink:href="#DejaVuSerif-Bold-69" x="524.203125"/>
      <use xlink:href="#DejaVuSerif-Bold-6e" x="562.191406"/>
      <use xlink:href="#DejaVuSerif-Bold-20" x="634.896484"/>
      <use xlink:href="#DejaVuSerif-Bold-28" x="669.710938"/>
      <use xlink:href="#DejaVuSerif-Bold-41" x="717.025391"/>
      <use xlink:href="#DejaVuSerif-Bold-55" x="794.613281"/>
      <use xlink:href="#DejaVuSerif-Bold-43" x="881.820312"/>
      <use xlink:href="#DejaVuSerif-Bold-20" x="961.410156"/>
      <use xlink:href="#DejaVuSerif-Bold-3d" x="996.224609"/>
      <use xlink:href="#DejaVuSerif-Bold-20" x="1080.013672"/>
      <use xlink:href="#DejaVuSerif-Bold-30" x="1114.828125"/>
      <use xlink:href="#DejaVuSerif-Bold-2e" x="1184.408203"/>
      <use xlink:href="#DejaVuSerif-Bold-39" x="1219.222656"/>
      <use xlink:href="#DejaVuSerif-Bold-39" x="1288.802734"/>
      <use xlink:href="#DejaVuSerif-Bold-35" x="1358.382812"/>
      <use xlink:href="#DejaVuSerif-Bold-29" x="1427.962891"/>
     </g>
    </g>
   </g>
  </g>
  <g id="axes_2">
   <g id="patch_8">
    <path d="M 473.236364 320.4 
L 777.6 320.4 
L 777.6 43.2 
L 473.236364 43.2 
z
" style="fill: #ffffff"/>
   </g>
   <g id="matplotlib.axis_3">
    <g id="xtick_7">
     <g id="line2d_28">
      <path d="M 487.071074 320.4 
L 487.071074 43.2 
" clip-path="url(#pb481fa990b)" style="fill: none; stroke-dasharray: 2.96,1.28; stroke-dashoffset: 0; stroke: #b0b0b0; stroke-width: 0.8"/>
     </g>
     <g id="line2d_29">
      <g>
       <use xlink:href="#md98eb123ca" x="487.071074" y="320.4" style="stroke: #000000; stroke-width: 0.8"/>
      </g>
     </g>
     <g id="text_17">
      <!-- 0.0 -->
      <g transform="translate(478.372637 334.998438) scale(0.1 -0.1)">
       <use xlink:href="#DejaVuSerif-Bold-30"/>
       <use xlink:href="#DejaVuSerif-Bold-2e" x="69.580078"/>
       <use xlink:href="#DejaVuSerif-Bold-30" x="104.394531"/>
      </g>
     </g>
    </g>
    <g id="xtick_8">
     <g id="line2d_30">
      <path d="M 542.409917 320.4 
L 542.409917 43.2 
" clip-path="url(#pb481fa990b)" style="fill: none; stroke-dasharray: 2.96,1.28; stroke-dashoffset: 0; stroke: #b0b0b0; stroke-width: 0.8"/>
     </g>
     <g id="line2d_31">
      <g>
       <use xlink:href="#md98eb123ca" x="542.409917" y="320.4" style="stroke: #000000; stroke-width: 0.8"/>
      </g>
     </g>
     <g id="text_18">
      <!-- 0.2 -->
      <g transform="translate(533.71148 334.998438) scale(0.1 -0.1)">
       <use xlink:href="#DejaVuSerif-Bold-30"/>
       <use xlink:href="#DejaVuSerif-Bold-2e" x="69.580078"/>
       <use xlink:href="#DejaVuSerif-Bold-32" x="104.394531"/>
      </g>
     </g>
    </g>
    <g id="xtick_9">
     <g id="line2d_32">
      <path d="M 597.74876 320.4 
L 597.74876 43.2 
" clip-path="url(#pb481fa990b)" style="fill: none; stroke-dasharray: 2.96,1.28; stroke-dashoffset: 0; stroke: #b0b0b0; stroke-width: 0.8"/>
     </g>
     <g id="line2d_33">
      <g>
       <use xlink:href="#md98eb123ca" x="597.74876" y="320.4" style="stroke: #000000; stroke-width: 0.8"/>
      </g>
     </g>
     <g id="text_19">
      <!-- 0.4 -->
      <g transform="translate(589.050323 334.998438) scale(0.1 -0.1)">
       <use xlink:href="#DejaVuSerif-Bold-30"/>
       <use xlink:href="#DejaVuSerif-Bold-2e" x="69.580078"/>
       <use xlink:href="#DejaVuSerif-Bold-34" x="104.394531"/>
      </g>
     </g>
    </g>
    <g id="xtick_10">
     <g id="line2d_34">
      <path d="M 653.087603 320.4 
L 653.087603 43.2 
" clip-path="url(#pb481fa990b)" style="fill: none; stroke-dasharray: 2.96,1.28; stroke-dashoffset: 0; stroke: #b0b0b0; stroke-width: 0.8"/>
     </g>
     <g id="line2d_35">
      <g>
       <use xlink:href="#md98eb123ca" x="653.087603" y="320.4" style="stroke: #000000; stroke-width: 0.8"/>
      </g>
     </g>
     <g id="text_20">
      <!-- 0.6 -->
      <g transform="translate(644.389166 334.998438) scale(0.1 -0.1)">
       <use xlink:href="#DejaVuSerif-Bold-30"/>
       <use xlink:href="#DejaVuSerif-Bold-2e" x="69.580078"/>
       <use xlink:href="#DejaVuSerif-Bold-36" x="104.394531"/>
      </g>
     </g>
    </g>
    <g id="xtick_11">
     <g id="line2d_36">
      <path d="M 708.426446 320.4 
L 708.426446 43.2 
" clip-path="url(#pb481fa990b)" style="fill: none; stroke-dasharray: 2.96,1.28; stroke-dashoffset: 0; stroke: #b0b0b0; stroke-width: 0.8"/>
     </g>
     <g id="line2d_37">
      <g>
       <use xlink:href="#md98eb123ca" x="708.426446" y="320.4" style="stroke: #000000; stroke-width: 0.8"/>
      </g>
     </g>
     <g id="text_21">
      <!-- 0.8 -->
      <g transform="translate(699.728009 334.998438) scale(0.1 -0.1)">
       <use xlink:href="#DejaVuSerif-Bold-30"/>
       <use xlink:href="#DejaVuSerif-Bold-2e" x="69.580078"/>
       <use xlink:href="#DejaVuSerif-Bold-38" x="104.394531"/>
      </g>
     </g>
    </g>
    <g id="xtick_12">
     <g id="line2d_38">
      <path d="M 763.765289 320.4 
L 763.765289 43.2 
" clip-path="url(#pb481fa990b)" style="fill: none; stroke-dasharray: 2.96,1.28; stroke-dashoffset: 0; stroke: #b0b0b0; stroke-width: 0.8"/>
     </g>
     <g id="line2d_39">
      <g>
       <use xlink:href="#md98eb123ca" x="763.765289" y="320.4" style="stroke: #000000; stroke-width: 0.8"/>
      </g>
     </g>
     <g id="text_22">
      <!-- 1.0 -->
      <g transform="translate(755.066852 334.998438) scale(0.1 -0.1)">
       <use xlink:href="#DejaVuSerif-Bold-31"/>
       <use xlink:href="#DejaVuSerif-Bold-2e" x="69.580078"/>
       <use xlink:href="#DejaVuSerif-Bold-30" x="104.394531"/>
      </g>
     </g>
    </g>
    <g id="text_23">
     <!-- False Positive Rate -->
     <g transform="translate(577.443182 348.676562) scale(0.1 -0.1)">
      <use xlink:href="#DejaVuSerif-46"/>
      <use xlink:href="#DejaVuSerif-61" x="62.634766"/>
      <use xlink:href="#DejaVuSerif-6c" x="122.253906"/>
      <use xlink:href="#DejaVuSerif-73" x="154.236328"/>
      <use xlink:href="#DejaVuSerif-65" x="205.554688"/>
      <use xlink:href="#DejaVuSerif-20" x="264.734375"/>
      <use xlink:href="#DejaVuSerif-50" x="296.521484"/>
      <use xlink:href="#DejaVuSerif-6f" x="359.806641"/>
      <use xlink:href="#DejaVuSerif-73" x="420.011719"/>
      <use xlink:href="#DejaVuSerif-69" x="471.330078"/>
      <use xlink:href="#DejaVuSerif-74" x="503.3125"/>
      <use xlink:href="#DejaVuSerif-69" x="543.498047"/>
      <use xlink:href="#DejaVuSerif-76" x="575.480469"/>
      <use xlink:href="#DejaVuSerif-65" x="631.974609"/>
      <use xlink:href="#DejaVuSerif-20" x="691.154297"/>
      <use xlink:href="#DejaVuSerif-52" x="722.941406"/>
      <use xlink:href="#DejaVuSerif-61" x="800.484375"/>
      <use xlink:href="#DejaVuSerif-74" x="860.103516"/>
      <use xlink:href="#DejaVuSerif-65" x="900.289062"/>
     </g>
    </g>
   </g>
   <g id="matplotlib.axis_4">
    <g id="ytick_7">
     <g id="line2d_40">
      <path d="M 473.236364 307.8 
L 777.6 307.8 
" clip-path="url(#pb481fa990b)" style="fill: none; stroke-dasharray: 2.96,1.28; stroke-dashoffset: 0; stroke: #b0b0b0; stroke-width: 0.8"/>
     </g>
     <g id="line2d_41">
      <g>
       <use xlink:href="#m8ac6c090c9" x="473.236364" y="307.8" style="stroke: #000000; stroke-width: 0.8"/>
      </g>
     </g>
     <g id="text_24">
      <!-- 0.0 -->
      <g transform="translate(448.839489 311.599219) scale(0.1 -0.1)">
       <use xlink:href="#DejaVuSerif-Bold-30"/>
       <use xlink:href="#DejaVuSerif-Bold-2e" x="69.580078"/>
       <use xlink:href="#DejaVuSerif-Bold-30" x="104.394531"/>
      </g>
     </g>
    </g>
    <g id="ytick_8">
     <g id="line2d_42">
      <path d="M 473.236364 257.4 
L 777.6 257.4 
" clip-path="url(#pb481fa990b)" style="fill: none; stroke-dasharray: 2.96,1.28; stroke-dashoffset: 0; stroke: #b0b0b0; stroke-width: 0.8"/>
     </g>
     <g id="line2d_43">
      <g>
       <use xlink:href="#m8ac6c090c9" x="473.236364" y="257.4" style="stroke: #000000; stroke-width: 0.8"/>
      </g>
     </g>
     <g id="text_25">
      <!-- 0.2 -->
      <g transform="translate(448.839489 261.199219) scale(0.1 -0.1)">
       <use xlink:href="#DejaVuSerif-Bold-30"/>
       <use xlink:href="#DejaVuSerif-Bold-2e" x="69.580078"/>
       <use xlink:href="#DejaVuSerif-Bold-32" x="104.394531"/>
      </g>
     </g>
    </g>
    <g id="ytick_9">
     <g id="line2d_44">
      <path d="M 473.236364 207 
L 777.6 207 
" clip-path="url(#pb481fa990b)" style="fill: none; stroke-dasharray: 2.96,1.28; stroke-dashoffset: 0; stroke: #b0b0b0; stroke-width: 0.8"/>
     </g>
     <g id="line2d_45">
      <g>
       <use xlink:href="#m8ac6c090c9" x="473.236364" y="207" style="stroke: #000000; stroke-width: 0.8"/>
      </g>
     </g>
     <g id="text_26">
      <!-- 0.4 -->
      <g transform="translate(448.839489 210.799219) scale(0.1 -0.1)">
       <use xlink:href="#DejaVuSerif-Bold-30"/>
       <use xlink:href="#DejaVuSerif-Bold-2e" x="69.580078"/>
       <use xlink:href="#DejaVuSerif-Bold-34" x="104.394531"/>
      </g>
     </g>
    </g>
    <g id="ytick_10">
     <g id="line2d_46">
      <path d="M 473.236364 156.6 
L 777.6 156.6 
" clip-path="url(#pb481fa990b)" style="fill: none; stroke-dasharray: 2.96,1.28; stroke-dashoffset: 0; stroke: #b0b0b0; stroke-width: 0.8"/>
     </g>
     <g id="line2d_47">
      <g>
       <use xlink:href="#m8ac6c090c9" x="473.236364" y="156.6" style="stroke: #000000; stroke-width: 0.8"/>
      </g>
     </g>
     <g id="text_27">
      <!-- 0.6 -->
      <g transform="translate(448.839489 160.399219) scale(0.1 -0.1)">
       <use xlink:href="#DejaVuSerif-Bold-30"/>
       <use xlink:href="#DejaVuSerif-Bold-2e" x="69.580078"/>
       <use xlink:href="#DejaVuSerif-Bold-36" x="104.394531"/>
      </g>
     </g>
    </g>
    <g id="ytick_11">
     <g id="line2d_48">
      <path d="M 473.236364 106.2 
L 777.6 106.2 
" clip-path="url(#pb481fa990b)" style="fill: none; stroke-dasharray: 2.96,1.28; stroke-dashoffset: 0; stroke: #b0b0b0; stroke-width: 0.8"/>
     </g>
     <g id="line2d_49">
      <g>
       <use xlink:href="#m8ac6c090c9" x="473.236364" y="106.2" style="stroke: #000000; stroke-width: 0.8"/>
      </g>
     </g>
     <g id="text_28">
      <!-- 0.8 -->
      <g transform="translate(448.839489 109.999219) scale(0.1 -0.1)">
       <use xlink:href="#DejaVuSerif-Bold-30"/>
       <use xlink:href="#DejaVuSerif-Bold-2e" x="69.580078"/>
       <use xlink:href="#DejaVuSerif-Bold-38" x="104.394531"/>
      </g>
     </g>
    </g>
    <g id="ytick_12">
     <g id="line2d_50">
      <path d="M 473.236364 55.8 
L 777.6 55.8 
" clip-path="url(#pb481fa990b)" style="fill: none; stroke-dasharray: 2.96,1.28; stroke-dashoffset: 0; stroke: #b0b0b0; stroke-width: 0.8"/>
     </g>
     <g id="line2d_51">
      <g>
       <use xlink:href="#m8ac6c090c9" x="473.236364" y="55.8" style="stroke: #000000; stroke-width: 0.8"/>
      </g>
     </g>
     <g id="text_29">
      <!-- 1.0 -->
      <g transform="translate(448.839489 59.599219) scale(0.1 -0.1)">
       <use xlink:href="#DejaVuSerif-Bold-31"/>
       <use xlink:href="#DejaVuSerif-Bold-2e" x="69.580078"/>
       <use xlink:href="#DejaVuSerif-Bold-30" x="104.394531"/>
      </g>
     </g>
    </g>
    <g id="text_30">
     <!-- True Positive Rate -->
     <g transform="translate(442.759801 228.442187) rotate(-90) scale(0.1 -0.1)">
      <use xlink:href="#DejaVuSerif-54"/>
      <use xlink:href="#DejaVuSerif-72" x="66.699219"/>
      <use xlink:href="#DejaVuSerif-75" x="114.501953"/>
      <use xlink:href="#DejaVuSerif-65" x="178.90625"/>
      <use xlink:href="#DejaVuSerif-20" x="238.085938"/>
      <use xlink:href="#DejaVuSerif-50" x="269.873047"/>
      <use xlink:href="#DejaVuSerif-6f" x="333.158203"/>
      <use xlink:href="#DejaVuSerif-73" x="393.363281"/>
      <use xlink:href="#DejaVuSerif-69" x="444.681641"/>
      <use xlink:href="#DejaVuSerif-74" x="476.664062"/>
      <use xlink:href="#DejaVuSerif-69" x="516.849609"/>
      <use xlink:href="#DejaVuSerif-76" x="548.832031"/>
      <use xlink:href="#DejaVuSerif-65" x="605.326172"/>
      <use xlink:href="#DejaVuSerif-20" x="664.505859"/>
      <use xlink:href="#DejaVuSerif-52" x="696.292969"/>
      <use xlink:href="#DejaVuSerif-61" x="773.835938"/>
      <use xlink:href="#DejaVuSerif-74" x="833.455078"/>
      <use xlink:href="#DejaVuSerif-65" x="873.640625"/>
     </g>
    </g>
   </g>
   <g id="line2d_52">
    <path d="M 487.071074 307.8 
L 487.071074 302.953846 
L 487.071074 278.723077 
L 487.071074 269.030769 
L 487.071074 176.953846 
L 487.071074 167.261538 
L 491.533884 167.261538 
L 491.533884 152.723077 
L 500.459504 152.723077 
L 500.459504 143.030769 
L 509.385124 143.030769 
L 509.385124 113.953846 
L 522.773554 113.953846 
L 527.236364 109.107692 
L 540.624793 109.107692 
L 545.087603 104.261538 
L 545.087603 94.569231 
L 549.550413 94.569231 
L 549.550413 89.723077 
L 558.476033 89.723077 
L 558.476033 84.876923 
L 571.864463 84.876923 
L 571.864463 80.030769 
L 576.327273 80.030769 
L 576.327273 75.184615 
L 585.252893 75.184615 
L 594.178512 75.184615 
L 594.178512 70.338462 
L 616.492562 70.338462 
L 616.492562 65.492308 
L 625.418182 65.492308 
L 634.343802 65.492308 
L 652.195041 65.492308 
L 652.195041 60.646154 
L 710.21157 60.646154 
L 710.21157 55.8 
L 719.13719 55.8 
L 745.91405 55.8 
L 763.765289 55.8 
" clip-path="url(#pb481fa990b)" style="fill: none; stroke: #1f77b4; stroke-width: 1.5; stroke-linecap: square"/>
   </g>
   <g id="line2d_53">
    <path d="M 487.071074 307.8 
L 763.765289 55.8 
" clip-path="url(#pb481fa990b)" style="fill: none; stroke-dasharray: 5.55,2.4; stroke-dashoffset: 0; stroke: #000000; stroke-width: 1.5"/>
   </g>
   <g id="patch_9">
    <path d="M 473.236364 320.4 
L 473.236364 43.2 
" style="fill: none; stroke: #000000; stroke-width: 1.5; stroke-linejoin: miter; stroke-linecap: square"/>
   </g>
   <g id="patch_10">
    <path d="M 777.6 320.4 
L 777.6 43.2 
" style="fill: none; stroke: #000000; stroke-width: 1.5; stroke-linejoin: miter; stroke-linecap: square"/>
   </g>
   <g id="patch_11">
    <path d="M 473.236364 320.4 
L 777.6 320.4 
" style="fill: none; stroke: #000000; stroke-width: 1.5; stroke-linejoin: miter; stroke-linecap: square"/>
   </g>
   <g id="patch_12">
    <path d="M 473.236364 43.2 
L 777.6 43.2 
" style="fill: none; stroke: #000000; stroke-width: 1.5; stroke-linejoin: miter; stroke-linecap: square"/>
   </g>
   <g id="text_31">
    <!-- Receiver Operating Characteristic -->
    <g transform="translate(520.747244 37.2) scale(0.12 -0.12)">
     <use xlink:href="#DejaVuSerif-52"/>
     <use xlink:href="#DejaVuSerif-65" x="75.292969"/>
     <use xlink:href="#DejaVuSerif-63" x="134.472656"/>
     <use xlink:href="#DejaVuSerif-65" x="190.478516"/>
     <use xlink:href="#DejaVuSerif-69" x="249.658203"/>
     <use xlink:href="#DejaVuSerif-76" x="281.640625"/>
     <use xlink:href="#DejaVuSerif-65" x="338.134766"/>
     <use xlink:href="#DejaVuSerif-72" x="397.314453"/>
     <use xlink:href="#DejaVuSerif-20" x="445.117188"/>
     <use xlink:href="#DejaVuSerif-4f" x="476.904297"/>
     <use xlink:href="#DejaVuSerif-70" x="558.886719"/>
     <use xlink:href="#DejaVuSerif-65" x="622.900391"/>
     <use xlink:href="#DejaVuSerif-72" x="682.080078"/>
     <use xlink:href="#DejaVuSerif-61" x="729.882812"/>
     <use xlink:href="#DejaVuSerif-74" x="789.501953"/>
     <use xlink:href="#DejaVuSerif-69" x="829.6875"/>
     <use xlink:href="#DejaVuSerif-6e" x="861.669922"/>
     <use xlink:href="#DejaVuSerif-67" x="926.074219"/>
     <use xlink:href="#DejaVuSerif-20" x="990.087891"/>
     <use xlink:href="#DejaVuSerif-43" x="1021.875"/>
     <use xlink:href="#DejaVuSerif-68" x="1098.388672"/>
     <use xlink:href="#DejaVuSerif-61" x="1162.792969"/>
     <use xlink:href="#DejaVuSerif-72" x="1222.412109"/>
     <use xlink:href="#DejaVuSerif-61" x="1270.214844"/>
     <use xlink:href="#DejaVuSerif-63" x="1329.833984"/>
     <use xlink:href="#DejaVuSerif-74" x="1385.839844"/>
     <use xlink:href="#DejaVuSerif-65" x="1426.025391"/>
     <use xlink:href="#DejaVuSerif-72" x="1485.205078"/>
     <use xlink:href="#DejaVuSerif-69" x="1533.007812"/>
     <use xlink:href="#DejaVuSerif-73" x="1564.990234"/>
     <use xlink:href="#DejaVuSerif-74" x="1616.308594"/>
     <use xlink:href="#DejaVuSerif-69" x="1656.494141"/>
     <use xlink:href="#DejaVuSerif-63" x="1688.476562"/>
    </g>
   </g>
   <g id="legend_2">
    <g id="patch_13">
     <path d="M 597.703125 315.4 
L 770.6 315.4 
Q 772.6 315.4 772.6 313.4 
L 772.6 299.721875 
Q 772.6 297.721875 770.6 297.721875 
L 597.703125 297.721875 
Q 595.703125 297.721875 595.703125 299.721875 
L 595.703125 313.4 
Q 595.703125 315.4 597.703125 315.4 
z
" style="fill: #ffffff; opacity: 0.8; stroke: #cccccc; stroke-linejoin: miter"/>
    </g>
    <g id="line2d_54">
     <path d="M 599.703125 305.820312 
L 609.703125 305.820312 
L 619.703125 305.820312 
" style="fill: none; stroke: #1f77b4; stroke-width: 1.5; stroke-linecap: square"/>
    </g>
    <g id="text_32">
     <!-- GBDT-Test (AUC = 0.908) -->
     <g transform="translate(627.703125 309.320312) scale(0.1 -0.1)">
      <defs>
       <path id="DejaVuSerif-Bold-65" d="M 2566 1875 
Q 2566 2531 2444 2795 
Q 2322 3059 2028 3059 
Q 1744 3059 1620 2800 
Q 1497 2541 1497 1931 
L 1497 1875 
L 2566 1875 
z
M 3781 1503 
L 1497 1503 
L 1497 1478 
Q 1497 834 1690 548 
Q 1884 263 2316 263 
Q 2675 263 2897 453 
Q 3119 644 3181 1006 
L 3700 1006 
Q 3566 441 3166 175 
Q 2766 -91 2047 -91 
Q 1184 -91 723 364 
Q 263 819 263 1663 
Q 263 2488 734 2950 
Q 1206 3413 2047 3413 
Q 2872 3413 3312 2927 
Q 3753 2441 3781 1503 
z
" transform="scale(0.015625)"/>
       <path id="DejaVuSerif-Bold-73" d="M 300 97 
L 300 1025 
L 653 1025 
Q 697 653 931 458 
Q 1166 263 1569 263 
Q 1906 263 2086 380 
Q 2266 497 2266 716 
Q 2266 916 2152 1025 
Q 2038 1134 1709 1216 
L 1253 1331 
Q 738 1459 506 1698 
Q 275 1938 275 2344 
Q 275 2884 650 3148 
Q 1025 3413 1806 3413 
Q 2100 3413 2433 3364 
Q 2766 3316 3169 3213 
L 3169 2375 
L 2816 2375 
Q 2788 2716 2573 2887 
Q 2359 3059 1959 3059 
Q 1622 3059 1448 2951 
Q 1275 2844 1275 2638 
Q 1275 2469 1375 2372 
Q 1475 2275 1734 2209 
L 2188 2094 
Q 2841 1928 3091 1684 
Q 3341 1441 3341 1006 
Q 3341 444 2939 176 
Q 2538 -91 1691 -91 
Q 1381 -91 1034 -44 
Q 688 3 300 97 
z
" transform="scale(0.015625)"/>
       <path id="DejaVuSerif-Bold-74" d="M 634 2944 
L 153 2944 
L 153 3322 
L 634 3322 
L 634 4353 
L 1741 4353 
L 1741 3322 
L 2663 3322 
L 2663 2944 
L 1741 2944 
L 1741 909 
Q 1741 475 1809 369 
Q 1878 263 2059 263 
Q 2259 263 2356 397 
Q 2453 531 2459 813 
L 2925 813 
Q 2897 313 2651 111 
Q 2406 -91 1806 -91 
Q 1122 -91 878 123 
Q 634 338 634 909 
L 634 2944 
z
" transform="scale(0.015625)"/>
      </defs>
      <use xlink:href="#DejaVuSerif-Bold-47"/>
      <use xlink:href="#DejaVuSerif-Bold-42" x="85.400391"/>
      <use xlink:href="#DejaVuSerif-Bold-44" x="169.921875"/>
      <use xlink:href="#DejaVuSerif-Bold-54" x="256.640625"/>
      <use xlink:href="#DejaVuSerif-Bold-2d" x="314.554688"/>
      <use xlink:href="#DejaVuSerif-Bold-54" x="339.558594"/>
      <use xlink:href="#DejaVuSerif-Bold-65" x="402.472656"/>
      <use xlink:href="#DejaVuSerif-Bold-73" x="466.095703"/>
      <use xlink:href="#DejaVuSerif-Bold-74" x="522.394531"/>
      <use xlink:href="#DejaVuSerif-Bold-20" x="568.585938"/>
      <use xlink:href="#DejaVuSerif-Bold-28" x="603.400391"/>
      <use xlink:href="#DejaVuSerif-Bold-41" x="650.714844"/>
      <use xlink:href="#DejaVuSerif-Bold-55" x="728.302734"/>
      <use xlink:href="#DejaVuSerif-Bold-43" x="815.509766"/>
      <use xlink:href="#DejaVuSerif-Bold-20" x="895.099609"/>
      <use xlink:href="#DejaVuSerif-Bold-3d" x="929.914062"/>
      <use xlink:href="#DejaVuSerif-Bold-20" x="1013.703125"/>
      <use xlink:href="#DejaVuSerif-Bold-30" x="1048.517578"/>
      <use xlink:href="#DejaVuSerif-Bold-2e" x="1118.097656"/>
      <use xlink:href="#DejaVuSerif-Bold-39" x="1152.912109"/>
      <use xlink:href="#DejaVuSerif-Bold-30" x="1222.492188"/>
      <use xlink:href="#DejaVuSerif-Bold-38" x="1292.072266"/>
      <use xlink:href="#DejaVuSerif-Bold-29" x="1361.652344"/>
     </g>
    </g>
   </g>
  </g>
 </g>
 <defs>
  <clipPath id="pd414139403">
   <rect x="108" y="43.2" width="304.363636" height="277.2"/>
  </clipPath>
  <clipPath id="pb481fa990b">
   <rect x="473.236364" y="43.2" width="304.363636" height="277.2"/>
  </clipPath>
 </defs>
</svg>
